<?xml version="1.0" encoding="utf-8"?>
<!-- Generator: Adobe Illustrator 23.0.4, SVG Export Plug-In . SVG Version: 6.00 Build 0)  -->
<svg version="1.1" xmlns="http://www.w3.org/2000/svg" xmlns:xlink="http://www.w3.org/1999/xlink" x="0px" y="0px"
	 viewBox="0 0 1963 1859" style="enable-background:new 0 0 1963 1859;" xml:space="preserve">
<style type="text/css">
	.st0{display:none;}
	.st1{fill:#1F1646;}
	.st2{fill:#2C3439;}
	.st3{fill:#3A474E;}
	.st4{fill:#9E3223;}
	.st5{fill:#000B8C;}
	.st6{fill:#5E7775;}
	.st7{fill:#FFFFFF;}
	.st8{fill:#FF9D6C;}
	.st9{fill:#F0EA9B;}
	.st10{fill:none;stroke:#1F1646;stroke-width:4;stroke-linecap:round;stroke-miterlimit:10;}
	.st11{fill:none;stroke:#000000;stroke-width:3;stroke-miterlimit:10;}
	.st12{fill:#065187;}
	.st13{fill:#1B1464;}
	.st14{fill:#291918;}
	.st15{fill:#160D0D;}
	.st16{fill:#3C0458;}
	.st17{fill:#24338A;}
	.st18{fill:#211B5A;}
	.st19{fill:#1B2668;}
	.st20{fill:#1B0300;}
	.st21{fill:#29388D;}
	.st22{fill:#AFB1B4;}
	.st23{opacity:0.57;fill:#B0B1B4;}
	.st24{fill:none;stroke:#000000;stroke-width:2;stroke-miterlimit:10;}
</style>
<g id="Layer_1" class="st0">
</g>
<g id="Layer_2">
	<g>
		<g>
			<path class="st9" d="M662.44,608.11c-12.84,25.69-30.31,49.26-46.18,73.1c-20.49,30.79-40.92,61.81-58.04,94.64
				c-10.21,19.59-19.49,40.02-26.43,61c-2.24,6.77-4.12,13.68-5.3,20.71c-1.92,11.49-4.28,23.79-3.64,35.61
				c1.55,28.87,10.88,55.69,31.73,76.46c17.02,16.96,40.31,28.9,64.07,32.51c14.74,2.23,28.94,4.04,43.79,3.49
				c9.35-0.34,18.68-1.27,27.96-2.42c26.12-3.24,52.05-7.63,78.13-11.16c-6.22,0.84-12.44,1.67-18.66,2.51
				c20.63-2.76,41.79-5.07,62.55-2.35c-6.22-0.84-12.44-1.67-18.66-2.51c7.12,1,14.11,2.64,20.76,5.4
				c-5.59-2.36-11.18-4.72-16.77-7.08c4.37,1.88,8.47,4.21,12.24,7.11c-4.74-3.66-9.47-7.32-14.21-10.98
				c5.19,4.12,9.58,9.19,13.62,14.41c-3.66-4.74-7.32-9.47-10.98-14.21c5.02,6.69,9.17,13.88,12.52,21.54
				c-2.36-5.59-4.72-11.18-7.08-16.77c4.65,11.06,7.44,22.66,9.05,34.53c-0.84-6.22-1.67-12.44-2.51-18.66
				c4.66,36.59-1.81,73.37,1.17,110.01c1.9,23.4,5.48,47.02,12.02,69.61c6.67,23.04,16.07,45.5,26.66,66.98
				c8.42,17.08,18.31,33.42,29.44,48.86c14.51,20.12,30.05,39.7,47.62,57.26c17.45,17.45,36.92,32.94,56.98,47.25
				c16.49,11.76,34.08,21.95,52.54,30.3c23.79,10.76,48.04,20.4,73.51,26.35c24.58,5.74,50.1,9.23,75.33,10.06
				c24.77,0.81,49.73-2.01,74.05-6.53c23.54-4.37,45.62-12.91,67.33-22.93c20.93-9.66,39.91-23.51,57.14-38.71
				c6.48-5.72,12.52-11.95,18.04-18.61c8.99-10.83,17.87-22.12,25.27-34.15c12.04-19.54,21.25-41.46,27.67-63.46
				c2.51-8.61,4.46-17.39,5.85-26.25c2.31-14.7,4.44-29.61,5.01-44.52c0.93-24.29-2.13-48.94-6.76-72.72
				c-4.86-24.98-14.12-48.42-24.54-71.57c-17-37.79-42.32-71.14-62.16-107.4c-4.78-8.73-9.22-17.63-13.13-26.78
				c2.36,5.59,4.72,11.18,7.08,16.77c-5.04-12.03-9.04-24.46-10.85-37.41c0.84,6.22,1.67,12.44,2.51,18.66
				c-1.03-8.11-1.13-16.22-0.05-24.34c-0.84,6.22-1.67,12.44-2.51,18.66c0.96-6.35,2.6-12.46,5-18.42
				c-2.36,5.59-4.72,11.18-7.08,16.77c3.43-8.03,8.03-15.34,13.35-22.25c-3.66,4.74-7.32,9.47-10.98,14.21
				c9.68-12.29,21.04-23.19,31.98-34.34c12.49-12.73,24.98-25.46,37.47-38.19c24.98-25.46,49.96-50.93,74.93-76.39
				c21.79-22.21,44.57-43.87,64.22-68.04c12.51-15.39,25.04-31.24,34.49-48.77c9.22-17.1,17.41-35.81,21.56-54.9
				c3.65-16.78,5.97-34.63,5.02-51.88c-0.98-17.72-3.42-36.03-8.86-53.02c-3.59-11.21-8.36-22.12-13.35-32.76
				c-2.55-5.45-5.48-10.72-8.77-15.75c-9.83-15.03-21.42-30.07-35.5-41.46c-9.7-7.85-19.63-15.92-30.58-22.03
				c-11.04-6.16-22.99-11.1-34.92-15.18c-6.53-2.24-13.24-3.8-20.07-4.82c-12.34-1.85-24.85-3.89-37.38-3.67
				c-18.98,0.32-38.65,3.18-56.81,8.9c-11.68,3.68-23.06,8.72-34.17,13.75c-6.07,2.75-11.98,5.87-17.68,9.34
				c-27.42,16.68-49.88,38.65-70.26,63.11c-17.18,20.62-33.43,42.21-53.03,60.65c-4.84,4.55-9.88,8.86-15.12,12.93
				c4.74-3.66,9.47-7.32,14.21-10.98c-10.35,7.88-21.47,14.55-33.46,19.61c5.59-2.36,11.18-4.72,16.77-7.08
				c-11.7,4.78-23.9,7.88-36.42,9.57c6.22-0.84,12.44-1.67,18.66-2.51c-15.31,1.92-30.71,1.72-46.01-0.24
				c6.22,0.84,12.44,1.67,18.66,2.51c-17.73-2.43-34.97-7.2-51.49-14.05c5.59,2.36,11.18,4.72,16.77,7.08
				c-20.32-8.63-38.79-20.51-56.24-33.94c4.74,3.66,9.47,7.32,14.21,10.98c-13.91-10.79-27.16-22.37-40.44-33.91
				c-17.18-14.94-34.7-29.27-52.87-43.02c-13.98-10.58-28.72-20.12-44.56-27.67c-20.84-9.93-42.83-19.25-65.79-22.94
				c-13.68-2.2-27.85-4.41-41.8-4.32c-14.12,0.09-28.45,2.18-42.25,4.81c-8.22,1.56-16.28,3.91-24.08,6.94
				c-13.59,5.28-27.29,10.93-39.89,18.35c-23.55,13.84-45,30.83-60.05,53.86c-6.06,9.27-10.72,20.17-13.05,31.02
				c-1.79,8.33-2.93,17.05-3.43,25.58c-0.16,2.69-0.1,5.4,0.13,8.09c1.71,20.13,6,37.82,12.76,56.59
				c4.86,13.51,9.82,27.09,11.74,41.39c-0.84-6.22-1.67-12.44-2.51-18.66c0.8,6.57,0.9,13.13,0.02,19.7
				c0.84-6.22,1.67-12.44,2.51-18.66c-0.8,5.22-2.19,10.23-4.2,15.12c2.36-5.59,4.72-11.18,7.08-16.77
				C663.53,605.8,663,606.96,662.44,608.11c-5.13,8.06-7.91,16.76-8.33,26.1c-2.09,9.33-1.67,18.66,1.25,28
				c4.48,16.29,17.08,33.93,32.27,41.96c16.29,8.61,36.03,12.92,54.1,7.08c16.63-5.38,34.06-15.96,41.96-32.27
				c9.89-20.43,15.99-40.35,16.05-63.33c0.04-16.02-2.82-32.59-7.32-48c-5.59-19.12-14.79-37.43-17.52-57.31
				c0.84,6.22,1.67,12.44,2.51,18.66c-0.62-5.06-0.74-10.08-0.07-15.14c-0.84,6.22-1.67,12.44-2.51,18.66
				c0.57-3.68,1.55-7.2,2.97-10.64c-2.36,5.59-4.72,11.18-7.08,16.77c1.48-3.32,3.3-6.38,5.47-9.3c-3.66,4.74-7.32,9.47-10.98,14.21
				c3.52-4.51,7.65-8.28,12.15-11.79c-4.74,3.66-9.47,7.32-14.21,10.98c12.43-9.53,25.73-17.74,40.15-23.89
				c-5.59,2.36-11.18,4.72-16.77,7.08c11.15-4.61,22.69-7.87,34.64-9.56c-6.22,0.84-12.44,1.67-18.66,2.51
				c12.26-1.59,24.55-1.48,36.8,0.16c-6.22-0.84-12.44-1.67-18.66-2.51c14.66,2.13,28.82,6.35,42.49,12.02
				c-5.59-2.36-11.18-4.72-16.77-7.08c20.73,8.79,39.58,20.73,57.38,34.43c-4.74-3.66-9.47-7.32-14.21-10.98
				c13.67,10.61,26.71,21.98,39.77,33.33c17.21,14.96,34.75,29.31,52.92,43.12c13.67,10.39,28.06,19.89,43.53,27.39
				c20.8,10.08,42.71,18.95,65.44,23.55c22.23,4.49,45.61,7.52,68.36,5.86c21.73-1.58,44.06-4.75,64.37-13.02
				c12.37-5.04,24.78-10.04,36.2-17.03c11.4-6.97,21.96-15.44,32.29-23.84c12.26-9.98,23.18-21.47,33.51-33.41
				c22.96-26.53,43.15-56.57,71.02-78.35c-4.74,3.66-9.47,7.32-14.21,10.98c11.32-8.69,23.6-15.94,36.71-21.58
				c-5.59,2.36-11.18,4.72-16.77,7.08c11.96-5.02,24.4-8.6,37.26-10.42c-6.22,0.84-12.44,1.67-18.66,2.51
				c10.94-1.42,21.91-1.52,32.85-0.09c-6.22-0.84-12.44-1.67-18.66-2.51c9.7,1.4,19.09,3.97,28.14,7.73
				c-5.59-2.36-11.18-4.72-16.77-7.08c8.89,3.85,17.2,8.72,24.92,14.56c-4.74-3.66-9.47-7.32-14.21-10.98
				c7.91,6.14,14.94,13.19,21.12,21.07c-3.66-4.74-7.32-9.47-10.98-14.21c6.79,8.86,12.32,18.5,16.69,28.77
				c-2.36-5.59-4.72-11.18-7.08-16.77c4.51,10.94,7.61,22.33,9.29,34.04c-0.84-6.22-1.67-12.44-2.51-18.66
				c1.57,11.7,1.7,23.48,0.2,35.2c0.84-6.22,1.67-12.44,2.51-18.66c-1.61,11.61-4.96,22.81-9.47,33.62
				c2.36-5.59,4.72-11.18,7.08-16.77c-6.59,15.35-15.48,29.43-25.63,42.66c3.66-4.74,7.32-9.47,10.98-14.21
				c-24.21,31.16-53.66,58.37-81.23,86.48c-30.99,31.59-61.98,63.19-92.97,94.78c-7.35,7.49-14.73,14.95-22.03,22.48
				c-10.15,10.45-19,21.53-27.86,33.14c-9.19,12.03-14.8,24.9-20.42,39.02c-5.19,13.03-6.7,27.24-7.97,41.1
				c-1.21,13.25,1.21,26.64,3.12,39.67c1.14,7.74,3,15.34,5.47,22.76c7.17,21.63,17.06,42.62,28.25,62.47
				c20.26,35.95,45.35,69.45,61.63,107.55c-2.36-5.59-4.72-11.18-7.08-16.77c8.6,20.46,14.54,41.87,17.56,63.86
				c-0.84-6.22-1.67-12.44-2.51-18.66c2.67,20.42,2.77,41.06,0.05,61.48c0.84-6.22,1.67-12.44,2.51-18.66
				c-2.48,17.7-7.05,35-13.9,51.51c2.36-5.59,4.72-11.18,7.08-16.77c-6.25,14.77-14.24,28.66-24.04,41.36
				c3.66-4.74,7.32-9.47,10.98-14.21c-8.75,11.15-18.75,21.15-29.94,29.85c4.74-3.66,9.47-7.32,14.21-10.98
				c-12.57,9.61-26.32,17.41-40.89,23.57c5.59-2.36,11.18-4.72,16.77-7.08c-17.87,7.4-36.62,12.23-55.77,14.88
				c6.22-0.84,12.44-1.67,18.66-2.51c-23.78,3.15-47.81,2.92-71.59-0.15c6.22,0.84,12.44,1.67,18.66,2.51
				c-27.11-3.65-53.56-10.95-78.77-21.56c5.59,2.36,11.18,4.72,16.77,7.08c-24.96-10.66-48.32-24.51-69.81-41.07
				c4.74,3.66,9.47,7.32,14.21,10.98c-23.04-17.94-43.68-38.73-61.62-61.77c3.66,4.74,7.32,9.47,10.98,14.21
				c-18.04-23.37-33.18-48.85-44.69-76.05c2.36,5.59,4.72,11.18,7.08,16.77c-9.55-22.87-16.46-46.78-19.81-71.36
				c0.84,6.22,1.67,12.44,2.51,18.66c-3.61-27.6-1.18-55.22-0.74-82.92c0.32-20.17-1.58-39.53-4.46-59.54
				c-2.79-19.41-9.64-37.53-18.35-55.11c-5.66-11.42-13.68-21.13-21.55-31.12c-3.77-4.78-7.81-9.4-12.5-13.29
				c-15.93-13.22-31.05-22.35-51.22-28.29c-4.09-1.2-8.27-2.02-12.48-2.66c-10.64-1.61-21.44-3.29-32.24-3.69
				c-10.08-0.38-20.18,0.17-30.21,1.11c-30.92,2.89-61.47,8.6-92.22,12.73c6.22-0.84,12.44-1.67,18.66-2.51
				c-19.34,2.57-39.22,4.76-58.68,2.16c6.22,0.84,12.44,1.67,18.66,2.51c-6.21-0.89-12.29-2.31-18.11-4.68
				c5.59,2.36,11.18,4.72,16.77,7.08c-3.88-1.64-7.53-3.67-10.9-6.21c4.74,3.66,9.47,7.32,14.21,10.98
				c-2.81-2.19-5.33-4.66-7.52-7.47c3.66,4.74,7.32,9.47,10.98,14.21c-1.81-2.41-3.28-4.98-4.47-7.75
				c2.36,5.59,4.72,11.18,7.08,16.77c-1.44-3.52-2.34-7.18-2.86-10.94c0.84,6.22,1.67,12.44,2.51,18.66
				c-0.74-5.98-0.51-11.98,0.26-17.94c-0.84,6.22-1.67,12.44-2.51,18.66c1.94-14.07,6.65-27.63,12.11-40.69
				c-2.36,5.59-4.72,11.18-7.08,16.77c24.71-58.54,63.89-109.95,98.15-163.03c6.76-10.47,13.52-21.04,19.1-32.2
				c5.13-8.06,7.91-16.76,8.33-26.1c2.09-9.33,1.67-18.66-1.25-28c-4.48-16.29-17.08-33.93-32.27-41.96
				c-16.29-8.61-36.03-12.92-54.1-7.08C687.64,581.27,670.58,591.83,662.44,608.11z"/>
		</g>
	</g>
	<g>
		<g>
			<path class="st9" d="M260.12,201.85c-24.44,35.41-37.81,81.83-24.97,124.18c9.61,31.7,30.49,58.22,56.1,78.65
				c14.18,11.32,28.88,21.91,43.24,32.97c-4.74-3.66-9.47-7.32-14.21-10.98c8.35,6.48,16.62,13.26,23.2,21.6
				c-3.66-4.74-7.32-9.47-10.98-14.21c2.34,3.07,4.37,6.28,5.94,9.81c-2.36-5.59-4.72-11.18-7.08-16.77
				c1.05,2.52,1.81,5.08,2.26,7.77c-0.84-6.22-1.67-12.44-2.51-18.66c0.37,2.75,0.38,5.46,0.04,8.22
				c0.84-6.22,1.67-12.44,2.51-18.66c-0.47,3.04-1.31,5.92-2.47,8.76c2.36-5.59,4.72-11.18,7.08-16.77
				c-11.44,26.15-22.29,54.59-39.77,77.48c3.66-4.74,7.32-9.47,10.98-14.21c-16.11,20.81-33.8,40.49-50.76,60.6
				c-23.93,28.38-47.87,56.76-71.8,85.14c-22.53,26.72-45.63,53.07-67.45,80.37c-26.11,32.68-49.51,66.24-60.87,107.18
				c-19.4,69.93-2.64,148.78,35.59,209.41c40.1,63.61,101.27,109.9,171.76,134.99c36.19,12.88,75.8,17.22,114.01,14.57
				c37.37-2.59,74.56-9.95,112.07-5.23c-6.22-0.84-12.44-1.67-18.66-2.51c12.63,1.82,24.78,4.97,36.64,9.67
				c-5.59-2.36-11.18-4.72-16.77-7.08c12.19,5.16,23.5,11.69,34.09,19.63c-4.74-3.66-9.47-7.32-14.21-10.98
				c13.31,10.29,24.9,22.34,35.28,35.55c-3.66-4.74-7.32-9.47-10.98-14.21c33.73,43.75,52.79,95.99,76.65,145.25
				c25.79,53.24,56.96,103.86,92.28,151.3c79.57,106.88,175.76,199,287.45,272c26.91,17.59,54.63,34.28,83.49,48.49
				c20.21,9.95,41.08,19.04,62.44,26.23c21.18,7.13,42.83,10.81,65.03,13.26c38.85,4.28,79.25-3.68,115.97-16.23
				c34.98-11.95,69.22-26.45,103.16-41.02c119.94-51.5,238.94-127.33,300.93-246.45c32.5-62.45,50.85-133.63,46.78-204.31
				c-2.18-37.86-9.19-75.44-21.86-111.18c-11.45-32.29-26.06-63.4-36.75-95.97c-4.96-15.12-8.93-30.51-11.18-46.28
				c0.84,6.22,1.67,12.44,2.51,18.66c-1.85-14.55-1.99-29.02-0.04-43.57c-0.84,6.22-1.67,12.44-2.51,18.66
				c2.12-13.99,6.05-27.45,11.51-40.5c-2.36,5.59-4.72,11.18-7.08,16.77c8.95-20.6,21.26-39.31,34.9-57.07
				c-3.66,4.74-7.32,9.47-10.98,14.21c27.89-35.91,59.49-68.56,86.46-105.26c29.24-39.79,50.98-83.92,68.61-129.93
				c18.19-47.47,27.9-96.93,33.52-147.34c5.62-50.4,2.92-101.86-8.35-151.35c-23.17-101.72-91.81-181.61-172.37-244.06
				c-41.38-32.08-84.07-62.88-129.95-88.27c-25.71-14.23-52.64-26.47-80.19-36.68c-26.06-9.65-52.53-14.93-80.08-18.26
				c-57.29-6.93-115.24,8.47-164.32,38.11c-43.07,26.01-79.56,61.4-119.18,92.09c4.74-3.66,9.47-7.32,14.21-10.98
				c-24.17,18.55-50.24,34.2-78.28,46.15c5.59-2.36,11.18-4.72,16.77-7.08c-23.81,9.9-48.55,16.93-74.11,20.44
				c6.22-0.84,12.44-1.67,18.66-2.51c-21.39,2.69-42.82,2.81-64.21,0.12c6.22,0.84,12.44,1.67,18.66,2.51
				c-21.24-2.94-41.8-8.59-61.6-16.83c5.59,2.36,11.18,4.72,16.77,7.08c-29.36-12.57-55.96-30.16-81.22-49.55
				c4.74,3.66,9.47,7.32,14.21,10.98c-40.51-31.36-78.28-66.01-119.08-97.05c-39.32-29.91-83.5-53.79-131.73-65.75
				c-93.69-23.23-194.9-5.62-276.97,44.69C329.88,120.18,291.45,157.43,260.12,201.85c-9.98,14.15-11.51,38.01-7.08,54.1
				c4.48,16.29,17.08,33.93,32.27,41.96c16.29,8.61,36.03,12.92,54.1,7.08c18.23-5.9,30.92-16.61,41.96-32.27
				c2.69-3.81,5.45-7.56,8.29-11.26c-3.66,4.74-7.32,9.47-10.98,14.21c16.04-20.53,34.59-38.8,55.18-54.75
				c-4.74,3.66-9.47,7.32-14.21,10.98c21.7-16.55,45.27-30.27,70.39-40.94c-5.59,2.36-11.18,4.72-16.77,7.08
				c24.68-10.27,50.44-17.41,76.93-21.08c-6.22,0.84-12.44,1.67-18.66,2.51c24.46-3.17,49.07-3.3,73.54-0.18
				c-6.22-0.84-12.44-1.67-18.66-2.51c23.66,3.24,46.64,9.47,68.71,18.58c-5.59-2.36-11.18-4.72-16.77-7.08
				c28.73,12.18,54.5,29.31,79.18,48.25c-4.74-3.66-9.47-7.32-14.21-10.98c32.48,25.14,62.75,52.97,94.99,78.41
				c19.77,15.6,39.74,31.12,61.2,44.37c21.57,13.32,44.75,23.94,68.53,32.68c95.74,35.19,205.42,13.04,290.26-39.63
				c41.24-25.61,76.49-59.48,114.74-89.11c-4.74,3.66-9.47,7.32-14.21,10.98c20.86-16,42.77-30.51,67.06-40.76
				c-5.59,2.36-11.18,4.72-16.77,7.08c14.53-5.92,29.51-10.14,45.04-12.44c-6.22,0.84-12.44,1.67-18.66,2.51
				c17.43-2.32,34.86-2.12,52.29,0.04c-6.22-0.84-12.44-1.67-18.66-2.51c27.02,3.7,53.01,11.85,78.11,22.39
				c-5.59-2.36-11.18-4.72-16.77-7.08c58.51,25.07,112.14,61.62,162.47,100.25c-4.74-3.66-9.47-7.32-14.21-10.98
				c35.75,27.63,69.59,57.96,97.48,93.67c-3.66-4.74-7.32-9.47-10.98-14.21c16.1,20.95,29.69,43.42,40.17,67.7
				c-2.36-5.59-4.72-11.18-7.08-16.77c10.87,25.93,18.02,53.02,21.96,80.83c-0.84-6.22-1.67-12.44-2.51-18.66
				c5.11,38.32,4.12,76.95-0.88,115.22c0.84-6.22,1.67-12.44,2.51-18.66c-6.21,45.66-18.12,90.28-35.94,132.79
				c2.36-5.59,4.72-11.18,7.08-16.77c-16.14,37.91-36.8,73.61-61.9,106.3c3.66-4.74,7.32-9.47,10.98-14.21
				c-38.92,50.08-88.95,94.36-114.64,153.43c-16.5,37.93-26.24,77.87-21.06,119.5c2.77,22.27,6.69,43.61,13.69,64.94
				c5.65,17.21,12.42,34.02,19.2,50.81c15.1,37.38,29.26,74.59,34.73,114.77c-0.84-6.22-1.67-12.44-2.51-18.66
				c3.45,27.21,3.43,54.56-0.02,81.76c0.84-6.22,1.67-12.44,2.51-18.66c-3.95,29.03-11.71,57.24-22.94,84.3
				c2.36-5.59,4.72-11.18,7.08-16.77c-11.96,28.17-27.45,54.56-46.08,78.83c3.66-4.74,7.32-9.47,10.98-14.21
				c-22.08,28.33-48.16,53.13-76.49,75.14c4.74-3.66,9.47-7.32,14.21-10.98c-52.32,40.18-111.41,70.19-171.95,95.87
				c5.59-2.36,11.18-4.72,16.77-7.08c-42.72,18.01-87.08,38.01-133.33,44.4c6.22-0.84,12.44-1.67,18.66-2.51
				c-15.61,1.91-31.06,1.97-46.67,0.04c6.22,0.84,12.44,1.67,18.66,2.51c-22.7-3.18-44.47-10.05-65.61-18.82
				c5.59,2.36,11.18,4.72,16.77,7.08c-61.66-26.19-119.02-64.71-171.93-105.47c4.74,3.66,9.47,7.32,14.21,10.98
				c-70.03-54.24-133.07-117.2-187.22-187.3c3.66,4.74,7.32,9.47,10.98,14.21c-26.78-34.86-51.38-71.39-73.24-109.54
				c-20.39-35.59-37.16-72.71-54.3-109.92c-18.87-40.96-40.36-79.6-70.05-113.88c-15.75-18.18-35.11-34.21-55.65-46.61
				c-28.63-17.27-59.56-25.54-92.36-29.48c-54.53-6.55-108.55,11.35-163.07,4.15c6.22,0.84,12.44,1.67,18.66,2.51
				c-20.03-2.9-39.39-8.53-58.06-16.33c5.59,2.36,11.18,4.72,16.77,7.08c-20.89-9-40.43-20.54-58.47-34.39
				c4.74,3.66,9.47,7.32,14.21,10.98c-16.52-12.96-31.43-27.64-44.41-44.15c3.66,4.74,7.32,9.47,10.98,14.21
				c-12.17-15.86-22.28-32.98-30.24-51.31c2.36,5.59,4.72,11.18,7.08,16.77c-7.38-17.6-12.6-35.85-15.32-54.75
				c0.84,6.22,1.67,12.44,2.51,18.66c-2.11-16.22-2.31-32.46-0.17-48.69c-0.84,6.22-1.67,12.44-2.51,18.66
				c1.92-12.99,5.35-25.39,10.32-37.54c-2.36,5.59-4.72,11.18-7.08,16.77c8.15-18.94,19.42-36.02,31.96-52.31
				c-3.66,4.74-7.32,9.47-10.98,14.21c61.31-78.57,130.26-151.08,192.32-229.05c9.49-11.92,18.82-23.59,26.01-37.01
				c7.81-14.56,14.41-29.79,21.23-44.83c9.53-21.02,19.46-40.41,17.86-64.22c-1.29-19.3-6.42-38.05-17.91-53.9
				c-9.71-13.4-19.38-24.14-32.22-34.28c-13.5-10.66-27.42-20.73-41.03-31.23c4.74,3.66,9.47,7.32,14.21,10.98
				c-10.92-8.48-21.53-17.49-30.12-28.4c3.66,4.74,7.32,9.47,10.98,14.21c-4-5.22-7.42-10.76-10.02-16.81
				c2.36,5.59,4.72,11.18,7.08,16.77c-1.87-4.59-3.19-9.28-3.94-14.17c0.84,6.22,1.67,12.44,2.51,18.66
				c-0.76-5.73-0.69-11.41,0.08-17.14c-0.84,6.22-1.67,12.44-2.51,18.66c1.04-6.66,2.96-13.03,5.48-19.27
				c-2.36,5.59-4.72,11.18-7.08,16.77c3.8-8.94,8.69-17.24,14.2-25.23c9.89-14.33,11.56-37.83,7.08-54.1
				c-4.48-16.29-17.08-33.93-32.27-41.96c-16.29-8.61-36.03-12.92-54.1-7.08C283.94,175.46,270.97,186.12,260.12,201.85z"/>
		</g>
	</g>
</g>
</svg>
