<?xml version="1.0" encoding="utf-8"?>
<!-- Generator: Adobe Illustrator 23.0.4, SVG Export Plug-In . SVG Version: 6.00 Build 0)  -->
<svg version="1.1" id="Layer_1" xmlns="http://www.w3.org/2000/svg" xmlns:xlink="http://www.w3.org/1999/xlink" x="0px" y="0px"
	 viewBox="0 0 2269.5 1629.7" style="enable-background:new 0 0 2269.5 1629.7;" xml:space="preserve">
<style type="text/css">
	.st0{fill:#5E7775;}
	.st1{fill:#F0EA9B;}
	.st2{fill:#FFFFFF;}
	.st3{fill:#9E3223;}
	.st4{fill:#FF9D6C;}
	.st5{fill:#B45846;}
</style>
<g>
	<g>
		<path class="st0" d="M-68.4,677.5c4.1,16.4,5.7,33.5,8.1,50.3c3,21.1,6.1,42.3,11.3,63c5.1,20.3,12.6,43.1,28.3,57.9
			c10.6,9.9,24.6,16.2,39.4,15.3c16.4-1,29.8-8.4,41.9-19.3c9.7-8.7,17.4-19.9,24.9-30.4c6.6-9.3,12.9-18.8,19.9-27.9
			c-1.9,2.4-3.8,4.9-5.6,7.3c5-6.5,10.3-12.8,16.8-17.9c-2.4,1.9-4.9,3.8-7.3,5.6c2.7-2.1,5.6-3.9,8.7-5.3c-2.9,1.2-5.7,2.4-8.6,3.6
			c1.8-0.7,3.6-1.2,5.5-1.6c-3.2,0.4-6.4,0.9-9.6,1.3c2.8-0.4,5.5-0.2,8.3,0.2c-3.2-0.4-6.4-0.9-9.6-1.3c3.9,0.6,7.6,1.7,11.2,3.2
			c-2.9-1.2-5.7-2.4-8.6-3.6c3.9,1.8,7.5,4,11,6.5c-2.4-1.9-4.9-3.8-7.3-5.6c7.8,6.1,14.3,13.6,20.3,21.4c-1.9-2.4-3.8-4.9-5.6-7.3
			c13,16.9,24.7,35,41.2,48.8c19.2,15.9,40.3,27.8,64.1,35.5c45.2,14.6,95.2,10.4,137.3-11.4c40-20.7,72.3-59,84.4-102.5
			c12-43.6,2.4-92.9-24.8-129c-15.9-21.2-35.6-39.7-59.9-50.8c-21.2-9.7-43.7-15.3-65.1-24.2c2.9,1.2,5.7,2.4,8.6,3.6
			c-7.8-3.3-15.4-7.2-22.2-12.4c2.4,1.9,4.9,3.8,7.3,5.6c-3.8-3-7.2-6.3-10.2-10.2c1.9,2.4,3.8,4.9,5.6,7.3c-2.2-3-4-6.1-5.6-9.5
			c1.2,2.9,2.4,5.7,3.6,8.6c-1.8-4.3-2.9-8.7-3.7-13.4c0.4,3.2,0.9,6.4,1.3,9.6c-2.4-18.1-0.4-37,0-55.2c0.5-19.4,0.9-38.7,1.4-58.1
			c0.4-18,1.3-36.1,0.9-54.2c-0.6-22.8-4.5-44.2-13.6-65.1c-15.3-34.8-55.3-63.1-94.3-58.5c-12.6,1.5-22.8,4.1-34.1,10
			c-7.6,3.9-14.8,9.6-20.8,15.7c-12.8,13-21.5,29.2-27.3,46.4c-5.9,17.4-7.2,36.3-6.6,54.6c0.6,20.2,3,40.5,0.5,60.7
			c0.4-3.2,0.9-6.4,1.3-9.6c-1.1,8.1-3.1,16-6.2,23.6c1.2-2.9,2.4-5.7,3.6-8.6c-2.9,6.7-6.6,12.9-11,18.8c1.9-2.4,3.8-4.9,5.6-7.3
			c-4.6,5.8-9.8,11-15.7,15.6c2.4-1.9,4.9-3.8,7.3-5.6c-6.4,4.9-13.2,9-20.6,12.2c2.9-1.2,5.7-2.4,8.6-3.6
			c-8.1,3.4-16.5,5.5-25.2,6.8c3.2-0.4,6.4-0.9,9.6-1.3c-25.6,3.4-51.5,1.3-77.1,5.7c-21.9,3.8-42.8,14.2-59.3,29.2
			c-15.8,14.3-26.4,34.7-31.7,55.1c-2.7,10.6-5.3,22.3-4.4,33.2c1.3,15.2,6.2,27.3,15.8,39c10.4,12.7,26,19.1,38.8,28.8
			c-2.4-1.9-4.9-3.8-7.3-5.6c3.4,2.7,6.4,5.6,9.1,9c-1.9-2.4-3.8-4.9-5.6-7.3c1.9,2.5,3.4,5.2,4.6,8.1c-1.2-2.9-2.4-5.7-3.6-8.6
			C-69.5,673.9-68.9,675.7-68.4,677.5c4.9,18.2,25.9,31.2,44.4,25.2c18.7-6,30.5-24.8,25.2-44.4C-4,639.5-15.7,625.8-31,614.4
			c-7.7-5.8-16.3-10.1-24-15.8c2.4,1.9,4.9,3.8,7.3,5.6c-2.8-2.2-5.4-4.6-7.6-7.4c1.9,2.4,3.8,4.9,5.6,7.3c-1.4-1.9-2.5-3.9-3.5-6.1
			c1.2,2.9,2.4,5.7,3.6,8.6c-0.8-2.1-1.3-4.2-1.7-6.4c0.4,3.2,0.9,6.4,1.3,9.6c-0.4-3.4-0.3-6.7,0.1-10c-0.4,3.2-0.9,6.4-1.3,9.6
			c1.3-9.4,3.5-18.6,7.1-27.4c-1.2,2.9-2.4,5.7-3.6,8.6c2.6-6.1,5.8-11.9,9.8-17.2c-1.9,2.4-3.8,4.9-5.6,7.3
			c3.6-4.7,7.8-8.9,12.4-12.5c-2.4,1.9-4.9,3.8-7.3,5.6c5.5-4.2,11.5-7.6,17.8-10.3c-2.9,1.2-5.7,2.4-8.6,3.6
			c8.3-3.4,17-5.6,25.9-6.9c-3.2,0.4-6.4,0.9-9.6,1.3c19.5-2.5,39.2-1.1,58.6-3.2c22.6-2.5,44.6-7.9,63.7-20.9
			c17.3-11.8,32.9-27.3,42.4-46.2c10.8-21.8,14.7-45.5,14.4-69.7c-0.3-21-3.5-42.2-0.8-63.1c-0.4,3.2-0.9,6.4-1.3,9.6
			c1.2-8.8,3.5-17.3,6.8-25.5c-1.2,2.9-2.4,5.7-3.6,8.6c2.7-6.4,6.1-12.5,10.3-18c-1.9,2.4-3.8,4.9-5.6,7.3
			c3.4-4.3,7.2-8.2,11.5-11.6c-2.4,1.9-4.9,3.8-7.3,5.6c3.4-2.5,6.9-4.6,10.8-6.3c-2.9,1.2-5.7,2.4-8.6,3.6
			c4.1-1.7,8.2-2.8,12.5-3.4c-3.2,0.4-6.4,0.9-9.6,1.3c4.4-0.5,8.8-0.5,13.3,0c-3.2-0.4-6.4-0.9-9.6-1.3c4.9,0.7,9.5,2.1,14,3.9
			c-2.9-1.2-5.7-2.4-8.6-3.6c5,2.2,9.6,4.9,13.9,8.2c-2.4-1.9-4.9-3.8-7.3-5.6c4.7,3.7,8.8,7.8,12.5,12.5c-1.9-2.4-3.8-4.9-5.6-7.3
			c4,5.2,7.2,10.8,9.8,16.8c-1.2-2.9-2.4-5.7-3.6-8.6c3.5,8.7,5.6,17.6,6.9,26.9c-0.4-3.2-0.9-6.4-1.3-9.6c2.9,23,1.2,46.4,0.7,69.4
			c-0.6,24.9-1.2,49.9-1.8,74.8c-0.6,26.8-2.8,54.8,11.4,78.9c10.6,18.1,28.1,31.2,47.1,39.5c20.4,8.9,42,14.5,62.5,23.1
			c-2.9-1.2-5.7-2.4-8.6-3.6c9.8,4.2,19,9.5,27.5,16c-2.4-1.9-4.9-3.8-7.3-5.6c8.4,6.5,15.8,14,22.4,22.4c-1.9-2.4-3.8-4.9-5.6-7.3
			c6.7,8.7,12.2,18.1,16.5,28.2c-1.2-2.9-2.4-5.7-3.6-8.6c4.2,10,7,20.4,8.5,31.2c-0.4-3.2-0.9-6.4-1.3-9.6c1.1,9.3,1.2,18.7,0,28
			c0.4-3.2,0.9-6.4,1.3-9.6c-1.4,10.1-4.1,19.9-8.1,29.3c1.2-2.9,2.4-5.7,3.6-8.6c-4.3,9.9-9.8,19.2-16.3,27.8
			c1.9-2.4,3.8-4.9,5.6-7.3c-7.3,9.4-15.8,17.9-25.2,25.2c2.4-1.9,4.9-3.8,7.3-5.6c-9.6,7.4-20,13.5-31.2,18.2
			c2.9-1.2,5.7-2.4,8.6-3.6c-10.9,4.5-22.3,7.6-34.1,9.3c3.2-0.4,6.4-0.9,9.6-1.3c-12.9,1.7-25.8,1.6-38.7,0
			c3.2,0.4,6.4,0.9,9.6,1.3c-13.3-1.8-26.3-5.3-38.7-10.5c2.9,1.2,5.7,2.4,8.6,3.6c-11.8-5-22.8-11.3-33-19.1
			c2.4,1.9,4.9,3.8,7.3,5.6c-9.1-7.1-17-15.2-24.1-24.3c1.9,2.4,3.8,4.9,5.6,7.3c-10.7-13.8-20.3-28.7-32.6-41.2
			c-16.2-16.4-35.7-26-58.7-28.1c-17.4-1.5-33.1,7.3-46,18c-10.2,8.4-18.1,19.6-25.8,30.1c-7.6,10.5-14.7,21.4-22.6,31.6
			c1.9-2.4,3.8-4.9,5.6-7.3c-4.7,6-9.6,11.8-15.6,16.6c2.4-1.9,4.9-3.8,7.3-5.6c-2.4,1.8-4.9,3.4-7.7,4.6c2.9-1.2,5.7-2.4,8.6-3.6
			c-1.7,0.7-3.4,1.2-5.2,1.4c3.2-0.4,6.4-0.9,9.6-1.3c-1.6,0.2-3.1,0.2-4.6,0c3.2,0.4,6.4,0.9,9.6,1.3c-1.3-0.2-2.6-0.5-3.8-1
			c2.9,1.2,5.7,2.4,8.6,3.6c-1.6-0.7-3-1.5-4.4-2.6c2.4,1.9,4.9,3.8,7.3,5.6c-1.8-1.5-3.4-3.2-4.9-5c1.9,2.4,3.8,4.9,5.6,7.3
			c-3.3-4.4-5.8-9.3-7.9-14.3c1.2,2.9,2.4,5.7,3.6,8.6c-7.2-17.5-10.9-36.5-14.1-55.1c-3.3-19.4-5.7-38.9-8.6-58.3
			c-1.2-7.9-2.4-15.9-4.3-23.6C-3.5,640-25,627.2-43.2,633.2C-62.2,639.3-73.4,657.9-68.4,677.5z"/>
	</g>
</g>
<g>
	<g>
		<path class="st0" d="M-348.3,649.8c2,15.6,4.5,30.5,12.7,44.3c6.1,10.2,15.3,19.9,26.1,25.2c17.4,8.5,35.4,9.1,54.3,7.1
			c6.7-0.7,13.5-1.6,20.2-0.8c-3.2-0.4-6.4-0.9-9.6-1.3c2.1,0.3,4.2,0.8,6.2,1.6c-2.9-1.2-5.7-2.4-8.6-3.6c1.4,0.6,2.6,1.3,3.8,2.2
			c-2.4-1.9-4.9-3.8-7.3-5.6c0.9,0.7,1.7,1.5,2.4,2.4c-1.9-2.4-3.8-4.9-5.6-7.3c1,1.3,1.8,2.8,2.5,4.3c-1.2-2.9-2.4-5.7-3.6-8.6
			c3.5,8.7,5.5,18.3,8,27.4c1.5,5.6,2.9,11.2,3.7,16.9c-0.4-3.2-0.9-6.4-1.3-9.6c1.4,10.1,1.3,20.5,1.7,30.7
			c0.8,19.5,1.6,38.9,2.4,58.4c0.8,19.1,1.6,38.3,2.4,57.4c0.8,20.6,1.6,41.3,5.9,61.5c7.9,36.8,32.6,68.9,65.1,87.4
			c33,18.8,72.7,23.3,109.3,13.3c21.5-5.9,41-16.8,57.7-31.4c13.7-12,24.2-27.5,35.2-41.8c-1.9,2.4-3.8,4.9-5.6,7.3
			c7.4-9.5,15.1-18.8,24.6-26.3c-2.4,1.9-4.9,3.8-7.3,5.6c4.8-3.6,9.9-6.7,15.5-9.1c-2.9,1.2-5.7,2.4-8.6,3.6
			c5.2-2.1,10.4-3.5,15.9-4.3c-3.2,0.4-6.4,0.9-9.6,1.3c6.6-0.8,13.1-0.7,19.7,0.1c-3.2-0.4-6.4-0.9-9.6-1.3
			c12.6,1.7,24.6,5.7,36.2,10.6c-2.9-1.2-5.7-2.4-8.6-3.6c14.8,6.3,29,14,43.5,20.9c16.5,7.8,33.4,14.9,50.7,20.8
			c32.6,11.3,66.2,18,100.4,22c31.6,3.7,63.6,4.1,95.3,0.9c33.4-3.3,68.1-8.5,99.5-20.8c19-7.5,36.1-16.4,51.4-30.2
			c13-11.7,23.1-27.1,30.9-42.7c8.3-16.8,15.3-34.4,22.3-51.8c6.4-16,12.3-32.2,17.4-48.6c19.6-63.5,27-134.1,4-197.8
			c-11.1-30.8-27.4-59.3-50.4-82.8c-11.7-12-25.3-22.4-39.6-31.3c-12.3-7.6-25.3-14.2-37.7-21.7c-6-3.6-11.8-7.5-17.4-11.7
			c2.4,1.9,4.9,3.8,7.3,5.6c-6.5-5.1-12.4-10.6-17.5-17c1.9,2.4,3.8,4.9,5.6,7.3c-5-6.5-9.1-13.6-12.3-21.1c1.2,2.9,2.4,5.7,3.6,8.6
			c-4.2-10.4-6.7-21.3-8.3-32.4c0.4,3.2,0.9,6.4,1.3,9.6c-3-22.7-2.4-45.6-3.7-68.4c-1.7-27.5-6.3-55-14.4-81.4
			c-8.2-26.6-19.6-52.7-33.9-76.6c-13-21.8-28.5-42.8-47.2-60.1c-20.9-19.4-45.2-34.4-72.6-42.6c-27.1-8.1-56.4-9.4-84.5-7.1
			c-26.1,2.1-52.7,5.7-78.1,12.4c-23.2,6-47,15-66.4,29.2c-14.3,10.5-25.6,21.5-35.9,36c-8.7,12.3-14.7,26.8-19.1,41.2
			c-8.4,27.6-9.6,57-13.3,85.5c0.4-3.2,0.9-6.4,1.3-9.6c-2.7,20.1-7.4,39.7-15.3,58.4c1.2-2.9,2.4-5.7,3.6-8.6
			c-5.3,12.2-11.7,23.8-19.8,34.4c1.9-2.4,3.8-4.9,5.6-7.3c-6.6,8.6-14.1,16.3-22.7,22.9c2.4-1.9,4.9-3.8,7.3-5.6
			c-7.3,5.5-15.1,10.1-23.4,13.8c2.9-1.2,5.7-2.4,8.6-3.6c-11.8,5-24.1,7.9-36.7,9.7c3.2-0.4,6.4-0.9,9.6-1.3
			c-28.1,3.7-56.5,2.2-84.6,5.6c-14.3,1.8-28.5,3.8-42,9c-11.7,4.4-23.1,9.6-33.5,16.6c-40.9,27.6-68.3,71.2-79.8,118.9
			C-349,596.5-351.4,623.6-348.3,649.8c1.2,9.9,3.3,18.2,10.6,25.5c6.3,6.3,16.5,11,25.5,10.6c9.3-0.4,19-3.5,25.5-10.6
			c6-6.6,11.6-16.2,10.6-25.5c-1.9-16.1-1.7-32.4,0.4-48.5c-0.4,3.2-0.9,6.4-1.3,9.6c2.4-17.5,6.9-34.6,13.8-50.8
			c-1.2,2.9-2.4,5.7-3.6,8.6c5.6-13.1,12.7-25.5,21.3-36.9c-1.9,2.4-3.8,4.9-5.6,7.3c7.5-9.7,16.1-18.5,25.9-26
			c-2.4,1.9-4.9,3.8-7.3,5.6c8.5-6.4,17.6-11.8,27.4-15.9c-2.9,1.2-5.7,2.4-8.6,3.6c11-4.5,22.5-7.2,34.3-8.9
			c-3.2,0.4-6.4,0.9-9.6,1.3c24.6-3.2,49.5-2.4,74.2-4.5c28.4-2.4,56.6-8.1,81.1-23.3C6.7,446,32.3,402.7,44.1,357.3
			c6.7-26,8.2-53.1,11.7-79.7c-0.4,3.2-0.9,6.4-1.3,9.6c2.3-16.8,5.5-33.5,12.1-49.2c-1.2,2.9-2.4,5.7-3.6,8.6
			c3.6-8.3,8.1-16.1,13.6-23.2c-1.9,2.4-3.8,4.9-5.6,7.3c5.2-6.5,11.1-12.3,17.7-17.4c-2.4,1.9-4.9,3.8-7.3,5.6
			c9.5-7.3,20-13,31-17.7c-2.9,1.2-5.7,2.4-8.6,3.6c23.7-9.8,48.9-14.7,74.2-18.2c-3.2,0.4-6.4,0.9-9.6,1.3
			c24.5-3.3,49.4-5,74.1-1.9c-3.2-0.4-6.4-0.9-9.6-1.3c12.9,1.8,25.4,4.9,37.5,9.8c-2.9-1.2-5.7-2.4-8.6-3.6
			c11.3,4.8,21.8,11,31.5,18.4c-2.4-1.9-4.9-3.8-7.3-5.6c13.4,10.4,25.1,22.6,35.4,36c-1.9-2.4-3.8-4.9-5.6-7.3
			c15.5,20.3,28.1,42.7,38,66.2c-1.2-2.9-2.4-5.7-3.6-8.6c10.5,25.3,17.8,51.8,21.5,79c-0.4-3.2-0.9-6.4-1.3-9.6
			c4.8,37.1,1.3,74.9,9.2,111.7c4.6,21.6,14.4,40.9,28.2,58c12.1,14.9,28.6,26.1,45,35.8c16.7,9.8,34.2,18.4,49.7,30.2
			c-2.4-1.9-4.9-3.8-7.3-5.6c11.1,8.7,21,18.6,29.7,29.7c-1.9-2.4-3.8-4.9-5.6-7.3c10,13.1,18.2,27.3,24.6,42.5
			c-1.2-2.9-2.4-5.7-3.6-8.6c7.3,17.6,12.1,35.9,14.8,54.7c-0.4-3.2-0.9-6.4-1.3-9.6c3.1,23.4,2.5,46.9-0.6,70.3
			c0.4-3.2,0.9-6.4,1.3-9.6c-6.2,45.2-21.6,88.4-39.3,130.3c1.2-2.9,2.4-5.7,3.6-8.6c-7.2,17-14.4,34.1-25.7,48.8
			c1.9-2.4,3.8-4.9,5.6-7.3c-4.8,6-10.1,11.4-16.2,16.1c2.4-1.9,4.9-3.8,7.3-5.6c-7.8,5.9-16.3,10.6-25.3,14.5
			c2.9-1.2,5.7-2.4,8.6-3.6c-25,10.5-52.2,15.9-79,19.6c3.2-0.4,6.4-0.9,9.6-1.3c-39.1,5.2-78.6,5.2-117.7,0
			c3.2,0.4,6.4,0.9,9.6,1.3c-37.7-5.1-74.5-15-109.6-29.7c2.9,1.2,5.7,2.4,8.6,3.6c-30.5-13-59.2-31.5-91.5-39.9
			c-19.4-5-39.9-6.2-59.5-1.2c-17.5,4.5-33.1,14.3-46.3,26.5c-12.2,11.3-21.7,25.3-31.8,38.4c1.9-2.4,3.8-4.9,5.6-7.3
			c-7.9,10.3-16.2,20.2-26.5,28.2c2.4-1.9,4.9-3.8,7.3-5.6c-7.4,5.6-15.4,10.1-23.9,13.7c2.9-1.2,5.7-2.4,8.6-3.6
			c-9.2,3.7-18.7,6.2-28.5,7.6c3.2-0.4,6.4-0.9,9.6-1.3c-9.8,1.2-19.7,1.2-29.5-0.1c3.2,0.4,6.4,0.9,9.6,1.3
			c-9-1.4-17.7-3.8-26.1-7.3c2.9,1.2,5.7,2.4,8.6,3.6c-8.2-3.6-15.8-8.1-23-13.5c2.4,1.9,4.9,3.8,7.3,5.6
			c-6.9-5.4-13.1-11.6-18.6-18.5c1.9,2.4,3.8,4.9,5.6,7.3c-4.7-6.1-8.6-12.7-11.7-19.8c1.2,2.9,2.4,5.7,3.6,8.6
			c-4.2-10-6.6-20.5-8-31.1c0.4,3.2,0.9,6.4,1.3,9.6c-2-15.6-2.2-31.4-2.9-47.1c-0.7-16.2-1.3-32.3-2-48.5
			c-1.2-28.1-1.6-56.3-3.6-84.3c-1.4-19.8-6.7-39.1-12.7-57.9c-4.2-13.2-11.7-24.7-23.8-31.9c-9.5-5.7-20.3-7.9-31.3-8.1
			c-13.7-0.3-27.2,3.6-40.9,2c3.2,0.4,6.4,0.9,9.6,1.3c-3.4-0.5-6.7-1.3-9.9-2.6c2.9,1.2,5.7,2.4,8.6,3.6c-2.3-1-4.4-2.2-6.4-3.7
			c2.4,1.9,4.9,3.8,7.3,5.6c-2.1-1.7-3.9-3.6-5.6-5.7c1.9,2.4,3.8,4.9,5.6,7.3c-2.1-2.8-3.7-5.8-5-8.9c1.2,2.9,2.4,5.7,3.6,8.6
			c-2.5-6.1-3.9-12.5-4.8-19c0.4,3.2,0.9,6.4,1.3,9.6c-0.1-0.5-0.1-1-0.2-1.4c-1.3-9.9-3.2-18.1-10.6-25.5
			c-6.3-6.3-16.5-11-25.5-10.6c-9.3,0.4-19,3.5-25.5,10.6C-343.8,630.9-349.5,640.6-348.3,649.8z"/>
	</g>
</g>
<g>
	<g>
		<path class="st1" d="M2586.7,456.8c0.1,0.7,0.2,1.4,0.3,2c-0.5-3.4-0.9-6.8-1.4-10.2c3.6,26.6,2.8,53.4-0.7,79.9
			c0.5-3.4,0.9-6.8,1.4-10.2c-3.5,25.7-9.4,51-16.3,76c-5.7,20.5-11.7,41-19.9,60.6c1.3-3,2.6-6.1,3.9-9.1
			c-5.9,13.9-13,27.3-22.1,39.3c2-2.6,4-5.2,6-7.8c-5.6,7.2-11.8,13.7-18.9,19.2c2.6-2,5.2-4,7.8-6c-5.2,3.9-10.8,7.2-16.8,9.8
			c3.1-1.3,6.1-2.6,9.1-3.9c-6,2.5-12.1,4.1-18.5,5c3.4-0.5,6.8-0.9,10.2-1.4c-10,1.2-19.9,0.5-29.8-0.8c3.4,0.5,6.8,0.9,10.2,1.4
			c-11.2-1.6-22.3-3.9-33.5-5.4c-17.1-2.4-32.3-3.3-49.5-0.5c-30,4.9-52.3,25.8-69.4,49.5c-28.4,39.4-43.6,87.2-65.1,130.4
			c-11,22.1-23.9,43.1-38.9,62.7c2-2.6,4-5.2,6-7.8c-19.4,25-41.8,47.3-66.7,66.7c2.6-2,5.2-4,7.8-6c-25.9,20-54.2,36.6-84.3,49.3
			c3.1-1.3,6.1-2.6,9.1-3.9c-26.8,11.2-55.1,19.6-83.9,23.6c3.4-0.5,6.8-0.9,10.2-1.4c-15,2-30,2.5-45.1,0.5
			c3.4,0.5,6.8,0.9,10.2,1.4c-9.4-1.4-18.6-3.7-27.4-7.3c3.1,1.3,6.1,2.6,9.1,3.9c-8-3.4-15.4-7.7-22.2-12.9c2.6,2,5.2,4,7.8,6
			c-5.4-4.3-10.3-9.2-14.5-14.7c2,2.6,4,5.2,6,7.8c-3.5-4.7-6.4-9.7-8.8-15.1c1.3,3.1,2.6,6.1,3.9,9.1c-2.7-6.5-4.4-13.1-5.3-20.1
			c0.5,3.4,0.9,6.8,1.4,10.2c-1.1-9.5-0.8-19,0.4-28.5c-0.5,3.4-0.9,6.8-1.4,10.2c3.7-27.2,13.1-53.3,18.5-80.1
			c6-29.8,10.9-61.2,10.6-91.7c-0.3-31.7-11.4-62.7-36.4-83.3c-22.5-18.5-48.2-29.2-75.1-39.7c-25.7-10.1-51.9-19.2-77.3-29.9
			c3.1,1.3,6.1,2.6,9.1,3.9c-25.7-10.9-50.6-23.6-72.8-40.5c2.6,2,5.2,4,7.8,6c-13.8-10.7-26.1-22.8-36.8-36.4c2,2.6,4,5.2,6,7.8
			c-11.2-14.5-20.4-30.3-27.7-47.2c1.3,3,2.6,6.1,3.9,9.1c-7.3-17.4-12.3-35.7-14.9-54.4c0.5,3.4,0.9,6.8,1.4,10.2
			c-2.2-16.9-2.4-33.9-0.2-50.8c-0.5,3.4-0.9,6.8-1.4,10.2c2-14.8,5.8-29.3,11.5-43c-1.3,3-2.6,6.1-3.9,9.1
			c4.3-10,9.7-19.5,16.3-28.2c-2,2.6-4,5.2-6,7.8c5.7-7.3,12.1-13.8,19.3-19.5c-2.6,2-5.2,4-7.8,6c7.2-5.5,14.9-10,23.2-13.5
			c-3.1,1.3-6.1,2.6-9.1,3.9c9.9-4.1,20.1-6.7,30.7-8.2c-3.4,0.5-6.8,0.9-10.2,1.4c16.1-2.1,32.2-1.5,48.2,0.7
			c-3.4-0.5-6.8-0.9-10.2-1.4c40.3,5.7,77.6,21.7,116.1,33.9c44.5,14,93.2,22.1,138.8,8.1c38.3-11.8,72.3-36.4,97.6-67.2
			c12.7-15.5,24.3-31.9,33.7-49.6c11-20.7,19.9-42.7,27.6-64.9c15.2-43.4,24.1-89.3,41.7-131.8c-1.3,3.1-2.6,6.1-3.9,9.1
			c4.8-11.4,10.6-22.4,18.2-32.2c-2,2.6-4,5.2-6,7.7c4.3-5.4,9-10.2,14.4-14.4c-2.6,2-5.2,4-7.8,6c4.9-3.7,10.2-6.8,15.9-9.2
			c-3.1,1.3-6.1,2.6-9.1,3.9c6.8-2.7,13.9-4.5,21.1-5.6c-3.4,0.5-6.8,0.9-10.2,1.4c13.1-1.7,26.3-1.1,39.3,0.6
			c-3.4-0.5-6.8-0.9-10.2-1.4c18.5,2.6,36.5,7.6,53.7,14.9c-3.1-1.3-6.1-2.6-9.1-3.9c18.2,7.8,35.3,17.9,51,30c-2.6-2-5.2-4-7.8-6
			c16.1,12.6,30.6,27.1,43.2,43.2c-2-2.6-4-5.2-6-7.8c8.1,10.6,16.1,21.8,21.4,34c-1.3-3-2.6-6.1-3.9-9.1
			c6.9,16.4,9.3,34.1,11.7,51.6c1.2,8.9,2.4,17.8,4.3,26.5c2.3,11.4,6.1,21.8,10.7,32.5c5.9,13.7,14.8,26.7,27.7,34.4
			c6.4,3.8,12.8,7.8,19,11.9c11.7,7.7,23.1,15.8,34.2,24.3c-2.6-2-5.2-4-7.8-6c19.6,15.2,38.5,31.8,53.8,51.5c-2-2.6-4-5.2-6-7.8
			c6,7.8,11.3,16.1,15.1,25.2c-1.3-3-2.6-6.1-3.9-9.1C2584.3,446.3,2585.9,451.5,2586.7,456.8c1.4,8.9,10.2,18.6,17.6,22.9
			c8.2,4.8,20.3,6.8,29.5,3.9c9.3-3,18.2-8.7,22.9-17.6c5.1-9.7,5.5-18.8,3.9-29.5c-2.5-16.1-10.6-31.9-19.9-45.1
			c-10.8-15.3-23.2-29.3-37-42c-22.8-21-48.1-39.6-74.3-56.2c-5.1-3.3-10.3-6.5-15.6-9.6c2.6,2,5.2,4,7.8,6
			c-0.6-0.8-1.3-1.5-1.9-2.4c2,2.6,4,5.2,6,7.8c-3.8-5.2-6.9-10.8-9.4-16.8c1.3,3,2.6,6.1,3.9,9.1c-7.2-17.9-9.3-37.2-12-56.2
			c-3.1-21.8-7.8-43.1-18.7-62.5c-11.1-19.7-25.7-38.1-41.4-54.3c-15.9-16.3-34.1-30.8-53.4-42.7c-19.5-12.1-41-21.6-63-28.1
			c-22.6-6.7-47.3-10.6-70.8-9.4c-30,1.6-58,11.3-79.8,32.5c-18.2,17.7-29.3,40.6-38.4,64c-9.3,24.2-15.9,49.4-23.2,74.3
			c-7.8,26.8-16,53.5-26.8,79.3c1.3-3,2.6-6.1,3.9-9.1c-9.6,22.7-21.2,44.3-36.2,63.9c2-2.6,4-5.2,6-7.8
			c-10.7,13.9-22.9,26.5-36.6,37.3c2.6-2,5.2-4,7.8-6c-11.1,8.5-23,15.8-35.9,21.2c3.1-1.3,6.1-2.6,9.1-3.9
			c-11,4.5-22.4,7.6-34.2,9.4c3.4-0.5,6.8-0.9,10.2-1.4c-14.6,1.9-29.2,1.6-43.8-0.2c3.4,0.5,6.8,0.9,10.2,1.4
			c-57.9-7.8-110-37.6-167.7-46.2c-31-4.6-63.1-5.8-93.2,4.3c-31.7,10.6-56.9,30.3-76.1,57.5c-15.7,22.2-25.1,49.6-28.8,76.5
			c-4.3,31.3-3.2,62.2,4.4,93.1c6.7,27.4,18.4,54.4,34.3,77.8c17.6,26,38.9,47.2,64.3,65.5c51.3,37,114.2,53.2,171.9,77.4
			c-3.1-1.3-6.1-2.6-9.1-3.9c13.1,5.5,25.9,11.8,37.4,20.4c-2.6-2-5.2-4-7.8-6c5.5,4.3,10.4,9,14.7,14.5c-2-2.6-4-5.2-6-7.8
			c2.9,3.9,5.3,7.9,7.3,12.3c-1.3-3-2.6-6.1-3.9-9.1c2.4,5.9,4,11.9,4.9,18.2c-0.5-3.4-0.9-6.8-1.4-10.2c2.6,21-0.3,43-3.1,63.9
			c0.5-3.4,0.9-6.8,1.4-10.2c-2.2,15.9-5.1,31.7-8.8,47.3c-3.4,14.3-7.6,28.3-11,42.6c-8.3,35.6-10.5,73.5,8.3,106.5
			c15.9,27.8,43.9,47,74,56.4c34.2,10.7,71.6,7,106-0.6c104.5-23,198.1-90.9,255-181.1c16.9-26.8,29.5-55.8,42.3-84.7
			c12.9-29,25.9-59.4,45.4-84.7c-2,2.6-4,5.2-6,7.8c4.6-5.8,9.7-11.2,15.5-15.8c-2.6,2-5.2,4-7.8,6c4.1-3.1,8.4-5.7,13.1-7.8
			c-3.1,1.3-6.1,2.6-9.1,3.9c5.3-2.2,10.8-3.6,16.5-4.3c-3.4,0.5-6.8,0.9-10.2,1.4c9.2-1,18.3-0.4,27.5,0.8
			c-3.4-0.5-6.8-0.9-10.2-1.4c31.8,4.4,63.7,13.5,95.6,3.7c29.7-9.2,52.3-29.7,69.5-55c14.6-21.4,24.4-46.6,32.2-71.2
			c9.1-28.7,17.1-58,22.5-87.6c3.7-20.2,6.5-40.8,7.4-61.3c0.9-20.7-0.8-40.9-3.7-61.4c-1.2-8.8-10.3-18.6-17.6-22.9
			c-8.2-4.8-20.3-6.8-29.5-3.9c-9.3,3-18.2,8.7-22.9,17.6c-1.3,3-2.6,6.1-3.9,9.1C2584.9,443.3,2584.9,450,2586.7,456.8z"/>
	</g>
</g>
<g>
	<g>
		<path class="st1" d="M2297.8,287.6c4.3-1.5,8.6-2.5,13.1-3.2c-3.4,0.5-6.8,0.9-10.2,1.4c5.4-0.6,10.7-0.6,16.1,0
			c-3.4-0.5-6.8-0.9-10.2-1.4c5.3,0.7,10.4,2.1,15.3,4c-3.1-1.3-6.1-2.6-9.1-3.9c4.9,2.1,9.5,4.7,13.8,7.9c-2.6-2-5.2-4-7.8-6
			c3.7,2.9,7.1,6.2,10.1,9.9c-2-2.6-4-5.2-6-7.8c2.6,3.4,4.6,6.9,6.4,10.8c-1.3-3-2.6-6.1-3.9-9.1c2.7,6.7,4,13.6,5,20.8
			c-0.5-3.4-0.9-6.8-1.4-10.2c1.4,10.3,2.2,20.8,4.7,31c1.8,7.2,4.5,14,7.4,20.8c5.4,12.8,12,24.6,20.1,35.9
			c16.6,22.9,36,43.4,53.4,65.7c-2-2.6-4-5.2-6-7.8c7.5,9.8,13.5,20.4,20.5,30.5c9,13,19.8,24.7,29.5,37.2c-2-2.6-4-5.2-6-7.8
			c5.7,7.4,10.6,15,14.3,23.6c-1.3-3-2.6-6.1-3.9-9.1c3.5,8.7,5.8,17.6,7.1,26.8c-0.5-3.4-0.9-6.8-1.4-10.2c1.1,9.3,1,18.5-0.2,27.8
			c0.5-3.4,0.9-6.8,1.4-10.2c-1.3,8.6-3.5,16.9-6.9,24.9c1.3-3,2.6-6.1,3.9-9.1c-2.4,5.5-5.2,10.7-8.7,15.5c2-2.6,4-5.2,6-7.8
			c-2.6,3.2-5.3,6.1-8.5,8.6c2.6-2,5.2-4,7.8-6c-2.7,1.9-5.5,3.5-8.5,4.9c3.1-1.3,6.1-2.6,9.1-3.9c-4.6,1.9-9.4,3.1-14.3,3.8
			c3.4-0.5,6.8-0.9,10.2-1.4c-21.1,2.7-42.8-1-63.8-3.5c-22.8-2.6-45.6-5.3-68.6-5.7c-11.8-0.2-23.8,0.5-35.4,2.9
			c-15.4,3.2-29.9,14-40.5,25c-23.6,24.5-34.1,56.7-48.7,86.6c-17.4,35.8-38.5,69.7-62.7,101.2c2-2.6,4-5.2,6-7.8
			c-13.1,17-26.9,33.7-44,46.9c2.6-2,5.2-4,7.8-6c-7.3,5.5-15.1,10.3-23.5,13.9c3.1-1.3,6.1-2.6,9.1-3.9c-6.2,2.6-12.6,4.5-19.3,5.5
			c3.4-0.5,6.8-0.9,10.2-1.4c-5.6,0.7-11.1,0.8-16.7,0c3.4,0.5,6.8,0.9,10.2,1.4c-4.5-0.7-8.8-1.8-12.9-3.6c3.1,1.3,6.1,2.6,9.1,3.9
			c-2.7-1.2-5.2-2.7-7.6-4.4c2.6,2,5.2,4,7.8,6c-2.3-1.8-4.3-3.8-6.2-6.1c2,2.6,4,5.2,6,7.8c-1.6-2.2-3-4.5-4.2-7
			c1.3,3,2.6,6.1,3.9,9.1c-1.6-3.7-2.5-7.5-3.1-11.4c0.5,3.4,0.9,6.8,1.4,10.2c-1-8.8-0.1-17.6,1.1-26.4c-0.5,3.4-0.9,6.8-1.4,10.2
			c3.8-28.4,7.5-57.3,5.5-86c-1.2-16.8-4.2-34-13.1-48.6c-6.8-11.1-14.7-18.1-25.2-25.4c-12.7-8.8-27.1-15.4-41-21.9
			c-17.6-8.1-35.5-15.8-53.6-22.8c-9.6-3.7-19.3-7-28.7-10.9c3.1,1.3,6.1,2.6,9.1,3.9c-26.4-11.2-52.3-24.6-75-42.2
			c2.6,2,5.2,4,7.8,6c-8.9-7-17.3-14.6-24.2-23.6c2,2.6,4,5.2,6,7.8c-3.4-4.5-6.4-9.3-8.7-14.6c1.3,3,2.6,6.1,3.9,9.1
			c-1.6-3.7-2.7-7.6-3.2-11.6c0.5,3.4,0.9,6.8,1.4,10.2c-0.4-3.4-0.4-6.7-0.1-10.1c-0.5,3.4-0.9,6.8-1.4,10.2c0.4-2.7,0.9-5.2,2-7.7
			c-1.3,3-2.6,6.1-3.9,9.1c0.8-1.9,1.9-3.7,3.2-5.4c-2,2.6-4,5.2-6,7.8c1.6-2,3.5-3.8,5.5-5.4c-2.6,2-5.2,4-7.8,6
			c3.1-2.3,6.5-4.2,10.1-5.7c-3.1,1.3-6.1,2.6-9.1,3.9c7.9-3.3,16.3-5,24.7-6.2c-3.4,0.5-6.8,0.9-10.2,1.4
			c27.3-3.7,55.4-1.8,82.7,0.7c28,2.5,55.8,6.5,83.7,10c23.9,3.1,47.1,4.7,71.3,3c18.7-1.3,38.1-3.1,56.1-8.6
			c25.4-7.8,44.4-25.4,58.1-47.8c6.4-10.5,11.3-21.9,16.1-33.2c6.4-15.1,12.5-30.4,18.2-45.8c9.6-25.9,18.7-52,29.5-77.5
			c-1.3,3-2.6,6.1-3.9,9.1c4.1-9.7,8.2-19.3,12.3-29c-1.3,3-2.6,6.1-3.9,9.1c7.6-18.1,15.6-36.3,27.7-52c-2,2.6-4,5.2-6,7.8
			c4.4-5.6,9.3-10.7,15-15.2c-2.6,2-5.2,4-7.8,6c4.1-3.1,8.5-5.7,13.2-7.8c-3.1,1.3-6.1,2.6-9.1,3.9
			C2296.1,288.3,2297,288,2297.8,287.6c9.6-3.7,17.5-8.5,22.9-17.6c4.8-8.2,6.8-20.3,3.9-29.5c-3-9.3-8.7-18.2-17.6-22.9
			c-8.6-4.5-20-7.5-29.5-3.9c-14.6,5.6-26.6,12.5-38.1,23.2c-8.9,8.3-16.4,18.4-22.8,28.7c-12.1,19.2-20.1,40.8-28.9,61.6
			c1.3-3,2.6-6.1,3.9-9.1c-9.6,22.6-18.7,45.3-27.2,68.4c-7.9,21.4-15.6,42.8-24.4,63.9c1.3-3,2.6-6.1,3.9-9.1
			c-6.1,14.5-12.4,29-21.9,41.7c2-2.6,4-5.2,6-7.8c-3.8,4.9-8,9.4-12.9,13.3c2.6-2,5.2-4,7.8-6c-3.3,2.5-6.7,4.7-10.5,6.3
			c3.1-1.3,6.1-2.6,9.1-3.9c-10.1,4.1-21.1,5.9-31.8,7.3c3.4-0.5,6.8-0.9,10.2-1.4c-20.2,2.7-41,4-61.3,2.4
			c-16.4-1.3-32.6-3.7-48.9-5.8c-41.2-5.4-82.9-11.3-124.6-10.1c-19.2,0.6-39.7,2-57.6,9.2c-11.5,4.6-22.2,9.7-31,18.9
			c-7.9,8.3-14.4,18.9-16.6,30.3c-2.7,14-2.7,28.6,2.3,42.1c5.3,14.2,12.4,25.3,22.2,36.9c14.8,17.4,34.6,31.2,54.1,42.8
			c15.9,9.5,32.5,17.7,49.6,25c14.6,6.2,29.5,11.4,44.2,17.3c4.9,2,9.7,3.9,14.6,6c-3.1-1.3-6.1-2.6-9.1-3.9
			c13,5.5,25.9,11.3,38.5,17.5c10.2,5,20.5,10.3,29.6,17.1c-2.6-2-5.2-4-7.8-6c2.1,1.6,3.9,3.3,5.6,5.3c-2-2.6-4-5.2-6-7.8
			c2.4,3.2,4.3,6.4,5.9,10c-1.3-3-2.6-6.1-3.9-9.1c2.1,5.3,3.4,10.8,4.2,16.4c-0.5-3.4-0.9-6.8-1.4-10.2c3.2,25.4,0.6,52.2-2.8,77.5
			c0.5-3.4,0.9-6.8,1.4-10.2c-2.7,19.5-6,39.2-0.4,58.7c3.4,11.7,9.3,22,17.6,30.8c8.1,8.6,18.1,13.8,28.8,18.1
			c31.9,12.9,70.6,2.4,97.7-16.7c27.9-19.7,48.8-45.8,69-73.1c18.6-25.2,35.2-51.8,49.5-79.6c7.6-14.8,14.3-29.9,21.1-45.1
			c5.9-13.3,12.3-26.5,21.1-38.2c-2,2.6-4,5.2-6,7.8c4.2-5.4,8.8-10.3,14.1-14.6c-2.6,2-5.2,4-7.8,6c3.3-2.5,6.8-5.1,10.7-6.8
			c-3.1,1.3-6.1,2.6-9.1,3.9c2.9-1.1,5.9-1.7,8.9-2.2c-3.4,0.5-6.8,0.9-10.2,1.4c18.6-2.5,37.9-0.5,56.4,1.2c18.3,1.6,36.5,4,54.8,6
			c27.4,3,57.9,4.2,82.3-11c33.8-21.1,48.8-66,46.6-104.3c-1.2-22-6.6-43.8-17.6-63c-9.2-16.2-22.6-29.8-34.1-44.4
			c2,2.6,4,5.2,6,7.8c-5.7-7.4-10.2-15.5-15.4-23.3c-6.6-10-14.1-19.4-21.6-28.7c-11.8-14.6-24.5-28.5-36.1-43.3c2,2.6,4,5.2,6,7.8
			c-9.4-12.2-17.9-24.9-24.1-39.1c1.3,3,2.6,6.1,3.9,9.1c-3.9-9.4-6.4-19-7.8-29.1c0.5,3.4,0.9,6.8,1.4,10.2
			c-2.4-18.1-4.2-34.4-12.6-50.9c-7-13.8-18.7-24.8-31.4-33.5c-23.9-16.3-58.1-20.3-85.3-10.7c-9.5,3.4-17.7,8.7-22.9,17.6
			c-4.8,8.2-6.8,20.3-3.9,29.5C2256.8,279.5,2277.6,294.8,2297.8,287.6z"/>
	</g>
</g>
<g>
	<path class="st2" d="M758.1,584.8c0,0-52.1,122.7-158.4,162.9s-226.5-17.5-226.5-17.5s52.1-122.7,158.4-162.9
		S758.1,584.8,758.1,584.8z"/>
	<path class="st3" d="M532.3,588.6c-2.5-6.5-11.3-7.2-14.8-1.3c-11.9,20.3-11.8,56.7,2.2,93.9c14,37.2,38,64.5,60.4,71.9
		c6.6,2.2,12.8-4.3,10.3-10.8c0,0-17.8-32.2-34-75C540.2,624.5,532.3,588.6,532.3,588.6z"/>
	<path class="st3" d="M603.2,737.5c2.5,6.5,11.3,7.2,14.8,1.3c11.9-20.3,11.8-56.7-2.2-93.9s-38-64.5-60.4-71.9
		c-6.6-2.2-12.8,4.3-10.3,10.8c0,0,17.8,32.2,34,75C595.3,701.6,603.2,737.5,603.2,737.5z"/>
	<path class="st4" d="M758.7,586.2c2.4,0.3,3.1-3.2,0.8-3.8c-42.7-12.6-124.7-54.1-227.9-15.1s-137.3,124.3-161,161.9
		c-1.3,2.1,1.5,4.2,3.1,2.3c31.1-35.5,113-94.9,175.2-118.4C611.1,589.7,711.9,580.1,758.7,586.2z"/>
	<path class="st4" d="M373.7,731.4c-2.4-0.3-3.1,3.2-0.8,3.8c42.7,12.6,124.7,54.1,227.9,15.1c103.2-39,137.3-124.3,161-161.9
		c1.3-2.1-1.5-4.2-3.2-2.3c-31.1,35.5-101.1,126.6-163.2,150.1C533.2,759.6,420.4,737.4,373.7,731.4z"/>
</g>
<g>
	<path class="st2" d="M1867,407.1c0,0-76.3,49.2-151.6,31.2c-75.3-18.1-121-96.6-121-96.6s76.3-49.2,151.6-31.2
		C1821.3,328.5,1867,407.1,1867,407.1z"/>
	<path class="st3" d="M1738.3,322.8c1.1-4.6-3.6-8.4-7.9-6.4c-14.5,6.9-28.4,27.4-34.7,53.8c-6.3,26.3-3.2,51,6.5,63.6
		c2.9,3.7,8.8,2.5,9.9-2.1c0,0,2.3-24.9,9.6-55.3C1729,346,1738.3,322.8,1738.3,322.8z"/>
	<path class="st3" d="M1721.3,433.8c-1.1,4.6,3.6,8.4,7.9,6.4c14.5-6.9,28.4-27.4,34.7-53.8c6.3-26.3,3.2-51-6.5-63.6
		c-2.9-3.7-8.8-2.5-9.9,2.1c0,0-2.3,24.9-9.6,55.3C1730.5,410.6,1721.3,433.8,1721.3,433.8z"/>
	<path class="st4" d="M1866.8,408.1c1.2,1.1,3-0.6,1.9-1.9c-19.3-23.4-49.6-78.2-122.7-95.7s-124.9,17.5-152.8,29.6
		c-1.5,0.7-0.7,3,0.9,2.5c31.1-8.1,100-10.2,144.1,0.4C1782.3,353.6,1842.8,386.8,1866.8,408.1z"/>
	<path class="st4" d="M1594.2,342.5c-1.2-1.1-3,0.6-1.9,1.9c19.3,23.4,49.6,78.2,122.7,95.7c73.1,17.5,124.9-17.5,152.8-29.6
		c1.5-0.7,0.7-3-0.9-2.5c-31.1,8.1-105.4,32.7-149.5,22.1C1673.3,419.5,1618.2,363.9,1594.2,342.5z"/>
</g>
<g>
	<path class="st2" d="M429.3,1131.9c0,0-84.5,49.4-164.7,26.4c-80.2-23-125.6-109.6-125.6-109.6s84.5-49.4,164.7-26.4
		C383.8,1045.2,429.3,1131.9,429.3,1131.9z"/>
	<path class="st3" d="M294.7,1035.1c1.4-4.9-3.5-9.2-8.2-7.2c-15.9,6.7-31.8,28.2-39.9,56.2c-8,28-5.9,54.7,4,68.8
		c2.9,4.2,9.4,3.1,10.8-1.8c0,0,3.6-26.7,12.9-59C283.7,1059.7,294.7,1035.1,294.7,1035.1z"/>
	<path class="st3" d="M271.2,1153.8c-1.4,4.9,3.5,9.2,8.2,7.2c15.9-6.7,31.8-28.2,39.9-56.2s5.9-54.7-4-68.8
		c-2.9-4.2-9.4-3.1-10.8,1.8c0,0-3.6,26.7-12.9,59C282.3,1129.3,271.2,1153.8,271.2,1153.8z"/>
	<path class="st4" d="M429,1133c1.3,1.2,3.2-0.5,2.2-1.9c-19.6-26.1-49.7-86.5-127.5-108.8c-77.8-22.3-135.3,13-165.8,24.7
		c-1.7,0.6-0.9,3.1,0.8,2.8c33.8-7.2,108.1-6.3,155,7.2C340.6,1070.3,404.1,1108.9,429,1133z"/>
	<path class="st4" d="M138.8,1049.6c-1.3-1.2-3.2,0.5-2.2,1.9c19.6,26.1,49.7,86.5,127.5,108.8s135.3-13,165.8-24.7
		c1.7-0.6,0.9-3.1-0.8-2.8c-33.8,7.2-115,30.2-161.9,16.8C220.2,1136.1,163.6,1073.7,138.8,1049.6z"/>
</g>
<g>
	<path class="st2" d="M2097.1,955.6c0,0-103.9,70.3-208.3,47.7c-104.5-22.6-170-129.6-170-129.6s103.9-70.3,208.3-47.7
		C2031.6,848.6,2097.1,955.6,2097.1,955.6z"/>
	<path class="st3" d="M1916.8,843.2c1.4-6.4-5.2-11.5-11.1-8.6c-19.8,9.9-38.3,38.8-46.2,75.3c-7.9,36.5-2.9,70.4,11,87.6
		c4.1,5.1,12.3,3.1,13.6-3.2c0,0,2.4-34.5,11.5-76.6C1904.7,875.6,1916.8,843.2,1916.8,843.2z"/>
	<path class="st3" d="M1896.7,997c-1.4,6.4,5.2,11.5,11.1,8.6c19.8-9.9,38.3-38.8,46.2-75.3c7.9-36.5,2.9-70.4-11-87.6
		c-4.1-5.1-12.3-3.1-13.6,3.2c0,0-2.4,34.5-11.5,76.6C1908.8,964.7,1896.7,997,1896.7,997z"/>
	<path class="st4" d="M2096.8,957c1.7,1.5,4.1-0.9,2.6-2.6c-27.3-31.8-70.8-106.4-172.3-128.3c-101.4-21.9-171.9,28-209.9,45.7
		c-2.1,1-0.9,4.1,1.3,3.5c42.7-12.1,137.7-17.2,198.9-4S2063,928.3,2096.8,957z"/>
	<path class="st4" d="M1718.5,875c-1.7-1.5-4.1,0.9-2.6,2.6c27.3,31.8,70.8,106.4,172.3,128.3c101.4,21.9,171.9-28,209.9-45.7
		c2.1-1,0.9-4.1-1.3-3.5c-42.7,12.1-144.5,48.4-205.6,35.2C1830.1,978.7,1752.4,903.6,1718.5,875z"/>
</g>
<g>
	<g>
		<path class="st0" d="M1507.5,1745.4c4.3,17.3,5.8,35.4,8.4,53c3.1,21,6.2,42.4,13.3,62.5c8.6,24.7,24.6,50.2,54.1,50
			c28.5-0.1,46.9-24.7,61.8-45.6c3.4-4.8,6.7-9.7,10.2-14.5c1.7-2.4,3.4-4.7,5.1-7c2.6-3.5-5.5,6.9-1.9,2.5c0.9-1.1,1.8-2.3,2.8-3.4
			c1.7-2,3.4-3.9,5.3-5.8c0.9-0.9,1.9-1.8,2.8-2.7c3.9-3.7-4.2,3-3.2,2.4c1.5-0.9,4.5-2.1,5.5-3.3c0.1-0.1-7.4,2.8-5.8,2.4
			c0.6-0.1,1.3-0.5,1.9-0.6c1-0.3,2-0.5,3.1-0.6c-2.8,0.4-5.7,0.8-8.5,1.1c2-0.2,4,0,6,0.2c-2.8-0.4-5.7-0.8-8.5-1.1
			c2.4,0.4,4.6,1,6.9,1.6c4.6,1.1-4-1.2-3.8-1.7c0-0.1,3.5,1.7,3.7,1.9c1.6,0.9,3.1,2.1,4.7,3c-7.6-4.2-4.5-3.6-2.1-1.5
			c1.1,0.9,2.1,1.9,3.2,2.9c3.2,3.1,6.1,6.4,8.8,9.8c5.2,6.4-4.4-5.9,0.5,0.7c1.5,2,3,4,4.5,6.1c7.3,9.9,14.6,20,23.6,28.5
			c9,8.5,19.3,16.2,30.1,22.4c22.4,12.8,47.3,19.7,73,21.5c26.1,1.9,51.6-3.9,75.3-14.6c41.9-18.9,77-61.1,83.6-107.1
			c2.1-14.8,2-28.1-0.2-42.9c-1.8-12.5-6.1-24.1-11.2-35.6c-10.1-22.8-27.1-41.5-47.1-56.2c-20-14.7-44.2-20.9-67.2-29.1
			c-2.3-0.8-4.6-1.7-6.9-2.6c-1.1-0.4-5.8-2.4-0.2,0c5.9,2.5-0.2-0.2-1.3-0.7c-2.1-1-4.1-2.1-6.1-3.2c-1-0.6-5.9-4.6-6.7-4.4
			c0.2,0,6.5,5.5,3.4,2.5c-0.9-0.9-1.9-1.7-2.8-2.7c-0.8-0.8-1.4-1.7-2.2-2.4c-2.3-2.1,4.9,7.6,1.9,2.3c-0.6-0.9-1.2-1.8-1.7-2.8
			c-1.7-3-0.7-4.4,0.7,2.2c-0.8-3.7-2.1-7.2-2.7-11.1c0.4,2.8,0.8,5.7,1.1,8.5c-1.8-16.3-0.2-33.2,0.2-49.6
			c0.4-17.4,0.8-34.8,1.2-52.2c0.9-35.8,3.5-72.4-12.3-105.7c-7.4-15.5-20.1-28.6-34.4-37.7c-17.1-10.9-37-14.2-56.8-10.9
			c-32.3,5.3-54.3,33.1-64.3,62.5c-11.4,33.4-1.4,67.9-5.4,102.1c0.4-2.8,0.8-5.7,1.1-8.5c-0.7,5.2-1.7,10.3-3.3,15.2
			c-0.6,1.8-1.3,3.4-1.8,5.2c3.2-9.8,1.3-3.1-0.1-0.6c-1.8,3.2-4,6.1-5.9,9.2c5.1-8.4,2-2.6,0-0.4c-1.2,1.4-2.6,2.7-3.9,4
			c-1.4,1.3-2.8,2.5-4.2,3.7c-4.1,3.6,6.9-4.8,0-0.2c-3.1,2.1-6.4,4-9.8,5.7c-7.5,3.7,5.4-1.7,0.2,0c-1.6,0.5-3.1,1.1-4.6,1.6
			c-4.8,1.5-9.8,2.4-14.8,3.1c2.8-0.4,5.7-0.8,8.5-1.1c-25.1,3.2-50.7,0.1-75.5,6.6c-19.5,5.1-38.8,15.8-51.6,31.6
			c-15.2,18.7-23.6,41.5-25.2,65.6c-1.6,23.1,12.1,41.2,30.2,53.6c2.8,1.9,5.8,3.7,8.7,5.5c1.4,0.9,8.7,4.3,8.8,5.9
			c0.1,0.6-6.9-6-4-3c0.7,0.8,1.6,1.4,2.4,2.1c2.5,2.4,4.9,7.4-0.7-1.6c0.9,1.4,1.8,2.8,2.6,4.2c1.5,2.7,0.5,4.5-1.6-3.9
			C1506.7,1743.1,1507.1,1744.2,1507.5,1745.4c4.4,16.1,22.9,27.7,39.3,22.3c16.5-5.3,27.1-22.1,22.3-39.3
			c-5.5-20.1-19.6-33.9-36.7-44.6c-2.5-1.6-5.1-3.1-7.5-4.7c-1.1-0.7-2.2-1.5-3.4-2.2c-5.2-3.5,6.1,5.4,2.2,1.7
			c-0.9-0.9-1.8-1.8-2.7-2.7c-3.4-3.2,4.6,7.5,1.9,2.4c-0.3-0.5-0.6-1.1-0.9-1.7c-1.8-2.9,2.2,4.8,2.1,4.9c0.3-0.7-1-4.2-1.2-5.1
			c0.4,2.8,0.8,5.7,1.1,8.5c-0.3-2.9-0.2-5.7,0.2-8.5c-0.4,2.8-0.8,5.7-1.1,8.5c0.6-4.3,1.4-8.5,2.5-12.7c0.5-2,1.8-10.2,3.7-11.3
			c0.1,0-3.6,7.7-1.5,3.8c0.4-0.8,0.8-1.7,1.2-2.5c0.8-1.6,1.7-3.2,2.7-4.7c0.6-0.9,2.9-3.3,3-4.3c0,0.3-5.3,6.4-2.6,3.4
			c0.7-0.8,1.4-1.6,2.2-2.4c1.2-1.2,2.4-2.4,3.7-3.6c0.6-0.6,1.3-1.1,2-1.7c2.5-2.3-6.3,4.4-3.4,2.7c3-1.8,5.8-3.8,9-5.4
			c0.8-0.4,1.7-0.7,2.4-1.2c3.1-1.7-7.2,2.7-3.8,1.6c1.8-0.6,3.5-1.3,5.3-1.9c5.2-1.7,10.6-2.8,16-3.6c-2.8,0.4-5.7,0.8-8.5,1.1
			c17.4-2.2,35.1-0.9,52.5-2.9c20-2.2,39.5-7.1,56.4-18.7c15.1-10.4,28.6-23.7,37-40.2c9.7-18.9,13.2-39.6,13.1-60.8
			c-0.1-18.9-3.1-38-0.8-56.9c-0.4,2.8-0.8,5.7-1.1,8.5c0.8-6.2,2.2-12.2,4.2-18.1c0.9-2.7,4.3-8.5-0.6,1c0.7-1.3,1.2-2.6,1.8-3.9
			c1.4-2.7,3-5.3,4.6-7.9c3.5-5.7-4.9,5.5-1.2,1.5c0.9-1,1.8-2.1,2.8-3.1s2-1.9,3-2.8c3.9-3.7-7.3,4.7-1.7,1.3
			c1.4-0.8,2.7-1.7,4.1-2.4c2.8-1.5,6.1-1.2-2.7,1c3.2-0.8,6.2-1.9,9.6-2.4c-2.8,0.4-5.7,0.8-8.5,1.1c3.8-0.4,7.5-0.5,11.3,0
			c-2.8-0.4-5.7-0.8-8.5-1.1c3.2,0.5,6.2,1.2,9.3,2.2c5.7,1.7-6.9-3.7-1.7-0.8c1.4,0.8,2.8,1.5,4.2,2.3c1.2,0.7,3.3,1.6,4,2.7
			c-0.8-1.2-6.1-5-2-1.5c2.5,2.1,4.6,4.5,6.8,6.9c2.6,2.8-4.4-6.4-1.6-2c0.9,1.3,1.8,2.6,2.6,4c0.8,1.4,1.5,2.8,2.3,4.2
			c2.8,5.1-2.6-7.3-0.3-0.9c2.5,7.2,4.2,14.5,5.3,22.1c-0.4-2.8-0.8-5.7-1.1-8.5c1.7,14.5,1.3,29.1,0.9,43.7
			c-0.4,16-0.8,31.9-1.2,47.9c-0.4,16.3-0.8,32.6-1.2,48.9c-0.4,18.7,0.3,36.6,8.7,53.7c12.3,25,38.7,37.5,63.6,46.2
			c10.3,3.6,20.7,6.7,30.9,10.6c2.3,0.9,7.2,3.5-2.3-1.1c0.9,0.4,1.9,0.8,2.8,1.2c2.7,1.2,5.3,2.6,7.8,4c2.5,1.4,5,3,7.4,4.6
			c1.1,0.7,2.2,1.5,3.2,2.3c2,1.5,0.9,0.6-3.3-2.6c0.8,0.7,1.6,1.3,2.4,2c4.8,4,9.3,8.5,13.3,13.3c1.6,1.9,4.4,6.5-1.1-1.6
			c1.2,1.7,2.5,3.3,3.6,5.1c1.7,2.6,3.4,5.2,4.9,7.9s2.8,5.5,4.2,8.3c2.7,5.4-2.9-7.7-0.8-2c0.5,1.4,1.1,2.9,1.6,4.3
			c2.2,6.3,3.7,12.8,4.6,19.4c-0.4-2.8-0.8-5.7-1.1-8.5c1.1,8.6,1.2,17.3,0.2,25.9c0.4-2.8,0.8-5.7,1.1-8.5
			c-0.8,5.8-2.1,11.5-3.8,17c-0.8,2.7-1.9,5.2-2.9,7.9c3.6-10.4,0.2-0.8-1.3,2.1c-2.8,5.2-6,10.2-9.5,15c-2.2,3.1,5-6.1,1.6-2.2
			c-1,1.2-2,2.4-3,3.6c-2.1,2.3-4.3,4.6-6.5,6.8c-2.1,2-4.2,3.9-6.4,5.8c-1,0.8-5.8,4.6-1.1,0.9c4.5-3.5,0.5-0.4-0.6,0.3
			c-5.2,3.7-10.7,6.9-16.3,9.8c-1.2,0.6-2.4,1.2-3.6,1.7c-6.2,2.8,4.9-1.9,1.8-0.7c-2.8,1-5.5,2.1-8.3,2.9
			c-6.2,1.9-12.5,3.3-18.9,4.3c2.8-0.4,5.7-0.8,8.5-1.1c-11.9,1.6-23.8,1.5-35.7-0.1c2.8,0.4,5.7,0.8,8.5,1.1
			c-5.9-0.9-11.7-2-17.5-3.6c-2.6-0.7-5.2-1.5-7.7-2.4c-1.5-0.5-3.1-1.1-4.6-1.7c-7.9-3,5.2,2.5,0.2,0.1c-4.8-2.3-9.6-4.7-14.2-7.5
			c-2.7-1.7-5.4-3.4-8-5.3c-0.8-0.6-1.7-1.3-2.6-1.9c8.6,5.8,2.3,1.7,0.3,0c-4.3-3.8-8.4-7.9-12.1-12.3c-1.8-2.1-7-9.5-0.5-0.5
			c-1.8-2.4-3.6-4.8-5.4-7.2c-7.9-10.6-15.6-21.9-25.6-30.7c-21.4-19.1-53.3-29.9-79.4-13c-17.7,11.5-29.6,29.4-41.4,46.5
			c-2.7,3.8-5.3,7.7-8.1,11.4c-0.7,0.9-1.3,1.8-2,2.7c-3,4.1,5.5-6.8,2.3-3c-1.5,1.7-2.9,3.5-4.4,5.2c-1.4,1.6-2.9,3.1-4.4,4.6
			c-0.6,0.5-1.2,1-1.7,1.6c-3.9,3.7,7.2-4.9,3.4-2.5c-1.4,0.9-2.8,1.7-4.2,2.5c-3.7,2.2,8.9-3,4.8-2.1c-1,0.2-1.9,0.5-2.8,0.7
			c2.8-0.4,5.7-0.8,8.5-1.1c-1.5,0.2-2.9,0.2-4.3,0.1c2.8,0.4,5.7,0.8,8.5,1.1c-0.7-0.1-1.4-0.4-2.2-0.4c-1.1-0.1-5.1-2.1,2.4,1.1
			c8.9,3.8,3.4,1.7,2.7,1.1c-0.5-0.4-1.3-0.9-1.8-1.1c-0.4-0.1,7.2,6.5,4,2.9c-0.5-0.6-1.1-1.2-1.7-1.8c-2.9-2.8,5.5,7.8,2.9,3.8
			c-1.1-1.7-2.2-3.4-3.2-5.2c-0.5-0.9-0.9-1.8-1.4-2.8c-0.2-0.4-0.4-0.8-0.6-1.2c-1.8-3.7,2.3,5.8,2.1,5c-0.7-2.4-1.8-4.7-2.6-7.1
			c-1.7-5.1-3.2-10.3-4.4-15.5c-5.6-22.8-8.4-46.2-11.7-69.5c-1.4-9.7-2.6-19.5-5-29c-4.1-16.2-23.2-27.6-39.3-22.3
			C1513,1711.5,1503.1,1728,1507.5,1745.4z"/>
	</g>
</g>
<g>
	<g>
		<path class="st0" d="M1259.1,1720.9c2.4,18.4,6.4,35.2,18.9,49.6c7.9,9,19.5,15.5,31.3,17.8c10.1,1.9,19.6,2,29.7,0.9
			c6.8-0.7,13.8-1.8,20.7-1c-2.8-0.4-5.7-0.8-8.5-1.1c1.5,0.2,2.9,0.7,4.4,1c3.8,0.8-9.1-4.7-4.9-2c3.6,2.3-4.5-3.7-4.5-3.6
			c0.1,0.4,1.4,1.5,1.7,1.8c-6-4.9-5.3-7.3-3.5-4.3c2.8,4.7-2.8-8.5-1.8-4.3c0.5,1.9,1.1,3.8,1.7,5.7c3,10.5,6.6,21.1,8.1,31.9
			c-0.4-2.8-0.8-5.7-1.1-8.5c1.6,11.7,1.4,23.7,1.9,35.4c0.8,19.8,1.6,39.5,2.4,59.3c0.8,19.7,1.2,39.5,2.6,59.1
			c1.6,21.8,5.3,42.9,15.9,62.3c16.9,30.8,50.1,54.8,84.9,60.2c20,3.1,40,2.8,59.6-2.9c19-5.5,36.4-15.3,51-28.6
			c5.9-5.4,11-11.5,15.9-17.8c3.9-5,7.8-10,11.6-15.1c0.7-0.9,2.5-3.3-0.6,0.8c-3.6,4.7-0.3,0.4,0.3-0.4c1.1-1.4,2.2-2.8,3.4-4.2
			c2.6-3.1,5.3-6.1,8.1-9c1.2-1.2,2.5-2.4,3.8-3.6c0.7-0.7,1.5-1.3,2.3-1.9c3.2-2.8-2.4,2.2-2.9,2.3c1.5-0.2,3.7-2.5,5-3.3
			c1.4-0.8,4.4-1.6,5.4-2.8c0,0-7.2,2.6-3.9,1.7c1.2-0.3,2.3-0.8,3.5-1.1c2.6-0.8,5.2-1.3,7.9-1.7c-2.8,0.4-5.7,0.8-8.5,1.1
			c6.6-0.9,13-0.7,19.6,0.1c-2.8-0.4-5.7-0.8-8.5-1.1c7.6,1.2,15,3.2,22.3,5.9c1.8,0.6,3.5,1.4,5.3,2.1c3.9,1.5-6.1-2.7-2.3-1
			c0.9,0.4,1.8,0.8,2.6,1.1c3.8,1.7,7.6,3.5,11.3,5.3c16,7.8,31.8,15.6,48.3,22.4c29.5,12.1,60.6,20.3,92.2,24.7
			c33.8,4.7,67.7,6.3,101.7,2.8c35.6-3.6,71.9-10,104.4-25.8c17.9-8.7,32.2-21.8,44-37.6c9.1-12.3,15.2-26.4,21.1-40.4
			c14.3-33.7,27.7-67.9,35.1-103.9c13.1-63.7,8.6-134.1-30.1-188.6c-9.1-12.9-19.3-25.1-31.6-35.2c-12.9-10.7-26.6-19.3-41.2-27.3
			c-6.4-3.6-12.9-7.1-19.1-11c-2.8-1.8-5.6-3.6-8.3-5.5c-1.1-0.8-5.8-4.4-1.4-1c4.5,3.4-0.8-0.8-1.8-1.7c-2.4-2.2-4.8-4.5-7-6.9
			c-0.5-0.6-1-1.3-1.6-1.9c-2.3-2.4,2.8,3.3,2.3,3.1c-1.1-0.4-2.7-3.9-3.3-4.9c-1.8-2.8-3.2-5.9-4.8-8.8c-1.4-2.7,1.8,3.8,1.6,3.8
			c0,0-1.1-2.7-1.2-3.1c-0.7-1.8-1.3-3.7-1.8-5.5c-2-6.7-3.3-13.6-4.3-20.6c0.4,2.8,0.8,5.7,1.1,8.5c-2.6-20.4-1.9-41-3.3-61.4
			c-1.6-24.7-5.9-49.4-13.4-73c-14.1-44.3-38.2-89.3-73.2-120.7c-18.6-16.7-40.1-29.7-64.3-36.5c-24-6.8-49.8-7.8-74.5-5.7
			c-23.1,1.9-46.6,5.2-69.1,11.2c-20.4,5.4-41.2,13.5-58.3,26.1c-23.8,17.5-40,40.6-48.4,69c-7.2,24.3-8.3,50.1-11.6,75.1
			c0.4-2.8,0.8-5.7,1.1-8.5c-1.8,13.6-4.6,26.9-9,39.9c-1.2,3.5-2.6,6.8-3.8,10.2c3.9-10.6,0.1-0.4-1.3,2.3
			c-3.1,6.2-6.6,12.3-10.6,18c-1.5,2.1-5.8,6.7,0.9-0.9c-1,1.1-1.9,2.4-2.9,3.6c-2.2,2.5-4.4,4.9-6.8,7.3c-2.4,2.3-5.1,4.3-7.4,6.6
			c6.4-6.3,3.9-2.9,1.6-1.3c-1.5,1-3,2.1-4.5,3c-2.9,1.8-5.8,3.5-8.9,5c-0.9,0.5-1.9,0.9-2.9,1.3c1.5-0.6,3-1.2,4.4-1.8
			c-1.9,1-4.1,1.6-6.2,2.3c-8,2.7-16.3,4.4-24.6,5.6c2.8-0.4,5.7-0.8,8.5-1.1c-24.7,3.2-49.8,1.9-74.6,4.9
			c-24.1,2.9-47.2,9-67.6,22.8c-36.3,24.5-60.6,63.3-70.8,105.6C1258.6,1673.7,1256.4,1697.6,1259.1,1720.9c1,8.8,2.9,16.1,9.4,22.6
			c5.6,5.6,14.7,9.7,22.6,9.4c8.3-0.4,16.8-3.1,22.6-9.4c5.4-5.8,10.3-14.4,9.4-22.6c-1.7-14.3-1.5-28.6,0.3-42.9
			c-0.4,2.8-0.8,5.7-1.1,8.5c1.9-14.4,5.6-28.2,10.8-41.7c1.9-5.1-3.7,8.3-0.4,1.1c0.8-1.7,1.6-3.4,2.4-5.2c1.5-3,3-5.9,4.7-8.7
			c1.8-3.1,3.6-6,5.6-8.9c0.9-1.3,1.8-2.7,2.8-4c4.6-6.3-4.2,5-0.8,0.9c4.4-5.3,9.1-10.4,14.3-15c1.4-1.2,2.8-2.4,4.2-3.6
			c4-3.3-6.6,4.8-2.1,1.7c3-2.1,6-4.2,9.2-6.1c2.8-1.6,5.7-3.2,8.6-4.6c7.1-3.4-6.2,2.3-1.2,0.4c1.8-0.7,3.5-1.3,5.3-1.9
			c7.6-2.6,15.4-4.1,23.4-5.2c-2.8,0.4-5.7,0.8-8.5,1.1c46.6-6,95.8,1.3,137.7-24.7c36-22.3,58.7-60.6,69.1-100.9
			c6-23.3,7.3-47.5,10.5-71.2c-0.4,2.8-0.8,5.7-1.1,8.5c1.1-8,2.4-15.9,4.3-23.7c0.9-3.8,2-7.7,3.3-11.4c0.5-1.6,1.1-3.2,1.7-4.8
			c1.2-3.1,0.8-2.1-1.3,3c0.5-1,0.9-2.1,1.4-3.1c1.6-3.3,3.4-6.5,5.4-9.6c1.1-1.7,2.5-3.2,3.5-5c-4.4,7.6-2.7,3.4-0.9,1.4
			c2.4-2.8,5.1-5.4,7.9-7.9c0.9-0.8,6.5-5.3,1.7-1.5s0.9-0.6,1.9-1.2c6.1-4.1,12.5-7.4,19.2-10.5c2.3-1,1-0.5-3.8,1.6
			c1-0.4,2.1-0.8,3.1-1.2c1.6-0.6,3.1-1.2,4.7-1.7c3.7-1.3,7.4-2.5,11.2-3.6c15.4-4.5,31.2-7.2,47.1-9.4c-2.8,0.4-5.7,0.8-8.5,1.1
			c21.8-2.8,43.9-4.3,65.8-1.4c-2.8-0.4-5.7-0.8-8.5-1.1c8.2,1.2,16.3,2.9,24.1,5.6c1.8,0.6,3.6,1.3,5.4,1.9
			c5.3,1.9-6.2-2.9-1.2-0.5c3.7,1.8,7.2,3.6,10.7,5.6c3,1.7,5.9,3.6,8.7,5.6c1.2,0.8,3.3,1.8,4.2,3c-0.1-0.2-6.4-5.2-2.4-1.8
			c0.9,0.7,1.8,1.5,2.6,2.2c5.7,4.8,11,10.1,15.9,15.7c2.3,2.6,4.5,5.2,6.7,7.9c3.5,4.3-4.1-5.5-0.8-1.1c1.2,1.6,2.4,3.2,3.5,4.8
			c4.6,6.4,8.8,13.1,12.7,19.9c4.2,7.2,8.1,14.6,11.6,22.2c0.8,1.7,1.6,3.5,2.4,5.2c0.4,0.9,0.7,1.8,1.2,2.6c-3.6-7.6-1.7-4.2-1-2.3
			c1.5,3.9,3,7.7,4.4,11.7c6.3,17.7,10.7,36,13.2,54.6c-0.4-2.8-0.8-5.7-1.1-8.5c3.2,24.7,1.9,49.6,4.5,74.3
			c3.2,30.5,11.7,59.5,33.6,82.1c18.1,18.7,42,29.3,63.8,42.6c4.8,2.9,9.2,6.4,14,9.3c-8.6-5.4-1-0.7,1.3,1.2
			c2.5,2.2,4.9,4.4,7.2,6.7c3.9,3.8,7.4,7.9,10.9,12.1c3.2,3.8-1.9-2.5-2-2.6c1.1,1.2,2,2.7,2.9,3.9c1.9,2.7,3.7,5.4,5.4,8.1
			c3.2,5.1,6,10.3,8.6,15.7c0.7,1.5,1.4,2.9,2.1,4.4c2.7,5.6-2.9-7.5-0.7-1.7c1.2,3,2.4,6.1,3.4,9.1c4.3,12.3,7.2,25.1,9,38
			c-0.4-2.8-0.8-5.7-1.1-8.5c2.7,20.6,2.1,41.3-0.6,61.9c0.4-2.8,0.8-5.7,1.1-8.5c-5.4,38.6-18.2,75.6-33.1,111.4
			c-0.5,1.1-2.2,5.4-0.4,0.9c1.8-4.3,0.4-0.9,0-0.1c-0.9,2-1.7,4-2.6,6c-1.8,4.1-3.7,8.2-5.7,12.3c-1.9,3.8-3.9,7.5-6.1,11.1
			c-1.1,1.8-2.2,3.6-3.4,5.3c-0.5,0.7-1.1,1.4-1.6,2.2c4-6.9,2.7-3.5,1.1-1.5c-2.7,3.2-5.7,6.2-8.9,8.9c-5.3,4.5,4.6-3,0.2-0.1
			c-2,1.3-3.9,2.6-6,3.8c-3.6,2.1-7.4,4-11.2,5.8c-5.2,2.4,6.3-2.4,0.9-0.4c-2.3,0.9-4.6,1.7-6.9,2.5c-19.4,6.6-39.8,10.5-60.1,13.2
			c2.8-0.4,5.7-0.8,8.5-1.1c-34.4,4.4-69.1,4.3-103.5-0.2c2.8,0.4,5.7,0.8,8.5,1.1c-26.1-3.6-51.7-9.7-76.5-18.5
			c-5.9-2.1-11.7-4.3-17.4-6.7c-6.1-2.5,5.7,2.5,1.6,0.7c-1.4-0.6-2.8-1.2-4.3-1.9c-3.4-1.5-6.8-3.1-10.1-4.7
			c-12-5.8-23.7-12-36-17.3c-16.2-6.9-31.5-11.8-49.1-13.7c-16.6-1.8-33.1,2-48.2,9c-11.4,5.3-21.7,13.9-30.1,23.2
			c-3.4,3.8-6.6,7.8-9.8,11.8c-2.9,3.8-5.9,7.6-8.8,11.4c-0.8,1-1.6,2.1-2.3,3.1c-1.5,2-0.6,0.8,2.6-3.4c-0.6,0.8-1.3,1.6-1.9,2.4
			c-3.7,4.6-7.5,9.2-11.6,13.4c-2.1,2.1-4.3,4-6.5,5.9c-4.7,4.2,6.4-4.5,1.2-1c-1.4,0.9-2.7,1.9-4.1,2.8c-2.8,1.8-5.8,3.4-8.7,4.9
			c-0.9,0.5-6.2,2.7-0.8,0.5c5.7-2.4-1.3,0.4-2.4,0.8c-6.4,2.2-13,3.7-19.7,4.7c2.8-0.4,5.7-0.8,8.5-1.1c-8.4,1.1-16.8,1.1-25.2,0.1
			c2.8,0.4,5.7,0.8,8.5,1.1c-4.7-0.6-9.2-1.6-13.7-2.9c-2.3-0.7-4.6-1.5-6.9-2.3c-4.2-1.5,2.9,0.9,3.2,1.4c-0.3-0.5-2.3-1.1-2.9-1.3
			c-4.1-2-8-4.2-11.8-6.8c-0.9-0.6-2.6-1.4-3.2-2.3c0.3,0.4,6,4.9,2.7,2.1c-1.8-1.5-3.6-3.1-5.3-4.7c-1.5-1.4-3-2.9-4.4-4.5
			c-0.7-0.8-1.4-1.6-2.1-2.4c-3.6-4.3,1.4,1,1.6,2.2c-0.2-1.4-2.7-3.9-3.5-5.1c-1.2-2-2.4-4-3.5-6c-0.7-1.4-3.7-8-1.3-2.5
			c2.4,5.6,0.1,0-0.3-1.4c-0.4-1.3-0.8-2.5-1.2-3.8c-1.7-5.8-2.8-11.6-3.6-17.6c0.4,2.8,0.8,5.7,1.1,8.5
			c-3.5-28.1-3.2-56.8-4.4-85.1c-1-24.9-1.4-50-3.2-74.9c-1.2-17.4-5.9-34.6-11.3-51.2c-7.2-22.3-25.2-34.6-48.3-35.4
			c-12.5-0.4-24.7,3.2-37.2,1.7c2.8,0.4,5.7,0.8,8.5,1.1c-1.6-0.2-3.2-0.5-4.7-1c-0.6-0.2-1.3-0.4-1.9-0.6c-4-1,5,2.1,5.1,2.2
			c-0.6-0.6-3.4-2.3-4.2-2.4c0.3,0.1,7,6.2,4.2,3.2c-0.6-0.6-1.2-1.2-1.8-1.8c-3.2-3.1,3.1,3.6,3,4c0-0.1-1.5-2.3-1.6-2.4
			c-0.5-0.9-1-1.8-1.5-2.7c-2.2-3.9,2.8,7.5,1.7,4.1c-1.6-5-2.9-9.9-3.6-15.1c0.4,2.8,0.8,5.7,1.1,8.5c-0.1-0.5-0.1-1.1-0.2-1.6
			c-1.1-8.8-2.8-16.1-9.4-22.6c-5.6-5.6-14.7-9.7-22.6-9.4c-8.3,0.4-16.8,3.1-22.6,9.4C1263.2,1704,1258.1,1712.7,1259.1,1720.9z"/>
	</g>
</g>
<g>
	<path class="st2" d="M1823.6,1422.9c0,0-53.1,104-148.4,132.5s-196.8-29.2-196.8-29.2s53.1-104,148.4-132.5
		C1722.1,1365.1,1823.6,1422.9,1823.6,1422.9z"/>
	<path class="st3" d="M1626.1,1412.3c-1.7-5.8-9.5-7-12.9-2c-11.6,17-13.8,48.8-3.8,82.1s29.3,58.7,48.3,66.5
		c5.6,2.3,11.4-2.9,9.7-8.8c0,0-13.6-29.2-25.1-67.6S1626.1,1412.3,1626.1,1412.3z"/>
	<path class="st3" d="M1678.9,1546.7c1.7,5.8,9.5,7,12.9,2c11.6-17,13.8-48.8,3.8-82.1s-29.3-58.7-48.3-66.5
		c-5.6-2.3-11.4,2.9-9.7,8.8c0,0,13.6,29.2,25.1,67.6C1674.2,1514.9,1678.9,1546.7,1678.9,1546.7z"/>
	<path class="st4" d="M1824,1424.2c2.1,0.4,2.9-2.6,0.9-3.3c-36.5-13.6-105.6-54.9-198.1-27.2c-92.5,27.7-127.6,100.1-150.6,131.6
		c-1.2,1.7,1.1,3.7,2.6,2.2c29.3-29.1,104.6-75.9,160.3-92.6C1694.9,1418.2,1783.5,1416,1824,1424.2z"/>
	<path class="st4" d="M1478.8,1527.3c-2.1-0.4-2.9,2.6-0.9,3.3c36.5,13.6,105.6,54.9,198.1,27.2c92.5-27.7,127.6-100.1,150.6-131.6
		c1.3-1.7-1.1-3.7-2.6-2.2c-29.3,29.1-96.1,104.4-151.8,121.1C1616.4,1561.8,1519.2,1535.5,1478.8,1527.3z"/>
</g>
<g>
	<g>
		<path class="st5" d="M355,1570.6c-2.6,0.5-5.2,0.9-7.8,1.2c3-0.4,6-0.8,9-1.2c-44.5,5.9-89.5,6.4-133.6,15.2
			c-21.1,4.2-43.4,10.9-59.5,25.9c-10.2,9.6-15.9,23.2-16,37.2c-0.2,15.8,7.7,29.1,17.3,40.9c8.3,10.2,19.3,18.1,29.7,26
			c9.8,7.5,20,14.5,29.8,22c-2.3-1.8-4.6-3.5-6.9-5.3c8.2,6.4,16.5,13.1,22.9,21.4c-1.8-2.3-3.5-4.6-5.3-6.8
			c2.1,2.7,3.9,5.6,5.3,8.7c-1.1-2.7-2.3-5.4-3.4-8.1c0.9,2.1,1.6,4.3,1.9,6.6c-0.4-3-0.8-6-1.2-9c0.3,2.2,0.2,4.4-0.1,6.6
			c0.4-3,0.8-6,1.2-9c-0.6,3.7-1.6,7.2-2.9,10.6c1.1-2.7,2.3-5.4,3.4-8.1c-1.8,4.2-4.1,8-6.9,11.6c1.8-2.3,3.5-4.6,5.3-6.8
			c-4.4,5.6-9.6,10.3-15.2,14.7c2.3-1.8,4.6-3.5,6.9-5.3c-17.9,13.8-38,24.1-55.7,38.2c-17.9,14.3-32.9,33.3-43.6,53.5
			c-22.9,43.2-30.1,96.5-13.3,143.1c16.2,44.7,49.6,84.4,93.4,104c23.3,10.5,47.9,16.8,73.7,16.2c25.6-0.6,49.6-7,72.8-17.6
			c22.8-10.4,44-26.8,59.5-46.6c8.4-10.8,15.7-21.6,21.4-34c5.7-12.2,10.5-24.8,15.8-37.2c-1.1,2.7-2.3,5.4-3.4,8.1
			c5.3-12.6,11.1-25.2,19.3-36.2c-1.8,2.3-3.5,4.6-5.3,6.8c3.5-4.6,7.5-8.7,12-12.3c-2.3,1.8-4.6,3.5-6.9,5.3c4-3,8.1-5.5,12.7-7.4
			c-2.7,1.1-5.4,2.3-8.1,3.4c4.5-1.8,9.1-3,14-3.7c-3,0.4-6,0.8-9,1.2c20.2-2.6,41.4,0.8,61.6,2.2c21.1,1.5,42.2,2.9,63.2,4.4
			c41.5,2.9,86.3,10,126.8-2.8c40.9-12.9,77.6-49,77.1-94.2c-0.2-21.6-9-41.1-23.1-57.2c-12.7-14.5-30.1-23.8-47.8-30.8
			c-39.8-15.7-82.8-6.9-124.2-12c3,0.4,6,0.8,9,1.2c-10.7-1.4-21.1-3.9-31-8.1c2.7,1.1,5.4,2.3,8.1,3.4c-7.4-3.2-14.3-7.4-20.7-12.3
			c2.3,1.8,4.6,3.5,6.8,5.3c-6.3-5.1-12-10.7-17-17.1c1.8,2.3,3.5,4.6,5.3,6.8c-5.2-6.9-9.6-14.3-12.9-22.2c1.1,2.7,2.3,5.4,3.4,8.1
			c-3-7.5-5-15.2-6.2-23.1c0.4,3,0.8,6,1.2,9c-3.2-24.4,1-49-1.4-73.5c-2.7-26.4-10.8-49.6-27.2-70.5c-13.4-17-32.4-27.9-52.4-35.4
			c-19.6-7.4-43.9-12.5-64-4.8c-11.3,4.3-21.3,10.8-29.2,20.1c-6.4,7.4-11.8,15.6-17.7,23.3c1.8-2.3,3.5-4.6,5.3-6.8
			c-3.7,4.8-7.7,9.3-12.5,13.1c2.3-1.8,4.6-3.5,6.9-5.3c-3,2.3-6.1,4.2-9.6,5.7c2.7-1.1,5.4-2.3,8.1-3.4
			C361.4,1569,358.2,1569.9,355,1570.6c-17.4,3.6-29,25-23.6,41.6c6,18.4,23,27.4,41.6,23.6c14.8-3,28.6-11.3,39.1-22
			c8.3-8.4,14.7-18.5,21.9-27.9c-1.8,2.3-3.5,4.6-5.3,6.8c3.2-4.2,6.7-8.1,10.8-11.3c-2.3,1.8-4.6,3.5-6.9,5.3
			c2.1-1.6,4.2-2.8,6.6-3.9c-2.7,1.1-5.4,2.3-8.1,3.4c2.5-1.1,5.1-1.8,7.9-2.2c-3,0.4-6,0.8-9,1.2c3.6-0.5,7.2-0.4,10.8,0
			c-3-0.4-6-0.8-9-1.2c10.8,1.5,21.5,4.5,31.5,8.6c-2.7-1.1-5.4-2.3-8.1-3.4c7.1,3.1,13.8,6.9,20,11.6c-2.3-1.8-4.6-3.5-6.9-5.3
			c5,4,9.5,8.4,13.4,13.5c-1.8-2.3-3.5-4.6-5.3-6.8c4.1,5.5,7.5,11.4,10.2,17.7c-1.1-2.7-2.3-5.4-3.4-8.1c3.3,8,5.5,16.4,6.7,25
			c-0.4-3-0.8-6-1.2-9c2.7,21.8-0.4,43.7,0.8,65.6c1.2,23.6,6.9,46.9,19.8,67c11.8,18.5,28.2,34.8,47.7,45.3
			c22.5,12.1,47.3,16.5,72.5,17.6c23.1,1,46.4-1.2,69.4,1.9c-3-0.4-6-0.8-9-1.2c10.3,1.5,20.3,4.2,29.9,8.1
			c-2.7-1.1-5.4-2.3-8.1-3.4c7.6,3.2,14.8,7.1,21.3,12.1c-2.3-1.8-4.6-3.5-6.8-5.3c4.7,3.7,9,7.8,12.7,12.6
			c-1.8-2.3-3.5-4.6-5.3-6.8c2.7,3.6,4.9,7.4,6.8,11.6c-1.1-2.7-2.3-5.4-3.4-8.1c1.7,4.3,2.9,8.7,3.5,13.2c-0.4-3-0.8-6-1.2-9
			c0.4,4.1,0.4,8.1-0.1,12.2c0.4-3,0.8-6,1.2-9c-0.7,4.6-1.9,8.9-3.6,13.2c1.1-2.7,2.3-5.4,3.4-8.1c-2.3,5.3-5.1,10.1-8.6,14.6
			c1.8-2.3,3.5-4.6,5.3-6.8c-4,5-8.5,9.4-13.5,13.4c2.3-1.8,4.6-3.5,6.8-5.3c-5.5,4.2-11.4,7.7-17.8,10.5c2.7-1.1,5.4-2.3,8.1-3.4
			c-9.4,3.9-19.3,6.3-29.5,7.6c3-0.4,6-0.8,9-1.2c-24.3,2.9-49,0.4-73.3-1.3c-25.7-1.8-51.5-3.6-77.2-5.4
			c-27.1-1.9-55.2-6.3-82.2-1.4c-25,4.6-44.2,20.8-58.6,40.9c-12.9,17.9-20,39.7-28.5,59.8c1.1-2.7,2.3-5.4,3.4-8.1
			c-5.7,13.4-11.9,26.3-20.7,37.9c1.8-2.3,3.5-4.6,5.3-6.9c-7.3,9.4-15.7,17.8-25.2,25.1c2.3-1.8,4.6-3.5,6.9-5.3
			c-10,7.6-20.7,13.8-32.2,18.7c2.7-1.1,5.4-2.3,8.1-3.4c-11.5,4.8-23.6,8.1-35.9,9.9c3-0.4,6-0.8,9-1.2
			c-11.9,1.6-23.8,1.6-35.6,0.1c3,0.4,6,0.8,9,1.2c-11.9-1.6-23.3-4.9-34.3-9.5c2.7,1.1,5.4,2.3,8.1,3.4c-11-4.8-21.2-10.8-30.7-18
			c2.3,1.8,4.6,3.5,6.9,5.3c-10.3-8-19.5-17.1-27.5-27.4c1.8,2.3,3.5,4.6,5.3,6.9c-7.6-9.9-13.9-20.6-18.9-32.1
			c1.1,2.7,2.3,5.4,3.4,8.1c-4.7-11.1-7.9-22.7-9.6-34.6c0.4,3,0.8,6,1.2,9c-1.7-12.7-1.6-25.5,0-38.2c-0.4,3-0.8,6-1.2,9
			c1.9-13.2,5.4-26.1,10.4-38.5c-1.1,2.7-2.3,5.4-3.4,8.1c5.2-12.3,11.9-23.9,19.9-34.6c-1.8,2.3-3.5,4.6-5.3,6.8
			c7.9-10.2,16.9-19.3,27-27.1c-2.3,1.8-4.6,3.5-6.9,5.3c13.5-10.2,28.5-18,42.2-27.9c19-13.8,34.8-29.5,42.7-52.1
			c6-17.4,3.9-36.9-6-52.5c-7.5-11.7-17.3-21.2-28.1-29.7c-13.6-10.7-27.8-20.5-41.6-31.1c2.3,1.8,4.6,3.5,6.9,5.3
			c-7.7-6-15.4-12.3-21.4-20c1.8,2.3,3.5,4.6,5.3,6.8c-1.9-2.6-3.6-5.3-4.9-8.3c1.1,2.7,2.3,5.4,3.4,8.1c-0.7-1.8-1.2-3.6-1.5-5.5
			c0.4,3,0.8,6,1.2,9c-0.2-1.6-0.2-3.2,0.1-4.9c-0.4,3-0.8,6-1.2,9c0.2-1.4,0.6-2.7,1.1-4c-1.1,2.7-2.3,5.4-3.4,8.1
			c0.6-1.2,1.2-2.4,2.1-3.5c-1.8,2.3-3.5,4.6-5.3,6.8c1.5-1.9,3.2-3.5,5-4.9c-2.3,1.8-4.6,3.5-6.9,5.3c3.6-2.7,7.5-4.7,11.6-6.5
			c-2.7,1.1-5.4,2.3-8.1,3.4c17.7-7.4,37.2-10.4,56.1-13c-3,0.4-6,0.8-9,1.2c38.5-5.2,77.8-5.2,116-12.3c7.9-1.5,16.3-8.8,20.2-15.5
			c4.2-7.2,6-17.9,3.4-26.1C390.5,1575.6,373.7,1567.1,355,1570.6z"/>
	</g>
</g>
<g>
	<g>
		<path class="st5" d="M400,1258.9c-19.9,1.4-36.8,4.8-54.7,13.5c-13.5,6.5-25.4,18.4-33,31.2c-11.3,18.9-13.2,41.2-11.8,62.7
			c0.4,7,1,14.1,0.1,21.1c0.6-4.5,1.2-9,1.8-13.5c-0.4,2.5-0.9,4.8-1.9,7.1c1.7-4,3.4-8.1,5.1-12.1c-0.6,1.4-1.4,2.7-2.4,4
			c2.6-3.4,5.3-6.8,7.9-10.3c-0.9,1.1-1.9,2-2.9,2.9c3.4-2.7,6.9-5.3,10.3-7.9c-1.4,1-2.9,1.9-4.5,2.6c4-1.7,8.1-3.4,12.1-5.1
			c-8.4,3.2-18,4.4-26.7,6.2c-6.5,1.4-13,2.7-19.6,3.7c4.5-0.6,9-1.2,13.5-1.8c-9.9,1.3-19.9,1-29.9,0.9c-23.5-0.2-47-0.4-70.6-0.6
			c-23.5-0.2-47-0.4-70.6-0.6c-26.1-0.2-51.7-0.1-77.4,4.9c-45.5,8.7-88.1,41.2-109,82.6c-11.6,23.1-18.3,48-18.1,73.9
			c0.2,26.4,7.1,51.4,18.7,74.9c10.3,20.7,26.5,38.1,44.2,52.7c14.6,11.9,30.3,23,42,38c-2.6-3.4-5.3-6.8-7.9-10.3
			c3.6,4.8,6.6,9.8,9.1,15.3c-1.7-4-3.4-8.1-5.1-12.1c2.2,5.3,3.7,10.7,4.6,16.4c-0.6-4.5-1.2-9-1.8-13.5c0.8,6.4,0.8,12.7,0.1,19.1
			c0.6-4.5,1.2-9,1.8-13.5c-1.4,10.2-4.5,19.9-8.4,29.4c1.7-4,3.4-8.1,5.1-12.1c-6.9,16-15.9,30.9-24.8,45.8
			c-8.9,14.8-17.2,29.9-24.5,45.6c-15.8,34.3-28.6,69.8-36.2,106.8c-7.7,37.2-11.8,75.6-10.8,113.7c0.5,20.9,2.9,41.6,5.9,62.3
			c2.4,16.9,5.6,33.7,10.5,50c5.8,19,13.6,38.5,25.6,54.5c7.4,9.9,14.7,19.2,24.3,27c9.2,7.5,18.8,14.7,29.1,20.6
			c15.4,8.9,31.9,15.9,48.2,23.1c20.3,8.9,40.8,17.6,61.7,25.1c72.2,26.2,150.3,38.2,225.9,20.8c18.7-4.3,36.3-11.1,53.9-18.8
			c14-6.1,27.5-13.6,39.8-22.7c15.2-11.2,29.8-23,41.9-37.6c12.5-14.9,23.2-31,34-47.1c4.4-6.6,8.9-13.1,13.8-19.4
			c-2.7,3.4-5.3,6.9-7.9,10.3c6.9-8.8,14.4-17,23.2-23.9c-3.4,2.6-6.8,5.3-10.3,7.9c6.8-5.2,14.2-9.4,22.1-12.8
			c-4,1.7-8.1,3.4-12.1,5.1c11.1-4.6,22.7-7.3,34.5-8.9c-4.5,0.6-9,1.2-13.5,1.8c28.2-3.6,56.6-1.3,84.9-1.4
			c35-0.1,70.5-4.8,104.3-13.6c33.1-8.6,65.6-21.7,95.7-38.1c27-14.8,53.4-33.6,73.8-56.8c23.6-26.8,41-58.6,47.5-94
			c6.3-34.1,6.2-68,2.3-102.3c-2-17.2-4.2-34.5-8.1-51.3c-3.7-16.2-9.5-31.5-16.1-46.7c-13.4-30.9-36.5-57.4-65.3-74.9
			c-29.5-17.9-63.5-24.9-97.2-30.1c-29.6-4.5-58.6-9.4-86.4-21c4,1.7,8.1,3.4,12.1,5.1c-15-6.4-29.3-14.3-42.2-24.3
			c3.4,2.7,6.8,5.3,10.3,7.9c-8.9-7-16.9-14.8-23.9-23.7c2.7,3.4,5.3,6.8,7.9,10.3c-6-7.8-10.9-16.1-14.9-25c1.7,4,3.4,8.1,5.1,12.1
			c-4.6-11-7.5-22.5-9.1-34.3c0.6,4.5,1.2,9,1.8,13.5c-4-31-0.2-62.2-2.1-93.2c-2-32.1-9.2-63-26.5-90.5
			c-30.7-48.8-82.1-81.2-137-96.4C462,1260.7,430.5,1257,400,1258.9c-13.5,0.8-26.1,5.1-35.9,14.8c-8.8,8.8-15.4,23.2-14.9,35.9
			c0.6,13.1,4.9,26.7,14.9,35.9c9.6,8.8,22.5,15.7,35.9,14.8c15.3-1,30.6-0.4,45.8,1.6c-4.5-0.6-9-1.2-13.5-1.8
			c20.6,2.8,40.8,8.2,59.9,16.2c-4-1.7-8.1-3.4-12.1-5.1c15.5,6.6,30.1,14.9,43.5,25.1c-3.4-2.7-6.8-5.3-10.3-7.9
			c10.2,8,19.5,17,27.5,27.2c-2.7-3.4-5.3-6.8-7.9-10.3c7,9,12.8,18.8,17.3,29.3c-1.7-4-3.4-8.1-5.1-12.1c4.2,10.1,7,20.6,8.6,31.4
			c-0.6-4.5-1.2-9-1.8-13.5c4.2,31.3,0.3,62.9,2.3,94.3c1.2,19.2,3.6,39.2,10.4,57.4c3.4,9,7.1,18.1,11.8,26.5
			c5,9.2,11.5,17.4,18,25.6c17.6,22.2,42.2,39.9,67.7,52c27.2,12.9,55.1,21.6,84.8,26.5c30.6,5.1,62.1,8.1,91,20.1
			c-4-1.7-8.1-3.4-12.1-5.1c9.3,4,18.2,8.9,26.3,15c-3.4-2.7-6.8-5.3-10.3-7.9c7.3,5.7,13.8,12.2,19.6,19.4
			c-2.7-3.4-5.3-6.8-7.9-10.3c7.2,9.4,13,19.7,17.7,30.6c-1.7-4-3.4-8.1-5.1-12.1c8.6,20.5,13.3,42.3,16.2,64.2
			c-0.6-4.5-1.2-9-1.8-13.5c3.8,29,5.8,58.6,2,87.7c0.6-4.5,1.2-9,1.8-13.5c-2,14.5-5.5,28.6-11.1,42c1.7-4,3.4-8.1,5.1-12.1
			c-4.8,11.1-11,21.5-18.4,31.1c2.7-3.4,5.3-6.8,7.9-10.3c-9.8,12.6-21.4,23.6-34,33.3c3.4-2.6,6.8-5.3,10.3-7.9
			c-21.2,16.2-44.9,29-69.4,39.4c4-1.7,8.1-3.4,12.1-5.1c-30.3,12.6-62,21.2-94.5,25.6c4.5-0.6,9-1.2,13.5-1.8
			c-20.8,2.7-41.5,3.4-62.5,3c-19.3-0.3-38.6-1.1-57.8,0.4c-27.1,2.1-51.5,7.4-76,19.1c-20,9.6-37.4,25.2-51,42.6
			c-15.3,19.5-28,40.8-43,60.5c2.6-3.4,5.3-6.9,7.9-10.3c-9.5,12.2-20.3,23.1-32.5,32.6c3.4-2.6,6.9-5.3,10.3-7.9
			c-13.9,10.7-29.1,19.4-45.3,26.3c4-1.7,8.1-3.4,12.1-5.1c-20.5,8.6-42,14.3-64.1,17.3c4.5-0.6,9-1.2,13.5-1.8
			c-26.7,3.5-53.5,3-80.1-0.6c4.5,0.6,9,1.2,13.5,1.8c-45.9-6.4-90-21.4-132.6-39.3c4,1.7,8.1,3.4,12.1,5.1
			c-26.4-11.2-54.7-22.2-77.7-39.9c3.4,2.6,6.8,5.3,10.3,7.9c-6.6-5.3-12.6-11.2-17.8-17.9c2.7,3.4,5.3,6.9,7.9,10.3
			c-5.7-7.6-10.3-15.9-14.1-24.7c1.7,4,3.4,8.1,5.1,12.1c-9.4-22.4-14-46.6-17.3-70.5c0.6,4.5,1.2,9,1.8,13.5
			c-5.1-38.6-5-77.6,0.2-116.2c-0.6,4.5-1.2,9-1.8,13.5c5.3-38.5,15.5-76.2,30.6-112.1c-1.7,4-3.4,8.1-5.1,12.1
			c8.3-19.6,18.2-38.4,29.2-56.7c13.2-21.9,25.8-43.8,34.2-68.1c4.6-13.1,7-27.4,7.5-41.2c0.5-13.8-1.6-28.5-6.8-41.3
			c-6.6-16.4-13.7-28.2-25.2-41.8c-5.6-6.6-11.9-12.4-18.5-17.9c-15.6-13.1-32.6-24.6-45.4-40.7c2.6,3.4,5.3,6.8,7.9,10.3
			c-5.8-7.5-10.6-15.7-14.4-24.4c1.7,4,3.4,8.1,5.1,12.1c-3.9-9.3-6.5-19-8-29c0.6,4.5,1.2,9,1.8,13.5c-1.3-10-1.3-20,0-30
			c-0.6,4.5-1.2,9-1.8,13.5c1.4-9.2,3.8-18.1,7.5-26.7c-1.7,4-3.4,8.1-5.1,12.1c3.7-8.3,8.3-16.1,13.8-23.4
			c-2.6,3.4-5.3,6.8-7.9,10.3c5.9-7.6,12.7-14.4,20.2-20.4c-3.4,2.7-6.8,5.3-10.3,7.9c7.7-5.9,15.9-10.8,24.8-14.6
			c-4,1.7-8.1,3.4-12.1,5.1c9.8-4,20-6.5,30.5-8c-4.5,0.6-9,1.2-13.5,1.8c17.2-2.2,34.5-1.9,51.7-1.8c18.4,0.2,36.9,0.3,55.4,0.4
			c34.1,0.3,68.3,0.8,102.4,0.8c21.1,0,41.8-4.5,62.3-9c16.5-3.6,31.3-8.8,43.7-20.9c11.5-11.2,17.2-26,19.3-41.6
			c1.2-9.2,1.4-17.8,0.8-27c-0.5-7.6-0.9-15.2,0-22.8c-0.6,4.5-1.2,9-1.8,13.5c0.5-3.8,1.4-7.5,2.8-11c-1.7,4-3.4,8.1-5.1,12.1
			c1.1-2.6,2.5-5,4.2-7.2c-2.6,3.4-5.3,6.8-7.9,10.3c1.7-2.2,3.7-4,5.9-5.7c-3.4,2.7-6.9,5.3-10.3,7.9c2.8-2.1,5.9-3.7,9.1-5.1
			c-4,1.7-8.1,3.4-12.1,5.1c6.2-2.5,12.6-3.9,19.2-4.8c-4.5,0.6-9,1.2-13.5,1.8c2.5-0.3,5.1-0.5,7.6-0.7c13.6-1,26-5,35.9-14.8
			c8.8-8.8,15.4-23.2,14.9-35.9c-0.6-13.1-4.9-26.7-14.9-35.9C426.4,1265,413.4,1258,400,1258.9z"/>
	</g>
</g>
<g>
	<path class="st2" d="M705.2,1332.3c0,0-66.4,110.3-173.4,134.3s-214.2-47.3-214.2-47.3S384,1309,491.1,1285
		C598.1,1261,705.2,1332.3,705.2,1332.3z"/>
	<path class="st3" d="M488.9,1305.5c-1.5-6.5-9.9-8.5-14-3.2c-14.1,17.8-19,52.6-10.6,90c8.4,37.4,27.7,66.8,48,76.9
		c6,3,12.8-2.4,11.3-8.9c0,0-12.6-33.1-22.3-76.3C491.6,1340.9,488.9,1305.5,488.9,1305.5z"/>
	<path class="st3" d="M536.5,1457.4c1.5,6.5,9.8,8.5,14,3.2c14.1-17.8,19-52.6,10.6-90c-8.4-37.4-27.7-66.8-48-76.9
		c-6-3-12.8,2.4-11.3,8.9c0,0,12.7,33.1,22.3,76.3C533.8,1422,536.5,1457.4,536.5,1457.4z"/>
	<path class="st4" d="M705.6,1333.8c2.3,0.6,3.4-2.6,1.3-3.6c-39.1-17.8-111.9-68.5-215.8-45.2c-103.9,23.3-148,100.3-175.8,133.1
		c-1.5,1.8,0.9,4.2,2.7,2.7c34.5-29.7,120.9-75.4,183.5-89.5S661.7,1321.6,705.6,1333.8z"/>
	<path class="st4" d="M317.9,1420.6c-2.3-0.6-3.4,2.6-1.3,3.6c39.1,17.8,111.9,68.5,215.8,45.2c103.9-23.3,148-100.3,175.8-133.1
		c1.5-1.8-0.9-4.2-2.7-2.7C671,1363.3,591.8,1441,529.2,1455S361.8,1432.7,317.9,1420.6z"/>
</g>
</svg>
