<?xml version="1.0" encoding="utf-8"?>
<!-- Generator: Adobe Illustrator 23.0.4, SVG Export Plug-In . SVG Version: 6.00 Build 0)  -->
<svg version="1.1" id="Layer_1" xmlns="http://www.w3.org/2000/svg" xmlns:xlink="http://www.w3.org/1999/xlink" x="0px" y="0px"
	 viewBox="0 0 1600 1080" style="enable-background:new 0 0 1600 1080;" xml:space="preserve">
<style type="text/css">
	.st0{clip-path:url(#SVGID_2_);fill:#29337C;}
	.st1{clip-path:url(#SVGID_2_);fill:#B45846;}
	.st2{clip-path:url(#SVGID_2_);fill:#5E7775;}
	.st3{clip-path:url(#SVGID_2_);}
	.st4{fill:#F0EA9B;}
	.st5{fill:#9E3223;}
	.st6{fill:#FF9D6C;}
	.st7{clip-path:url(#SVGID_2_);fill:#F0EA9B;}
	.st8{clip-path:url(#SVGID_2_);fill:#9E3223;}
	.st9{clip-path:url(#SVGID_2_);fill:#FF9D6C;}
	.st10{clip-path:url(#SVGID_2_);fill:#000B8C;}
</style>
<g>
	<defs>
		<rect id="SVGID_1_" x="-810.24" y="-7.16" width="2468.24" height="1104.03"/>
	</defs>
	<clipPath id="SVGID_2_">
		<use xlink:href="#SVGID_1_"  style="overflow:visible;"/>
	</clipPath>
	<rect x="-919.77" y="-171.96" class="st0" width="2681.71" height="1383.94"/>
	<path class="st1" d="M484.78,730.67c-15.21,22.79-36.46,34.39-55.18,34.39c-18.81,0-40.44-11.49-55.78-34.25"/>
	<path class="st2" d="M861.13-19.38c-19.12,3.72-306.03,367.71-333.9,418.03c-27.87,50.32-37.8,128.23-37.8,128.23
		s-40.07,28.66-59.71,28.66c-19.64,0-60.02-28.66-60.02-28.66s-24.12-75.58-51.99-125.9S17.14-15.66-1.98-19.38H861.13z"/>
	<g class="st3">
		<path class="st4" d="M472.54,331.45c0,0-21.7,22.72-48.47,22.72s-48.47-22.72-48.47-22.72s21.7-22.72,48.47-22.72
			S472.54,331.45,472.54,331.45z"/>
		<path class="st5" d="M422.45,313.5c0-1.63-1.89-2.54-3.17-1.52c-4.31,3.48-7.33,11.52-7.33,20.87c0,9.36,3.02,17.4,7.33,20.87
			c1.27,1.03,3.17,0.12,3.17-1.52c0,0-1.24-8.57-1.24-19.36S422.45,313.5,422.45,313.5z"/>
		<path class="st5" d="M425.68,352.21c0,1.63,1.89,2.54,3.17,1.52c4.31-3.48,7.33-11.52,7.33-20.87c0-9.36-3.02-17.4-7.33-20.87
			c-1.27-1.03-3.17-0.12-3.17,1.52c0,0,1.24,8.57,1.24,19.36S425.68,352.21,425.68,352.21z"/>
		<path class="st6" d="M472.54,331.81c0.5,0.27,0.95-0.43,0.5-0.78c-8.37-6.33-22.98-22.3-48.97-22.3s-40.61,15.97-48.97,22.3
			c-0.46,0.35-0.01,1.05,0.5,0.78c9.8-5.23,32.81-9.43,48.47-9.43S462.74,326.58,472.54,331.81z"/>
		<path class="st6" d="M375.59,331.76c-0.5-0.27-0.95,0.43-0.5,0.78c8.37,6.33,22.98,22.3,48.97,22.3s40.61-15.97,48.97-22.3
			c0.46-0.35,0.01-1.05-0.5-0.78c-9.8,5.23-32.81,19.5-48.47,19.5S385.39,336.99,375.59,331.76z"/>
	</g>
	<g class="st3">
		<path class="st4" d="M472.54,412.82c0,0-21.7,22.72-48.47,22.72s-48.47-22.72-48.47-22.72s21.7-22.72,48.47-22.72
			S472.54,412.82,472.54,412.82z"/>
		<path class="st5" d="M422.45,394.86c0-1.63-1.89-2.54-3.17-1.52c-4.31,3.48-7.33,11.52-7.33,20.87c0,9.36,3.02,17.4,7.33,20.87
			c1.27,1.03,3.17,0.12,3.17-1.52c0,0-1.24-8.57-1.24-19.36S422.45,394.86,422.45,394.86z"/>
		<path class="st5" d="M425.68,433.58c0,1.63,1.89,2.54,3.17,1.52c4.31-3.48,7.33-11.52,7.33-20.87s-3.02-17.4-7.33-20.87
			c-1.27-1.03-3.17-0.12-3.17,1.52c0,0,1.24,8.57,1.24,19.36S425.68,433.58,425.68,433.58z"/>
		<path class="st6" d="M472.54,413.18c0.5,0.27,0.95-0.43,0.5-0.78c-8.37-6.33-22.98-22.3-48.97-22.3s-40.61,15.97-48.97,22.3
			c-0.46,0.35-0.01,1.05,0.5,0.78c9.8-5.23,32.81-14.93,48.47-14.93S462.74,407.95,472.54,413.18z"/>
		<path class="st6" d="M375.59,413.13c-0.5-0.27-0.95,0.43-0.5,0.78c8.37,6.33,22.98,22.3,48.97,22.3s40.61-15.97,48.97-22.3
			c0.46-0.35,0.01-1.05-0.5-0.78c-9.8,5.23-32.81,19.5-48.47,19.5S385.39,418.36,375.59,413.13z"/>
	</g>
	<path class="st7" d="M489.75,528.9c0,0,9.59-21.85,28.7-28.8c19.11-6.95,40.5,3.62,40.5,3.62s-9.59,21.85-28.7,28.8
		C511.14,539.47,489.75,528.9,489.75,528.9z"/>
	<path class="st8" d="M530.17,528.7c0.42,1.17,2.01,1.32,2.65,0.26c2.17-3.6,2.24-10.12-0.19-16.8c-2.43-6.68-6.67-11.63-10.65-13
		c-1.17-0.4-2.29,0.74-1.87,1.9c0,0,3.11,5.79,5.92,13.49C528.83,522.26,530.17,528.7,530.17,528.7z"/>
	<path class="st8" d="M517.8,501.91c-0.42-1.17-2.01-1.32-2.65-0.26c-2.17,3.6-2.24,10.12,0.19,16.8c2.43,6.68,6.67,11.63,10.65,13
		c1.17,0.4,2.29-0.74,1.87-1.9c0,0-3.11-5.79-5.92-13.49C519.14,508.34,517.8,501.91,517.8,501.91z"/>
	<path class="st9" d="M489.66,528.64c-0.43-0.06-0.57,0.56-0.15,0.69c7.62,2.34,22.19,9.94,40.74,3.19
		c18.55-6.75,24.83-21.95,29.16-28.63c0.24-0.36-0.27-0.75-0.56-0.43c-5.64,6.28-18.35,22.44-29.53,26.51
		C518.14,534.03,498.01,529.83,489.66,528.64z"/>
	<path class="st9" d="M558.86,503.49c0.43,0.06,0.57-0.56,0.15-0.69c-7.62-2.34-22.19-9.94-40.74-3.19
		c-18.55,6.75-24.83,21.95-29.16,28.63c-0.24,0.36,0.27,0.75,0.56,0.43c5.64-6.28,19.88-19.13,31.06-23.2
		C531.91,501.41,550.51,502.3,558.86,503.49z"/>
	<path class="st7" d="M300.73,503.71c0,0,21.39-10.57,40.5-3.62c19.11,6.95,28.7,28.8,28.7,28.8s-21.39,10.57-40.5,3.62
		C310.32,525.56,300.73,503.71,300.73,503.71z"/>
	<path class="st8" d="M331.82,529.54c-0.42,1.17,0.69,2.31,1.87,1.9c3.98-1.36,8.22-6.32,10.65-13c2.43-6.68,2.37-13.2,0.19-16.8
		c-0.64-1.06-2.23-0.91-2.65,0.26c0,0-1.34,6.44-4.14,14.14C334.93,523.75,331.82,529.54,331.82,529.54z"/>
	<path class="st8" d="M339.57,501.07c0.42-1.17-0.69-2.31-1.87-1.9c-3.98,1.36-8.22,6.32-10.65,13c-2.43,6.68-2.37,13.2-0.19,16.8
		c0.64,1.06,2.23,0.91,2.65-0.26c0,0,1.34-6.44,4.14-14.14C336.45,506.86,339.57,501.07,339.57,501.07z"/>
	<path class="st9" d="M300.82,503.46c-0.29-0.32-0.79,0.06-0.56,0.43c4.33,6.69,10.61,21.88,29.16,28.63s33.13-0.85,40.74-3.19
		c0.42-0.13,0.28-0.75-0.15-0.69c-8.35,1.19-28.48,5.39-39.66,1.32C319.18,525.9,306.46,509.74,300.82,503.46z"/>
	<path class="st9" d="M370,528.68c0.29,0.32,0.79-0.06,0.56-0.43c-4.33-6.69-10.61-21.88-29.16-28.63
		c-18.55-6.75-33.13,0.85-40.74,3.19c-0.42,0.13-0.28,0.75,0.15,0.69c8.35-1.19,27.67-1.57,38.85,2.5
		C350.84,510.06,364.37,522.4,370,528.68z"/>
	<path class="st7" d="M-490.94-40.05c52.19,37.58,108.2,72.83,165.27,102.83c44,23.13,89.17,50.78,111.64,95.13
		c6,11.84,10.18,24.56,16.62,36.17c23.06,41.57,70.47,62.32,115.01,78.94c22.21,8.29,45.27,16.71,62.23,33.27
		c15.53,15.17,24.39,35.66,35.21,54.48c33.83,58.79,91.62,102.78,152.81,129.46c37.29,16.26,72.35,35.45,105.54,59.05
		c13.62,9.68,22.43,24.47,29.76,39.15c7.43,14.88,14.9,27.83,26.82,39.77c9.76,9.78,21.01,18.25,33.24,24.71
		c5.39,2.85,14.68,8.52,21.21,7.29c0.4-0.07,0.81-0.15,1.12-0.43c2.99-2.65-35.19-40.34-38.15-43.66
		c-9.59-10.74-17.19-21.18-23.11-34.37c-12.46-27.78-27.22-55.75-50.31-76.23c-12.13-10.76-26.32-17.12-40.37-25.11
		c-26.35-14.98-52.8-34.04-66.42-62.19c-17.43-36.02-21.24-76.94-41.3-112.7c-20.37-36.31-51.79-68.25-91.65-80.28
		c-21.87-6.6-45.93-7.23-65.58-18.88c-26.3-15.59-38.15-46.59-51.99-73.85C-112.44,75.2-158.12,26.59-212.97-6.8
		c-61.45-37.4-115.21-40.71-185.36-38.36c-30.92,1.04-61.79,3.04-92.64,5.08C-490.97-40.07-490.96-40.06-490.94-40.05z"/>
	<path class="st1" d="M-383.85,609.66c9.05,2.05,18.2,3.69,27.47,4.82c44.17,5.36,88.83-1.31,132.72-8.58
		c83.52-13.83,170.07-29.79,251.75-7.52c56.51,15.41,104.92,32.53,163.93,32.46c16.23-0.02,32.85-0.73,48.56,4.04
		c17.94,5.45,30.16,17.73,45.43,27.59c12.68,8.19,29.3,12.43,44.03,15.22c13.22,2.5,26.8,3.76,40.25,3.36
		c3.79-0.11,16.67,0.68,19.17-3.37c2.01-3.25-44.29-23.81-47.65-25.4c-12.55-5.92-25.11-11.89-37.25-18.61
		c-13.86-7.67-24.28-19.65-37.86-27.44c-19.32-11.09-41.16-16.98-62.9-21.12c-27.31-5.2-56.11-5.37-81.14-18.77
		c-61.56-32.97-85.04-92.58-167.1-85.14c-68.56,6.21-133.76,58.71-199.77,39.17c-35.72-10.57-61.91-40.18-87.51-67.25
		c-73.35-77.52-164.83-147.3-271.18-156.15c-45.92-3.82-92.63,3.98-137.97-4.24c-98.44-17.84-182.2-106.86-285.54-106.01
		c-14.73,0.12-23.68,230.44-37.16,240.96c3.39-2.65,142.4,47.97,154.3,52.2c79.33,28.24,151.94,27.56,234.97,36.77
		c45.11,5,89.37,16.63,131.76,32.83C-489.64,569.68-438.63,597.24-383.85,609.66z"/>
	<path class="st7" d="M373.82,705.2c0-5.16-48.84-3.61-73.62,1.55s-53.68,24.77-81.03,21.68s-79.48-24.77-109.93-22.71
		c-39.4,2.67-78.91,11.01-117.97,16.99c-31.94,4.89-64.05,9.81-94.75,19.9c-28.76,9.45-55.87,23.3-84.22,33.91
		c-46.6,17.44-96.5,26-146.24,25.08c-26.72-0.49-53.37-3.69-80.09-3.37c-72.97,0.87-142.71,27.68-212.95,47.44
		c-36.95,10.4-74.87,18.73-113.33,20.52c-18.31,0.85-36.72,0.26-54.86-2.51c-12.45-1.9-37.05-14.25-48.22-11.1
		c-16.48,4.65-40.7,40.69-52.31,52.51c-46.39,47.21-92.52,94.7-137.77,143c-18.96,20.24-37.93,40.54-55.99,61.6
		c-5.73,6.68-22.68,21.27-22.88,31.08c-0.02,0.95,154.27-35.92,163.56-38.45c21.14-5.77,40.21-12.55,62.14-10.52
		c21.07,1.96,40.44,0.86,61.51-2.52c47.28-7.58,93.37-22.69,135.89-44.72c79.32-41.09,146.98-105.99,232.69-131.18
		c105.74-31.07,225.91,2.57,325.55-44.51c21.75-10.28,41.7-24.12,63.61-34.06c17.01-7.72,35.11-12.98,53.59-15.68
		c15.11-2.2,33.63,1.39,47.66-3.09c24.41-7.79,43.26-27.18,70.21-31.38c17.4-2.71,34.86,2.58,51.68,6.39
		c20.84,4.72,44.11,9.03,65.5,5.65c19.07-3.01,35.4-16.09,48.66-29.33c15.26-15.23,30.87-28.85,52.01-35.06
		C330.92,729.7,373.82,717.44,373.82,705.2z"/>
	<path class="st7" d="M1348.34-40.05c-52.19,37.58-108.2,72.83-165.27,102.83c-44,23.13-89.17,50.78-111.64,95.13
		c-6,11.84-10.18,24.56-16.62,36.17c-23.06,41.57-70.47,62.32-115.01,78.94c-22.21,8.29-45.27,16.71-62.23,33.27
		c-15.53,15.17-24.39,35.66-35.21,54.48c-33.83,58.79-91.62,102.78-152.81,129.46c-37.29,16.26-72.35,35.45-105.54,59.05
		c-13.62,9.68-22.43,24.47-29.76,39.15c-7.43,14.88-14.9,27.83-26.82,39.77c-9.76,9.78-21.01,18.25-33.24,24.71
		c-5.39,2.85-14.68,8.52-21.21,7.29c-0.4-0.07-0.81-0.15-1.12-0.43c-2.99-2.65,35.19-40.34,38.15-43.66
		c9.59-10.74,17.19-21.18,23.11-34.37c12.46-27.78,27.22-55.75,50.31-76.23c12.13-10.76,26.32-17.12,40.37-25.11
		c26.35-14.98,52.8-34.04,66.42-62.19c17.43-36.02,21.24-76.94,41.3-112.7c20.37-36.31,51.79-68.25,91.65-80.28
		c21.87-6.6,45.93-7.23,65.58-18.88c26.3-15.59,38.15-46.59,51.99-73.85C969.84,75.2,1015.52,26.59,1070.37-6.8
		c61.45-37.4,115.21-40.71,185.36-38.36c30.92,1.04,61.79,3.04,92.64,5.08C1348.37-40.07,1348.35-40.06,1348.34-40.05z"/>
	<path class="st1" d="M1241.25,609.66c-9.05,2.05-18.2,3.69-27.47,4.82c-44.17,5.36-88.83-1.31-132.72-8.58
		c-83.52-13.83-170.07-29.79-251.75-7.52c-56.51,15.41-104.92,32.53-163.93,32.46c-16.23-0.02-32.85-0.73-48.56,4.04
		c-17.94,5.45-30.16,17.73-45.43,27.59c-12.68,8.19-29.3,12.43-44.03,15.22c-13.22,2.5-26.8,3.76-40.25,3.36
		c-3.79-0.11-16.67,0.68-19.17-3.37c-2.01-3.25,44.29-23.81,47.65-25.4c12.55-5.92,25.11-11.89,37.25-18.61
		c13.86-7.67,24.28-19.65,37.86-27.44c19.32-11.09,41.16-16.98,62.9-21.12c27.31-5.2,56.11-5.37,81.14-18.77
		c61.56-32.97,85.04-92.58,167.1-85.14c68.56,6.21,133.76,58.71,199.77,39.17c35.72-10.57,61.91-40.18,87.51-67.25
		c73.35-77.52,164.83-147.3,271.18-156.15c45.92-3.82,92.63,3.98,137.97-4.24c98.44-17.84,182.2-106.86,285.54-106.01
		c14.73,0.12,23.68,230.44,37.16,240.96c-3.39-2.65-142.4,47.97-154.3,52.2c-79.33,28.24-151.94,27.56-234.97,36.77
		c-45.11,5-89.37,16.63-131.76,32.83C1347.04,569.68,1296.03,597.24,1241.25,609.66z"/>
	<path class="st7" d="M483.58,705.2c0-5.16,48.84-3.61,73.62,1.55c24.77,5.16,53.68,24.77,81.03,21.68s79.48-24.77,109.93-22.71
		c39.4,2.67,78.91,11.01,117.97,16.99c31.94,4.89,64.05,9.81,94.75,19.9c28.76,9.45,55.87,23.3,84.22,33.91
		c46.6,17.44,96.5,26,146.24,25.08c26.72-0.49,53.37-3.69,80.09-3.37c72.97,0.87,142.71,27.68,212.95,47.44
		c36.95,10.4,74.87,18.73,113.32,20.52c18.31,0.85,36.72,0.26,54.86-2.51c12.45-1.9,37.05-14.25,48.22-11.1
		c16.48,4.65,40.7,40.69,52.31,52.51c46.39,47.21,92.52,94.7,137.77,143c18.96,20.24,37.93,40.54,55.99,61.6
		c5.73,6.68,22.68,21.27,22.88,31.08c0.02,0.95-154.27-35.92-163.56-38.45c-21.14-5.77-40.21-12.55-62.14-10.52
		c-21.07,1.96-40.44,0.86-61.51-2.52c-47.28-7.58-93.37-22.69-135.89-44.72c-79.32-41.09-146.98-105.99-232.69-131.18
		c-105.74-31.07-225.91,2.57-325.55-44.51c-21.75-10.28-41.7-24.12-63.61-34.06c-17.01-7.72-35.11-12.98-53.59-15.68
		c-15.11-2.2-33.63,1.39-47.66-3.09c-24.41-7.79-43.26-27.18-70.21-31.38c-17.4-2.71-34.86,2.58-51.68,6.39
		c-20.84,4.72-44.11,9.03-65.5,5.65c-19.07-3.01-35.4-16.09-48.66-29.33c-15.26-15.23-30.87-28.85-52.01-35.06
		C526.48,729.7,483.58,717.44,483.58,705.2z"/>
	<path class="st10" d="M484.78,730.67"/>
	<polyline class="st1" points="373.82,730.82 429.58,663.71 484.78,730.67 	"/>
	<path class="st0" d="M428.35,648.1c0,0,12.66,83.87-72.78,83.87"/>
	<path class="st0" d="M428.35,648.1c0,0-10.2,83.87,75.24,83.87"/>
	<path class="st9" d="M429.58,663.71c0,0-52.33-37.21-46.64-42.53c5.69-5.31,88.21-4.74,93.28,0
		C481.29,625.92,429.58,663.71,429.58,663.71z"/>
</g>
</svg>
