<?xml version="1.0" encoding="utf-8"?>
<!-- Generator: Adobe Illustrator 23.0.4, SVG Export Plug-In . SVG Version: 6.00 Build 0)  -->
<svg version="1.1" id="Layer_1" xmlns="http://www.w3.org/2000/svg" xmlns:xlink="http://www.w3.org/1999/xlink" x="0px" y="0px"
	 viewBox="0 0 2117.9 1548.5" style="enable-background:new 0 0 2117.9 1548.5;" xml:space="preserve">
<style type="text/css">
	.st0{fill:#F0EA9B;}
	.st1{fill:#FFFFFF;}
	.st2{fill:#9E3223;}
	.st3{fill:#FF9D6C;}
	.st4{fill:#5E7775;}
	.st5{fill:#B45846;}
</style>
<g>
	<g>
		<path class="st0" d="M2151.3,382.6c0.1,0.6,0.2,1.1,0.2,1.7c-0.4-2.8-0.8-5.6-1.1-8.4c2.9,22,2.3,44.2-0.6,66.2
			c0.4-2.8,0.8-5.6,1.1-8.4c-2.9,21.3-7.8,42.3-13.5,63c-4.7,17-9.7,34-16.5,50.2c1.1-2.5,2.1-5,3.2-7.6
			c-4.9,11.5-10.8,22.6-18.3,32.6c1.7-2.1,3.3-4.3,5-6.4c-4.6,5.9-9.7,11.3-15.7,15.9c2.1-1.7,4.3-3.3,6.4-5
			c-4.3,3.3-8.9,6-13.9,8.1c2.5-1.1,5-2.1,7.6-3.2c-5,2-10.1,3.4-15.3,4.1c2.8-0.4,5.6-0.8,8.4-1.1c-8.3,1-16.5,0.4-24.7-0.7
			c2.8,0.4,5.6,0.8,8.4,1.1c-9.3-1.3-18.5-3.2-27.8-4.5c-14.2-2-26.8-2.8-41-0.4c-24.8,4.1-43.3,21.3-57.5,41
			c-23.6,32.7-36.1,72.2-53.9,108c-9.1,18.3-19.8,35.7-32.2,52c1.7-2.1,3.3-4.3,5-6.4c-16,20.7-34.6,39.2-55.3,55.2
			c2.1-1.7,4.3-3.3,6.4-5c-21.4,16.5-44.9,30.3-69.8,40.8c2.5-1.1,5-2.1,7.6-3.2c-22.2,9.3-45.6,16.2-69.5,19.6
			c2.8-0.4,5.6-0.8,8.4-1.1c-12.4,1.6-24.9,2.1-37.3,0.4c2.8,0.4,5.6,0.8,8.4,1.1c-7.8-1.1-15.4-3.1-22.7-6.1c2.5,1.1,5,2.1,7.6,3.2
			c-6.6-2.8-12.7-6.4-18.4-10.7c2.1,1.7,4.3,3.3,6.4,5c-4.5-3.6-8.5-7.6-12-12.1c1.7,2.1,3.3,4.3,5,6.4c-2.9-3.9-5.3-8-7.3-12.5
			c1.1,2.5,2.1,5,3.2,7.6c-2.2-5.4-3.6-10.9-4.4-16.6c0.4,2.8,0.8,5.6,1.1,8.4c-0.9-7.9-0.6-15.7,0.4-23.6c-0.4,2.8-0.8,5.6-1.1,8.4
			c3.1-22.5,10.9-44.1,15.3-66.4c5-24.7,9-50.7,8.7-76c-0.3-26.3-9.5-51.9-30.2-69c-18.6-15.3-39.9-24.1-62.2-32.9
			c-21.3-8.4-42.9-15.9-64-24.8c2.5,1.1,5,2.1,7.6,3.2c-21.2-9-41.9-19.5-60.3-33.5c2.1,1.7,4.3,3.3,6.4,5
			c-11.4-8.8-21.6-18.9-30.5-30.2c1.7,2.1,3.3,4.3,5,6.4c-9.3-12-16.9-25.1-22.9-39.1c1.1,2.5,2.1,5,3.2,7.6
			c-6.1-14.4-10.2-29.5-12.4-45c0.4,2.8,0.8,5.6,1.1,8.4c-1.8-14-2-28.1-0.2-42.1c-0.4,2.8-0.8,5.6-1.1,8.4
			c1.7-12.3,4.8-24.2,9.6-35.6c-1.1,2.5-2.1,5-3.2,7.6c3.6-8.3,8-16.1,13.5-23.3c-1.7,2.1-3.3,4.3-5,6.4c4.7-6,10-11.4,16-16.2
			c-2.1,1.7-4.3,3.3-6.4,5c6-4.5,12.4-8.2,19.2-11.2c-2.5,1.1-5,2.1-7.6,3.2c8.2-3.4,16.7-5.6,25.4-6.8c-2.8,0.4-5.6,0.8-8.4,1.1
			c13.3-1.7,26.7-1.2,39.9,0.6c-2.8-0.4-5.6-0.8-8.4-1.1c33.4,4.7,64.2,18,96.1,28c36.9,11.6,77.2,18.3,115,6.7
			c31.7-9.8,59.9-30.1,80.8-55.7c10.6-12.9,20.1-26.4,27.9-41.1c9.1-17.2,16.5-35.4,22.9-53.7c12.6-36,20-73.9,34.6-109.2
			c-1.1,2.5-2.1,5-3.2,7.6c4-9.5,8.8-18.6,15.1-26.7c-1.7,2.1-3.3,4.3-5,6.4c3.5-4.4,7.5-8.4,11.9-12c-2.1,1.7-4.3,3.3-6.4,5
			c4.1-3.1,8.4-5.6,13.1-7.6c-2.5,1.1-5,2.1-7.6,3.2c5.7-2.3,11.5-3.7,17.5-4.6c-2.8,0.4-5.6,0.8-8.4,1.1
			c10.8-1.4,21.7-0.9,32.6,0.5c-2.8-0.4-5.6-0.8-8.4-1.1c15.3,2.1,30.2,6.3,44.5,12.3c-2.5-1.1-5-2.1-7.6-3.2
			c15.1,6.5,29.2,14.9,42.3,24.9c-2.1-1.7-4.3-3.3-6.4-5c13.4,10.4,25.4,22.4,35.8,35.8c-1.7-2.1-3.3-4.3-5-6.4
			c6.7,8.7,13.3,18,17.8,28.2c-1.1-2.5-2.1-5-3.2-7.6c5.7,13.6,7.7,28.2,9.7,42.7c1,7.3,2,14.7,3.5,22c1.9,9.4,5.1,18,8.8,26.9
			c4.8,11.3,12.2,22.1,23,28.5c5.3,3.2,10.6,6.5,15.7,9.9c9.7,6.4,19.1,13.1,28.3,20.1c-2.1-1.7-4.3-3.3-6.4-5
			c16.2,12.6,31.9,26.3,44.5,42.6c-1.7-2.1-3.3-4.3-5-6.4c4.9,6.5,9.3,13.3,12.6,20.9c-1.1-2.5-2.1-5-3.2-7.6
			C2149.3,373.9,2150.6,378.1,2151.3,382.6c1.1,7.3,8.5,15.4,14.6,19c6.8,4,16.8,5.7,24.4,3.2c7.7-2.5,15.1-7.2,18.9-14.6
			c4.2-8,4.6-15.5,3.2-24.4c-2.1-13.3-8.8-26.4-16.5-37.3c-9-12.7-19.2-24.3-30.6-34.8c-18.9-17.4-39.9-32.8-61.5-46.6
			c-4.3-2.7-8.6-5.4-13-7.9c2.1,1.7,4.3,3.3,6.4,5c-0.5-0.6-1-1.3-1.5-2c1.7,2.1,3.3,4.3,5,6.4c-3.2-4.3-5.7-8.9-7.8-13.9
			c1.1,2.5,2.1,5,3.2,7.6c-6-14.8-7.7-30.8-9.9-46.5c-2.6-18-6.5-35.7-15.5-51.8c-9.2-16.3-21.2-31.6-34.3-45
			c-13.1-13.5-28.2-25.5-44.2-35.4c-16.1-10-34-17.9-52.2-23.3c-18.7-5.5-39.2-8.8-58.7-7.8c-24.8,1.3-48,9.4-66.1,26.9
			c-15.1,14.7-24.3,33.6-31.8,53c-7.7,20-13.2,41-19.2,61.5c-6.5,22.2-13.2,44.3-22.2,65.7c1.1-2.5,2.1-5,3.2-7.6
			c-7.9,18.8-17.6,36.7-30,52.9c1.7-2.1,3.3-4.3,5-6.4c-8.9,11.5-18.9,21.9-30.3,30.9c2.1-1.7,4.3-3.3,6.4-5
			c-9.2,7.1-19,13-29.7,17.6c2.5-1.1,5-2.1,7.6-3.2c-9.1,3.8-18.5,6.3-28.3,7.8c2.8-0.4,5.6-0.8,8.4-1.1
			c-12.1,1.6-24.2,1.3-36.3-0.2c2.8,0.4,5.6,0.8,8.4,1.1c-47.9-6.5-91.1-31.1-138.9-38.2c-25.6-3.8-52.2-4.8-77.2,3.6
			c-26.3,8.8-47.2,25.1-63,47.6c-13,18.4-20.8,41.1-23.9,63.3c-3.6,25.9-2.6,51.5,3.6,77.1c5.5,22.7,15.3,45.1,28.4,64.4
			c14.6,21.5,32.2,39.1,53.3,54.2c42.5,30.6,94.6,44.1,142.3,64.1c-2.5-1.1-5-2.1-7.6-3.2c10.9,4.6,21.5,9.8,30.9,16.9
			c-2.1-1.7-4.3-3.3-6.4-5c4.5,3.5,8.7,7.5,12.2,12c-1.7-2.1-3.3-4.3-5-6.4c2.4,3.2,4.4,6.6,6,10.2c-1.1-2.5-2.1-5-3.2-7.6
			c2,4.8,3.3,9.8,4,15c-0.4-2.8-0.8-5.6-1.1-8.4c2.1,17.4-0.3,35.6-2.6,52.9c0.4-2.8,0.8-5.6,1.1-8.4c-1.8,13.2-4.2,26.2-7.3,39.2
			c-2.8,11.8-6.3,23.4-9.1,35.3c-6.9,29.5-8.7,60.9,6.9,88.2c13.1,23.1,36.3,39,61.3,46.7c28.4,8.8,59.3,5.8,87.8-0.5
			c86.5-19.1,164.1-75.3,211.2-150c14-22.2,24.4-46.2,35-70.1c10.7-24,21.4-49.2,37.6-70.1c-1.7,2.1-3.3,4.3-5,6.4
			c3.8-4.8,8-9.3,12.9-13.1c-2.1,1.7-4.3,3.3-6.4,5c3.4-2.6,7-4.7,10.8-6.4c-2.5,1.1-5,2.1-7.6,3.2c4.4-1.8,8.9-3,13.6-3.6
			c-2.8,0.4-5.6,0.8-8.4,1.1c7.6-0.8,15.2-0.4,22.7,0.6c-2.8-0.4-5.6-0.8-8.4-1.1c26.4,3.7,52.8,11.1,79.2,3
			c24.6-7.6,43.3-24.6,57.6-45.5c12.1-17.7,20.2-38.6,26.7-58.9c7.6-23.7,14.1-48,18.6-72.5c3.1-16.8,5.4-33.8,6.1-50.8
			c0.8-17.1-0.7-33.9-3.1-50.8c-1-7.3-8.5-15.4-14.6-19c-6.8-4-16.8-5.7-24.4-3.2c-7.7,2.5-15.1,7.2-19,14.6c-1.1,2.5-2.1,5-3.2,7.6
			C2149.8,371.3,2149.8,376.9,2151.3,382.6z"/>
	</g>
</g>
<g>
	<g>
		<path class="st0" d="M1912.1,242.4c3.6-1.3,7.1-2.1,10.9-2.6c-2.8,0.4-5.6,0.8-8.4,1.1c4.4-0.5,8.9-0.5,13.3,0
			c-2.8-0.4-5.6-0.8-8.4-1.1c4.4,0.6,8.6,1.7,12.7,3.3c-2.5-1.1-5-2.1-7.6-3.2c4.1,1.7,7.8,3.9,11.4,6.5c-2.1-1.7-4.3-3.3-6.4-5
			c3.1,2.4,5.9,5.1,8.3,8.2c-1.7-2.1-3.3-4.3-5-6.4c2.1,2.8,3.9,5.7,5.3,8.9c-1.1-2.5-2.1-5-3.2-7.6c2.2,5.5,3.3,11.3,4.1,17.2
			c-0.4-2.8-0.8-5.6-1.1-8.4c1.1,8.6,1.9,17.3,3.9,25.7c1.5,6,3.7,11.6,6.1,17.2c4.5,10.6,10,20.4,16.7,29.7
			c13.7,19,29.8,36,44.2,54.4c-1.7-2.1-3.3-4.3-5-6.4c6.2,8.1,11.2,16.9,17,25.2c7.5,10.8,16.4,20.5,24.5,30.8
			c-1.7-2.1-3.3-4.3-5-6.4c4.7,6.1,8.8,12.5,11.8,19.6c-1.1-2.5-2.1-5-3.2-7.6c2.9,7.2,4.8,14.6,5.9,22.2c-0.4-2.8-0.8-5.6-1.1-8.4
			c0.9,7.7,0.9,15.3-0.1,23c0.4-2.8,0.8-5.6,1.1-8.4c-1.1,7.1-2.9,14-5.7,20.7c1.1-2.5,2.1-5,3.2-7.6c-2,4.5-4.3,8.8-7.2,12.8
			c1.7-2.1,3.3-4.3,5-6.4c-2.1,2.7-4.4,5-7.1,7.1c2.1-1.7,4.3-3.3,6.4-5c-2.2,1.6-4.5,2.9-7.1,4c2.5-1.1,5-2.1,7.6-3.2
			c-3.8,1.6-7.8,2.5-11.8,3.2c2.8-0.4,5.6-0.8,8.4-1.1c-17.4,2.2-35.5-0.9-52.8-2.9c-18.9-2.2-37.8-4.4-56.8-4.7
			c-9.8-0.2-19.7,0.4-29.3,2.4c-12.7,2.6-24.7,11.6-33.5,20.7c-19.5,20.3-28.2,46.9-40.3,71.7c-14.4,29.6-31.9,57.7-52,83.8
			c1.7-2.1,3.3-4.3,5-6.4c-10.9,14.1-22.3,27.9-36.4,38.9c2.1-1.7,4.3-3.3,6.4-5c-6.1,4.6-12.5,8.5-19.5,11.5c2.5-1.1,5-2.1,7.6-3.2
			c-5.2,2.1-10.5,3.7-16,4.5c2.8-0.4,5.6-0.8,8.4-1.1c-4.6,0.6-9.2,0.6-13.8,0c2.8,0.4,5.6,0.8,8.4,1.1c-3.7-0.6-7.3-1.5-10.7-3
			c2.5,1.1,5,2.1,7.6,3.2c-2.2-1-4.3-2.2-6.3-3.6c2.1,1.7,4.3,3.3,6.4,5c-1.9-1.5-3.6-3.1-5.2-5c1.7,2.1,3.3,4.3,5,6.4
			c-1.4-1.8-2.5-3.7-3.4-5.8c1.1,2.5,2.1,5,3.2,7.6c-1.3-3.1-2.1-6.2-2.6-9.5c0.4,2.8,0.8,5.6,1.1,8.4c-0.8-7.3-0.1-14.6,0.9-21.9
			c-0.4,2.8-0.8,5.6-1.1,8.4c3.2-23.5,6.2-47.4,4.6-71.2c-1-13.9-3.4-28.1-10.9-40.2c-5.6-9.2-12.1-15-20.9-21
			c-10.5-7.3-22.4-12.8-34-18.1c-14.6-6.7-29.4-13.1-44.4-18.9c-7.9-3.1-15.9-5.8-23.8-9.1c2.5,1.1,5,2.1,7.6,3.2
			c-21.8-9.2-43.3-20.4-62.1-34.9c2.1,1.7,4.3,3.3,6.4,5c-7.4-5.8-14.3-12.1-20.1-19.5c1.7,2.1,3.3,4.3,5,6.4
			c-2.8-3.8-5.3-7.7-7.2-12.1c1.1,2.5,2.1,5,3.2,7.6c-1.3-3.1-2.2-6.3-2.7-9.6c0.4,2.8,0.8,5.6,1.1,8.4c-0.3-2.8-0.4-5.5,0-8.3
			c-0.4,2.8-0.8,5.6-1.1,8.4c0.3-2.2,0.8-4.3,1.6-6.4c-1.1,2.5-2.1,5-3.2,7.6c0.7-1.6,1.6-3.1,2.6-4.4c-1.7,2.1-3.3,4.3-5,6.4
			c1.3-1.7,2.9-3.2,4.6-4.5c-2.1,1.7-4.3,3.3-6.4,5c2.6-1.9,5.4-3.4,8.3-4.7c-2.5,1.1-5,2.1-7.6,3.2c6.5-2.7,13.5-4.2,20.5-5.1
			c-2.8,0.4-5.6,0.8-8.4,1.1c22.6-3,45.9-1.5,68.5,0.6c23.2,2.1,46.2,5.4,69.3,8.3c19.8,2.5,39,3.9,59,2.5
			c15.4-1.1,31.5-2.5,46.4-7.1c21-6.4,36.8-21,48.1-39.5c5.3-8.7,9.4-18.1,13.3-27.5c5.3-12.5,10.4-25.1,15.1-37.9
			c8-21.4,15.5-43.1,24.4-64.2c-1.1,2.5-2.1,5-3.2,7.6c3.4-8,6.8-16,10.2-24c-1.1,2.5-2.1,5-3.2,7.6c6.3-15,13-30.1,22.9-43
			c-1.7,2.1-3.3,4.3-5,6.4c3.7-4.7,7.7-8.9,12.4-12.6c-2.1,1.7-4.3,3.3-6.4,5c3.4-2.6,7-4.7,11-6.5c-2.5,1.1-5,2.1-7.6,3.2
			C1910.6,243,1911.4,242.7,1912.1,242.4c7.9-3,14.5-7,19-14.6c4-6.8,5.7-16.8,3.2-24.4c-2.5-7.7-7.2-15.1-14.6-19
			c-7.1-3.8-16.6-6.2-24.4-3.2c-12.1,4.6-22.1,10.4-31.6,19.2c-7.4,6.9-13.5,15.3-18.9,23.8c-10,15.9-16.7,33.8-23.9,51
			c1.1-2.5,2.1-5,3.2-7.6c-7.9,18.7-15.5,37.5-22.5,56.7c-6.5,17.7-12.9,35.5-20.2,52.9c1.1-2.5,2.1-5,3.2-7.6
			c-5.1,12-10.3,24-18.1,34.5c1.7-2.1,3.3-4.3,5-6.4c-3.2,4.1-6.7,7.8-10.7,11c2.1-1.7,4.3-3.3,6.4-5c-2.7,2.1-5.5,3.9-8.7,5.2
			c2.5-1.1,5-2.1,7.6-3.2c-8.4,3.4-17.4,4.9-26.3,6.1c2.8-0.4,5.6-0.8,8.4-1.1c-16.7,2.2-33.9,3.3-50.8,2c-13.5-1.1-27-3-40.5-4.8
			c-34.1-4.5-68.7-9.4-103.1-8.3c-15.9,0.5-32.9,1.7-47.7,7.6c-9.6,3.8-18.4,8.1-25.7,15.7c-6.5,6.8-12,15.7-13.7,25.1
			c-2.2,11.6-2.2,23.7,1.9,34.9c4.4,11.8,10.3,21,18.4,30.6c12.2,14.4,28.6,25.8,44.8,35.5c13.1,7.9,26.9,14.7,41,20.7
			c12.1,5.1,24.4,9.5,36.6,14.3c4,1.6,8.1,3.3,12.1,4.9c-2.5-1.1-5-2.1-7.6-3.2c10.8,4.5,21.4,9.3,31.9,14.5
			c8.4,4.2,17,8.5,24.5,14.2c-2.1-1.7-4.3-3.3-6.4-5c1.7,1.3,3.2,2.7,4.6,4.4c-1.7-2.1-3.3-4.3-5-6.4c2,2.6,3.6,5.3,4.9,8.3
			c-1.1-2.5-2.1-5-3.2-7.6c1.8,4.4,2.8,8.9,3.5,13.6c-0.4-2.8-0.8-5.6-1.1-8.4c2.6,21,0.5,43.2-2.3,64.1c0.4-2.8,0.8-5.6,1.1-8.4
			c-2.2,16.2-5,32.5-0.3,48.6c2.8,9.6,7.7,18.2,14.6,25.5c6.7,7.1,14.9,11.4,23.8,15c26.4,10.7,58.5,2,80.9-13.8
			c23.1-16.3,40.4-37.9,57.1-60.5c15.4-20.8,29.1-42.9,41-65.9c6.3-12.2,11.9-24.8,17.5-37.4c4.9-11,10.2-21.9,17.5-31.6
			c-1.7,2.1-3.3,4.3-5,6.4c3.5-4.5,7.3-8.5,11.7-12.1c-2.1,1.7-4.3,3.3-6.4,5c2.7-2.1,5.7-4.3,8.8-5.6c-2.5,1.1-5,2.1-7.6,3.2
			c2.4-0.9,4.9-1.4,7.4-1.8c-2.8,0.4-5.6,0.8-8.4,1.1c15.4-2,31.4-0.4,46.7,1c15.2,1.4,30.3,3.3,45.4,5c22.7,2.5,48,3.5,68.1-9.1
			c28-17.5,40.4-54.7,38.6-86.4c-1-18.2-5.5-36.2-14.6-52.2c-7.7-13.4-18.7-24.7-28.2-36.8c1.7,2.1,3.3,4.3,5,6.4
			c-4.7-6.2-8.5-12.9-12.8-19.3c-5.5-8.3-11.7-16.1-17.9-23.8c-9.8-12.1-20.3-23.6-29.9-35.8c1.7,2.1,3.3,4.3,5,6.4
			c-7.8-10.1-14.9-20.7-19.9-32.4c1.1,2.5,2.1,5,3.2,7.6c-3.2-7.8-5.3-15.7-6.4-24.1c0.4,2.8,0.8,5.6,1.1,8.4
			c-2-15-3.5-28.5-10.4-42.1c-5.8-11.4-15.5-20.6-26-27.7c-19.8-13.5-48.1-16.8-70.6-8.9c-7.9,2.8-14.6,7.2-19,14.6
			c-4,6.8-5.7,16.8-3.2,24.4C1878.1,235.7,1895.3,248.4,1912.1,242.4z"/>
	</g>
</g>
<g>
	<path class="st1" d="M558.6,531.7c0,0-43.2,101.6-131.2,134.9c-88,33.2-187.6-14.5-187.6-14.5S282.9,550.4,371,517.2
		S558.6,531.7,558.6,531.7z"/>
	<path class="st2" d="M371.6,534.9c-2-5.4-9.4-6-12.3-1.1c-9.9,16.8-9.8,47,1.8,77.7s31.5,53.5,50,59.5c5.5,1.8,10.6-3.5,8.5-8.9
		c0,0-14.7-26.6-28.1-62.1C378.1,564.6,371.6,534.9,371.6,534.9z"/>
	<path class="st2" d="M430.3,658.2c2,5.4,9.4,6,12.3,1.1c9.9-16.8,9.8-47-1.8-77.7c-11.6-30.8-31.5-53.5-50-59.5
		c-5.5-1.8-10.6,3.5-8.5,8.9c0,0,14.7,26.6,28.1,62.1C423.7,628.5,430.3,658.2,430.3,658.2z"/>
	<path class="st3" d="M559,532.9c2,0.3,2.6-2.6,0.7-3.2c-35.4-10.4-103.2-44.8-188.7-12.5S257.3,620.1,237.6,651.3
		c-1.1,1.7,1.3,3.5,2.6,2c25.7-29.4,93.6-78.6,145.1-98C436.8,535.8,520.3,527.9,559,532.9z"/>
	<path class="st3" d="M240.2,653.1c-2-0.3-2.6,2.6-0.7,3.2c35.4,10.4,103.2,44.8,188.7,12.5c85.5-32.3,113.7-102.9,133.4-134.1
		c1.1-1.7-1.3-3.5-2.6-2c-25.7,29.4-83.7,104.8-135.2,124.3C372.3,676.5,278.9,658.1,240.2,653.1z"/>
</g>
<g>
	<path class="st1" d="M1691,247.4c0,0-63.2,40.8-125.6,25.8s-100.2-80-100.2-80s63.2-40.8,125.6-25.8S1691,247.4,1691,247.4z"/>
	<path class="st2" d="M1584.3,177.6c0.9-3.8-3-7-6.5-5.3c-12,5.7-23.5,22.7-28.7,44.5c-5.2,21.8-2.7,42.2,5.4,52.7
		c2.4,3.1,7.3,2.1,8.2-1.8c0,0,1.9-20.6,7.9-45.8C1576.7,196.9,1584.3,177.6,1584.3,177.6z"/>
	<path class="st2" d="M1570.2,269.6c-0.9,3.8,3,7,6.5,5.3c12-5.7,23.5-22.7,28.7-44.5c5.2-21.8,2.7-42.2-5.4-52.7
		c-2.4-3.1-7.3-2.1-8.2,1.8c0,0-1.9,20.6-7.9,45.8C1577.9,250.3,1570.2,269.6,1570.2,269.6z"/>
	<path class="st3" d="M1690.8,248.3c1,0.9,2.5-0.5,1.6-1.5c-15.9-19.4-41.1-64.8-101.6-79.3c-60.5-14.5-103.5,14.5-126.5,24.6
		c-1.3,0.5-0.6,2.4,0.7,2.1c25.7-6.7,82.8-8.5,119.3,0.3C1620.8,203.1,1670.9,230.6,1690.8,248.3z"/>
	<path class="st3" d="M1465,194c-1-0.9-2.5,0.5-1.6,1.5c15.9,19.4,41.1,64.8,101.6,79.3c60.5,14.5,103.5-14.5,126.5-24.6
		c1.3-0.5,0.6-2.4-0.7-2.1c-25.7,6.7-87.3,27.1-123.8,18.3C1530.5,257.7,1484.9,211.6,1465,194z"/>
</g>
<g>
	<path class="st1" d="M286.3,984.8c0,0-70,40.9-136.4,21.9S45.9,915.9,45.9,915.9s70-40.9,136.4-21.9
		C248.6,913,286.3,984.8,286.3,984.8z"/>
	<path class="st2" d="M174.8,904.7c1.2-4.1-2.9-7.7-6.8-6c-13.2,5.6-26.4,23.3-33,46.6c-6.6,23.2-4.9,45.3,3.3,57
		c2.4,3.5,7.8,2.5,8.9-1.5c0,0,3-22.1,10.7-48.9C165.6,925,174.8,904.7,174.8,904.7z"/>
	<path class="st2" d="M155.3,1003c-1.2,4.1,2.9,7.7,6.8,6c13.2-5.6,26.4-23.3,33-46.6c6.6-23.2,4.9-45.3-3.3-57
		c-2.4-3.5-7.8-2.5-8.9,1.5c0,0-3,22.1-10.7,48.9C164.5,982.6,155.3,1003,155.3,1003z"/>
	<path class="st3" d="M286,985.7c1.1,1,2.7-0.4,1.8-1.6c-16.2-21.6-41.1-71.6-105.6-90.1c-64.4-18.5-112,10.7-137.3,20.5
		c-1.4,0.5-0.8,2.6,0.7,2.3c28-6,89.5-5.2,128.4,5.9C212.8,933.8,265.4,965.7,286,985.7z"/>
	<path class="st3" d="M45.6,916.6c-1.1-1-2.7,0.4-1.8,1.6c16.2,21.6,41.1,71.6,105.6,90.1c64.4,18.5,112-10.7,137.3-20.5
		c1.4-0.5,0.8-2.6-0.7-2.3c-28,6-95.2,25-134.1,13.9C113.1,988.3,66.2,936.6,45.6,916.6z"/>
</g>
<g>
	<path class="st1" d="M1703.2,931c0,0-86,58.2-172.5,39.5c-86.5-18.7-140.8-107.3-140.8-107.3s86-58.2,172.5-39.5
		C1649,842.5,1703.2,931,1703.2,931z"/>
	<path class="st2" d="M1553.9,838c1.1-5.3-4.4-9.5-9.2-7.1c-16.4,8.2-31.7,32.1-38.3,62.3c-6.5,30.2-2.4,58.3,9.1,72.6
		c3.4,4.2,10.2,2.6,11.3-2.7c0,0,2-28.5,9.5-63.4C1543.9,864.8,1553.9,838,1553.9,838z"/>
	<path class="st2" d="M1537.3,965.4c-1.1,5.3,4.3,9.5,9.2,7.1c16.4-8.2,31.7-32.1,38.3-62.3c6.6-30.2,2.4-58.3-9.1-72.6
		c-3.4-4.2-10.2-2.6-11.3,2.7c0,0-2,28.6-9.5,63.4C1547.3,938.6,1537.3,965.4,1537.3,965.4z"/>
	<path class="st3" d="M1703,932.2c1.4,1.2,3.4-0.7,2.2-2.2c-22.6-26.3-58.7-88.1-142.7-106.3c-84-18.2-142.4,23.2-173.8,37.8
		c-1.7,0.8-0.8,3.4,1.1,2.9c35.3-10.1,114.1-14.3,164.7-3.3C1605,872.1,1675,908.4,1703,932.2z"/>
	<path class="st3" d="M1389.7,864.3c-1.4-1.2-3.4,0.7-2.2,2.2c22.6,26.3,58.7,88.1,142.7,106.3c84,18.2,142.4-23.2,173.8-37.8
		c1.7-0.8,0.8-3.4-1.1-2.9c-35.3,10.1-119.7,40.1-170.3,29.1C1482.1,950.2,1417.8,888,1389.7,864.3z"/>
</g>
<g>
	<g>
		<path class="st4" d="M1351.1,1547.7c3.6,14.3,4.8,29.3,6.9,43.9c2.5,17.4,5.2,35.1,11,51.8c7.2,20.5,20.4,41.5,44.8,41.4
			c23.6-0.1,38.8-20.4,51.1-37.8c2.8-4,5.6-8,8.4-12c1.4-2,2.8-3.9,4.3-5.8c2.2-2.9-4.5,5.7-1.6,2c0.8-0.9,1.5-1.9,2.3-2.8
			c1.4-1.6,2.8-3.2,4.4-4.8c0.8-0.8,1.6-1.5,2.4-2.2c3.3-3-3.5,2.5-2.7,2c1.2-0.8,3.7-1.7,4.6-2.8c0,0-6.1,2.3-4.8,2
			c0.5-0.1,1.1-0.4,1.6-0.5c0.8-0.2,1.7-0.4,2.5-0.5c-2.3,0.3-4.7,0.6-7,0.9c1.7-0.1,3.3,0,5,0.2c-2.3-0.3-4.7-0.6-7-0.9
			c2,0.3,3.8,0.8,5.7,1.3c3.8,0.9-3.3-1-3.1-1.4c0-0.1,2.9,1.4,3.1,1.5c1.3,0.7,2.5,1.7,3.9,2.5c-6.3-3.5-3.7-3-1.7-1.2
			c0.9,0.8,1.8,1.6,2.6,2.4c2.6,2.5,5,5.3,7.3,8.2c4.3,5.3-3.7-4.9,0.4,0.5c1.3,1.7,2.5,3.3,3.7,5c6.1,8.2,12.1,16.6,19.6,23.6
			c7.5,7.1,16,13.4,24.9,18.5c18.6,10.6,39.2,16.3,60.4,17.8c21.6,1.5,42.8-3.3,62.4-12.1c34.7-15.6,63.8-50.6,69.2-88.7
			c1.8-12.3,1.7-23.3-0.1-35.6c-1.5-10.4-5-19.9-9.3-29.5c-8.4-18.9-22.5-34.4-39-46.5c-16.5-12.2-36.6-17.3-55.6-24.1
			c-1.9-0.7-3.8-1.4-5.7-2.1c-0.9-0.4-4.8-2-0.1,0c4.9,2.1-0.1-0.1-1.1-0.6c-1.7-0.8-3.4-1.7-5.1-2.7c-0.9-0.5-4.8-3.8-5.6-3.7
			c0.2,0,5.4,4.6,2.8,2.1c-0.8-0.7-1.6-1.4-2.4-2.2c-0.6-0.6-1.2-1.4-1.8-2c-1.9-1.8,4.1,6.3,1.5,1.9c-0.5-0.8-1-1.5-1.4-2.3
			c-1.4-2.5-0.6-3.7,0.6,1.9c-0.6-3.1-1.7-6-2.2-9.2c0.3,2.3,0.6,4.7,0.9,7c-1.5-13.5-0.1-27.5,0.2-41.1c0.3-14.4,0.7-28.8,1-43.2
			c0.7-29.6,2.9-60-10.2-87.5c-6.1-12.8-16.6-23.7-28.5-31.2c-14.1-9-30.6-11.7-47-9c-26.8,4.4-45,27.4-53.3,51.8
			c-9.4,27.7-1.2,56.3-4.5,84.5c0.3-2.3,0.6-4.7,0.9-7c-0.6,4.3-1.4,8.5-2.7,12.6c-0.5,1.5-1.1,2.8-1.5,4.3c2.7-8.1,1.1-2.6-0.1-0.5
			c-1.5,2.7-3.3,5.1-4.9,7.7c4.3-7,1.6-2.1,0-0.3c-1,1.1-2.1,2.2-3.2,3.3c-1.1,1.1-2.3,2.1-3.5,3.1c-3.4,2.9,5.7-4,0-0.2
			c-2.6,1.7-5.3,3.3-8.1,4.7c-6.3,3.1,4.5-1.4,0.1,0c-1.3,0.4-2.5,0.9-3.8,1.3c-4,1.2-8.1,2-12.2,2.6c2.3-0.3,4.7-0.6,7-0.9
			c-20.8,2.6-42,0.1-62.5,5.5c-16.1,4.3-32.2,13.1-42.8,26.2c-12.6,15.5-19.5,34.3-20.9,54.3c-1.3,19.1,10,34.1,25,44.4
			c2.3,1.6,4.8,3.1,7.2,4.6c1.2,0.7,7.2,3.6,7.3,4.9c0,0.5-5.7-5-3.3-2.5c0.6,0.6,1.3,1.2,2,1.8c2.1,2,4.1,6.2-0.6-1.4
			c0.7,1.2,1.5,2.3,2.2,3.5c1.3,2.2,0.4,3.7-1.3-3.2C1350.5,1545.8,1350.9,1546.7,1351.1,1547.7c3.7,13.4,19,22.9,32.6,18.5
			c13.7-4.4,22.4-18.3,18.5-32.6c-4.5-16.6-16.2-28.1-30.4-36.9c-2.1-1.3-4.2-2.5-6.3-3.9c-0.9-0.6-1.9-1.2-2.8-1.9
			c-4.3-2.9,5,4.4,1.8,1.4c-0.8-0.7-1.5-1.5-2.3-2.2c-2.8-2.7,3.8,6.3,1.5,2c-0.2-0.4-0.5-0.9-0.8-1.4c-1.5-2.4,1.8,3.9,1.7,4.1
			c0.2-0.6-0.9-3.5-1-4.2c0.3,2.3,0.6,4.7,0.9,7c-0.2-2.4-0.2-4.7,0.1-7.1c-0.3,2.3-0.6,4.7-0.9,7c0.5-3.5,1.1-7.1,2-10.5
			c0.4-1.7,1.5-8.5,3.1-9.3c0,0-3,6.4-1.3,3.1c0.3-0.7,0.7-1.4,1-2c0.7-1.3,1.4-2.6,2.2-3.9c0.5-0.8,2.4-2.7,2.5-3.6
			c0,0.3-4.4,5.3-2.1,2.8c0.6-0.6,1.2-1.3,1.8-2c1-1,2-2,3.1-2.9c0.5-0.5,1.1-0.9,1.6-1.4c2-1.9-5.2,3.6-2.8,2.2
			c2.5-1.5,4.8-3.2,7.5-4.5c0.7-0.3,1.4-0.6,2-1c2.5-1.4-6,2.3-3.2,1.3c1.5-0.5,2.9-1.1,4.4-1.6c4.3-1.4,8.8-2.3,13.3-2.9
			c-2.3,0.3-4.7,0.6-7,0.9c14.4-1.9,29-0.8,43.5-2.4c16.6-1.9,32.7-5.9,46.7-15.5c12.5-8.6,23.7-19.7,30.7-33.3
			c8-15.7,10.9-32.8,10.8-50.3c-0.1-15.7-2.6-31.5-0.7-47.1c-0.3,2.3-0.6,4.7-0.9,7c0.7-5.1,1.8-10.1,3.5-15
			c0.8-2.3,3.5-7.1-0.5,0.8c0.5-1,1-2.2,1.5-3.2c1.1-2.3,2.5-4.4,3.8-6.5c2.9-4.7-4.1,4.6-1,1.2c0.8-0.8,1.5-1.7,2.3-2.5
			c0.8-0.8,1.6-1.5,2.4-2.3c3.2-3.1-6,3.9-1.4,1.1c1.1-0.7,2.2-1.4,3.4-2c2.3-1.2,5.1-1-2.2,0.8c2.7-0.7,5.2-1.6,7.9-2
			c-2.3,0.3-4.7,0.6-7,0.9c3.2-0.4,6.2-0.4,9.4,0c-2.3-0.3-4.7-0.6-7-0.9c2.6,0.4,5.1,1,7.7,1.8c4.7,1.4-5.7-3-1.4-0.6
			c1.2,0.6,2.4,1.2,3.5,1.9c1,0.6,2.8,1.3,3.3,2.2c-0.7-1-5.1-4.2-1.7-1.2c2.1,1.8,3.8,3.7,5.7,5.7c2.1,2.3-3.7-5.3-1.3-1.7
			c0.7,1.1,1.5,2.2,2.2,3.3c0.7,1.1,1.3,2.3,1.9,3.4c2.3,4.2-2.1-6-0.3-0.8c2.1,6,3.5,12,4.4,18.3c-0.3-2.3-0.6-4.7-0.9-7
			c1.4,12,1,24.1,0.8,36.2c-0.3,13.2-0.6,26.4-1,39.6c-0.3,13.5-0.6,27-1,40.5c-0.4,15.5,0.3,30.3,7.2,44.5
			c10.2,20.7,32,31,52.7,38.3c8.5,3,17.2,5.6,25.6,8.8c1.9,0.7,5.9,2.9-1.9-0.9c0.8,0.4,1.5,0.7,2.3,1c2.2,1,4.4,2.1,6.5,3.3
			c2.1,1.2,4.2,2.5,6.2,3.8c0.9,0.6,1.8,1.3,2.7,1.9c1.6,1.2,0.7,0.5-2.8-2.2c0.7,0.5,1.4,1.1,2,1.7c4,3.3,7.7,7,11,11
			c1.3,1.6,3.7,5.4-0.9-1.3c1,1.4,2.1,2.8,3,4.2c1.4,2.1,2.8,4.3,4.1,6.6c1.3,2.2,2.4,4.5,3.5,6.9c2.2,4.5-2.4-6.3-0.7-1.6
			c0.4,1.2,0.9,2.4,1.3,3.6c1.8,5.2,3,10.6,3.8,16c-0.3-2.3-0.6-4.7-0.9-7c0.9,7.2,1,14.3,0.1,21.5c0.3-2.3,0.6-4.7,0.9-7
			c-0.7,4.8-1.7,9.5-3.2,14.1c-0.7,2.2-1.6,4.3-2.4,6.5c3-8.6,0.1-0.6-1.1,1.7c-2.3,4.4-5,8.4-7.9,12.4c-1.9,2.5,4.2-5.1,1.4-1.8
			c-0.8,1-1.7,2-2.5,2.9c-1.7,1.9-3.5,3.8-5.4,5.6c-1.7,1.7-3.5,3.3-5.3,4.8c-0.8,0.7-4.8,3.8-0.9,0.8c3.7-2.9,0.4-0.4-0.5,0.3
			c-4.3,3-8.8,5.8-13.5,8.1c-1,0.5-2,1-3,1.4c-5.2,2.4,4.1-1.6,1.5-0.6c-2.3,0.8-4.5,1.7-6.9,2.4c-5.1,1.6-10.4,2.7-15.7,3.5
			c2.3-0.3,4.7-0.6,7-0.9c-9.8,1.3-19.7,1.3-29.5,0c2.3,0.3,4.7,0.6,7,0.9c-4.9-0.7-9.7-1.7-14.5-3c-2.2-0.6-4.3-1.3-6.4-2
			c-1.3-0.4-2.5-0.9-3.8-1.4c-6.5-2.5,4.3,2.1,0.2,0.1c-4-1.9-8-3.9-11.7-6.2c-2.2-1.4-4.4-2.8-6.6-4.4c-0.7-0.5-1.4-1.1-2.1-1.6
			c7.1,4.8,1.9,1.4,0.3,0c-3.6-3.1-7-6.6-10.1-10.2c-1.5-1.8-5.8-7.9-0.4-0.4c-1.5-2-3-4-4.4-6c-6.5-8.8-12.9-18.1-21.2-25.5
			c-17.7-15.8-44.2-24.8-65.7-10.8c-14.7,9.6-24.5,24.3-34.3,38.5c-2.2,3.2-4.4,6.4-6.7,9.5c-0.5,0.8-1.1,1.5-1.7,2.2
			c-2.5,3.4,4.6-5.6,1.9-2.5c-1.2,1.4-2.4,2.9-3.7,4.3c-1.2,1.3-2.4,2.6-3.7,3.8c-0.5,0.4-1,0.8-1.4,1.3c-3.3,3,5.9-4.1,2.8-2.1
			c-1.1,0.7-2.3,1.4-3.5,2.1c-3.1,1.8,7.4-2.5,4-1.7c-0.8,0.2-1.6,0.4-2.4,0.6c2.3-0.3,4.7-0.6,7-0.9c-1.2,0.2-2.4,0.2-3.6,0.1
			c2.3,0.3,4.7,0.6,7,0.9c-0.6-0.1-1.2-0.3-1.8-0.4c-0.9-0.1-4.2-1.7,2,0.9c7.4,3.1,2.8,1.4,2.3,0.9c-0.4-0.3-1.1-0.8-1.5-0.9
			c-0.3-0.1,6,5.4,3.3,2.4c-0.4-0.5-0.9-1-1.4-1.5c-2.4-2.3,4.6,6.5,2.4,3.2c-0.9-1.4-1.8-2.8-2.6-4.3c-0.4-0.8-0.8-1.5-1.1-2.3
			c-0.2-0.3-0.3-0.7-0.5-1c-1.5-3,1.9,4.8,1.7,4.2c-0.6-2-1.5-3.9-2.2-5.9c-1.4-4.2-2.6-8.5-3.7-12.8c-4.6-18.9-7-38.3-9.7-57.5
			c-1.1-8-2.2-16.2-4.1-24c-3.4-13.4-19.2-22.8-32.6-18.5C1355.7,1519.6,1347.5,1533.3,1351.1,1547.7z"/>
	</g>
</g>
<g>
	<g>
		<path class="st4" d="M1145.5,1527.4c2,15.2,5.3,29.2,15.7,41c6.5,7.5,16.2,12.9,25.9,14.7c8.4,1.6,16.2,1.6,24.6,0.7
			c5.7-0.6,11.4-1.5,17.1-0.8c-2.3-0.3-4.7-0.6-7-0.9c1.2,0.2,2.4,0.6,3.6,0.8c3.2,0.7-7.6-3.9-4-1.6c3,1.9-3.8-3-3.7-3
			c0.1,0.3,1.2,1.2,1.4,1.5c-5-4.1-4.4-6-2.9-3.6c2.3,3.9-2.3-7-1.5-3.5c0.4,1.6,0.9,3.2,1.4,4.7c2.5,8.7,5.4,17.4,6.7,26.4
			c-0.3-2.3-0.6-4.7-0.9-7c1.3,9.7,1.2,19.6,1.6,29.3c0.7,16.4,1.4,32.7,2,49.1c0.7,16.3,1,32.7,2.2,49c1.3,18,4.4,35.5,13.2,51.6
			c14,25.5,41.5,45.4,70.3,49.9c16.6,2.6,33.1,2.3,49.4-2.4c15.7-4.6,30.1-12.7,42.2-23.7c4.9-4.4,9.1-9.5,13.2-14.8
			c3.2-4.1,6.4-8.3,9.6-12.5c0.6-0.7,2.1-2.7-0.5,0.6c-3,3.9-0.2,0.3,0.3-0.3c0.9-1.2,1.9-2.3,2.8-3.5c2.1-2.6,4.3-5.1,6.7-7.4
			c1-1,2.1-2,3.2-3c0.6-0.5,1.3-1.1,1.9-1.6c2.7-2.3-2,1.8-2.4,1.9c1.2-0.2,3.1-2.1,4.2-2.7c1.2-0.7,3.6-1.4,4.5-2.3
			c0,0-5.9,2.2-3.2,1.4c1-0.3,1.9-0.7,2.9-1c2.2-0.6,4.3-1.1,6.5-1.4c-2.3,0.3-4.7,0.6-7,0.9c5.4-0.7,10.8-0.6,16.2,0.1
			c-2.3-0.3-4.7-0.6-7-0.9c6.3,1,12.5,2.7,18.5,4.9c1.5,0.5,2.9,1.1,4.4,1.7c3.2,1.2-5.1-2.2-2-0.8c0.7,0.3,1.5,0.6,2.2,1
			c3.1,1.4,6.3,2.9,9.4,4.4c13.2,6.5,26.3,13,40,18.5c24.5,10,50.2,16.8,76.3,20.4c28,3.9,56,5.2,84.2,2.3
			c29.5-3,59.6-8.3,86.4-21.3c14.8-7.2,26.7-18,36.4-31.1c7.5-10.2,12.6-21.9,17.5-33.5c11.9-27.9,23-56.3,29.1-86.1
			c10.9-52.7,7.1-111-24.9-156.2c-7.6-10.7-16-20.8-26.1-29.2c-10.7-8.8-22-15.9-34.1-22.7c-5.3-3-10.7-5.9-15.8-9.1
			c-2.3-1.5-4.7-3-6.9-4.6c-0.9-0.6-4.8-3.6-1.2-0.8c3.7,2.8-0.6-0.6-1.5-1.4c-2-1.8-4-3.7-5.8-5.7c-0.4-0.5-0.9-1.1-1.3-1.6
			c-1.9-2,2.3,2.7,2,2.6c-0.9-0.4-2.2-3.2-2.8-4.1c-1.5-2.4-2.6-4.8-4-7.3c-1.2-2.2,1.5,3.1,1.3,3.2c0,0-0.9-2.2-1-2.6
			c-0.5-1.5-1.1-3-1.5-4.6c-1.7-5.6-2.8-11.3-3.6-17.1c0.3,2.3,0.6,4.7,0.9,7c-2.2-16.9-1.6-33.9-2.7-50.9
			c-1.4-20.4-4.9-40.9-11.1-60.4c-11.7-36.7-31.6-74-60.6-99.9c-15.4-13.8-33.2-24.6-53.2-30.2c-19.9-5.6-41.2-6.4-61.7-4.7
			c-19.2,1.6-38.6,4.3-57.2,9.2c-16.9,4.5-34.1,11.2-48.3,21.6c-19.7,14.5-33.1,33.6-40.1,57.2c-6,20.1-6.8,41.5-9.6,62.2
			c0.3-2.3,0.6-4.7,0.9-7c-1.5,11.2-3.8,22.3-7.5,33c-1,2.9-2.2,5.6-3.2,8.5c3.2-8.7,0-0.3-1.1,1.9c-2.6,5.2-5.5,10.2-8.8,14.9
			c-1.2,1.8-4.8,5.5,0.7-0.8c-0.8,0.9-1.6,2-2.4,2.9c-1.8,2.1-3.7,4.1-5.6,6c-2,1.9-4.2,3.6-6.2,5.5c5.3-5.2,3.2-2.4,1.3-1.1
			c-1.2,0.9-2.5,1.7-3.7,2.5c-2.4,1.5-4.8,2.9-7.4,4.1c-0.8,0.4-1.6,0.8-2.4,1.1c1.2-0.5,2.4-1,3.7-1.5c-1.6,0.8-3.4,1.3-5.1,1.9
			c-6.6,2.2-13.5,3.6-20.4,4.6c2.3-0.3,4.7-0.6,7-0.9c-20.5,2.7-41.2,1.6-61.7,4.1c-19.9,2.4-39.1,7.4-56,18.8
			c-30,20.3-50.2,52.4-58.6,87.5C1145,1488.3,1143.3,1508.1,1145.5,1527.4c0.8,7.3,2.4,13.4,7.8,18.7c4.6,4.6,12.1,8.1,18.7,7.8
			c6.8-0.3,14-2.6,18.7-7.8c4.4-4.8,8.6-11.9,7.8-18.7c-1.4-11.8-1.2-23.7,0.3-35.5c-0.3,2.3-0.6,4.7-0.9,7
			c1.6-11.9,4.7-23.3,8.9-34.6c1.6-4.2-3.1,6.9-0.4,0.9c0.6-1.4,1.3-2.9,2-4.3c1.2-2.4,2.5-4.9,3.9-7.2c1.5-2.5,3-5,4.6-7.4
			c0.8-1.1,1.5-2.2,2.3-3.3c3.8-5.2-3.4,4.2-0.6,0.8c3.7-4.4,7.5-8.6,11.8-12.4c1.1-1,2.3-2,3.5-2.9c3.3-2.7-5.5,4-1.8,1.4
			c2.5-1.8,5-3.5,7.6-5c2.3-1.4,4.7-2.6,7.1-3.8c5.9-2.8-5.2,1.9-1,0.4c1.5-0.5,2.9-1.1,4.4-1.6c6.3-2.1,12.8-3.4,19.4-4.3
			c-2.3,0.3-4.7,0.6-7,0.9c38.6-5,79.3,1.1,114.1-20.4c29.8-18.4,48.6-50.2,57.2-83.6c5-19.3,6-39.3,8.7-59c-0.3,2.3-0.6,4.7-0.9,7
			c0.9-6.6,2-13.2,3.6-19.6c0.8-3.2,1.7-6.4,2.7-9.5c0.4-1.3,0.9-2.6,1.4-4c1-2.6,0.7-1.7-1.1,2.4c0.4-0.9,0.8-1.7,1.2-2.5
			c1.3-2.7,2.8-5.4,4.5-8c0.9-1.4,2-2.7,2.9-4.1c-3.7,6.3-2.2,2.8-0.7,1.2c2-2.3,4.2-4.5,6.5-6.5c0.7-0.6,5.4-4.4,1.4-1.3
			s0.8-0.5,1.6-1c5-3.4,10.4-6.1,15.9-8.7c1.9-0.8,0.8-0.4-3.2,1.3c0.8-0.3,1.7-0.7,2.5-1c1.3-0.5,2.6-1,3.9-1.4
			c3.1-1.1,6.2-2.1,9.3-3c12.8-3.7,25.8-6,39-7.8c-2.3,0.3-4.7,0.6-7,0.9c18.1-2.4,36.3-3.6,54.5-1.1c-2.3-0.3-4.7-0.6-7-0.9
			c6.8,1,13.5,2.4,20,4.6c1.5,0.5,3,1.1,4.5,1.6c4.4,1.6-5.2-2.4-1-0.4c3,1.5,6,2.9,8.9,4.6c2.5,1.4,4.9,3,7.2,4.6
			c1,0.7,2.7,1.5,3.5,2.5c-0.1-0.1-5.3-4.3-2-1.5c0.7,0.6,1.5,1.2,2.2,1.8c4.7,4,9.1,8.4,13.2,13c1.9,2.1,3.7,4.3,5.5,6.5
			c2.9,3.6-3.4-4.6-0.7-0.9c1,1.3,2,2.7,2.9,4c3.8,5.3,7.3,10.8,10.6,16.5c3.5,6,6.7,12.1,9.6,18.4c0.7,1.4,1.3,2.9,2,4.3
			c0.3,0.7,0.6,1.5,1,2.2c-3-6.3-1.4-3.4-0.8-1.9c1.3,3.2,2.5,6.4,3.7,9.6c5.2,14.7,8.8,29.8,10.9,45.3c-0.3-2.3-0.6-4.7-0.9-7
			c2.7,20.4,1.6,41.1,3.7,61.6c2.7,25.3,9.7,49.3,27.8,68c15,15.5,34.8,24.3,52.9,35.3c4,2.4,7.6,5.3,11.6,7.7c-7.1-4.4-0.8-0.6,1,1
			c2.1,1.8,4.1,3.6,6,5.6c3.2,3.2,6.1,6.6,9,10c2.7,3.2-1.6-2.1-1.7-2.2c0.9,1,1.6,2.2,2.4,3.3c1.6,2.2,3,4.4,4.5,6.7
			c2.6,4.2,5,8.5,7.1,13c0.6,1.2,1.1,2.4,1.7,3.7c2.2,4.7-2.4-6.2-0.5-1.4c1,2.5,2,5,2.8,7.6c3.5,10.2,5.9,20.8,7.4,31.5
			c-0.3-2.3-0.6-4.7-0.9-7c2.2,17,1.8,34.2-0.5,51.2c0.3-2.3,0.6-4.7,0.9-7c-4.4,32-15,62.6-27.4,92.3c-0.4,0.9-1.9,4.4-0.3,0.7
			c1.5-3.6,0.3-0.8,0-0.1c-0.7,1.7-1.4,3.3-2.2,5c-1.5,3.4-3,6.8-4.7,10.2c-1.6,3.1-3.2,6.2-5,9.2c-0.9,1.5-1.9,2.9-2.8,4.4
			c-0.4,0.6-0.9,1.2-1.3,1.8c3.3-5.7,2.3-2.9,0.9-1.2c-2.3,2.7-4.7,5.1-7.4,7.4c-4.4,3.7,3.8-2.5,0.1-0.1c-1.7,1.1-3.3,2.2-5,3.2
			c-3,1.8-6.1,3.3-9.3,4.8c-4.3,2,5.2-2,0.8-0.3c-1.9,0.7-3.8,1.4-5.7,2.1c-16.1,5.4-33,8.7-49.8,11c2.3-0.3,4.7-0.6,7-0.9
			c-28.5,3.7-57.3,3.6-85.7-0.2c2.3,0.3,4.7,0.6,7,0.9c-21.6-3-42.8-8-63.4-15.3c-4.9-1.7-9.7-3.6-14.4-5.5c-5-2,4.7,2.1,1.4,0.6
			c-1.2-0.5-2.3-1-3.5-1.6c-2.8-1.3-5.6-2.6-8.4-3.9c-9.9-4.8-19.7-10-29.8-14.3c-13.4-5.7-26.1-9.8-40.7-11.3
			c-13.8-1.5-27.4,1.7-39.9,7.4c-9.5,4.4-18,11.5-25,19.2c-2.8,3.1-5.5,6.4-8.1,9.8c-2.4,3.1-4.9,6.3-7.3,9.4
			c-0.6,0.8-1.3,1.7-2,2.5c-1.2,1.6-0.5,0.7,2.2-2.8c-0.5,0.7-1.1,1.4-1.6,2c-3,3.8-6.2,7.6-9.6,11.1c-1.7,1.7-3.5,3.3-5.4,4.9
			c-3.9,3.4,5.3-3.7,1-0.8c-1.1,0.8-2.3,1.6-3.4,2.3c-2.3,1.5-4.8,2.8-7.2,4c-0.8,0.4-5.1,2.3-0.6,0.4c4.7-2-1.1,0.4-2,0.7
			c-5.3,1.8-10.7,3.1-16.3,3.9c2.3-0.3,4.7-0.6,7-0.9c-7,0.9-13.9,0.9-20.9,0.1c2.3,0.3,4.7,0.6,7,0.9c-3.9-0.5-7.6-1.3-11.4-2.4
			c-1.9-0.6-3.8-1.2-5.7-1.9c-3.5-1.2,2.4,0.8,2.6,1.2c-0.2-0.4-2-0.9-2.4-1.1c-3.4-1.6-6.6-3.5-9.8-5.6c-0.8-0.5-2.1-1.1-2.7-1.9
			c0.3,0.4,5,4.1,2.2,1.7c-1.5-1.3-3-2.5-4.4-3.9c-1.3-1.2-2.5-2.4-3.6-3.7c-0.6-0.6-1.2-1.3-1.7-2c-3-3.5,1.2,0.8,1.3,1.8
			c-0.2-1.2-2.3-3.2-2.9-4.2c-1-1.6-2-3.3-2.9-5c-0.6-1.1-3-6.6-1.1-2.1c2,4.7,0.1,0-0.3-1.1c-0.3-1-0.7-2.1-1-3.1
			c-1.4-4.8-2.3-9.6-3-14.5c0.3,2.3,0.6,4.7,0.9,7c-2.9-23.2-2.6-47.1-3.6-70.5c-0.9-20.6-1.2-41.4-2.6-62
			c-1-14.5-4.9-28.7-9.3-42.4c-6-18.5-20.9-28.7-40-29.4c-10.3-0.4-20.5,2.7-30.8,1.4c2.3,0.3,4.7,0.6,7,0.9
			c-1.3-0.2-2.6-0.4-3.9-0.8c-0.5-0.1-1-0.4-1.6-0.5c-3.3-0.8,4.1,1.8,4.2,1.8c-0.5-0.5-2.8-1.9-3.5-2c0.2,0,5.8,5.2,3.5,2.6
			c-0.5-0.5-1-1-1.5-1.5c-2.6-2.6,2.6,3,2.5,3.3c0-0.1-1.2-1.9-1.3-2c-0.4-0.7-0.8-1.5-1.2-2.3c-1.8-3.3,2.3,6.2,1.4,3.4
			c-1.3-4.1-2.4-8.2-3-12.5c0.3,2.3,0.6,4.7,0.9,7c0-0.4-0.1-0.9-0.2-1.3c-0.9-7.3-2.3-13.3-7.8-18.7c-4.6-4.6-12.1-8.1-18.7-7.8
			c-6.8,0.3-14,2.6-18.7,7.8C1148.8,1513.4,1144.6,1520.6,1145.5,1527.4z"/>
	</g>
</g>
<g>
	<path class="st1" d="M1612.9,1280.6c0,0-43.9,86.1-122.9,109.7c-78.9,23.6-163-24.2-163-24.2s43.9-86.1,122.9-109.7
		C1528.9,1232.8,1612.9,1280.6,1612.9,1280.6z"/>
	<path class="st2" d="M1449.4,1271.9c-1.4-4.8-7.8-5.8-10.7-1.7c-9.6,14.1-11.4,40.4-3.2,68c8.3,27.6,24.2,48.6,40,55.1
		c4.6,1.9,9.4-2.4,8-7.3c0,0-11.2-24.2-20.7-56C1453.3,1298.2,1449.4,1271.9,1449.4,1271.9z"/>
	<path class="st2" d="M1493.1,1383.2c1.4,4.8,7.8,5.8,10.7,1.7c9.6-14.1,11.4-40.4,3.2-68c-8.3-27.6-24.2-48.6-40-55.1
		c-4.6-1.9-9.4,2.4-8,7.3c0,0,11.2,24.2,20.7,56C1489.2,1356.8,1493.1,1383.2,1493.1,1383.2z"/>
	<path class="st3" d="M1613.3,1281.7c1.7,0.3,2.4-2.1,0.8-2.7c-30.3-11.3-87.4-45.5-164.1-22.5c-76.6,22.9-105.6,82.9-124.7,108.9
		c-1,1.4,0.9,3.1,2.2,1.9c24.3-24.1,86.6-62.9,132.8-76.7C1506.4,1276.7,1579.7,1274.9,1613.3,1281.7z"/>
	<path class="st3" d="M1327.4,1367.1c-1.7-0.3-2.4,2.1-0.8,2.7c30.3,11.3,87.4,45.5,164.1,22.5c76.6-22.9,105.6-82.9,124.7-108.9
		c1-1.4-0.9-3.1-2.2-1.9c-24.3,24.1-79.5,86.4-125.7,100.2C1441.3,1395.6,1360.9,1373.8,1327.4,1367.1z"/>
</g>
<g>
	<g>
		<path class="st5" d="M261.2,1412.8c-2.1,0.4-4.3,0.7-6.4,1c2.5-0.3,5-0.7,7.4-1c-36.8,4.9-74.1,5.3-110.6,12.6
			c-17.5,3.5-36,9-49.3,21.5c-8.5,8-13.2,19.2-13.3,30.8c-0.1,13.1,6.4,24.1,14.3,33.8c6.9,8.5,16,15,24.6,21.5
			c8.1,6.2,16.5,12,24.6,18.2c-1.9-1.5-3.8-2.9-5.7-4.4c6.8,5.3,13.6,10.9,19,17.7c-1.5-1.9-2.9-3.8-4.4-5.7
			c1.7,2.3,3.2,4.6,4.4,7.2c-0.9-2.2-1.9-4.5-2.8-6.7c0.7,1.8,1.3,3.6,1.6,5.5c-0.3-2.5-0.7-5-1-7.4c0.2,1.9,0.1,3.6-0.1,5.5
			c0.3-2.5,0.7-5,1-7.4c-0.5,3-1.3,5.9-2.4,8.8c0.9-2.2,1.9-4.5,2.8-6.7c-1.5,3.5-3.4,6.6-5.7,9.6c1.5-1.9,2.9-3.8,4.4-5.7
			c-3.7,4.6-8,8.6-12.6,12.2c1.9-1.5,3.8-2.9,5.7-4.4c-14.8,11.4-31.5,19.9-46.1,31.7c-14.8,11.9-27.2,27.6-36.1,44.3
			c-19,35.8-25,79.9-11,118.5c13.4,37,41.1,69.8,77.4,86.1c19.3,8.7,39.7,13.9,61,13.4c21.2-0.5,41.1-5.8,60.3-14.6
			c18.9-8.6,36.5-22.2,49.3-38.6c7-8.9,13-17.9,17.8-28.2c4.7-10.1,8.7-20.5,13.1-30.8c-0.9,2.2-1.9,4.5-2.8,6.7
			c4.4-10.5,9.2-20.9,16-30c-1.5,1.9-2.9,3.8-4.4,5.7c2.9-3.8,6.2-7.2,9.9-10.2c-1.9,1.5-3.8,2.9-5.7,4.4c3.3-2.5,6.7-4.5,10.5-6.2
			c-2.2,0.9-4.5,1.9-6.7,2.8c3.8-1.5,7.6-2.5,11.6-3.1c-2.5,0.3-5,0.7-7.4,1c16.7-2.1,34.3,0.7,51,1.8c17.5,1.2,34.9,2.4,52.4,3.6
			c34.3,2.4,71.5,8.3,105-2.3c33.8-10.7,64.3-40.6,63.9-78c-0.2-17.9-7.5-34-19.1-47.4c-10.5-12-24.9-19.7-39.5-25.5
			c-33-13-68.5-5.7-102.8-10c2.5,0.3,5,0.7,7.4,1c-8.8-1.2-17.4-3.2-25.7-6.7c2.2,0.9,4.5,1.9,6.7,2.8c-6.2-2.7-11.8-6.1-17.1-10.2
			c1.9,1.5,3.8,2.9,5.7,4.4c-5.2-4.2-9.9-8.9-14.1-14.2c1.5,1.9,2.9,3.8,4.4,5.7c-4.3-5.7-7.9-11.8-10.7-18.4
			c0.9,2.2,1.9,4.5,2.8,6.7c-2.5-6.2-4.2-12.6-5.2-19.2c0.3,2.5,0.7,5,1,7.4c-2.7-20.2,0.9-40.6-1.2-60.9
			c-2.2-21.9-8.9-41.1-22.5-58.4c-11.1-14.1-26.8-23.1-43.4-29.3c-16.2-6.1-36.4-10.4-53-3.9c-9.3,3.6-17.6,9-24.2,16.6
			c-5.3,6.2-9.8,12.9-14.7,19.3c1.5-1.9,2.9-3.8,4.4-5.7c-3.1,4-6.4,7.7-10.3,10.9c1.9-1.5,3.8-2.9,5.7-4.4
			c-2.5,1.9-5.1,3.5-7.9,4.7c2.2-0.9,4.5-1.9,6.7-2.8C266.5,1411.5,263.9,1412.3,261.2,1412.8c-14.4,2.9-24,20.7-19.6,34.4
			c4.9,15.2,19,22.7,34.4,19.6c12.2-2.5,23.7-9.4,32.4-18.2c6.9-6.9,12.2-15.3,18.1-23.1c-1.5,1.9-2.9,3.8-4.4,5.7
			c2.7-3.4,5.5-6.7,9-9.4c-1.9,1.5-3.8,2.9-5.7,4.4c1.7-1.3,3.5-2.4,5.5-3.3c-2.2,0.9-4.5,1.9-6.7,2.8c2.1-0.9,4.3-1.5,6.5-1.9
			c-2.5,0.3-5,0.7-7.4,1c3-0.4,5.9-0.3,8.9,0c-2.5-0.3-5-0.7-7.4-1c8.9,1.2,17.8,3.7,26.1,7.2c-2.2-0.9-4.5-1.9-6.7-2.8
			c5.9,2.5,11.5,5.7,16.6,9.6c-1.9-1.5-3.8-2.9-5.7-4.4c4.2,3.3,7.8,7,11.1,11.2c-1.5-1.9-2.9-3.8-4.4-5.7c3.4,4.5,6.2,9.4,8.4,14.7
			c-0.9-2.2-1.9-4.5-2.8-6.7c2.7,6.7,4.5,13.6,5.5,20.7c-0.3-2.5-0.7-5-1-7.4c2.2,18.1-0.3,36.2,0.6,54.3c1,19.6,5.7,38.8,16.4,55.5
			c9.8,15.3,23.4,28.9,39.5,37.5c18.6,10,39.2,13.7,60.1,14.6c19.1,0.8,38.4-1,57.5,1.6c-2.5-0.3-5-0.7-7.4-1
			c8.5,1.2,16.8,3.4,24.8,6.7c-2.2-0.9-4.5-1.9-6.7-2.8c6.3,2.6,12.2,5.9,17.7,10c-1.9-1.5-3.8-2.9-5.7-4.4
			c3.9,3.1,7.5,6.5,10.5,10.4c-1.5-1.9-2.9-3.8-4.4-5.7c2.2,3,4.1,6.2,5.6,9.6c-0.9-2.2-1.9-4.5-2.8-6.7c1.4,3.6,2.4,7.2,2.9,11
			c-0.3-2.5-0.7-5-1-7.4c0.4,3.4,0.3,6.7,0,10.1c0.3-2.5,0.7-5,1-7.4c-0.6,3.8-1.6,7.4-3,10.9c0.9-2.2,1.9-4.5,2.8-6.7
			c-1.9,4.4-4.3,8.3-7.1,12.1c1.5-1.9,2.9-3.8,4.4-5.7c-3.3,4.1-7,7.8-11.1,11.1c1.9-1.5,3.8-2.9,5.7-4.4c-4.6,3.5-9.5,6.4-14.7,8.7
			c2.2-0.9,4.5-1.9,6.7-2.8c-7.8,3.3-16,5.2-24.4,6.3c2.5-0.3,5-0.7,7.4-1c-20.2,2.4-40.5,0.3-60.7-1.1c-21.3-1.5-42.6-3-63.9-4.4
			c-22.4-1.6-45.7-5.2-68.1-1.1c-20.7,3.8-36.6,17.2-48.5,33.8c-10.7,14.9-16.6,32.8-23.6,49.5c0.9-2.2,1.9-4.5,2.8-6.7
			c-4.7,11.1-9.9,21.8-17.1,31.4c1.5-1.9,2.9-3.8,4.4-5.7c-6.1,7.8-13,14.8-20.9,20.8c1.9-1.5,3.8-2.9,5.7-4.4
			c-8.3,6.3-17.2,11.4-26.7,15.5c2.2-0.9,4.5-1.9,6.7-2.8c-9.6,4-19.5,6.7-29.8,8.2c2.5-0.3,5-0.7,7.4-1c-9.8,1.3-19.7,1.4-29.5,0.1
			c2.5,0.3,5,0.7,7.4,1c-9.8-1.4-19.3-4-28.4-7.9c2.2,0.9,4.5,1.9,6.7,2.8c-9.1-4-17.6-8.9-25.5-14.9c1.9,1.5,3.8,2.9,5.7,4.4
			c-8.5-6.6-16.2-14.2-22.8-22.7c1.5,1.9,2.9,3.8,4.4,5.7c-6.3-8.2-11.5-17.1-15.7-26.6c0.9,2.2,1.9,4.5,2.8,6.7
			c-3.9-9.2-6.5-18.8-8-28.6c0.3,2.5,0.7,5,1,7.4c-1.4-10.5-1.3-21.1,0-31.6c-0.3,2.5-0.7,5-1,7.4c1.5-11,4.4-21.6,8.7-31.9
			c-0.9,2.2-1.9,4.5-2.8,6.7c4.3-10.2,9.8-19.8,16.5-28.6c-1.5,1.9-2.9,3.8-4.4,5.7c6.5-8.4,14-15.9,22.4-22.5
			c-1.9,1.5-3.8,2.9-5.7,4.4c11.1-8.4,23.6-14.9,34.9-23.1c15.8-11.4,28.8-24.4,35.3-43.2c5-14.4,3.3-30.6-5-43.5
			c-6.2-9.7-14.3-17.5-23.2-24.6c-11.2-8.9-23.1-17-34.4-25.7c1.9,1.5,3.8,2.9,5.7,4.4c-6.4-5-12.8-10.2-17.7-16.6
			c1.5,1.9,2.9,3.8,4.4,5.7c-1.6-2.2-3-4.4-4.1-6.9c0.9,2.2,1.9,4.5,2.8,6.7c-0.6-1.5-1-3-1.2-4.6c0.3,2.5,0.7,5,1,7.4
			c-0.1-1.4-0.1-2.7,0-4c-0.3,2.5-0.7,5-1,7.4c0.2-1.2,0.5-2.2,1-3.3c-0.9,2.2-1.9,4.5-2.8,6.7c0.5-1,1-2,1.7-2.9
			c-1.5,1.9-2.9,3.8-4.4,5.7c1.2-1.6,2.6-2.9,4.2-4.1c-1.9,1.5-3.8,2.9-5.7,4.4c2.9-2.2,6.2-3.9,9.6-5.4c-2.2,0.9-4.5,1.9-6.7,2.8
			c14.6-6.2,30.8-8.6,46.5-10.8c-2.5,0.3-5,0.7-7.4,1c31.8-4.3,64.4-4.3,96-10.2c6.6-1.2,13.5-7.3,16.7-12.9c3.5-6,5-14.9,2.8-21.6
			C290.7,1416.9,276.7,1409.9,261.2,1412.8z"/>
	</g>
</g>
<g>
	<g>
		<path class="st5" d="M298.5,1154.7c-16.5,1.2-30.5,4-45.3,11.1c-11.1,5.4-21,15.3-27.3,25.8c-9.3,15.7-10.9,34.2-9.8,51.9
			c0.4,5.8,0.9,11.7,0.1,17.5c0.5-3.7,1-7.4,1.5-11.2c-0.3,2-0.8,4-1.6,5.9c1.4-3.3,2.8-6.7,4.2-10c-0.5,1.2-1.2,2.3-2,3.3
			c2.2-2.8,4.4-5.7,6.6-8.5c-0.7,0.9-1.5,1.7-2.4,2.4c2.8-2.2,5.7-4.4,8.5-6.6c-1.2,0.9-2.4,1.5-3.8,2.1c3.3-1.4,6.7-2.8,10-4.2
			c-6.9,2.7-14.9,3.6-22.1,5.2c-5.4,1.1-10.8,2.3-16.2,3c3.7-0.5,7.4-1,11.2-1.5c-8.2,1.1-16.5,0.8-24.7,0.7
			c-19.5-0.2-39-0.3-58.4-0.5s-39-0.3-58.4-0.5c-21.6-0.2-42.8-0.1-64.1,4c-37.7,7.2-73,34.1-90.2,68.4c-9.6,19.1-15.2,39.7-15,61.2
			c0.2,21.8,5.8,42.6,15.5,62c8.5,17.1,21.9,31.6,36.6,43.6c12.1,9.9,25.1,19,34.8,31.4c-2.2-2.8-4.4-5.7-6.6-8.5
			c3,4,5.5,8.1,7.5,12.6c-1.4-3.3-2.8-6.7-4.2-10c1.8,4.4,3.1,8.9,3.8,13.6c-0.5-3.7-1-7.4-1.5-11.2c0.7,5.3,0.7,10.5,0,15.8
			c0.5-3.7,1-7.4,1.5-11.2c-1.2,8.4-3.7,16.5-7,24.3c1.4-3.3,2.8-6.7,4.2-10c-5.7,13.2-13.1,25.6-20.6,37.9
			c-7.4,12.3-14.3,24.8-20.3,37.8c-13.1,28.4-23.7,57.8-30,88.4c-6.4,30.8-9.7,62.6-8.9,94.1c0.4,17.3,2.4,34.4,4.8,51.6
			c2,14,4.6,27.9,8.7,41.4c4.8,15.8,11.3,31.9,21.2,45.2c6.1,8.2,12.2,15.9,20.1,22.4c7.6,6.3,15.5,12.2,24.1,17.1
			c12.8,7.3,26.4,13.2,39.9,19.1c16.8,7.4,33.8,14.5,51.1,20.8c59.8,21.7,124.4,31.6,187.1,17.2c15.5-3.6,30.1-9.2,44.6-15.5
			c11.6-5.1,22.8-11.3,33-18.8c12.6-9.3,24.7-19.1,34.7-31.1c10.3-12.4,19.2-25.6,28.2-39c3.7-5.4,7.4-10.8,11.4-16
			c-2.2,2.8-4.4,5.7-6.6,8.5c5.7-7.3,12-14.1,19.2-19.8c-2.8,2.2-5.7,4.4-8.5,6.6c5.7-4.3,11.8-7.8,18.3-10.6
			c-3.3,1.4-6.7,2.8-10,4.2c9.2-3.8,18.8-6.1,28.6-7.4c-3.7,0.5-7.4,1-11.2,1.5c23.3-3,46.9-1.1,70.3-1.2c29-0.1,58.4-4,86.4-11.2
			c27.4-7.1,54.4-17.9,79.2-31.5c22.4-12.2,44.2-27.8,61.1-47c19.5-22.2,34-48.5,39.4-77.8c5.2-28.2,5.1-56.3,1.9-84.7
			c-1.6-14.2-3.5-28.5-6.7-42.5c-3.1-13.4-7.8-26.1-13.3-38.7c-11.1-25.6-30.2-47.6-54.1-62c-24.5-14.8-52.6-20.6-80.5-24.9
			c-24.5-3.8-48.5-7.8-71.5-17.4c3.3,1.4,6.7,2.8,10,4.2c-12.4-5.3-24.3-11.9-35-20.1c2.8,2.2,5.7,4.4,8.5,6.6
			c-7.3-5.8-14-12.3-19.8-19.6c2.2,2.8,4.4,5.7,6.6,8.5c-4.9-6.4-9.1-13.3-12.3-20.7c1.4,3.3,2.8,6.7,4.2,10
			c-3.8-9.1-6.2-18.6-7.6-28.4c0.5,3.7,1,7.4,1.5,11.2c-3.3-25.6-0.2-51.5-1.8-77.2c-1.7-26.6-7.6-52.2-21.9-75
			c-25.4-40.4-68-67.3-113.5-79.9C349.8,1156.2,323.7,1153.1,298.5,1154.7c-11.2,0.7-21.6,4.2-29.7,12.3
			c-7.3,7.3-12.8,19.2-12.3,29.7c0.5,10.9,4.1,22.1,12.3,29.7c7.9,7.3,18.6,13,29.7,12.3c12.7-0.8,25.3-0.3,37.9,1.3
			c-3.7-0.5-7.4-1-11.2-1.5c17.1,2.3,33.7,6.8,49.6,13.5c-3.3-1.4-6.7-2.8-10-4.2c12.8,5.5,24.9,12.3,36,20.8
			c-2.8-2.2-5.7-4.4-8.5-6.6c8.5,6.6,16.2,14.1,22.8,22.5c-2.2-2.8-4.4-5.7-6.6-8.5c5.8,7.5,10.6,15.6,14.3,24.2
			c-1.4-3.3-2.8-6.7-4.2-10c3.5,8.4,5.8,17,7.1,26c-0.5-3.7-1-7.4-1.5-11.2c3.5,26,0.2,52.1,1.9,78.1c1,15.9,3,32.5,8.6,47.5
			c2.8,7.5,5.9,15,9.7,22c4.2,7.6,9.6,14.4,14.9,21.2c14.6,18.4,34.9,33.1,56.1,43.1c22.5,10.7,45.6,17.9,70.2,21.9
			c25.4,4.2,51.4,6.7,75.4,16.6c-3.3-1.4-6.7-2.8-10-4.2c7.7,3.3,15,7.4,21.8,12.5c-2.8-2.2-5.7-4.4-8.5-6.6
			c6.1,4.7,11.4,10.1,16.2,16.1c-2.2-2.8-4.4-5.7-6.6-8.5c6,7.8,10.8,16.3,14.7,25.3c-1.4-3.3-2.8-6.7-4.2-10
			c7.1,17,11,35,13.4,53.2c-0.5-3.7-1-7.4-1.5-11.2c3.1,24,4.8,48.5,1.7,72.6c0.5-3.7,1-7.4,1.5-11.2c-1.7,12-4.5,23.6-9.2,34.8
			c1.4-3.3,2.8-6.7,4.2-10c-4,9.2-9.1,17.8-15.2,25.8c2.2-2.8,4.4-5.7,6.6-8.5c-8.2,10.4-17.7,19.5-28.1,27.6
			c2.8-2.2,5.7-4.4,8.5-6.6c-17.5,13.4-37.1,24-57.5,32.6c3.3-1.4,6.7-2.8,10-4.2c-25.1,10.4-51.3,17.5-78.2,21.2
			c3.7-0.5,7.4-1,11.2-1.5c-17.2,2.2-34.4,2.8-51.7,2.5c-15.9-0.3-31.9-0.9-47.9,0.3c-22.4,1.8-42.6,6.1-62.9,15.8
			c-16.6,8-30.9,20.9-42.2,35.3c-12.7,16.2-23.2,33.8-35.6,50.1c2.2-2.8,4.4-5.7,6.6-8.5c-7.8,10.1-16.8,19.1-26.9,27
			c2.8-2.2,5.7-4.4,8.5-6.6c-11.5,8.8-24.1,16.1-37.5,21.8c3.3-1.4,6.7-2.8,10-4.2c-17,7.1-34.8,11.8-53,14.4
			c3.7-0.5,7.4-1,11.2-1.5c-22.1,2.9-44.3,2.5-66.4-0.5c3.7,0.5,7.4,1,11.2,1.5c-38-5.3-74.5-17.7-109.8-32.6
			c3.3,1.4,6.7,2.8,10,4.2c-21.9-9.3-45.3-18.4-64.3-33c2.8,2.2,5.7,4.4,8.5,6.6c-5.5-4.4-10.4-9.2-14.7-14.8
			c2.2,2.8,4.4,5.7,6.6,8.5c-4.7-6.3-8.5-13.2-11.7-20.4c1.4,3.3,2.8,6.7,4.2,10c-7.8-18.5-11.6-38.6-14.3-58.4
			c0.5,3.7,1,7.4,1.5,11.2c-4.2-31.9-4.1-64.3,0.1-96.2c-0.5,3.7-1,7.4-1.5,11.2c4.4-31.9,12.9-63.1,25.3-92.8
			c-1.4,3.3-2.8,6.7-4.2,10c6.9-16.2,15-31.8,24.1-46.9c10.9-18.1,21.3-36.3,28.3-56.4c3.8-10.8,5.8-22.7,6.2-34.1
			c0.4-11.4-1.3-23.6-5.6-34.2c-5.5-13.6-11.3-23.3-20.9-34.6c-4.6-5.4-9.9-10.2-15.3-14.8c-12.9-10.8-27-20.4-37.6-33.7
			c2.2,2.8,4.4,5.7,6.6,8.5c-4.8-6.3-8.8-13-11.9-20.2c1.4,3.3,2.8,6.7,4.2,10c-3.2-7.7-5.4-15.7-6.6-24c0.5,3.7,1,7.4,1.5,11.2
			c-1.1-8.3-1.1-16.6,0-24.9c-0.5,3.7-1,7.4-1.5,11.2c1.1-7.6,3.2-15,6.2-22.1c-1.4,3.3-2.8,6.7-4.2,10c3-6.9,6.8-13.4,11.4-19.4
			c-2.2,2.8-4.4,5.7-6.6,8.5c4.9-6.3,10.5-12,16.8-16.9c-2.8,2.2-5.7,4.4-8.5,6.6c6.3-4.9,13.1-8.9,20.5-12.1
			c-3.3,1.4-6.7,2.8-10,4.2c8.1-3.3,16.6-5.4,25.3-6.6c-3.7,0.5-7.4,1-11.2,1.5c14.2-1.9,28.5-1.6,42.8-1.5
			c15.3,0.1,30.6,0.2,45.8,0.4c28.3,0.2,56.5,0.7,84.8,0.7c17.5,0,34.6-3.7,51.6-7.5c13.7-3,25.9-7.3,36.2-17.3
			c9.5-9.3,14.3-21.5,16-34.4c1-7.7,1.2-14.7,0.7-22.4c-0.4-6.3-0.8-12.6,0-18.9c-0.5,3.7-1,7.4-1.5,11.2c0.4-3.1,1.1-6.2,2.3-9.1
			c-1.4,3.3-2.8,6.7-4.2,10c0.9-2.2,2.1-4.1,3.5-6c-2.2,2.8-4.4,5.7-6.6,8.5c1.4-1.8,3-3.3,4.9-4.7c-2.8,2.2-5.7,4.4-8.5,6.6
			c2.3-1.7,4.9-3.1,7.6-4.3c-3.3,1.4-6.7,2.8-10,4.2c5.1-2.1,10.4-3.2,15.9-4c-3.7,0.5-7.4,1-11.2,1.5c2.1-0.2,4.2-0.4,6.3-0.6
			c11.2-0.8,21.5-4.1,29.7-12.3c7.3-7.3,12.8-19.2,12.3-29.7c-0.5-10.9-4.1-22.1-12.3-29.7C320.3,1159.8,309.6,1153.9,298.5,1154.7z
			"/>
	</g>
</g>
<g>
	<path class="st1" d="M551.3,1215.5c0,0-55,91.3-143.6,111.2s-177.4-39.2-177.4-39.2s55-91.3,143.6-111.2
		C462.6,1156.4,551.3,1215.5,551.3,1215.5z"/>
	<path class="st2" d="M372.1,1193.3c-1.2-5.4-8.2-7-11.6-2.7c-11.7,14.7-15.7,43.6-8.7,74.6c6.9,31,22.9,55.3,39.8,63.7
		c5,2.4,10.6-2,9.4-7.4c0,0-10.5-27.4-18.5-63.2C374.4,1222.6,372.1,1193.3,372.1,1193.3z"/>
	<path class="st2" d="M411.6,1319c1.2,5.4,8.2,7,11.6,2.7c11.7-14.7,15.7-43.6,8.7-74.6c-6.9-31-22.9-55.3-39.8-63.7
		c-5-2.4-10.6,2-9.4,7.4c0,0,10.5,27.4,18.5,63.2C409.3,1289.8,411.6,1319,411.6,1319z"/>
	<path class="st3" d="M551.6,1216.7c1.9,0.5,2.8-2.2,1.1-2.9c-32.4-14.7-92.6-56.7-178.7-37.4c-86,19.3-122.6,83-145.6,110.2
		c-1.3,1.5,0.8,3.5,2.2,2.2c28.6-24.6,100.1-62.5,151.9-74.1C434.4,1203,515.2,1206.6,551.6,1216.7z"/>
	<path class="st3" d="M230.5,1288.6c-1.9-0.5-2.8,2.2-1.1,2.9c32.4,14.7,92.6,56.7,178.7,37.4c86-19.3,122.6-83,145.6-110.2
		c1.3-1.5-0.8-3.5-2.2-2.2c-28.6,24.6-94.1,88.9-146,100.6C353.7,1328.7,266.9,1298.6,230.5,1288.6z"/>
</g>
<g>
	<g>
		<path class="st4" d="M-84,326.7c4,15.9,5.3,32.5,7.7,48.7c2.8,19.3,5.7,39,12.2,57.5c7.9,22.7,22.6,46.1,49.8,46
			c26.2-0.1,43.1-22.7,56.8-42c3.1-4.4,6.2-8.9,9.3-13.3c1.5-2.2,3.1-4.3,4.7-6.5c2.4-3.2-5.1,6.3-1.7,2.3c0.8-1,1.7-2.1,2.6-3.1
			c1.6-1.8,3.2-3.6,4.9-5.3c0.9-0.8,1.7-1.6,2.6-2.5c3.6-3.4-3.8,2.7-3,2.2c1.3-0.8,4.1-1.9,5.1-3.1c0-0.1-6.8,2.5-5.3,2.2
			c0.6-0.1,1.2-0.4,1.7-0.6c0.9-0.3,1.9-0.4,2.8-0.6c-2.6,0.4-5.2,0.7-7.8,1.1c1.9-0.2,3.7,0,5.5,0.2c-2.6-0.4-5.2-0.7-7.8-1.1
			c2.2,0.3,4.2,0.9,6.4,1.4c4.2,1-3.7-1.1-3.5-1.6c0-0.1,3.2,1.6,3.4,1.7c1.3,0.7,6.9,4.8,2.3,1.2c-4.4-3.4-0.8-0.6,0,0.1
			c1,0.9,2,1.8,2.9,2.7c2.9,2.8,5.6,5.9,8.1,9.1c1.3,1.7,4.4,6-1.2-1.6c0.5,0.7,1.1,1.5,1.7,2.2c1.5,2,3,4.1,4.5,6.1
			c6.6,8.9,13.2,18,21.3,25.7c8.5,8,18.1,15.2,28.3,20.9c20.7,11.6,43.6,17.9,67.2,19.5c23.9,1.6,47.3-3.8,69-13.7
			c38.4-17.5,70.3-56.1,76.4-98.3c3.6-25,0-48.6-10.2-71.7c-9.3-21.1-24.8-38.3-43.1-51.9c-18.3-13.6-40.4-19.3-61.5-26.8
			c-2.3-0.8-4.6-1.7-6.9-2.6c-0.8-0.3-1.6-0.7-2.5-1c9.2,3.6,3.8,1.6,1.6,0.6c-4.2-2-8-4.5-11.9-7c-3-1.9,6.2,5.3,2.6,2
			c-0.9-0.8-1.8-1.6-2.6-2.4c-0.6-0.6-1.1-1.2-1.6-1.7c-3.4-3.4,4.3,6.8,1.3,1.7c-0.5-0.9-1.1-1.7-1.6-2.6c-1.6-2.8-0.6-4.1,0.7,2.1
			c-0.7-3.4-1.9-6.6-2.4-10.2c0.4,2.6,0.7,5.2,1.1,7.8c-1.7-15.1-0.2-30.8,0.2-46c0.4-15.7,0.8-31.4,1.1-47
			c0.8-33.1,3.3-66.9-11.3-97.7c-6.7-14.2-18.5-26.3-31.7-34.7c-15.7-10-34-13-52.2-10C82.2-10.1,62,15.5,52.8,42.6
			c-10.5,30.8-1.3,62.5-5,93.9c0.4-2.6,0.7-5.2,1.1-7.8c-0.7,4.7-1.6,9.4-3,14c-0.5,1.6-1.2,3.2-1.7,4.8c3-9,1.2-2.9-0.1-0.5
			c-1.6,3-3.7,5.6-5.4,8.5c4.7-7.7,1.8-2.4,0-0.4c-1.2,1.3-2.4,2.5-3.6,3.6c-1.2,1.2-2.6,2.3-3.8,3.4c-3.7,3.3,6.4-4.4,0-0.2
			c-2.9,1.9-5.9,3.7-9,5.2c-6.9,3.4,5-1.6,0.2,0c-1.4,0.5-2.8,1-4.3,1.4c-4.4,1.3-8.8,2.2-13.3,2.8c2.6-0.4,5.2-0.7,7.8-1.1
			c-22.9,3-46.2,0.2-68.9,5.9c-18,4.5-36,14.3-47.9,28.8c-14.2,17.3-22,38.4-23.5,60.8c-1.4,21.2,11.1,37.9,27.7,49.3
			c2.6,1.8,5.3,3.4,8,5.1c1.2,0.7,8,4.1,8.1,5.4c0.1,0.6-6.4-5.5-3.7-2.8c0.7,0.7,1.5,1.3,2.2,2c1.1,1,4.7,5.5,1,0.7
			c-3.8-4.9,0,0.4,0.7,1.7c1.4,2.4,0.5,4.1-1.4-3.6C-84.7,324.5-84.3,325.6-84,326.7c4.1,14.8,21.1,25.4,36.2,20.5
			c15.2-4.9,24.9-20.3,20.5-36.2c-5.1-18.4-18-31.2-33.8-41c-2.3-1.4-4.6-2.8-6.9-4.3c-1-0.7-2.1-1.4-3.1-2.1
			c-4.7-3.2,5.6,4.9,2,1.6c-0.9-0.8-1.7-1.6-2.5-2.4c-3.1-3,4.2,6.9,1.7,2.2c-0.3-0.5-0.5-1-0.8-1.5c-1.7-2.6,2,4.4,1.9,4.6
			c0.2-0.6-1-3.8-1.1-4.7c0.4,2.6,0.7,5.2,1.1,7.8c-0.3-2.6-0.2-5.2,0.1-7.8c-0.4,2.6-0.7,5.2-1.1,7.8c0.6-3.9,1.3-7.8,2.3-11.7
			c0.5-1.9,1.7-9.4,3.4-10.4c0.1,0-3.3,7.1-1.4,3.5c0.4-0.7,0.7-1.5,1.1-2.3c0.8-1.5,1.6-2.9,2.5-4.3c0.5-0.9,2.7-3,2.7-4
			c0,0.3-4.9,5.9-2.4,3.2c0.7-0.7,1.3-1.5,2-2.2c1.1-1.1,2.2-2.2,3.4-3.3c0.6-0.5,1.2-1,1.8-1.5c2.3-2.1-5.8,4-3.1,2.4
			c2.8-1.6,5.4-3.5,8.3-5c0.7-0.4,1.5-0.7,2.2-1.1c2.8-1.6-6.7,2.5-3.5,1.5c1.6-0.5,3.2-1.2,4.9-1.8c4.7-1.5,9.5-2.5,14.4-3.2
			c-2.6,0.4-5.2,0.7-7.8,1.1c16-2.1,32.1-0.9,48.1-2.6c18.4-2,36.2-6.4,51.8-16.9c14-9.4,26.4-21.7,34.3-36.8
			c9.2-17.5,12.5-36.9,12.4-56.5c-0.1-17.4-2.9-35-0.8-52.3c-0.4,2.6-0.7,5.2-1.1,7.8c0.8-5.7,2-11.2,3.8-16.7
			c0.9-2.5,3.9-7.8-0.6,0.9c0.6-1.2,1.1-2.4,1.7-3.6c1.3-2.5,2.8-4.9,4.3-7.3c3.2-5.2-4.5,5.1-1.1,1.4c0.8-0.9,1.7-1.9,2.5-2.8
			c0.9-0.9,1.8-1.7,2.7-2.6c3.6-3.4-6.7,4.3-1.5,1.2c1.2-0.8,2.4-1.6,3.7-2.3c2.6-1.4,5.6-1.1-2.4,0.9c3-0.7,5.7-1.8,8.8-2.2
			c-2.6,0.4-5.2,0.7-7.8,1.1c3.5-0.4,6.9-0.4,10.4,0c-2.6-0.4-5.2-0.7-7.8-1.1c2.9,0.4,5.7,1.2,8.6,2c5.2,1.5-6.3-3.4-1.6-0.7
			c1.3,0.7,2.6,1.3,3.9,2.1c1.1,0.6,3.1,1.4,3.7,2.4c-0.8-1.1-5.6-4.6-1.9-1.4c2.3,2,4.2,4.1,6.3,6.3c2.4,2.5-4.1-5.9-1.4-1.9
			c0.8,1.2,1.7,2.4,2.4,3.7c0.7,1.3,1.4,2.5,2.1,3.8c2.5,4.7-2.3-6.7-0.3-0.9c2.3,6.6,3.9,13.3,4.8,20.3c-0.4-2.6-0.7-5.2-1.1-7.8
			c1.6,13.6,1.1,27.3,0.8,41c-0.3,14.4-0.7,28.8-1,43.1s-0.7,28.8-1,43.1c-0.4,17.6-0.1,34.5,7.7,50.7
			c11.3,23.4,35.6,34.9,58.7,43.1c9.4,3.3,19.1,6.2,28.4,9.8c2.1,0.8,6.6,3.2-2.1-1c1.3,0.6,2.6,1.1,3.9,1.7c2.2,1,4.3,2.2,6.4,3.4
			c2.1,1.2,4.1,2.5,6.1,3.8c1.2,0.8,2.3,1.8,3.5,2.5c-7.9-4.7-2.4-1.9-0.3-0.1c4.3,3.7,8.4,7.8,12,12.2c1.4,1.7,4.1,6-1.1-1.5
			c0.8,1.2,1.7,2.3,2.5,3.5c1.7,2.5,3.3,5.1,4.8,7.8c1.5,2.7,2.8,5.4,4.1,8.2c2.3,4.8-2.4-6-1.1-2.5c0.6,1.5,1.2,3.1,1.7,4.6
			c1.9,5.7,3.3,11.6,4.1,17.6c-0.4-2.6-0.7-5.2-1.1-7.8c1,7.9,1.1,15.7,0.1,23.6c0.4-2.6,0.7-5.2,1.1-7.8c-0.8,5.5-2,10.9-3.7,16.1
			c-0.4,1.3-0.9,2.6-1.4,3.9c-0.4,1.2-2.1,5.3-0.1,0.3c2.2-5.2,0-0.2-0.5,0.9c-0.5,1-1,2.1-1.6,3.1c-1.3,2.5-2.7,4.9-4.2,7.3
			c-1.4,2.2-3.9,4.5-4.8,6.9c1-1.2,1.9-2.5,2.9-3.7c-0.6,0.7-1.2,1.5-1.8,2.2c-0.8,0.9-1.5,1.8-2.3,2.7c-1.9,2.1-3.9,4.2-5.9,6.2
			c-1.9,1.8-3.8,3.6-5.8,5.3c-1.6,1.4-6,4.4,1.5-1c-1.2,0.8-2.3,1.7-3.5,2.5c-4.5,3.2-9.3,6-14.2,8.5c-1.1,0.5-2.2,1.1-3.3,1.6
			c-0.9,0.4-1.8,0.8-2.6,1.2c1.4-0.6,2.9-1.2,4.3-1.8c-2.2,1.5-5.7,2.2-8.2,2.9c-5.7,1.8-11.5,3-17.3,3.9c2.6-0.4,5.2-0.7,7.8-1.1
			c-10.9,1.5-21.9,1.4-32.8-0.1c2.6,0.4,5.2,0.7,7.8,1.1c-5.4-0.8-10.8-1.9-16.1-3.3c-2.4-0.7-4.8-1.4-7.1-2.2
			c-1.4-0.5-2.8-1-4.2-1.5c-7.2-2.8,4.8,2.3,0.2,0.1c-4.5-2.1-8.8-4.3-13-6.9c-2.5-1.5-4.9-3.1-7.3-4.9c-0.8-0.6-1.5-1.2-2.3-1.7
			c7.9,5.4,2.1,1.6,0.3,0c-4-3.5-7.7-7.3-11.2-11.3c-1.6-1.9-6.5-8.7-0.5-0.4c-1.6-2.2-3.3-4.4-4.9-6.6
			c-7.2-9.8-14.4-20.1-23.5-28.3c-19.7-17.5-49.1-27.5-73-12c-16.3,10.6-27.2,27-38.1,42.7c-2.5,3.5-4.9,7-7.4,10.5
			c-0.6,0.8-1.2,1.7-1.9,2.5c-2.8,3.7,5.1-6.2,2.1-2.7c-1.4,1.6-2.7,3.3-4.1,4.8c-1.3,1.5-2.7,2.9-4.1,4.2c-0.5,0.5-1.1,0.9-1.6,1.4
			c-3.6,3.4,6.6-4.5,3.1-2.3c-1.3,0.8-2.6,1.6-3.9,2.3c-3.4,2,8.2-2.8,4.4-1.9c-0.9,0.2-1.7,0.5-2.6,0.6c2.6-0.4,5.2-0.7,7.8-1.1
			c-1.3,0.2-2.6,0.2-4,0.1c2.6,0.4,5.2,0.7,7.8,1.1c-0.7-0.1-1.3-0.3-2-0.4c-1-0.1-4.6-1.9,2.2,1c8.2,3.5,3.1,1.5,2.5,1
			c-0.4-0.3-1.2-0.8-1.7-1c-0.3-0.1,6.6,6,3.6,2.7c-0.5-0.5-1-1.1-1.5-1.6c-2.6-2.6,5.1,7.2,2.7,3.5c-1-1.6-2-3.1-2.9-4.8
			c-0.4-0.8-0.9-1.7-1.3-2.6c-0.2-0.4-0.3-0.8-0.5-1.1c-1.6-3.4,2.1,5.3,1.9,4.6c-0.6-2.2-1.7-4.3-2.4-6.5
			c-1.6-4.7-2.9-9.5-4.1-14.3c-5.1-21-7.8-42.5-10.8-63.9c-1.3-8.9-2.4-18-4.6-26.7c-3.7-14.9-21.3-25.4-36.2-20.5
			C-78.9,295.5-88,310.7-84,326.7z"/>
	</g>
</g>
<g>
	<g>
		<path class="st4" d="M-312.4,304.1c2.2,16.9,5.9,32.4,17.4,45.6c7.2,8.3,18,14.3,28.8,16.3c9.3,1.8,18,1.8,27.3,0.8
			c6.3-0.7,12.7-1.7,19-0.9c-2.6-0.4-5.2-0.7-7.8-1.1c1.4,0.2,2.7,0.6,4,0.9c3.5,0.8-8.4-4.3-4.5-1.8c3.3,2.1-4.2-3.4-4.1-3.3
			c0.1,0.3,1.3,1.4,1.6,1.6c-5.5-4.5-4.9-6.7-3.2-4c2.6,4.3-2.6-7.8-1.6-3.9c0.4,1.8,1,3.5,1.5,5.2c2.8,9.6,6,19.4,7.5,29.3
			c-0.4-2.6-0.7-5.2-1.1-7.8c1.4,10.7,1.3,21.8,1.7,32.6c0.8,18.2,1.5,36.4,2.3,54.5c0.7,18.1,1.1,36.3,2.4,54.4
			c1.4,20,4.9,39.5,14.7,57.3c15.5,28.3,46.1,50.4,78.1,55.4c18.4,2.9,36.8,2.6,54.8-2.7c17.5-5.1,33.5-14.1,46.9-26.3
			c5.4-4.9,10.1-10.6,14.7-16.4c3.6-4.6,7.2-9.2,10.7-13.9c0.6-0.8,2.3-3-0.6,0.7c-3.3,4.3-0.3,0.3,0.3-0.4c1-1.3,2.1-2.6,3.1-3.8
			c2.4-2.9,4.8-5.6,7.5-8.3c1.1-1.1,2.3-2.2,3.5-3.3c0.7-0.6,1.4-1.2,2.1-1.8c3-2.6-2.3,2-2.7,2.1c1.3-0.2,3.4-2.3,4.6-3
			c1.3-0.7,4-1.5,5-2.6c0,0-6.6,2.4-3.6,1.6c1.1-0.3,2.1-0.7,3.2-1.1c2.4-0.7,4.8-1.2,7.3-1.6c-2.6,0.4-5.2,0.7-7.8,1.1
			c6-0.8,12-0.7,18,0.1c-2.6-0.4-5.2-0.7-7.8-1.1c7,1.1,13.8,3,20.5,5.4c1.6,0.6,3.3,1.3,4.9,1.9c3.6,1.3-5.6-2.5-2.2-0.9
			c0.8,0.4,1.6,0.7,2.4,1.1c3.5,1.6,7,3.2,10.4,4.9c14.7,7.2,29.3,14.4,44.4,20.6c27.2,11.1,55.7,18.6,84.8,22.7
			c31.1,4.3,62.2,5.8,93.5,2.6c32.7-3.3,66.1-9.2,96-23.7c16.5-8,29.6-20,40.4-34.6c8.4-11.3,13.9-24.3,19.4-37.2
			c13.2-31,25.5-62.5,32.3-95.6c12.1-58.5,7.9-123.3-27.7-173.5c-8.4-11.9-17.8-23.1-29-32.4c-11.8-9.8-24.5-17.7-37.8-25.2
			c-5.9-3.3-11.8-6.6-17.6-10.1c-2.6-1.6-5.2-3.3-7.7-5.1c-1-0.7-5.4-4-1.3-0.9c4.1,3.2-0.7-0.7-1.7-1.6c-2.3-2-4.4-4.1-6.4-6.4
			c-0.5-0.6-1-1.2-1.5-1.7c-2.1-2.2,2.6,3,2.2,2.9c-0.9-0.2-2.6-3.7-3-4.5c-1.6-2.6-3.1-5.2-4.4-8c-2.6-5.6,2,5.5,0.4,0.8
			c-0.6-1.7-1.2-3.3-1.7-5c-1.9-6.1-3.1-12.3-4-18.6c0.4,2.6,0.7,5.2,1.1,7.8c-2.5-18.7-1.9-37.6-3.1-56.3
			c-1.4-22.4-5.2-44.9-11.9-66.3C309.6-23,287.7-64.5,255.7-93.7c-17.1-15.7-37.1-27.8-59.4-34.4c-22-6.4-45.7-7.4-68.5-5.5
			c-21.3,1.7-43,4.7-63.7,10.2c-19,5-38.5,12.4-54.4,24.2c-11.6,8.6-20.9,17.7-29.1,29.7c-7,10.1-11.9,22.1-15.4,33.8
			c-6.6,22.4-7.6,46-10.6,69.1c0.4-2.6,0.7-5.2,1.1-7.8c-1.7,12.5-4.2,24.7-8.3,36.7c-1.1,3.2-2.4,6.3-3.5,9.4
			c3.6-9.7,0.1-0.4-1.2,2.1c-2.9,5.7-6.1,11.3-9.8,16.5c-1.4,2-5.4,6.1,0.8-0.8c-0.9,1.1-1.8,2.2-2.7,3.3c-2,2.3-4.1,4.6-6.2,6.7
			c-2.2,2.1-4.7,4-6.8,6.1c5.9-5.8,3.6-2.7,1.4-1.2c-1.4,1-2.7,1.9-4.1,2.8c-2.6,1.7-5.4,3.2-8.2,4.6c-0.9,0.4-1.8,0.8-2.6,1.2
			c1.4-0.6,2.7-1.1,4.1-1.7c-1.8,0.9-3.8,1.5-5.7,2.1c-7.4,2.5-15,4-22.7,5.1c2.6-0.4,5.2-0.7,7.8-1.1c-22.7,3-45.8,1.8-68.6,4.5
			c-22.3,2.7-43.7,8.3-62.4,21.1c-33.3,22.7-55.6,58.3-64.9,97.3C-312.9,261-314.8,282.9-312.4,304.1c0.9,8.1,2.7,14.8,8.6,20.8
			c5.1,5.1,13.5,8.9,20.8,8.6c7.6-0.3,15.5-2.8,20.8-8.6c4.9-5.4,9.5-13.2,8.6-20.8c-1.6-13.5-1.4-27,0.4-40.5
			c-0.4,2.6-0.7,5.2-1.1,7.8c1.9-13.1,5.3-25.7,10.1-38.1c1.8-4.6-3.4,7.7-0.4,1c0.7-1.6,1.5-3.1,2.2-4.7c1.3-2.7,2.8-5.4,4.3-8
			c1.6-2.8,3.3-5.5,5.1-8.1c0.8-1.2,1.7-2.4,2.6-3.6c2.8-4-5.2,6.5-0.7,0.9c4-4.9,8.4-9.5,13.1-13.6c1.3-1.1,2.6-2.2,3.8-3.2
			c3.7-3-6.1,4.4-2,1.5c2.8-1.9,5.5-3.8,8.4-5.5c2.6-1.5,5.2-2.9,7.9-4.1c6.5-3.1-5.8,2.1-1.2,0.4c1.6-0.6,3.2-1.2,4.9-1.8
			c7-2.3,14.1-3.7,21.4-4.7c-2.6,0.4-5.2,0.7-7.8,1.1c42.8-5.5,88.1,1.2,126.6-22.7c33.1-20.5,53.9-55.8,63.5-92.8
			c5.5-21.4,6.7-43.6,9.6-65.5c-0.4,2.6-0.7,5.2-1.1,7.8c1-7.3,2.2-14.6,4-21.8c0.9-3.5,1.9-7,3-10.5c0.5-1.5,1-2.9,1.6-4.4
			c1.1-2.8,0.7-1.9-1.2,2.7c0.4-0.9,0.9-1.9,1.3-2.8c1.5-3.1,3.1-6,5-8.9c1-1.5,2.3-3,3.2-4.6c-4.1,7-2.4,3.1-0.8,1.3
			c2.3-2.6,4.7-5,7.2-7.2c0.8-0.7,6-4.9,1.5-1.4c-4.5,3.5,0.9-0.5,1.8-1.1c5.6-3.8,11.5-6.8,17.6-9.7c2.1-0.9,0.9-0.4-3.5,1.5
			c0.9-0.4,1.9-0.8,2.8-1.1c1.4-0.6,2.9-1.1,4.3-1.6c3.4-1.2,6.8-2.3,10.3-3.3c14.2-4.1,28.7-6.6,43.3-8.6c-2.6,0.4-5.2,0.7-7.8,1.1
			c20.1-2.6,40.4-3.9,60.5-1.3c-2.6-0.4-5.2-0.7-7.8-1.1c7.5,1.1,15,2.7,22.2,5.1c1.7,0.6,3.3,1.2,5,1.8c4.9,1.8-5.7-2.7-1.1-0.5
			c3.4,1.6,6.7,3.3,9.9,5.2c2.7,1.6,5.4,3.3,8,5.1c1.1,0.8,3,1.7,3.8,2.8c-0.1-0.1-5.9-4.8-2.2-1.7c0.8,0.7,1.6,1.3,2.4,2
			c5.2,4.5,10.1,9.3,14.6,14.4c2.1,2.4,4.1,4.8,6.1,7.2c3.2,3.9-3.8-5.1-0.7-1c1.1,1.5,2.2,3,3.2,4.4c4.2,5.9,8.1,12,11.7,18.3
			c3.9,6.6,7.4,13.4,10.7,20.4c0.7,1.6,1.5,3.2,2.2,4.8c0.4,0.8,0.7,1.6,1.1,2.4c-3.3-7-1.6-3.8-0.9-2.1c1.4,3.6,2.8,7.1,4.1,10.7
			c5.8,16.3,9.8,33.1,12.2,50.2c-0.4-2.6-0.7-5.2-1.1-7.8c2.9,22.5,1.8,45.1,4.1,67.6c2.8,27.9,10.4,54.1,29.9,75.2
			C324,227,346,237,366.1,249c4.7,2.8,9.1,5.8,13.6,8.9c3.1,2.2-6-4.9-1.7-1.3c1,0.8,2,1.6,2.9,2.4c2.3,2,4.5,4,6.7,6.1
			c3.6,3.5,6.9,7.2,10.1,11.1c1.4,1.7,3.2,5.1-1.4-1.8c0.7,1,1.5,2,2.2,3c1.7,2.4,3.4,4.9,5,7.4c3,4.8,5.8,9.9,8.3,15
			c0.7,1.3,1.3,2.7,1.9,4.1c2.2,4.7-2.6-6.7-0.6-1.5c1.1,2.8,2.2,5.6,3.2,8.4c3.9,11.4,6.6,23.1,8.2,35c-0.4-2.6-0.7-5.2-1.1-7.8
			c2.5,18.9,2,38-0.5,56.9c0.4-2.6,0.7-5.2,1.1-7.8c-4.9,35.5-16.7,69.5-30.4,102.5c-0.4,1-2.1,4.9-0.3,0.8c1.6-3.9,0.4-0.9,0-0.1
			c-0.8,1.8-1.6,3.7-2.4,5.5c-1.7,3.8-3.4,7.6-5.2,11.3c-1.7,3.5-3.6,6.9-5.6,10.2c-1,1.7-2.1,3.3-3.2,4.9c-0.5,0.7-1,1.3-1.4,2
			c3.7-6.3,2.5-3.2,1-1.4c-2.5,3-5.2,5.7-8.2,8.2c-4.9,4.2,4.2-2.8,0.1-0.1c-1.8,1.2-3.6,2.4-5.5,3.5c-3.3,2-6.8,3.7-10.3,5.3
			c-4.7,2.2,5.8-2.2,0.9-0.4c-2.1,0.8-4.2,1.6-6.3,2.3c-17.9,6-36.6,9.7-55.3,12.2c2.6-0.4,5.2-0.7,7.8-1.1
			c-31.6,4.1-63.6,4-95.2-0.2c2.6,0.4,5.2,0.7,7.8,1.1c-24-3.3-47.6-8.9-70.4-17c-5.4-1.9-10.7-4-16-6.1c-5.6-2.3,5.2,2.3,1.5,0.6
			c-1.3-0.6-2.6-1.1-3.9-1.7c-3.1-1.4-6.2-2.9-9.3-4.4c-11-5.4-21.8-11.1-33.1-15.9c-14.9-6.4-28.9-10.8-45.1-12.6
			c-15.3-1.7-30.4,1.9-44.3,8.3c-10.5,4.9-19.9,12.8-27.7,21.3c-3.2,3.5-6.1,7.1-9,10.8c-2.7,3.5-5.4,7-8.1,10.5
			c-0.7,0.9-1.4,1.9-2.2,2.8c-1.4,1.8-0.6,0.8,2.4-3.1c-0.6,0.8-1.2,1.5-1.8,2.2c-3.4,4.3-6.9,8.4-10.7,12.3
			c-1.9,1.9-3.9,3.7-5.9,5.5c-4.3,3.8,5.9-4.1,1.1-0.9c-1.3,0.9-2.5,1.7-3.8,2.5c-2.6,1.6-5.3,3.1-8,4.5c-0.9,0.4-5.7,2.5-0.7,0.4
			c5.2-2.2-1.2,0.4-2.2,0.8c-5.9,2-11.9,3.4-18.1,4.3c2.6-0.4,5.2-0.7,7.8-1.1c-7.8,1-15.5,1-23.2,0.1c2.6,0.4,5.2,0.7,7.8,1.1
			c-4.3-0.6-8.5-1.4-12.6-2.6c-2.1-0.6-4.2-1.4-6.3-2.1c-3.9-1.4,2.6,0.8,2.9,1.3c-0.3-0.5-2.2-1-2.7-1.2c-3.8-1.8-7.4-3.9-10.8-6.2
			c-0.9-0.6-2.3-1.2-3-2.1c0.3,0.4,5.5,4.5,2.5,1.9c-1.7-1.4-3.3-2.8-4.9-4.3c-1.4-1.3-2.7-2.7-4-4.1c-0.6-0.7-1.3-1.4-1.9-2.2
			c-3.3-3.9,1.3,0.9,1.5,2c-0.2-1.3-2.5-3.6-3.2-4.7c-1.1-1.8-2.2-3.7-3.2-5.5c-0.7-1.3-3.4-7.3-1.2-2.3c2.2,5.2,0.1,0-0.3-1.3
			c-0.4-1.2-0.8-2.3-1.1-3.5c-1.5-5.3-2.5-10.7-3.3-16.1c0.4,2.6,0.7,5.2,1.1,7.8c-3.2-25.8-2.9-52.3-4-78.2
			c-0.9-22.9-1.3-46-2.9-68.8c-1.1-16-5.5-31.8-10.4-47.1c-6.6-20.5-23.2-31.8-44.4-32.6c-11.5-0.4-22.7,3-34.2,1.5
			c2.6,0.4,5.2,0.7,7.8,1.1c-1.5-0.2-2.9-0.5-4.3-0.9c-0.6-0.2-1.2-0.4-1.7-0.5c-3.7-0.9,4.6,1.9,4.7,2c-0.5-0.5-3.1-2.1-3.8-2.2
			c0.3,0.1,6.5,5.7,3.9,2.9c-0.5-0.6-1.1-1.1-1.7-1.7c-2.9-2.8,2.9,3.3,2.8,3.7c0-0.1-1.4-2.1-1.5-2.2c-0.5-0.8-0.9-1.7-1.4-2.5
			c-2-3.6,2.6,6.9,1.5,3.7c-1.5-4.6-2.7-9.1-3.3-13.9c0.4,2.6,0.7,5.2,1.1,7.8c-0.1-0.5-0.1-1-0.2-1.4c-1-8.1-2.6-14.8-8.6-20.8
			c-5.1-5.1-13.5-8.9-20.8-8.6c-7.6,0.3-15.5,2.8-20.8,8.6C-308.6,288.6-313.3,296.5-312.4,304.1z"/>
	</g>
</g>
</svg>
