<?xml version="1.0" encoding="utf-8"?>
<!-- Generator: Adobe Illustrator 23.0.4, SVG Export Plug-In . SVG Version: 6.00 Build 0)  -->
<svg version="1.1" xmlns="http://www.w3.org/2000/svg" xmlns:xlink="http://www.w3.org/1999/xlink" x="0px" y="0px"
	 viewBox="0 0 1202 1211" style="enable-background:new 0 0 1202 1211;" xml:space="preserve">
<style type="text/css">
	.st0{display:none;}
	.st1{fill:#FF9D6C;}
	.st2{fill:#9E3223;}
	.st3{fill:#000B8C;}
	.st4{fill:#5E7775;}
	.st5{fill:#FFFFFF;}
	.st6{fill:#1F1646;}
	.st7{fill:#F0EA9B;}
	.st8{fill:none;stroke:#1F1646;stroke-width:4;stroke-linecap:round;stroke-miterlimit:10;}
	.st9{fill:none;stroke:#000000;stroke-width:3;stroke-miterlimit:10;}
</style>
<g id="Layer_1" class="st0">
</g>
<g id="Layer_2">
	<g>
		<circle class="st1" cx="613" cy="575" r="527"/>
	</g>
	<g>
		<path class="st6" d="M435.3,1108.34c6.42,1.86,13.16,0.79,19.68,0.04c8.39-0.97,16.52-0.87,24.92-0.91
			c15.05-0.08,29.88-5.14,44.43,1.22c5.93,2.59,9.83,8.57,7.67,15.14c-1.87,5.71-9.17,10.28-15.14,7.67
			c-5.92-2.59-11.89-2.5-18.22-1.78c-8.01,0.91-15.93,1.84-24,1.65c-15.7-0.37-31.37,4.26-46.81-0.21
			C412.98,1126.85,420.45,1104.04,435.3,1108.34z"/>
		<path class="st2" d="M411.78,510.5c0.39,1.16,1.37,4.69,3.11,8.89c0.26,0.61,0.53,1.23,0.82,1.86c0.37,0.82,0.77,1.66,1.2,2.5
			c0.47,0.91,0.97,1.82,1.5,2.72c2.76,4.64,6.49,9,11.37,11.03c3.72,1.55,8.3,2.33,13.03,2.76c1.01,0.09,2.03,0.17,3.04,0.23
			c1.51,0.1,3.01,0.16,4.5,0.22c0.71,0.03,1.42,0.05,2.12,0.07h0.01c7.12,0.22,13.43,0.28,16.3,1.72c2.33,1.16,6.78,6.71,13.1,12.76
			c0.7,0.67,1.43,1.35,2.18,2.03c1.18,1.07,2.42,2.15,3.71,3.2l1.99,1.57c2.85,2.19,5.95,4.24,9.29,5.96
			c0.64,0.34,1.28,0.66,1.94,0.96c0.62,0.29,1.24,0.57,1.88,0.83c0.94,0.39,1.9,0.75,2.88,1.08c5.78,1.96,12.14,2.76,19.03,1.61
			c1-1,0-37-5-37c0,0-19-1-21-4s-7-16-14-18c-0.25-0.07-0.52-0.13-0.82-0.17c-0.84-0.12-1.88-0.12-3.09-0.05
			c-0.89,0.06-1.87,0.16-2.92,0.3c-0.63,0.08-1.28,0.18-1.95,0.28c-3.8,0.59-8.34,1.51-13.13,2.37c-0.67,0.12-1.34,0.24-2.02,0.36
			c-1.4,0.24-2.83,0.47-4.25,0.69c-0.97,0.14-1.94,0.28-2.91,0.4c-6.92,0.91-13.7,1.21-18.91-0.18c-15-4-25-18-27-17
			S410.78,507.5,411.78,510.5z"/>
		<path class="st2" d="M667.78,564.5c5,0,15-14,19-24c0.01-0.03,0.02-0.05,0.03-0.08v-0.01c0.54-1.31,1.42-2.56,2.56-3.75
			c0.44-0.46,0.91-0.91,1.42-1.35c0.55-0.47,1.13-0.93,1.75-1.39c2.41-1.74,5.33-3.32,8.42-4.69c0.62-0.28,1.25-0.54,1.88-0.8
			c0.58-0.24,1.17-0.47,1.75-0.69c1.27-0.48,2.54-0.92,3.8-1.32c5.8-1.87,11.29-2.92,14.39-2.92c6.32,0,13.27,3.12,22.32,2.95
			c1.01-0.02,2.05-0.08,3.11-0.19c0.97-0.1,1.97-0.24,2.99-0.44c0.52-0.09,1.05-0.2,1.58-0.32c0.14-0.03,0.27-0.07,0.41-0.11
			c6.82-1.79,14.14-9.21,19.53-16.1c0.43-0.55,0.85-1.1,1.25-1.64c0.38-0.51,0.74-1,1.1-1.49c0.63-0.88,1.22-1.73,1.76-2.54
			c2.46-3.66,3.95-6.49,3.95-7.12c0-2,10-12,7-13s-29,18-39,17c-2.63-0.26-5.12-1.22-7.49-2.52c-0.92-0.5-1.82-1.05-2.7-1.64
			c-0.71-0.47-1.41-0.97-2.1-1.47c-0.6-0.44-1.19-0.88-1.77-1.33c-3.96-3.02-7.56-6.08-10.94-7.04c-0.61-0.17-1.28-0.18-1.99-0.04
			c-0.6,0.11-1.24,0.33-1.9,0.65c-1.05,0.49-2.15,1.21-3.29,2.1c-0.77,0.6-1.56,1.27-2.36,2c-6.28,5.79-12.91,15.1-15.46,18.29
			c-4,5-13,7-17,8s-6,5-8,7s-13,3-13,3C654.78,530.5,662.78,564.5,667.78,564.5z"/>
		<path class="st3" d="M169.49,1111.82c7.79-2.82,16.52-7.25,22.79-9.82c3.96-1.62,15.87-3.46,20-5c10.86-4.06,8.98-6.98,20.37-9.08
			c13.67-2.52,27.48-5.93,38.13-15.42c7.45-6.63,5.99-11.88,5.83-15.76c-0.03-0.81,0-1.55,0.17-2.24c2.3-9.33,6.94-17.36,6.28-27.25
			c-0.64-9.52-4.22-18.54-5.07-28.01c-0.75-8.43,0.64-17.08,2.25-25.33c3.64-18.75,8.95-37.32,14.8-55.49
			c10.2-31.73,6.75-66.9,21.04-97.31c7.23-15.39,16.67-29.2,25.88-43.4c9.94-15.33,16.93-34.76,30.86-47.06
			c17.51-15.45,38.45-23.11,58.38-34.45c16.24-9.25,29.15-22.96,42.74-35.54c13.06-12.08,24.87-24.13,34.07-39.53
			c4.27-7.14,9.05-14.54,11.01-22.73c1.82-7.59-1.25-14.36-1.25-21.91c0-1.61,0.57-3.79,1.11-5.93c0.46-1.85,0.89-3.68,0.89-5.07
			c0-3-4-6-4-9s1-5,1-8c0-2.69-2.41-3.77-2.91-8.3c-0.06-0.52-0.09-1.08-0.09-1.7c0-6-5-17-6-27s-22-38-32-51
			c-8.16-10.61-9.57-25.59-12.86-38.16c-3.81-14.56-12.36-21.74-22.71-31.99c-2.96-2.93-13.92-12.53-7.43-16.85c3-2,20-2,33,10
			c10.24,9.45,18.88,20.9,27.21,32.01c3.61,4.81,6.7,10.26,10.54,14.85c4.92,5.89,12.17,9.35,18.45,13.52
			c6.24,4.15,12.94,7.93,18.79,12.61c3.24,2.6,6.49,6.88,8.91,9.83c1.32,1.61,2.39,2.82,3.09,3.17c2,1,4-9,7-5s13,7,18,6s8-9,10-10
			s7,9,9,7c0.5-0.5,1.74-3.05,3.54-6.85c5.38-11.43,15.7-34.14,25.46-46.15c13-16,35-28,40-31s12-12,14-15s15-11,19-7s-7,15-10,17
			c-3.06,2.04-4.89,7.55-6.49,10.64c-2.74,5.3-5.42,10.63-8.36,15.82c-6.94,12.23-3.15,23.29-3.15,36.54
			c0,7.19-1.42,14.24-2.24,21.34c-0.94,8.15,2.24,15.59,2.24,23.66c0,12.23-8.12,20.2-3,33c2,5-5,7-5,12c0,4.6,4.23,4.97,5.68,8.89
			c0.13,0.34,0.24,0.71,0.32,1.11c1,5-4,8-4,13s7,9,7,9s-0.36,3.93-1.29,9.66c-0.62,3.85-1.5,8.51-2.71,13.34c-3,12-4,9-11,31
			c-5.91,18.59-6.08,39.59-6.4,58.92c-0.4,24.19,3.97,47.9,6.85,71.84c1.44,11.92,2.33,22.34,1.55,26.24
			c-2.74,13.68-6.47,27.47-10.98,40.67c-2.71,7.93-6,14.69-6.88,23.22c-1.09,10.6-2.64,21.08-3.78,31.62
			c-1.23,11.34,0.4,22.75,1.35,34.04c1.58,18.81,2.22,38.17,8.66,56.11c3.07,8.55,7.86,16.29,10.88,24.88
			c3.26,9.28,5.5,18.88,8.29,28.31c1.12,3.82,2,6.77,2.46,8.14c4.44,13.33,2.08,27.76,6.92,40.98c4.18,11.4,12.28,20.57,20.44,29.32
			c9.71,10.4,23.96,14.55,34.64,23.71c2.78,2.38,4.14,5.08,4.77,7.47c0.87,3.3-1.61,6.53-5.03,6.53h-85.48
			c-3.76,0-7.12-2.36-8.39-5.9c-0.29-0.8-0.59-1.66-0.91-2.55c-2.38-6.66-5.37-15.2-5.96-17.55c-0.51-2.06-0.76-11.78-1.02-21.83
			c-0.32-12.8-0.32-24.23-5.33-36.21c-4.75-11.36-11.59-22.16-15.74-33.52c-5.21-14.23-5.82-29.58-5.58-44.58
			c0.12-7.72,0.52-15.42,0.63-23.14c0.09-7.02-2.14-12.17-4.34-18.71c-1.53-4.55-1.22-8.58-1.74-13.2
			c-0.6-5.37-3.33-16.87-9.88-17.81c-0.83-0.12-1.71,0.05-2.61,0.43c-6.14,2.59-10.28,10.51-13.69,15.83
			c-1.79,2.79-3.23,5.14-5.66,7.36c-2.8,2.56-6.39,4.23-7.13,8.37c-0.41,2.3,0.51,5.41,0.46,7.43c-0.12,4.94,0.51,9.86,1.41,14.72
			c2.46,13.25,1.25,27.47,5.97,40.38c3.6,9.84,10.85,17.97,14.27,27.84c3.78,10.89,2.62,22.46,3.04,33.75
			c0.42,11.05,4.66,21.21,8.88,31.26c3.35,7.98,4.79,18.62,10.04,25.62c3.79,5.06,9.18,8.98,13.32,13.81
			c0.43,0.5,1.41,2.04,2.47,3.57c1.06,1.54-0.03,3.63-1.9,3.64l-20.6,0.04c0.22,0.45,0.22,0.45,0.22,0.45l-18.29,0.24
			c-2.07,1.64-4.74,2.58-7.57,2.58c-1.51,0-2.93-0.39-4.22-1.05c-1.12-0.2-2.79-0.51-3.92-0.71c-3.96,0.41-7.95,0.67-11.93,0.68
			c-6.57,2.8-16.13,0.14-22.5-0.63c-0.36-0.04-0.7-0.12-1.03-0.21l-5.63,0.07c-0.6,0.01-1.2-0.13-1.73-0.41l-2.19,0.43
			c0.05-0.08,0.62-1.46,0.65-1.55c1.08-3.85,5.71-20.29,8.35-26.45c0.86-2.01,1.23-6.15,1.12-11.34
			c-0.22-11.35-2.68-27.75-7.16-37.85c-0.61-1.4-1.27-2.68-1.96-3.81c-8-13-23-50-24-62c-0.89-10.69-0.19-44.38-0.03-51.62
			c0.01-0.71-0.63-1.26-1.33-1.12c-3.71,0.73-14.64,6.74-22.64,5.74c-7.99-1-25.7-15.87-45.59-17.31c-1.42-0.1-1.64,2.01-0.23,2.21
			c30.04,4.28,35.13,21.82,34.81,23.1c-2,8,9,39-1,71c-5.7,18.23-27.57,47.98-44.81,72.2c-3.41,4.79,18.81,9.8,15.81,22.8
			c-2.98,12.91-6.63,10.93-6.99,14.92l-92.44,0.19l-39.55,0.08l-139.9,0.3c-0.75,0-0.96-1.02-0.28-1.31
			C156.77,1124.87,162.47,1114.37,169.49,1111.82z"/>
		<path class="st4" d="M687.46,372.56c-0.04-0.14-0.08-0.27-0.14-0.39c-3.71,1.48-7.69,4.47-10.54,7.32c-2,2-11,19-18,23
			s-19,11-21,17s-1,20-6,27c-5,7-13,18-8,34c2.17,6.95,3.81,14.11,6.28,20.96c0.46,1.28,0.75,3.18,1.8,4.15
			c1.55,1.44,3.63,0.79,5.6,0.96c3.56,0.32,4.81,3.84,7.12,6.06c1.6,1.54,5.3,4.71,7.2,1.86c2-3,6-15,5-21s-1-15,0-20
			c1.93-9.65,7.74-18.44,7.85-28.46c0.05-4.53-1.19-9.13-1.92-13.58c-0.55-3.32-1.77-7.6-0.93-10.96c1.56-6.24,3.56-12.7,7.37-17.96
			c3.86-5.33,8.04-10.2,11.62-15.8c1.75-2.74,3.46-5.52,4.96-8.41c0.56-1.09,1.18-2.21,1.58-3.38
			C687.55,374.21,687.65,373.3,687.46,372.56z"/>
		<g>
			<path class="st5" d="M530.17,543.19c0,0,6.55,11.35,17.4,13.99c10.85,2.64,21.89-4.42,21.89-4.42s-6.55-11.35-17.4-13.99
				C541.21,536.13,530.17,543.19,530.17,543.19z"/>
			<path class="st2" d="M552.25,540.86c0.16-0.66,1.02-0.84,1.43-0.3c1.4,1.84,1.83,5.39,0.91,9.18c-0.92,3.79-2.94,6.75-5.03,7.74
				c-0.62,0.29-1.29-0.26-1.13-0.93c0,0,1.35-3.35,2.41-7.72C551.9,544.45,552.25,540.86,552.25,540.86z"/>
			<path class="st2" d="M547.11,556.23c-0.16,0.66-1.02,0.84-1.43,0.3c-1.4-1.84-1.83-5.39-0.91-9.18c0.92-3.79,2.94-6.75,5.03-7.74
				c0.62-0.29,1.29,0.26,1.13,0.93c0,0-1.35,3.35-2.41,7.72C547.46,552.63,547.11,556.23,547.11,556.23z"/>
			<path class="st1" d="M530.14,543.33c-0.23,0.06-0.34-0.27-0.12-0.37c4.02-1.74,11.51-6.77,22.05-4.2
				c10.53,2.57,14.88,10.48,17.65,13.87c0.15,0.18-0.1,0.43-0.28,0.27c-3.46-3.09-12.16-7.9-18.51-9.45
				C544.57,541.91,534.63,542.18,530.14,543.33z"/>
			<path class="st1" d="M569.43,552.89c0.23-0.06,0.34,0.27,0.12,0.37c-4.02,1.74-11.51,6.77-22.05,4.2s-14.88-10.48-17.65-13.87
				c-0.15-0.18,0.1-0.43,0.28-0.27c3.46,3.09,11.37,11.14,17.72,12.69S564.94,554.04,569.43,552.89z"/>
		</g>
		<g>
			<path class="st5" d="M599.85,550.15c0,0,12.78,2.91,22.09-3.26c9.31-6.16,11.63-19.06,11.63-19.06s-12.78-2.91-22.09,3.26
				S599.85,550.15,599.85,550.15z"/>
			<path class="st2" d="M613.14,532.38c-0.38-0.57,0.07-1.32,0.75-1.26c2.3,0.22,5.2,2.32,7.35,5.57c2.15,3.26,2.95,6.75,2.26,8.95
				c-0.21,0.65-1.07,0.77-1.45,0.2c0,0-1.54-3.27-4.02-7.02C615.54,535.07,613.14,532.38,613.14,532.38z"/>
			<path class="st2" d="M620.92,546.59c0.38,0.57-0.07,1.32-0.75,1.26c-2.3-0.22-5.2-2.32-7.35-5.57c-2.15-3.26-2.95-6.75-2.26-8.95
				c0.21-0.65,1.07-0.77,1.45-0.2c0,0,1.54,3.27,4.02,7.02C618.52,543.89,620.92,546.59,620.92,546.59z"/>
			<path class="st1" d="M599.93,550.28c-0.11,0.21-0.43,0.07-0.35-0.16c1.45-4.13,2.86-13.04,11.9-19.03s17.8-3.79,22.17-3.52
				c0.24,0.02,0.24,0.36,0.01,0.39c-4.61,0.44-14.06,3.55-19.51,7.16S602.13,546.2,599.93,550.28z"/>
			<path class="st1" d="M633.64,527.94c0.11-0.21,0.43-0.07,0.35,0.16c-1.45,4.13-2.86,13.05-11.9,19.03
				c-9.04,5.98-17.8,3.79-22.17,3.52c-0.24-0.02-0.24-0.36-0.01-0.39c4.61-0.44,15.9-0.77,21.35-4.38S631.44,532.02,633.64,527.94z"
				/>
		</g>
		<path class="st4" d="M528.3,515.22c2.44-4.23,1.46-16.27,0.48-18.71c-1.75-4.39-7.35-4.56-10.73-7.18
			c-5.12-3.97-3.88-13.03-4.57-18.74c-0.63-5.17-2.72-8.98-5.35-13.35c-2.48-4.12-5.02-8.2-7.69-12.19
			c-3.31-4.94-7.57-8.82-11.23-13.43c-3.35-4.22-6.2-8.8-9.44-13.11c-3-4-10-19-14-23s-14-17-18-16s0,6,4,10
			c3.35,3.35,6.04,7.56,8.7,11.45c3.03,4.44,6.78,8.67,8.17,13.98c0.87,3.3,1.81,6.48,2.99,9.71c2.86,7.84,6.32,15.7,8.14,23.86
			c2,9,18,30,18,33c0,3,16,28,16,32c0,6.85,6.59,0.3,8.93,1.49c0.99,0.5,1.81,1.37,2.88,1.63
			C526.78,516.9,527.66,516.33,528.3,515.22z"/>
		<path class="st6" d="M558.28,541c8,3,11,12,11,12s13,12,18,12s13-15,13-15s0-8,7-16s7-26,8-28s0-6-8-11
			c-5.32-3.33-6.66-22.13-6.96-34.35c-1.8,3.8-3.04,6.35-3.54,6.85c-2,2-7-8-9-7s-5,9-10,10s-15-2-18-6s-5,6-7,5
			c-0.7-0.35-1.77-1.56-3.09-3.17c-0.98,6.9-1.96,15.01-1.41,16.67c1,3-2,15-4,22S550.28,538,558.28,541z"/>
		<g>
			<path class="st5" d="M562.49,521.33c0,0,8.3,7.36,17.72,6.57c9.42-0.78,16.39-9.41,16.39-9.41s-8.3-7.36-17.72-6.57
				S562.49,521.33,562.49,521.33z"/>
			<path class="st2" d="M579.59,513.55c-0.05-0.57,0.59-0.95,1.07-0.63c1.62,1.1,2.91,3.84,3.19,7.13c0.27,3.29-0.55,6.21-1.97,7.56
				c-0.42,0.4-1.11,0.13-1.16-0.44c0,0,0.19-3.05-0.13-6.85S579.59,513.55,579.59,513.55z"/>
			<path class="st2" d="M579.58,527.27c0.05,0.57-0.59,0.95-1.07,0.63c-1.62-1.1-2.91-3.84-3.19-7.13
				c-0.27-3.29,0.55-6.21,1.97-7.56c0.42-0.4,1.11-0.13,1.16,0.44c0,0-0.19,3.05,0.13,6.85S579.58,527.27,579.58,527.27z"/>
			<path class="st1" d="M562.5,521.46c-0.17,0.11-0.35-0.12-0.2-0.26c2.76-2.47,7.43-8.51,16.58-9.27
				c9.14-0.76,14.75,4.43,17.88,6.41c0.17,0.11,0.03,0.37-0.15,0.29c-3.6-1.55-11.88-3.09-17.39-2.63
				C573.71,516.45,565.8,519.33,562.5,521.46z"/>
			<path class="st1" d="M596.61,518.61c0.17-0.11,0.35,0.13,0.2,0.26c-2.76,2.47-7.43,8.51-16.58,9.27
				c-9.14,0.76-14.75-4.43-17.88-6.41c-0.17-0.11-0.03-0.37,0.15-0.29c3.6,1.55,12.11,5.9,17.62,5.44S593.31,520.74,596.61,518.61z"
				/>
		</g>
		<g>
			<path class="st5" d="M559.95,498.48c0,0,8.3,7.36,17.72,6.57s16.39-9.41,16.39-9.41s-8.3-7.36-17.72-6.57
				C566.92,489.86,559.95,498.48,559.95,498.48z"/>
			<path class="st2" d="M577.05,490.7c-0.05-0.57,0.59-0.95,1.07-0.63c1.62,1.1,2.91,3.84,3.19,7.13c0.27,3.29-0.55,6.21-1.97,7.56
				c-0.42,0.4-1.11,0.13-1.16-0.44c0,0,0.19-3.05-0.13-6.85C577.74,493.68,577.05,490.7,577.05,490.7z"/>
			<path class="st2" d="M577.04,504.42c0.05,0.57-0.59,0.95-1.07,0.63c-1.62-1.1-2.91-3.84-3.19-7.13
				c-0.27-3.29,0.55-6.21,1.97-7.56c0.42-0.4,1.11-0.13,1.16,0.44c0,0-0.19,3.05,0.13,6.85S577.04,504.42,577.04,504.42z"/>
			<path class="st1" d="M559.96,498.61c-0.17,0.11-0.35-0.13-0.2-0.26c2.76-2.47,7.43-8.51,16.58-9.27
				c9.14-0.76,14.75,4.43,17.88,6.41c0.17,0.11,0.03,0.37-0.15,0.29c-3.6-1.55-11.88-3.09-17.39-2.63
				C571.17,493.6,563.26,496.48,559.96,498.61z"/>
			<path class="st1" d="M594.07,495.76c0.17-0.11,0.35,0.13,0.2,0.26c-2.76,2.47-7.43,8.51-16.58,9.27
				c-9.14,0.76-14.75-4.43-17.88-6.41c-0.17-0.11-0.03-0.37,0.15-0.29c3.6,1.55,12.11,5.9,17.62,5.44
				C583.09,503.58,590.77,497.89,594.07,495.76z"/>
		</g>
		<path class="st7" d="M622.28,562c3.61,2.4,8.33,0.54,12.21,0.04c3.95-0.51,7.01,0.81,10.65,2.08c8.47,2.93,17.01,5.74,25.35,9.05
			c0.93-5.73,1.29-9.66,1.29-9.66s-7-4-7-9s5-8,4-13c-0.08-0.4-0.19-0.77-0.32-1.11c-3.8,2.55-8.85,5.61-11.18,5.61c-4,0-6-4-9-3
			c-3,1-11-2-11,0c-0.01,3.86,9.72,4.79,10.2,8.97c0.34,2.96-4.59,4.63-6.85,4.86c-4.44,0.46-8.99-1.29-13.35,0.16
			C624.28,558,619.28,560,622.28,562z"/>
		<path class="st7" d="M515.78,556.5c0,3,4,6,4,9c0,1.39-0.43,3.22-0.89,5.07c3.26,0.79,6.48,1.19,8.39,0.43
			c2.39-0.95,4.45-2.54,7.23-2.01c2.8,0.53,5.73,2.06,8.06,3.66c2.33,1.6,4.68,3.32,7.36,4.3c1.46,0.53,3.75,0.8,5.2,0.13
			c2.88-1.34,0.24-4.08-1.4-5.17c-2.2-1.45-5.42-1.35-7.45-2.91c-3.27-2.5,7.89-4.45,4-6c-3.16-1.26-12.68,0.67-16,0
			c-3.61-0.73-4.69-2.55-7-6c-1.79-2.67-7.18-14.89-13.41-16.8c0.5,4.53,2.91,5.61,2.91,8.3C516.78,551.5,515.78,553.5,515.78,556.5
			z"/>
		<path class="st6" d="M621.28,613c-3-2-10,3-17,0s-10-10-12-10s-1,13-11,16s-10,15-1,18s25-1,33-6S624.28,615,621.28,613z"/>
		<path class="st8" d="M642.28,606c0,0-42.5,18.5-50-3"/>
		<path class="st8" d="M592.28,598c0,0,3,27-41,23"/>
		<path class="st2" d="M588.28,573c-6,1-17,9-17,11s17,19,21,19s14-21,15-23S594.28,572,588.28,573z"/>
		<g>
			<g>
				<path class="st4" d="M570.93,592.6c-3.85-1.03-8.69,0.66-11.73,3.12c-3.13,2.53-3.98,6.66-4.55,10.44
					c-0.72,4.74-1.53,8.96-3.66,13.32c-1.15,2.36-2.51,4.63-4.05,6.76c-1.52,2.09-4,6.08-6.93,6.01c-1.29-0.03-1.29,1.97,0,2
					c4.02,0.09,6.84-4.42,8.9-7.34c2.69-3.81,4.98-8.14,6.32-12.63c1.18-3.96,1.11-8.18,2.29-12.15c1.49-5.03,7.56-9.03,12.88-7.61
					C571.64,594.87,572.17,592.94,570.93,592.6L570.93,592.6z"/>
			</g>
		</g>
		<path class="st6" d="M421.28,1129c-0.05,0.66,84.21,0.22,94.58,0.26c0.41,0,0.77-0.21,0.96-0.55l-95.53,0.21
			C421.28,1128.94,421.28,1128.97,421.28,1129z"/>
		<path class="st7" d="M751.2,525.82l1.99-0.43c-0.17-0.38-0.33-0.77-0.46-1.17c-0.86-2.54-1.42-6.76,1.27-8.48
			c1.4-0.9,3.27-0.66,4.86-0.76c1.4-0.09,2.8-0.36,3.9-1.3c1.02-0.88,1.51-2.13,2.04-3.34c0.73-1.61,1.44-2.41,3.32-2.3
			c1.66,0.09,3.15,0.58,4.6,1.25c0.43-0.55,0.85-1.1,1.25-1.64c-0.89-0.46-1.82-0.84-2.78-1.11c-1.88-0.53-4.46-1.01-6.2,0.16
			c-1.26,0.85-1.75,2.32-2.35,3.63c-0.79,1.74-1.84,2.53-3.78,2.65c-1.73,0.11-3.53-0.03-5.15,0.67c-1.46,0.62-2.48,1.83-3.06,3.28
			C749.53,519.77,750.05,523.04,751.2,525.82z"/>
		<path class="st4" d="M744.13,521.54c0.21,1.65,0.54,3.29,0.97,4.91l3.11-0.19c-0.59-2.01-1.1-4.06-1.22-6.15
			c-0.19-3.52,0.91-7.68,4.34-9.37c2.94-1.46,6.55-0.48,9.41-2.29c0.73-0.47,1.34-1.08,1.83-1.79c0.49-0.71,0.78-1.62,1.41-2.23
			c1.16-1.12,3.19-0.58,4.55-0.2c2.19,0.6,4.37,1.26,6.54,1.93c0.63-0.88,1.22-1.73,1.76-2.54c-0.94-0.29-1.88-0.57-2.82-0.86
			c-2.36-0.73-4.76-1.67-7.24-1.92c-1.89-0.19-3.88,0.26-5.17,1.75c-1.25,1.46-1.57,3.21-3.59,3.81c-1.75,0.52-3.6,0.49-5.38,0.82
			c-1.89,0.34-3.61,1.17-5,2.51C744.46,512.77,743.61,517.33,744.13,521.54z"/>
		<path class="st4" d="M714.24,491.21c1.21,2.58,2.42,5.17,3.64,7.75c0.83,1.76,1.99,3.2,4.09,3.27c1.07,0.03,2.12-0.32,3.11-0.68
			c0.9-0.34,1.91-0.87,2.89-0.64c1.12,0.26,1.92,1.45,2.59,2.3c0.82,1.05,1.6,2.16,2.72,2.92c3.05,2.08,6.48-0.16,7.44-3.35
			c0.37-1.22,0.35-3.07,0.57-4.8c-0.92-0.5-1.82-1.05-2.7-1.64c-0.21,0.9-0.32,1.82-0.38,2.69c-0.09,1.53-0.08,4.22-1.88,4.85
			c-1.02,0.36-1.83-0.55-2.43-1.24c-1.65-1.91-3.01-4.41-5.78-4.73c-2.13-0.25-3.75,1.15-5.77,1.31c-1.05,0.08-1.38-0.71-1.78-1.55
			c-0.46-0.95-0.9-1.92-1.35-2.88c-0.87-1.86-1.75-3.72-2.62-5.58C715.83,489.81,715.04,490.48,714.24,491.21z"/>
		<path class="st7" d="M719.89,487.11c0.23,1.32,0.61,2.6,1.28,3.78c1.19,2.08,3.35,3.77,5.82,3.84c0.66,0.01,1.29-0.18,1.94-0.24
			c0.67-0.06,1.1,0.16,1.58,0.61c0.86,0.81,1.58,1.72,2.78,2.04c1.03,0.27,2.2,0.05,2.8-0.89c0.28-0.43,0.35-0.9,0.4-1.38
			c-0.6-0.44-1.19-0.88-1.77-1.33c-0.08,0.37-0.14,0.75-0.19,1.14c-0.06,0.41-0.1,0.59-0.51,0.58c-0.39-0.02-0.79-0.3-1.07-0.54
			c-0.73-0.64-1.3-1.45-2.2-1.89c-1.12-0.55-2.13-0.22-3.3-0.12c-2.07,0.18-3.84-1.4-4.72-3.14c-0.5-0.97-0.78-2.02-0.94-3.11
			C721.19,486.57,720.55,486.79,719.89,487.11z"/>
		<path class="st4" d="M684.49,532.69c0.03,2.77,0.98,5.34,2.32,7.72c0.54-1.31,1.42-2.56,2.56-3.75c-0.73-1.75-1.11-3.6-0.77-5.51
			c0.27-1.48,0.92-2.97,2.12-3.92c1.38-1.11,3.27-1.41,4.73-2.43c1.94-1.36,5.11-5.45,7.93-4.06c1.31,0.65,0.58,2.97,0.64,4.13
			c0.06,0.98,0.25,1.95,0.57,2.87c1.27-0.48,2.54-0.92,3.8-1.32c-0.39-1.32-0.27-2.7-0.3-4.23c-0.07-4.39-4.11-6.45-8.07-5.31
			c-1.94,0.56-3.48,1.87-4.99,3.16c-0.82,0.7-1.64,1.41-2.6,1.94c-0.85,0.46-1.78,0.73-2.65,1.15
			C686.23,524.85,684.45,528.89,684.49,532.69z"/>
		<path class="st7" d="M690.6,534.44c0.04,0.29,0.1,0.58,0.19,0.87c0.55-0.47,1.13-0.93,1.75-1.39c-0.04-0.3-0.06-0.6-0.05-0.9
			c0.03-0.81,0.24-1.74,0.93-2.25c0.68-0.5,1.63-0.59,2.43-0.79c0.92-0.23,1.75-0.57,2.48-1.2c0.3-0.26,0.57-0.55,0.85-0.83
			c0.22-0.21,0.52-0.58,0.83-0.64c0.6-0.12,0.75,0.94,0.84,1.34c0.04,0.19,0.08,0.38,0.11,0.58c0.62-0.28,1.25-0.54,1.88-0.8
			c-0.03-0.19-0.08-0.37-0.12-0.56c-0.23-0.93-0.68-1.9-1.59-2.34c-1.86-0.9-2.99,0.87-4.24,1.86c-0.65,0.51-1.5,0.64-2.28,0.82
			c-0.86,0.2-1.73,0.46-2.44,1.01C690.59,530.44,690.32,532.59,690.6,534.44z"/>
		<path class="st4" d="M481.88,555.26c0.7,0.67,1.43,1.35,2.18,2.03c0.94-1.06,2.11-1.89,3.58-2.27c3.17-0.83,5.75,1.85,8.35,3.19
			c1.29,0.67,2.73,1.18,4.21,1.13c1.71-0.07,3.18-0.96,4.84-1.21c4.41-0.66,0.76,6.61,0.03,8.08c-0.6,1.21-1.32,2.48-2.2,3.6
			c0.94,0.39,1.9,0.75,2.88,1.08c0.97-1.35,1.78-2.85,2.48-4.36c0.95-2.05,2.16-4.28,1.99-6.6c-0.14-1.93-1.16-3.82-3.04-4.53
			c-2.04-0.79-3.95,0.22-5.91,0.74c-1.92,0.51-3.5-0.3-5.11-1.29c-1.62-1.01-3.21-2.13-5.07-2.68c-1.97-0.57-4.03-0.3-5.87,0.56
			C483.89,553.36,482.8,554.23,481.88,555.26z"/>
		<path class="st7" d="M487.77,560.49c2-0.83,3.95-0.37,5.64,0.89c0.88,0.65,1.72,1.43,2.8,1.71c1.21,0.3,2.5,0.09,3.72,0.13
			c1.07,0.04,2.53,0.15,3.24,1.06c0.78,1,0.05,2.13-0.6,2.98c-0.48,0.63-1,1.21-1.58,1.72c-0.66-0.3-1.3-0.62-1.94-0.96
			c0.81-0.61,1.52-1.35,2.1-2.19c0.08-0.1,0.15-0.21,0.22-0.32c0.01-0.03,0.02-0.04,0.03-0.06c-0.2-0.07-0.41-0.12-0.61-0.15
			c-0.56-0.1-1.15-0.09-1.72-0.08c-1.22,0.01-2.48,0.1-3.66-0.28c-1.07-0.34-1.92-1.01-2.79-1.68c-0.78-0.59-1.59-1.18-2.6-1.21
			c-0.09,0-0.17,0-0.26,0.01L487.77,560.49z"/>
		<path class="st4" d="M453.69,517.68c0.39,2.59,1.28,5.05,3.09,7.13c1.3,1.49,3.08,2.71,5.02,3.17c2.12,0.5,4.1,0.01,6.09-0.74
			c0.98-0.37,2-0.83,3.05-0.96c1.18-0.14,2.04,0.38,3.07,0.87c1.95,0.94,4.14,1.17,6.22,0.47c3.99-1.35,6.29-5.82,5.02-9.87
			c-0.49-1.55-1.5-2.94-1.29-4.42c-0.84-0.12-1.88-0.12-3.09-0.05c-0.02,0.39-0.01,0.81,0.04,1.25c0.24,1.98,1.71,3.58,1.68,5.61
			c-0.02,1.89-1.1,3.68-2.84,4.46c-1.99,0.88-3.59,0.21-5.42-0.65c-1.84-0.86-3.69-0.82-5.6-0.2c-1.81,0.58-3.66,1.67-5.63,1.43
			c-1.78-0.22-3.35-1.39-4.44-2.78c-1.18-1.5-1.78-3.27-2.06-5.12C455.63,517.42,454.66,517.56,453.69,517.68z"/>
		<path class="st7" d="M460.85,516.59c0.46,1.26,1.09,2.45,1.94,3.46c1.53,1.82,3.68,1.83,5.59,0.64c0.86-0.54,1.64-1.22,2.56-1.65
			c0.95-0.45,1.83-0.26,2.81-0.03c1.01,0.24,2.11,0.53,3.12,0.17c1.04-0.36,1.71-1.31,1.81-2.39c0.11-1.15-0.4-2.15-0.73-3.21
			c-0.63,0.08-1.28,0.18-1.95,0.28c0.14,0.53,0.34,1.05,0.5,1.6c0.16,0.51,0.43,1.34-0.09,1.74c-0.38,0.29-1,0.13-1.43,0.05
			c-1.2-0.25-2.39-0.66-3.64-0.43c-1.11,0.2-2.07,0.84-2.98,1.47c-0.77,0.54-1.79,1.42-2.81,1.27c-1.36-0.2-2.18-2.13-2.64-3.22
			c-0.01-0.04-0.03-0.07-0.04-0.11C462.2,516.35,461.53,516.47,460.85,516.59z"/>
		<path class="st7" d="M416.91,523.75c0.47,0.91,0.97,1.82,1.5,2.72c2.52-0.41,5.2-0.29,7.46,0.24c2.04,0.48,3.39,1.59,4.79,3.08
			c1.27,1.35,2.57,2.65,4.35,3.3c1.93,0.71,4.25,0.27,6.06,1.27c1.31,0.72,1.93,2.26,2.01,3.69c0.05,0.78-0.06,1.52-0.27,2.21
			c1.01,0.09,2.03,0.17,3.04,0.23c0.04-0.14,0.07-0.28,0.09-0.42c0.52-3.05-0.46-6.55-3.22-8.22c-1.64-0.99-3.51-0.98-5.34-1.26
			c-1.9-0.29-3.07-1.3-4.35-2.65c-1.22-1.3-2.45-2.57-4.08-3.33c-1.8-0.84-3.77-1.15-5.74-1.24
			C421.13,523.28,418.98,523.35,416.91,523.75z"/>
		<path class="st4" d="M414.89,519.39c0.26,0.61,0.53,1.23,0.82,1.86c1.64-0.31,3.3-0.52,4.96-0.58c2.42-0.08,4.83,0.16,7.13,0.9
			c2.13,0.67,4,1.83,5.83,3.08c1.79,1.22,3.54,2.51,5.52,3.41c1.88,0.86,3.8,1.17,5.84,1.39c2.03,0.22,4.41,0.46,5.66,2.31
			c1.14,1.68,1.01,3.98,0.6,5.88c-0.22,1.04-0.52,2.07-0.9,3.07c0.71,0.03,1.42,0.05,2.12,0.07h0.01c0.48-1.4,0.81-2.85,0.97-4.3
			c0.22-2,0-4.18-1.17-5.88c-1.24-1.79-3.26-2.58-5.35-2.9c-2.37-0.37-4.73-0.42-6.95-1.45c-2.15-0.99-4.04-2.47-6-3.77
			c-4.29-2.85-9-4.1-14.15-3.76C418.16,518.83,416.52,519.06,414.89,519.39z"/>
		<path class="st6" d="M539.78,929.5c0,4.84,0.73,10.98,1.89,17.77c2.08,12.12,5.55,26.29,8.78,38.77
			c3.2,12.34,6.17,23.03,7.33,28.46c3,14,4,56,11,73s13,26,16,28c2.5,1.67,7.88,9.65,9.56,12.24c0.33,0.5,0.52,0.8,0.52,0.81
			c0,0,0.07,0,0.2,0l21.02-0.04c1.93,0,3.01-2.23,1.82-3.75c-1.96-2.5-4.49-5.63-6.13-7.26c-3-3-7-6-10-10s-11-31-14-34s-5-21-5-27
			s2-15-2-27s-13-25-15-30s-9-62-8-65s6-4,9-8c2.64-3.53,10.71-18.69,17.39-21.57c3.93-10.07,9.94-26.09,10.61-31.43c1-8-1-21,9-32
			s33-32,18-38c0,0-18,8-25,28s-8,39-21,50S539.78,907.5,539.78,929.5z"/>
		<path class="st6" d="M428.28,1114c-2.98,12.91-6.63,10.93-6.99,14.92l95.53-0.21c0.05-0.08,0.08-0.17,0.11-0.26
			c1.08-3.85,5.71-20.29,8.35-26.45c0.86-2.01,1.23-6.15,1.12-11.34c-0.22-11.35-2.68-27.75-7.16-37.85
			c-0.61-1.4-1.27-2.68-1.96-3.81c-8-13-23-50-24-62c-0.89-10.69-0.19-44.38-0.03-51.62c0.01-0.71-0.63-1.26-1.33-1.12
			c-3.71,0.73-14.64,6.74-22.64,5.74s-25.74-15.91-45.66-17.32c-1.42-0.1-1.61,2.01-0.2,2.21c30.08,4.27,35.18,21.83,34.86,23.11
			c-2,8,9,39-1,71c-5.7,18.23-27.57,47.98-44.81,72.2C409.06,1095.99,431.28,1101,428.28,1114z"/>
		<path class="st6" d="M448.28,1129c-0.05,0.66,57.63-0.04,68,0c0.41,0,0.81,0.34,1,0l-68.99-0.08
			C448.28,1128.94,448.28,1128.97,448.28,1129z"/>
		<path class="st3" d="M577.19,1122.78c3.67,0.42,7.33,0.61,11,0.59c-2.54-3.52-4.92-7.38-4.92-7.38s10,3,13,8
			c2.01,3.35,1.17,4.47-0.3,4.84c-0.6,0.75-1.48,1.29-2.66,1.37c-5.53,0.34-11.02,0.2-16.52-0.43
			C572.34,1129.26,572.7,1122.27,577.19,1122.78z"/>
		<path class="st3" d="M513.6,1144.58c1.38,5.72,8.92,11.08,15.69,9.04c2.28-0.69,5.35,0.5,8.31,0.93c3.7,0.54,7.21,0.55,10.95,0.21
			c4.04-0.37,7.72-1.29,11.5-2.67c0.29-0.11,3.29-1.22,4.54-1.88c0.92,0.17,2.29,0.32,2.64,0.39c2.23,0.45,4.67,0.86,6.97,1.04
			c3.5,0.27,7.37,0.1,10.81-0.47c7.99-1.35,13.74-5.4,16.88-12.06c2.79-5.9-2.09-13.02-8.44-14.88c-5.53-1.62-10.78,0.26-14.17,3.89
			c-0.6,0.03-1.37,0.04-1.96,0.05c-1.98-0.02-3.62-0.44-5.51-0.83c-7.08-1.45-12.8-1.08-19.28,1.84c-3.97,1.79-7.2,2.74-11.7,2.08
			c-5.9-0.87-11.13-2.49-17.11-0.69C516.93,1132.62,511.95,1137.76,513.6,1144.58z M576.8,1131.76c0.36-1.18,0.94-2.09,1.73-2.76
			C577.85,1129.85,577.26,1130.77,576.8,1131.76z"/>
		<path class="st3" d="M240.35,1117.88c0.16,0.01,0.32,0.03,0.48,0.04c-0.23-1.23-0.43-2.51-0.57-3.88
			c-1.34-12.65,4.94-25.85,12.02-27.04c15.25-2.56,28.51-9.92,43.82-10c15.53-0.08,30.55,3.81,45.75,10.13
			c14.04,5.84,27.68,4.3,41.9,3.06c14.49-1.26,28.82,2.61,43.22,5.49c7.01,1.4,12.7,13.32,12.3,28.11
			c-0.37,13.51-6.34,25.72-13.11,25.19c-2.7,1.85-6.05,2.89-9.76,3.03c-19.89,0.72-39.94,2.25-59.84,2
			c-10.25-0.13-20.59-3.47-29.71-4.64c-9.6-1.24-19.32-0.91-28.95-0.25c-9.72,0.66-9.85-2.29-19.6-2.12c-9.82,0.17-4.24-14.16-14-15
			C244.25,1130.28,220.61,1116.32,240.35,1117.88z"/>
		<path class="st3" d="M634.7,1124.95c3.58-13.95,5.46-18.95,9.58-16.95c6.09,2.96,12.55,14.53,18.96,12.66
			c7.06-2.06,12.87-0.62,19.94-0.14c7.14,0.49,13.64-2.1,20.68-2.6c3.42-0.24,6.59,0.19,9.98,0.64c2.07,0.28,6.2,1.39,8.16-0.19
			c3.6-2.9,8.5-3.27,11.75,0.56c2.8,3.31,3.1,9.8-0.52,12.72c-7.5,6.05-14.78,5.47-23.62,4.41c-8-0.96-15.84,2.49-23.92,2.55
			c-3.9,0.03-7.58-0.76-11.43-1.22c-3.59-0.43-6.29,0.66-9.73,1.51c-8.19,2.02-16.87,1.13-24.52-2.6
			C635.92,1134.31,633.41,1129.97,634.7,1124.95z"/>
		<path class="st3" d="M513.28,1142c-0.21-0.74-0.13-2.09-0.34-2.83c-0.23-1.57-0.07-3.09,0.5-4.57c0.14-0.59,0.33-1.15,0.6-1.7
			c0.57-1.19,1.46-1.84,2.25-2.91c0.7-1.02,1.33-2.37,2.42-2.9c0.95-0.68,2.03-1.09,3.22-1.23l2.3-0.05
			c1.22,0.08,2.33,0.46,3.33,1.13c0.77,0.3,1.41,0.77,1.93,1.42c0.93,0.75,1.62,1.7,2.06,2.85c0.21,0.74,0.42,1.48,0.63,2.21
			c0.07,0.47,0.09,0.93,0.09,1.39c0.16,0.66,0.24,1.34,0.19,2.03c0.12,1.17-0.05,2.31-0.52,3.42c-0.41,1.19-1.08,2.18-2,2.98
			c-0.75,0.93-1.7,1.62-2.85,2.06c-0.15,0.06-0.3,0.1-0.45,0.15c-0.38,0.24-0.79,0.46-1.23,0.64c-1.08,0.51-2.2,0.73-3.36,0.66
			c-1.17,0.12-2.31-0.05-3.42-0.52C516.45,1145.29,514.14,1144.28,513.28,1142z"/>
		<path class="st3" d="M64.28,1119c17.44-0.38,25.33-8.03,42-10c9.11-1.08,14.82-4.4,24-4c9.26,0.4,13.97,2.05,23,4
			c2.94,0.64,11,1,14,0s18-1,26-7c3.4-2.55-11.2,8.13-6.98,7.74c8.48-0.78,16.77-3.16,25.08-4.88c17.43-3.61,35.06-4.18,51.04,4.69
			c6.38,3.54,7.79,12.82,4.02,18.66c-4.18,6.47-12.27,7.57-18.66,4.02c-11.48-6.37-26.7-1.88-39.65,0.98
			c-8.6,1.9-17.25,3.44-26.09,3.62c-8.94,0.18-17.76-1.8-26.44-3.68c-15.58-3.37-30.53-3.61-46.3-1.44
			c-17.23,2.37-33.4,0.58-51.47,0.98c-7.56,0.16-13.58-4.49-13.19-8.59C45.1,1119.38,56.7,1119.17,64.28,1119z"/>
		<path class="st9" d="M64.28,1120c17.44-0.38,25.33-8.03,42-10c9.11-1.08,14.82-4.4,24-4c9.26,0.4,13.97,2.05,23,4
			c2.94,0.64,11,1,14,0c1.81-0.6,7.96-0.84,14.32-2.25c3.89-1.76,7.58-3.48,10.68-4.75c3.96-1.62,15.87-3.46,20-5
			c10.86-4.06,8.98-6.98,20.37-9.08c13.67-2.52,27.48-5.93,38.13-15.42c7.45-6.63,5.99-11.88,5.83-15.76
			c-0.03-0.81,0-1.55,0.17-2.24c2.3-9.33,6.94-17.36,6.28-27.25c-0.64-9.52-4.22-18.54-5.07-28.01c-0.75-8.43,0.64-17.08,2.25-25.33
			c3.64-18.75,8.95-37.32,14.8-55.49c10.2-31.73,6.75-66.9,21.04-97.31c7.23-15.39,16.67-29.2,25.88-43.4
			c9.94-15.33,16.93-34.76,30.86-47.06c17.51-15.45,38.46-23.11,58.38-34.45c16.24-9.25,29.15-22.96,42.74-35.54
			c13.06-12.08,24.87-24.13,34.07-39.53c4.27-7.14,9.05-14.54,11.01-22.73c1.82-7.59-1.25-14.36-1.25-21.91
			c0-0.99,0.23-2.21,0.52-3.49c-4.44-0.02-8.63-0.79-12.55-2.12c-0.98-0.33-1.94-0.69-2.88-1.08c-0.64-0.26-1.26-0.54-1.88-0.83
			c-0.66-0.3-1.3-0.62-1.94-0.96v0c-3.34-1.72-6.44-3.77-9.29-5.96l-1.99-1.57c-1.29-1.05-2.53-2.13-3.71-3.2
			c-0.75-0.68-1.48-1.36-2.18-2.03c-6.32-6.05-10.77-11.6-13.1-12.76c-2.87-1.44-9.18-1.5-16.3-1.72h-0.01
			c-0.7-0.02-1.41-0.04-2.12-0.07c-1.49-0.06-2.99-0.12-4.5-0.22c-1.01-0.06-2.03-0.14-3.04-0.23c-4.73-0.43-9.31-1.21-13.03-2.76
			c-4.88-2.03-8.61-6.39-11.37-11.03c-0.53-0.9-1.03-1.81-1.5-2.72c-0.43-0.84-0.83-1.68-1.2-2.5c-0.29-0.63-0.56-1.25-0.82-1.86
			c-1.74-4.2-2.72-7.73-3.11-8.89c-1-3-6-9-4-10s12,13,27,17c5.21,1.39,11.99,1.09,18.91,0.18c0.97-0.12,1.94-0.26,2.91-0.4
			c1.42-0.22,2.85-0.45,4.25-0.69c0.68-0.12,1.35-0.24,2.02-0.36c4.79-0.86,9.33-1.78,13.13-2.37c0.67-0.1,1.32-0.2,1.95-0.28
			c1.05-0.14,2.03-0.24,2.92-0.3c1.21-0.07,2.25-0.07,3.09,0.05c0.3,0.04,0.57,0.1,0.82,0.17c7,2,12,15,14,18
			c1.23,1.84,8.88,2.93,14.6,3.5c-1.2-6.25-4.77-15.21-5.6-23.5c-1-10-22-38-32-51c-8.16-10.61-9.57-25.59-12.86-38.16
			c-3.81-14.56-12.36-21.74-22.71-31.99c-2.96-2.93-13.92-12.53-7.43-16.85c3-2,20-2,33,10c10.24,9.45,18.88,20.9,27.21,32.01
			c3.61,4.81,6.7,10.26,10.54,14.85c4.92,5.89,12.17,9.35,18.45,13.52c6.24,4.15,12.94,7.93,18.79,12.61
			c3.24,2.6,6.49,6.88,8.91,9.83c0.42,0.51,0.81,0.97,1.17,1.39c0.79,0.9,1.44,1.54,1.92,1.78c2,1,4-9,7-5s13,7,18,6s8-9,10-10
			s7,9,9,7c0.12-0.12,0.3-0.38,0.51-0.75c0.37-0.64,0.89-1.66,1.51-2.93c0.18-0.38,0.38-0.78,0.58-1.21
			c0.19-0.4,0.39-0.81,0.59-1.24c0.11-0.24,0.22-0.47,0.34-0.72c5.38-11.43,15.7-34.14,25.46-46.15c13-16,35-28,40-31s12-12,14-15
			s15-11,19-7s-7,15-10,17c-3.06,2.04-4.89,7.55-6.49,10.64c-2.74,5.3-5.42,10.63-8.36,15.82c-6.94,12.23-3.15,23.29-3.15,36.54
			c0,7.19-1.42,14.24-2.24,21.34c-0.94,8.15,2.24,15.59,2.24,23.66c0,12.23-8.12,20.2-3,33c1.29,3.22-1.15,5.2-3.05,7.53
			c3.37-0.48,7.85-1.32,9.05-2.53c2-2,4-6,8-7s13-3,17-8c2.55-3.19,9.18-12.5,15.46-18.29c0.8-0.73,1.59-1.4,2.36-2
			c1.14-0.89,2.24-1.61,3.29-2.1c0.66-0.32,1.3-0.54,1.9-0.65c0.71-0.14,1.38-0.13,1.99,0.04c3.38,0.96,6.98,4.02,10.94,7.04
			c0.58,0.45,1.17,0.89,1.77,1.33c0.69,0.5,1.39,1,2.1,1.47c0.88,0.59,1.78,1.14,2.7,1.64c2.37,1.3,4.86,2.26,7.49,2.52
			c10,1,36-18,39-17s-7,11-7,13c0,0.63-1.49,3.46-3.95,7.12c-0.54,0.81-1.13,1.66-1.76,2.54c-0.36,0.49-0.72,0.98-1.1,1.49
			c-0.4,0.54-0.82,1.09-1.25,1.64c-5.39,6.89-12.71,14.31-19.53,16.1c-0.14,0.04-0.27,0.08-0.41,0.11
			c-0.53,0.12-1.06,0.23-1.58,0.32c-1.02,0.2-2.02,0.34-2.99,0.44c-1.06,0.11-2.1,0.17-3.11,0.19c-9.05,0.17-16-2.95-22.32-2.95
			c-3.1,0-8.59,1.05-14.39,2.92c-1.26,0.4-2.53,0.84-3.8,1.32c-0.58,0.22-1.17,0.45-1.75,0.69c-0.63,0.26-1.26,0.52-1.88,0.8
			c-3.09,1.37-6.01,2.95-8.42,4.69c-0.62,0.46-1.2,0.92-1.75,1.39c-0.51,0.44-0.98,0.89-1.42,1.35c-1.14,1.19-2.02,2.44-2.56,3.75
			v0.01c-0.01,0.03-0.02,0.05-0.03,0.08c-3.24,8.09-10.4,18.79-15.66,22.59c0.41,0.27,0.66,0.41,0.66,0.41s-0.14,1.54-0.47,4.09
			c-0.2,1.53-0.47,3.43-0.82,5.57c-0.62,3.85-1.5,8.51-2.71,13.34c-3,12-4,9-11,31c-5.91,18.59-6.08,39.59-6.4,58.92
			c-0.4,24.19,3.97,47.9,6.85,71.84c1.44,11.92,2.33,22.34,1.55,26.24c-2.74,13.68-6.47,27.47-10.98,40.67
			c-2.71,7.93-6,14.69-6.88,23.22c-1.09,10.6-2.64,21.08-3.78,31.62c-1.23,11.34,0.4,22.75,1.35,34.04
			c1.58,18.81,2.22,38.17,8.66,56.11c3.07,8.55,7.86,16.29,10.88,24.88c3.26,9.28,5.5,18.88,8.29,28.31c1.12,3.82,2,6.77,2.46,8.14
			c4.44,13.33,2.08,27.76,6.92,40.98c4.18,11.4,12.28,20.57,20.44,29.32c9.71,10.4,23.96,14.55,34.64,23.71
			c1.35,1.15,2.35,2.38,3.11,3.61c2.67,3.35,2.9,9.67-0.65,12.54c-7.5,6.05-14.78,5.47-23.62,4.41c-8-0.96-15.84,2.49-23.92,2.55
			c-3.9,0.03-7.58-0.76-11.43-1.22c-3.59-0.43-6.29,0.66-9.73,1.51c-8.19,2.02-16.87,1.13-24.52-2.6
			c-4.09-1.99-6.61-6.33-5.31-11.36c0.36-1.41,0.7-2.7,1.03-3.92c-2.38-6.66-5.36-15.18-5.95-17.52
			c-0.51-2.06-0.76-11.78-1.02-21.83c-0.32-12.8-0.32-24.23-5.33-36.21c-4.75-11.36-11.59-22.16-15.74-33.52
			c-5.21-14.23-5.82-29.58-5.58-44.58c0.12-7.72,0.52-15.42,0.63-23.14c0.09-7.02-2.14-12.17-4.34-18.71
			c-1.53-4.55-1.22-8.58-1.74-13.2c-0.6-5.37-3.33-16.87-9.88-17.81c-0.83-0.12-1.71,0.05-2.61,0.43c-0.21,0.09-0.42,0.2-0.63,0.31
			c-6.55,3.51-14.2,17.84-16.76,21.26c-1.61,2.14-3.78,3.42-5.62,4.61c-1.64,1.4-3.04,2.97-3.47,5.38
			c0.28,10.68,6.26,58.45,8.09,63.01c1.52,3.81,7.11,12.27,11.45,21.39c0.91,1.8,1.73,3.63,2.41,5.53c0.41,1.03,0.79,2.06,1.14,3.09
			c4,12,2,21,2,27c0,2.51,0.35,7.12,0.98,11.86c1.17,6.16,3.3,12.09,5.66,17.93c0.7,1.49,1.49,3.44,2.34,5.64
			c0.45,1.08,0.87,2.21,1.26,3.37c3.27,8.87,6.94,19.78,8.76,22.2c0,0,0,0.01,0.01,0.01c0.39,0.52,0.8,1.02,1.22,1.51
			c2.81,3.26,6.17,5.87,8.77,8.48c1.64,1.64,4.17,4.76,6.13,7.26c1.19,1.52,0.11,3.74-1.82,3.75l-16.15,0.03
			c2.53,3.02,3.63,7.01,1.96,10.56c-3.15,6.66-8.9,10.72-16.89,12.06c-3.44,0.58-7.31,0.75-10.81,0.47
			c-2.3-0.18-4.74-0.59-6.97-1.04c-0.35-0.07-1.73-0.22-2.64-0.39c-1.25,0.67-4.25,1.78-4.54,1.88c-3.78,1.38-7.46,2.3-11.5,2.67
			c-3.74,0.34-7.25,0.34-10.95-0.21c-2.96-0.44-6.03-1.62-8.31-0.93c-6.77,2.04-14.31-3.32-15.69-9.04
			c-0.21-0.89-0.31-1.74-0.31-2.57c0,0,0-0.01-0.01-0.01c-0.21-0.74-0.13-2.09-0.34-2.83c-0.23-1.57-0.07-3.09,0.5-4.57
			c0.14-0.59,0.33-1.15,0.6-1.7c0.38-0.8,0.91-1.35,1.45-1.95c-5.47-2.02-11.01-1.9-16.85-1.24c-8.01,0.91-15.93,1.84-24,1.65
			c-12.22-0.29-24.41,2.43-36.5,1.56c-2.09,9.4-6.8,16.47-11.99,16.06c-2.7,1.85-6.05,2.89-9.76,3.03
			c-19.89,0.72-39.94,2.25-59.84,2c-10.25-0.13-20.59-3.47-29.71-4.64c-9.6-1.24-19.32-0.91-28.95-0.25
			c-9.72,0.66-9.85-2.29-19.6-2.12c-9.82,0.17-4.24-14.16-14-15c-0.45-0.04-0.89-0.08-1.34-0.13c-4.37,3.06-10.26,3.08-15.15,0.36
			c-2.86-1.59-5.95-2.5-9.18-2.93l-10.66,0.02c-6.68,0.73-13.51,2.5-19.8,3.89c-8.6,1.9-17.25,3.44-26.09,3.62
			c-8.94,0.18-17.76-1.8-26.44-3.68c-15.58-3.37-30.53-3.61-46.3-1.44c-17.23,2.37-33.4,0.58-51.47,0.98
			c-7.56,0.16-13.58-4.49-13.19-8.59C45.1,1120.38,56.7,1120.17,64.28,1120z"/>
		<g>
			<g>
				<path class="st4" d="M631.27,580.52c10.07-4,20.84-5.92,31.68-5.51c5.31,0.2,10.7,0.86,15.82,2.31
					c5.35,1.51,9.42,4.44,12.28,9.23c5.27,8.86,6.96,19.51,9.91,29.26c2.66,8.79,6.54,16.85,12.49,23.9
					c10.96,13,27.18,21.72,44.14,23.28c18.55,1.7,37.03-5.81,51.8-16.58c7.73-5.64,14.59-12.31,20.43-19.89
					c6.03-7.82,11.51-16.56,15-25.83c3.4-9.03,4.17-19.01-0.2-27.87c-3.59-7.27-10.27-12.5-17.62-15.63
					c-13.57-5.79-30.78-5.48-42.94,3.52c-5.56,4.11-9.59,9.97-11.19,16.72c-1.46,6.16-0.98,12.8,0,19
					c1.77,11.3,8.74,29.49,23.66,23.55c6.64-2.64,12.86-9.23,15.42-15.9c1.85-4.81,2.31-12-3.14-14.65c-3.08-1.5-6.45-0.91-9.05,1.2
					c-1,0.81,0.42,2.22,1.41,1.41c3.29-2.67,8.37-1.47,9.67,2.64c0.85,2.69,0.3,5.79-0.64,8.38c-2.41,6.66-9.22,13.94-16.22,15.64
					c-14.55,3.54-18.92-17.52-19.76-27.66c-0.52-6.29-0.3-12.71,2.46-18.5c2.85-5.98,7.89-10.53,13.81-13.39
					c13.17-6.37,30.14-4.71,42.22,3.35c7.44,4.96,12.39,12.79,12.95,21.81c0.61,9.82-3.67,19.24-8.48,27.54
					c-9.16,15.8-21.52,29.21-37.38,38.43c-14.73,8.57-32.03,13.29-48.99,9.66c-15.87-3.39-30.48-13.06-39.63-26.49
					c-5.15-7.55-7.81-16.12-10.18-24.85c-2.24-8.24-4.23-17.23-9.08-24.42c-4.9-7.26-12.87-9.35-21.13-10.49
					c-8.9-1.23-17.99-0.91-26.79,0.9c-4.54,0.93-8.96,2.29-13.26,4C629.55,579.06,630.07,580.99,631.27,580.52L631.27,580.52z"/>
			</g>
		</g>
		<g>
			<g>
				<path class="st4" d="M621.4,600.39c8.45-5.2,18.47-6.73,28.21-7.49c10.19-0.8,20.48-0.47,30.6,1
					c16.52,2.4,37.79,7.16,46.96,22.72c8.13,13.78,4.82,30.59,3.42,45.63c-1.01,10.86-1.75,24,5.69,32.95
					c4.28,5.15,10.72,7.47,17.18,8.41c9.13,1.33,18.43-0.14,27.28-2.47c16.01-4.22,33.88-11.98,39.72-28.92
					c3.56-10.34,0.1-22.64-11.29-25.56c-9.77-2.5-20.85,0.69-29.78,4.7c-3.96,1.78-8.55,3.91-11.19,7.5
					c-3.02,4.1-3.49,9.72-1.79,14.45c1.67,4.63,5.45,8.36,10.43,9.07c5.51,0.79,12.84-2.34,14.19-8.23
					c0.73-3.17-0.99-5.87-3.33-7.84c-0.98-0.82-2.4,0.58-1.41,1.41c7.65,6.44-2.48,13.93-9.56,12.63c-5.23-0.96-8.59-5.85-9.2-10.9
					c-0.62-5.16,1.53-9.8,5.87-12.62c3.71-2.41,7.8-4.25,11.97-5.72c8.2-2.88,19.29-5.5,27.37-0.91c4.28,2.43,6.43,6.87,6.96,11.64
					c0.89,8-3.02,15.62-8.35,21.34c-5.89,6.32-13.69,10.35-21.76,13.18c-8.43,2.96-17.39,5.27-26.35,5.69
					c-7.37,0.35-15.72-0.47-21.91-4.86c-4.42-3.14-6.99-7.97-8.21-13.15c-2.51-10.61-0.49-21.86,0.59-32.53
					c1.46-14.36,1.31-30.51-9.19-41.69c-10.49-11.16-27.38-15.23-41.94-17.56c-8.73-1.4-17.59-1.98-26.43-1.71
					c-8.3,0.25-16.84,1.01-24.84,3.34c-3.84,1.12-7.52,2.68-10.93,4.78C619.29,599.34,620.3,601.07,621.4,600.39L621.4,600.39z"/>
			</g>
		</g>
		<g>
			<g>
				<path class="st4" d="M618.22,589.16c6.54-4.02,14.61-0.14,19.27,5.02c5.11,5.66,7.84,13.03,12.5,19.03
					c6.84,8.8,22.99,19.46,33.82,11.16c1.01-0.77,0.01-2.51-1.01-1.73c-6.36,4.87-15.14,1.87-21.3-1.84
					c-6.81-4.1-11.22-10.15-15.15-16.91c-3.38-5.82-6.82-11.91-12.74-15.51c-4.99-3.03-11.23-4.14-16.41-0.96
					C616.12,588.1,617.12,589.83,618.22,589.16L618.22,589.16z"/>
			</g>
		</g>
		<g>
			<g>
				<path class="st4" d="M564.6,585.3c-5.93-3.61-12.77-4.66-19.56-5.4c-7.78-0.85-15.6-1.28-23.42-1.29
					c-8.11-0.01-16.17,0.54-24.25,1.25c-7.28,0.64-14.59,1.27-21.73,2.83c-5.49,1.2-11.05,2.91-15.72,6.15
					c-4.19,2.91-7.36,6.9-9.67,11.42c-2.75,5.39-4.91,10.83-9.08,15.37c-4.68,5.1-10.77,7.97-17.28,10.03
					c-14.92,4.71-30.45,8-46.09,8.81c-14.15,0.73-29.27,0.22-42.58-5.11c-12.16-4.87-22.62-14.97-24.65-28.37
					c-2.03-13.43,7.18-25.74,20.15-28.92c8.16-2,17.3-0.51,24.35,4.09c6.53,4.26,11.25,12.33,8.47,20.21
					c-2.27,6.44-9.09,9.44-15.48,9.78c-3.26,0.18-6.57-0.23-9.66-1.29c-3.71-1.28-8.42-5.14-5.2-9.34c0.78-1.02-0.95-2.02-1.73-1.01
					c-3.93,5.11,1.31,10.45,6.05,12.15c5.33,1.91,11.54,2.09,16.93,0.34c5.23-1.7,9.71-5.44,11.26-10.86
					c1.83-6.39-0.58-13.27-5.06-17.95c-9.66-10.11-27.06-11.78-38.82-4.6c-11.22,6.84-16.04,20.03-12.11,32.51
					c9.66,30.67,49.29,32.42,75.7,29.78c8.33-0.83,16.59-2.29,24.7-4.39c7.85-2.03,16.08-3.76,23.33-7.5
					c5.67-2.92,10.21-7.45,13.55-12.84c3.4-5.49,5.16-11.84,9.55-16.71c4.34-4.82,10.23-7.43,16.41-9.05
					c8.59-2.26,17.47-2.92,26.28-3.7c17.41-1.54,35.67-2.05,52.93,1.21c4.03,0.76,7.89,1.98,11.41,4.13
					C564.7,587.69,565.7,585.97,564.6,585.3L564.6,585.3z"/>
			</g>
		</g>
		<g>
			<g>
				<path class="st4" d="M554.55,590.75c-6.2,12.65-20.19,18.43-33.24,21.21c-12.99,2.76-29.56,3.41-39.34-7.27
					c-4.77-5.21-6.95-12.15-9.65-18.53c-2.56-6.05-5.75-11.67-10.99-15.78c-10.01-7.86-23.82-9.29-36.11-8.19
					c-13.11,1.17-27.22,5.27-35.77,15.95c-7.98,9.95-9.17,23.79-5.56,35.72c3.79,12.53,13.1,23.57,25.32,28.57
					c6.24,2.56,13.12,3.25,19.72,1.83c5.8-1.25,12.22-4.34,15.71-9.34c3.37-4.83,3.21-11.39,1.97-16.9
					c-1.33-5.97-4.25-11.08-9.3-14.65c-5.06-3.59-10.89-4.72-16.99-4.21c-4.55,0.38-9.55,1.58-12.27,5.59
					c-1.46,2.15-1.95,4.7-2.06,7.25c-0.06,1.29,1.94,1.28,2,0c0.27-6.05,3.84-9.44,9.63-10.5c6.02-1.11,12.2-0.49,17.47,2.79
					c9.98,6.2,15.07,24.09,5.04,32.47c-10.73,8.97-26.32,7.49-37.32-0.06c-10.87-7.46-17.91-19.97-18.78-33.11
					c-0.85-12.87,4.58-24.94,15.7-31.79c10.88-6.71,24.98-8.69,37.56-7.73c12.56,0.96,24.52,5.98,30.7,17.52
					c5.69,10.63,7.78,23.36,19.18,29.72c11.34,6.33,25.78,4.89,37.89,1.84c12.46-3.13,25.31-9.32,31.22-21.38
					C556.84,590.61,555.12,589.6,554.55,590.75L554.55,590.75z"/>
			</g>
		</g>
	</g>
</g>
</svg>
