<?xml version="1.0" encoding="utf-8"?>
<!-- Generator: Adobe Illustrator 23.0.4, SVG Export Plug-In . SVG Version: 6.00 Build 0)  -->
<svg version="1.1" xmlns="http://www.w3.org/2000/svg" xmlns:xlink="http://www.w3.org/1999/xlink" x="0px" y="0px"
	 viewBox="0 0 775 950" style="enable-background:new 0 0 775 950;" xml:space="preserve">
<style type="text/css">
	.st0{display:none;}
	.st1{fill:#1F1646;}
	.st2{fill:#2C3439;}
	.st3{fill:#3A474E;}
	.st4{fill:#9E3223;}
	.st5{fill:#000B8C;}
	.st6{fill:#5E7775;}
	.st7{fill:#FFFFFF;}
	.st8{fill:#FF9D6C;}
	.st9{fill:#F0EA9B;}
	.st10{fill:none;stroke:#1F1646;stroke-width:4;stroke-linecap:round;stroke-miterlimit:10;}
	.st11{fill:none;stroke:#000000;stroke-width:3;stroke-miterlimit:10;}
	.st12{fill:#065187;}
	.st13{fill:#1B1464;}
	.st14{fill:#291918;}
	.st15{fill:#160D0D;}
	.st16{fill:#3C0458;}
	.st17{fill:#24338A;}
	.st18{fill:#211B5A;}
	.st19{fill:#1B2668;}
	.st20{fill:#1B0300;}
	.st21{fill:#29388D;}
	.st22{fill:#AFB1B4;}
	.st23{opacity:0.57;fill:#B0B1B4;}
	.st24{fill:none;stroke:#000000;stroke-width:2;stroke-miterlimit:10;}
	.st25{fill:#B45846;}
	.st26{fill:#2D5252;}
	.st27{fill:#B4B074;}
</style>
<g id="Layer_1" class="st0">
</g>
<g id="Layer_2">
	<rect x="-5.31" class="st1" width="780.31" height="950"/>
	<path class="st2" d="M-5.31,801.17c50.99-14.5,101.57-31.6,154.16-39.52c32.37-4.87,67.45,2.64,100.03-5.61
		c22.79-5.77,39.1-21.71,57.66-35.11c50.21-36.26,92.07-81.13,158.6-73.94c26.17,2.83,52.07,7.83,78.06,11.84
		c12.82,1.98,38.55,10.02,50.98,3.24c15.3-8.35,122.4-57.03,140.48-61.2s40.34-1.39,40.34-1.39V950H-5.31
		C-5.31,950-5.31,801.17-5.31,801.17z"/>
	<path class="st3" d="M-5.31,916.62c33.62-3.46,73.92-4.81,101.5-25.41c15.19-11.35,37.84-13.16,56.11-13.02
		c20.09,0.16,39.04,8.86,59.22,8.18c16.49-0.55,33.52-4.71,49.58-8.2c20.11-4.37,54.58-7.22,71.59-19.98
		c41.72-31.25,90.17-38.43,138.74-52.29c26.69-7.61,52.65-18.14,80.15-22.69c34.79-5.76,59.15,4.52,88.65-20.27
		c11.46-9.63,20.04-22.68,30.63-33.23c25.06-24.97,71.11-22.63,104.14-30.2V950H-5.31C-5.31,950-5.31,916.62-5.31,916.62z"/>
	<path class="st9" d="M92.96,861.22c-6.8-30.34,47-94.16,68.83-73c21.82,21.16,13.55,40.79,32.64,45.84
		c19.09,5.05,41.28-30.21,60.12-16.83c18.84,13.38,10.88,44.56,20.84,54.47c9.97,9.91,38.91-14.89,48.93,14.9
		c10.03,29.79-23.23,48.69-53.87,43.94c-30.64-4.75-100.49-6.15-119.09-27.86S99.77,891.55,92.96,861.22z"/>
	<path class="st6" d="M114.7,852.56c1.04-13.43,13.56-47.05,29.43-41.46s23.46,30.82,34.77,38.85c11.31,8.03,41.34-10.33,59.88-8.5
		s15.68,33.8,25.1,40.49c9.42,6.69,32.22-5.47,34.41,7.42s-20.31,36.59-59.82,28.38s-60.73-6.27-71.79-22.62
		C155.61,878.76,113.66,865.99,114.7,852.56z"/>
	<g>
		
			<ellipse transform="matrix(0.8751 -0.4839 0.4839 0.8751 -380.8967 179.6892)" class="st14" cx="157.74" cy="827.91" rx="18.49" ry="8.97"/>
		<path class="st25" d="M170.57,818.98c0.6-0.24,1.87-1.25,1.59-1.99c-0.33-0.87-2.18-0.73-2.9-0.9c-6-1.39-12.88,0.89-18.07,3.84
			c-2.49,1.41-4.64,3.32-6.47,5.47c-1.6,1.88-2.98,3.52-3.48,5.99c-0.11,0.54-0.54,4.77,1.25,3.4c0.6-0.46,1.21-0.9,1.83-1.34
			c1.65-1.18,3.32-2.31,5.03-3.41c1.1-0.71,2.22-1.38,3.3-2.1c1-0.67,2.24-1.01,3.35-1.52
			C160.96,824.16,165.46,820.99,170.57,818.98z"/>
		<path class="st25" d="M144.08,837.46c-1.14,0.45,0.31,1.56,0.76,1.83c0.91,0.54,2.34,1.02,3.41,1.07
			c0.68,0.03,1.37-0.08,2.05-0.15c1.33-0.14,2.71,0.04,4.01-0.18c1.38-0.24,2.74-0.73,4.07-1.15c0.4-0.13,0.8-0.26,1.19-0.42
			c0.34-0.14,0.67-0.31,0.99-0.48c0.67-0.35,1.29-0.74,1.94-1.1c1.96-1.11,3.34-2.58,5.1-3.9c0.49-0.37,0.99-0.74,1.41-1.18
			c0.38-0.39,0.69-0.83,1-1.28c1.87-2.66,3.82-5.21,4.35-8.46c0.21-1.31-1.02-1.09-2.21-0.42c-0.85,0.48-1.59,1.22-2.36,1.78
			c-1.76,1.27-3.68,2.39-5.47,3.6c-1.83,1.22-3.77,2.32-5.68,3.4C150.81,834.83,144.08,837.46,144.08,837.46z"/>
	</g>
	<g>
		<path class="st26" d="M130.75,829.94c0.31-0.24,0.64-0.43,0.99-0.65c0.35-0.2,0.72-0.4,1.12-0.49c0.4-0.12,0.82-0.21,1.25-0.3
			c0.43-0.02,0.87-0.01,1.33,0c1.81,0.15,3.54,1.05,4.87,2.07c2.58,2.08,4.24,4.48,5.64,5.5c0.7,0.53,1.15,0.83,1.91,0.97
			c0.2,0.07,0.34,0.12,0.52,0.13c0.19,0.01,0.42,0.02,0.69,0.01c0.54-0.03,1.22-0.11,2.03-0.18c0.8-0.07,1.79-0.09,2.66,0.06
			c0.89,0.14,1.73,0.42,2.51,0.8c1.53,0.78,2.79,1.98,3.4,3.46c-1.56-0.29-2.9-0.32-4.11-0.13c-0.6,0.09-1.16,0.24-1.67,0.42
			c-0.52,0.19-0.92,0.4-1.48,0.67c-0.55,0.27-1.2,0.59-2.04,0.86c-0.41,0.14-0.87,0.28-1.39,0.35c-0.26,0.04-0.52,0.07-0.8,0.09
			c-0.27,0.01-0.52,0-0.78,0c-0.52-0.02-1.04-0.03-1.56-0.12c-0.52-0.12-1.04-0.27-1.55-0.43c-0.96-0.4-1.92-0.92-2.64-1.53
			c-1.5-1.21-2.53-2.58-3.29-3.81c-0.78-1.23-1.41-2.38-2-3.4c-0.6-1-1.16-1.83-2-2.59C133.53,830.9,132.27,830.49,130.75,829.94z"
			/>
	</g>
	<g>
		
			<ellipse transform="matrix(0.3491 -0.9371 0.9371 0.3491 -675.9536 778.9219)" class="st14" cx="222.73" cy="876.05" rx="18.49" ry="8.97"/>
		<path class="st25" d="M226.65,860.91c0.3-0.57,0.6-2.17-0.09-2.54c-0.81-0.45-2.14,0.87-2.79,1.21
			c-5.46,2.85-9.19,9.06-11.21,14.68c-0.97,2.69-1.36,5.55-1.35,8.37c0.01,2.47,0.03,4.61,1.26,6.81c0.27,0.48,2.7,3.97,3.16,1.77
			c0.16-0.74,0.33-1.47,0.51-2.21c0.48-1.96,1.02-3.92,1.6-5.86c0.37-1.25,0.79-2.49,1.14-3.74c0.32-1.16,1.04-2.23,1.55-3.33
			C222.74,871.1,224.09,865.77,226.65,860.91z"/>
		<path class="st25" d="M218.59,892.19c-0.57,1.08,1.25,0.98,1.77,0.9c1.04-0.18,2.44-0.75,3.29-1.4c0.54-0.42,0.99-0.95,1.46-1.45
			c0.92-0.98,2.08-1.73,2.92-2.75c0.89-1.08,1.61-2.34,2.34-3.52c0.22-0.36,0.44-0.72,0.63-1.1c0.16-0.33,0.3-0.67,0.44-1.01
			c0.28-0.7,0.5-1.4,0.75-2.1c0.77-2.12,0.85-4.13,1.33-6.28c0.14-0.6,0.27-1.2,0.3-1.82c0.03-0.54-0.02-1.08-0.07-1.62
			c-0.31-3.24-0.49-6.44-2.2-9.25c-0.69-1.13-1.49-0.16-1.95,1.11c-0.33,0.91-0.41,1.96-0.64,2.89c-0.51,2.11-1.23,4.21-1.81,6.29
			c-0.59,2.12-1.35,4.21-2.1,6.28C221.98,885.81,218.59,892.19,218.59,892.19z"/>
	</g>
	<g>
		<path class="st26" d="M201.56,885.88c0.31-0.24,0.64-0.43,0.99-0.65c0.35-0.2,0.72-0.4,1.12-0.49c0.4-0.12,0.82-0.21,1.25-0.3
			c0.43-0.02,0.87-0.01,1.33,0c1.81,0.15,3.54,1.05,4.87,2.07c2.58,2.08,4.24,4.48,5.64,5.5c0.7,0.53,1.15,0.83,1.91,0.97
			c0.2,0.07,0.34,0.12,0.52,0.13c0.19,0.01,0.42,0.02,0.69,0.01c0.54-0.03,1.22-0.11,2.03-0.18c0.8-0.07,1.79-0.09,2.66,0.06
			c0.89,0.14,1.73,0.42,2.51,0.8c1.53,0.78,2.79,1.98,3.4,3.46c-1.56-0.29-2.9-0.32-4.11-0.13c-0.6,0.09-1.16,0.24-1.67,0.42
			c-0.52,0.19-0.92,0.4-1.48,0.67c-0.55,0.27-1.2,0.59-2.04,0.86c-0.41,0.14-0.87,0.28-1.39,0.35c-0.26,0.04-0.52,0.07-0.8,0.09
			c-0.27,0.01-0.52,0-0.78,0c-0.52-0.02-1.04-0.03-1.56-0.12c-0.52-0.12-1.04-0.27-1.55-0.43c-0.96-0.4-1.92-0.92-2.64-1.53
			c-1.5-1.21-2.53-2.58-3.29-3.81c-0.78-1.23-1.41-2.38-2-3.4c-0.6-1-1.16-1.83-2-2.59C204.34,886.84,203.09,886.43,201.56,885.88z"
			/>
	</g>
	<g>
		
			<ellipse transform="matrix(0.6248 -0.7808 0.7808 0.6248 -622.527 452.1234)" class="st14" cx="159.15" cy="873.78" rx="18.49" ry="8.97"/>
		<path class="st25" d="M167.61,860.63c0.46-0.45,1.25-1.87,0.71-2.44c-0.63-0.68-2.3,0.15-3.03,0.27
			c-6.07,1-11.57,5.73-15.24,10.43c-1.76,2.25-3.03,4.84-3.9,7.52c-0.77,2.34-1.41,4.39-0.93,6.87c0.1,0.54,1.32,4.62,2.45,2.67
			c0.38-0.65,0.78-1.29,1.18-1.93c1.07-1.71,2.19-3.4,3.35-5.06c0.74-1.07,1.53-2.12,2.25-3.2c0.67-1,1.68-1.79,2.52-2.68
			C160.71,869.08,163.66,864.43,167.61,860.63z"/>
		<path class="st25" d="M150.16,887.81c-0.88,0.85,0.88,1.33,1.4,1.4c1.05,0.16,2.55,0.06,3.56-0.3c0.64-0.23,1.23-0.59,1.84-0.92
			c1.18-0.64,2.52-0.99,3.64-1.7c1.18-0.75,2.26-1.72,3.32-2.61c0.32-0.27,0.65-0.54,0.94-0.84c0.26-0.26,0.5-0.54,0.74-0.82
			c0.49-0.58,0.91-1.17,1.37-1.76c1.39-1.77,2.1-3.66,3.23-5.55c0.32-0.53,0.63-1.06,0.86-1.63c0.2-0.51,0.32-1.03,0.44-1.56
			c0.72-3.17,1.55-6.27,0.8-9.48c-0.3-1.29-1.36-0.62-2.2,0.45c-0.6,0.76-1,1.73-1.51,2.54c-1.15,1.85-2.49,3.62-3.69,5.41
			c-1.22,1.83-2.6,3.58-3.96,5.31C155.39,882.81,150.16,887.81,150.16,887.81z"/>
	</g>
	<g>
		<path class="st27" d="M130.62,878.03c0.65-0.64,1.66-0.98,2.66-1.02c1-0.05,1.99,0.13,2.89,0.39c1.82,0.53,3.42,1.38,4.86,2.12
			c0.35,0.18,0.7,0.37,1.02,0.51c0.35,0.17,0.56,0.25,0.92,0.4c0.75,0.31,1.41,0.6,2,0.78c0.6,0.18,1.01,0.28,1.49,0.29l1.09,0.07
			c0.45,0.03,1.03,0.08,1.55,0.17c2.12,0.4,4.17,1.23,5.96,2.8c0.87,0.79,1.68,1.76,2.2,2.91c0.58,1.13,0.8,2.52,0.78,3.5
			c0.01,0.47-0.04,0.9-0.06,1.14c-0.02,0.26-0.06,0.42-0.08,0.55c-0.07,0.28,0.15,0.77,0.63,1.31c1.09,1.18,2.27,2.33,3.57,3.59
			c-1.81,0.17-3.62-0.15-5.35-0.68c-0.9-0.33-2.06-0.87-2.88-2.09c-0.43-0.59-0.66-1.25-0.84-1.79l-0.39-1.31
			c-0.22-0.65-0.42-0.89-0.69-1.19c-0.29-0.29-0.6-0.57-1.02-0.82c-0.41-0.24-0.87-0.49-1.4-0.66c-0.52-0.2-1.08-0.35-1.64-0.44
			c-0.29-0.06-0.53-0.09-0.91-0.13c-0.37-0.04-0.83-0.06-1.38-0.15c-1.17-0.18-2.35-0.58-3.26-1.06c-0.93-0.48-1.72-0.99-2.4-1.5
			c-0.35-0.26-0.85-0.61-1.18-0.91c-0.37-0.32-0.67-0.63-0.99-0.93c-1.21-1.23-2.22-2.43-3.28-3.52c-0.53-0.56-1.07-1.04-1.67-1.48
			C132.24,878.47,131.54,878.11,130.62,878.03z"/>
	</g>
	<g>
		
			<ellipse transform="matrix(0.9458 -0.3247 0.3247 0.9458 -271.5907 137.0745)" class="st14" cx="274.93" cy="882.33" rx="18.49" ry="8.97"/>
		<path class="st25" d="M289.12,875.75c0.63-0.13,2.06-0.91,1.91-1.68c-0.17-0.91-2.02-1.1-2.7-1.39
			c-5.66-2.41-12.84-1.35-18.46,0.65c-2.7,0.96-5.15,2.47-7.32,4.26c-1.9,1.57-3.54,2.95-4.46,5.3c-0.2,0.51-1.35,4.61,0.64,3.57
			c0.67-0.35,1.35-0.68,2.03-1c1.82-0.87,3.67-1.7,5.54-2.48c1.2-0.51,2.42-0.97,3.61-1.5c1.1-0.49,2.38-0.61,3.56-0.92
			C278.76,879.19,283.74,876.85,289.12,875.75z"/>
		<path class="st25" d="M259.83,889.36c-1.2,0.24,0.04,1.59,0.43,1.93c0.8,0.69,2.13,1.41,3.17,1.65c0.67,0.15,1.36,0.16,2.04,0.21
			c1.33,0.09,2.66,0.51,3.98,0.51c1.4,0,2.83-0.24,4.21-0.43c0.42-0.06,0.84-0.11,1.25-0.21c0.36-0.08,0.71-0.19,1.06-0.3
			c0.72-0.22,1.4-0.5,2.1-0.75c2.13-0.75,3.73-1.97,5.7-2.95c0.55-0.28,1.1-0.56,1.6-0.92c0.44-0.32,0.82-0.7,1.2-1.08
			c2.31-2.29,4.67-4.47,5.75-7.57c0.44-1.25-0.82-1.25-2.1-0.8c-0.92,0.32-1.77,0.92-2.64,1.34c-1.96,0.95-4.04,1.72-6.01,2.59
			c-2.01,0.89-4.11,1.63-6.19,2.36C266.91,887.93,259.83,889.36,259.83,889.36z"/>
	</g>
	<g>
		<path class="st26" d="M247.76,884.67c0.65-0.64,1.66-0.98,2.66-1.02c1-0.05,1.99,0.13,2.89,0.39c1.82,0.53,3.42,1.38,4.86,2.12
			c0.35,0.18,0.7,0.37,1.02,0.51c0.35,0.17,0.56,0.25,0.92,0.4c0.75,0.31,1.41,0.6,2,0.78c0.6,0.18,1.01,0.28,1.49,0.29l1.09,0.07
			c0.45,0.03,1.03,0.08,1.55,0.17c2.12,0.4,4.17,1.23,5.96,2.8c0.87,0.79,1.68,1.76,2.2,2.91c0.58,1.13,0.8,2.52,0.78,3.5
			c0.01,0.47-0.04,0.9-0.06,1.14c-0.02,0.26-0.06,0.42-0.08,0.55c-0.07,0.28,0.15,0.77,0.63,1.31c1.09,1.18,2.27,2.33,3.57,3.59
			c-1.81,0.17-3.62-0.15-5.35-0.68c-0.9-0.33-2.06-0.87-2.88-2.09c-0.43-0.59-0.66-1.25-0.84-1.79l-0.39-1.31
			c-0.22-0.65-0.42-0.89-0.69-1.19c-0.29-0.29-0.6-0.57-1.02-0.82c-0.41-0.24-0.87-0.49-1.4-0.66c-0.52-0.2-1.08-0.35-1.64-0.44
			c-0.29-0.06-0.53-0.09-0.91-0.13c-0.37-0.04-0.83-0.06-1.38-0.15c-1.17-0.18-2.35-0.58-3.26-1.06c-0.93-0.48-1.72-0.99-2.4-1.5
			c-0.35-0.26-0.85-0.61-1.18-0.91c-0.37-0.32-0.67-0.63-0.99-0.93c-1.21-1.23-2.22-2.43-3.28-3.52c-0.53-0.56-1.07-1.04-1.67-1.48
			C249.38,885.11,248.68,884.75,247.76,884.67z"/>
	</g>
</g>
</svg>
