<?xml version="1.0" encoding="utf-8"?>
<!-- Generator: Adobe Illustrator 23.0.4, SVG Export Plug-In . SVG Version: 6.00 Build 0)  -->
<svg version="1.1" xmlns="http://www.w3.org/2000/svg" xmlns:xlink="http://www.w3.org/1999/xlink" x="0px" y="0px"
	 viewBox="0 0 956 1024" style="enable-background:new 0 0 956 1024;" xml:space="preserve">
<style type="text/css">
	.st0{display:none;}
	.st1{fill:#1F1646;}
	.st2{fill:#9E3223;}
	.st3{fill:#000B8C;}
	.st4{fill:#5E7775;}
	.st5{fill:#FFFFFF;}
	.st6{fill:#FF9D6C;}
	.st7{fill:#F0EA9B;}
	.st8{fill:none;stroke:#1F1646;stroke-width:4;stroke-linecap:round;stroke-miterlimit:10;}
	.st9{fill:none;stroke:#000000;stroke-width:3;stroke-miterlimit:10;}
</style>
<g id="Layer_1" class="st0">
</g>
<g id="Layer_2">
	<path class="st1" d="M479.3,921.34c6.42,1.86,13.16,0.79,19.68,0.04c8.39-0.97,16.52-0.87,24.92-0.91
		c15.05-0.08,29.88-5.14,44.43,1.22c5.93,2.59,9.83,8.57,7.67,15.14c-1.87,5.71-9.17,10.28-15.14,7.67
		c-5.92-2.59-11.89-2.5-18.22-1.78c-8.01,0.91-15.93,1.84-24,1.65c-15.7-0.37-31.37,4.26-46.81-0.21
		C456.98,939.85,464.45,917.04,479.3,921.34z"/>
	<path class="st2" d="M455.78,323.5c0.39,1.16,1.37,4.69,3.11,8.89c0.26,0.61,0.53,1.23,0.82,1.86c0.37,0.82,0.77,1.66,1.2,2.5
		c0.47,0.91,0.97,1.82,1.5,2.72c2.76,4.64,6.49,9,11.37,11.03c3.72,1.55,8.3,2.33,13.03,2.76c1.01,0.09,2.03,0.17,3.04,0.23
		c1.51,0.1,3.01,0.16,4.5,0.22c0.71,0.03,1.42,0.05,2.12,0.07h0.01c7.12,0.22,13.43,0.28,16.3,1.72c2.33,1.16,6.78,6.71,13.1,12.76
		c0.7,0.67,1.43,1.35,2.18,2.03c1.18,1.07,2.42,2.15,3.71,3.2l1.99,1.57c2.85,2.19,5.95,4.24,9.29,5.96
		c0.64,0.34,1.28,0.66,1.94,0.96c0.62,0.29,1.24,0.57,1.88,0.83c0.94,0.39,1.9,0.75,2.88,1.08c5.78,1.96,12.14,2.76,19.03,1.61
		c1-1,0-37-5-37c0,0-19-1-21-4s-7-16-14-18c-0.25-0.07-0.52-0.13-0.82-0.17c-0.84-0.12-1.88-0.12-3.09-0.05
		c-0.89,0.06-1.87,0.16-2.92,0.3c-0.63,0.08-1.28,0.18-1.95,0.28c-3.8,0.59-8.34,1.51-13.13,2.37c-0.67,0.12-1.34,0.24-2.02,0.36
		c-1.4,0.24-2.83,0.47-4.25,0.69c-0.97,0.14-1.94,0.28-2.91,0.4c-6.92,0.91-13.7,1.21-18.91-0.18c-15-4-25-18-27-17
		S454.78,320.5,455.78,323.5z"/>
	<path class="st2" d="M711.78,377.5c5,0,15-14,19-24c0.01-0.03,0.02-0.05,0.03-0.08v-0.01c0.54-1.31,1.42-2.56,2.56-3.75
		c0.44-0.46,0.91-0.91,1.42-1.35c0.55-0.47,1.13-0.93,1.75-1.39c2.41-1.74,5.33-3.32,8.42-4.69c0.62-0.28,1.25-0.54,1.88-0.8
		c0.58-0.24,1.17-0.47,1.75-0.69c1.27-0.48,2.54-0.92,3.8-1.32c5.8-1.87,11.29-2.92,14.39-2.92c6.32,0,13.27,3.12,22.32,2.95
		c1.01-0.02,2.05-0.08,3.11-0.19c0.97-0.1,1.97-0.24,2.99-0.44c0.52-0.09,1.05-0.2,1.58-0.32c0.14-0.03,0.27-0.07,0.41-0.11
		c6.82-1.79,14.14-9.21,19.53-16.1c0.43-0.55,0.85-1.1,1.25-1.64c0.38-0.51,0.74-1,1.1-1.49c0.63-0.88,1.22-1.73,1.76-2.54
		c2.46-3.66,3.95-6.49,3.95-7.12c0-2,10-12,7-13s-29,18-39,17c-2.63-0.26-5.12-1.22-7.49-2.52c-0.92-0.5-1.82-1.05-2.7-1.64
		c-0.71-0.47-1.41-0.97-2.1-1.47c-0.6-0.44-1.19-0.88-1.77-1.33c-3.96-3.02-7.56-6.08-10.94-7.04c-0.61-0.17-1.28-0.18-1.99-0.04
		c-0.6,0.11-1.24,0.33-1.9,0.65c-1.05,0.49-2.15,1.21-3.29,2.1c-0.77,0.6-1.56,1.27-2.36,2c-6.28,5.79-12.91,15.1-15.46,18.29
		c-4,5-13,7-17,8s-6,5-8,7s-13,3-13,3C698.78,343.5,706.78,377.5,711.78,377.5z"/>
	<path class="st3" d="M213.49,924.82c7.79-2.82,16.52-7.25,22.79-9.82c3.96-1.62,15.87-3.46,20-5c10.86-4.06,8.98-6.98,20.37-9.08
		c13.67-2.52,27.48-5.93,38.13-15.42c7.45-6.63,5.99-11.88,5.83-15.76c-0.03-0.81,0-1.55,0.17-2.24c2.3-9.33,6.94-17.36,6.28-27.25
		c-0.64-9.52-4.22-18.54-5.07-28.01c-0.75-8.43,0.64-17.08,2.25-25.33c3.64-18.75,8.95-37.32,14.8-55.49
		c10.2-31.73,6.75-66.9,21.04-97.31c7.23-15.39,16.67-29.2,25.88-43.4c9.94-15.33,16.93-34.76,30.86-47.06
		c17.51-15.45,38.45-23.11,58.38-34.45c16.24-9.25,29.15-22.96,42.74-35.54c13.06-12.08,24.87-24.13,34.07-39.53
		c4.27-7.14,9.05-14.54,11.01-22.73c1.82-7.59-1.25-14.36-1.25-21.91c0-1.61,0.57-3.79,1.11-5.93c0.46-1.85,0.89-3.68,0.89-5.07
		c0-3-4-6-4-9s1-5,1-8c0-2.69-2.41-3.77-2.91-8.3c-0.06-0.52-0.09-1.08-0.09-1.7c0-6-5-17-6-27s-22-38-32-51
		c-8.16-10.61-9.57-25.59-12.86-38.16c-3.81-14.56-12.36-21.74-22.71-31.99c-2.96-2.93-13.92-12.53-7.43-16.85c3-2,20-2,33,10
		c10.24,9.45,18.88,20.9,27.21,32.01c3.61,4.81,6.7,10.26,10.54,14.85c4.92,5.89,12.17,9.35,18.45,13.52
		c6.24,4.15,12.94,7.93,18.79,12.61c3.24,2.6,6.49,6.88,8.91,9.83c1.32,1.61,2.39,2.82,3.09,3.17c2,1,4-9,7-5s13,7,18,6s8-9,10-10
		s7,9,9,7c0.5-0.5,1.74-3.05,3.54-6.85c5.38-11.43,15.7-34.14,25.46-46.15c13-16,35-28,40-31s12-12,14-15s15-11,19-7s-7,15-10,17
		c-3.06,2.04-4.89,7.55-6.49,10.64c-2.74,5.3-5.42,10.63-8.36,15.82c-6.94,12.23-3.15,23.29-3.15,36.54
		c0,7.19-1.42,14.24-2.24,21.34c-0.94,8.15,2.24,15.59,2.24,23.66c0,12.23-8.12,20.2-3,33c2,5-5,7-5,12c0,4.6,4.23,4.97,5.68,8.89
		c0.13,0.34,0.24,0.71,0.32,1.11c1,5-4,8-4,13s7,9,7,9s-0.36,3.93-1.29,9.66c-0.62,3.85-1.5,8.51-2.71,13.34c-3,12-4,9-11,31
		c-5.91,18.59-6.08,39.59-6.4,58.92c-0.4,24.19,3.97,47.9,6.85,71.84c1.44,11.92,2.33,22.34,1.55,26.24
		c-2.74,13.68-6.47,27.47-10.98,40.67c-2.71,7.93-6,14.69-6.88,23.22c-1.09,10.6-2.64,21.08-3.78,31.62
		c-1.23,11.34,0.4,22.75,1.35,34.04c1.58,18.81,2.22,38.17,8.66,56.11c3.07,8.55,7.86,16.29,10.88,24.88
		c3.26,9.28,5.5,18.88,8.29,28.31c1.12,3.82,2,6.77,2.46,8.14c4.44,13.33,2.08,27.76,6.92,40.98c4.18,11.4,12.28,20.57,20.44,29.32
		c9.71,10.4,23.96,14.55,34.64,23.71c2.78,2.38,4.14,5.08,4.77,7.47c0.87,3.3-1.61,6.53-5.03,6.53l-85.48,0
		c-3.76,0-7.12-2.36-8.39-5.9c-0.29-0.8-0.59-1.66-0.91-2.55c-2.38-6.66-5.37-15.2-5.96-17.55c-0.51-2.06-0.76-11.78-1.02-21.83
		c-0.32-12.8-0.32-24.23-5.33-36.21c-4.75-11.36-11.59-22.16-15.74-33.52c-5.21-14.23-5.82-29.58-5.58-44.58
		c0.12-7.72,0.52-15.42,0.63-23.14c0.09-7.02-2.14-12.17-4.34-18.71c-1.53-4.55-1.22-8.58-1.74-13.2
		c-0.6-5.37-3.33-16.87-9.88-17.81c-0.83-0.12-1.71,0.05-2.61,0.43c-6.14,2.59-10.28,10.51-13.69,15.83
		c-1.79,2.79-3.23,5.14-5.66,7.36c-2.8,2.56-6.39,4.23-7.13,8.37c-0.41,2.3,0.51,5.41,0.46,7.43c-0.12,4.94,0.51,9.86,1.41,14.72
		c2.46,13.25,1.25,27.47,5.97,40.38c3.6,9.84,10.85,17.97,14.27,27.84c3.78,10.89,2.62,22.46,3.04,33.75
		c0.42,11.05,4.66,21.21,8.88,31.26c3.35,7.98,4.79,18.62,10.04,25.62c3.79,5.06,9.18,8.98,13.32,13.81
		c0.43,0.5,1.41,2.04,2.47,3.57c1.06,1.54-0.03,3.63-1.9,3.64l-20.6,0.04c0.22,0.45,0.22,0.45,0.22,0.45l-18.29,0.24
		c-2.07,1.64-4.74,2.58-7.57,2.58c-1.51,0-2.93-0.39-4.22-1.05c-1.12-0.2-2.79-0.51-3.92-0.71c-3.96,0.41-7.95,0.67-11.93,0.68
		c-6.57,2.8-16.13,0.14-22.5-0.63c-0.36-0.04-0.7-0.12-1.03-0.21l-5.63,0.07c-0.6,0.01-1.2-0.13-1.73-0.41l-2.19,0.43
		c0.05-0.08,0.62-1.46,0.65-1.55c1.08-3.85,5.71-20.29,8.35-26.45c0.86-2.01,1.23-6.15,1.12-11.34
		c-0.22-11.35-2.68-27.75-7.16-37.85c-0.61-1.4-1.27-2.68-1.96-3.81c-8-13-23-50-24-62c-0.89-10.69-0.19-44.38-0.03-51.62
		c0.01-0.71-0.63-1.26-1.33-1.12c-3.71,0.73-14.64,6.74-22.64,5.74c-7.99-1-25.7-15.87-45.59-17.31c-1.42-0.1-1.64,2.01-0.23,2.21
		c30.04,4.28,35.13,21.82,34.81,23.1c-2,8,9,39-1,71c-5.7,18.23-27.57,47.98-44.81,72.2c-3.41,4.79,18.81,9.8,15.81,22.8
		c-2.98,12.91-6.63,10.93-6.99,14.92l-92.44,0.19l-39.55,0.08l-139.9,0.3c-0.75,0-0.96-1.02-0.28-1.31
		C200.77,937.87,206.47,927.37,213.49,924.82z"/>
	<path class="st4" d="M731.46,185.56c-0.04-0.14-0.08-0.27-0.14-0.39c-3.71,1.48-7.69,4.47-10.54,7.32c-2,2-11,19-18,23
		s-19,11-21,17s-1,20-6,27c-5,7-13,18-8,34c2.17,6.95,3.81,14.11,6.28,20.96c0.46,1.28,0.75,3.18,1.8,4.15
		c1.55,1.44,3.63,0.79,5.6,0.96c3.56,0.32,4.81,3.84,7.12,6.06c1.6,1.54,5.3,4.71,7.2,1.86c2-3,6-15,5-21s-1-15,0-20
		c1.93-9.65,7.74-18.44,7.85-28.46c0.05-4.53-1.19-9.13-1.92-13.58c-0.55-3.32-1.77-7.6-0.93-10.96c1.56-6.24,3.56-12.7,7.37-17.96
		c3.86-5.33,8.04-10.2,11.62-15.8c1.75-2.74,3.46-5.52,4.96-8.41c0.56-1.09,1.18-2.21,1.58-3.38
		C731.55,187.21,731.65,186.3,731.46,185.56z"/>
	<g>
		<path class="st5" d="M574.17,356.19c0,0,6.55,11.35,17.4,13.99s21.89-4.42,21.89-4.42s-6.55-11.35-17.4-13.99
			C585.21,349.13,574.17,356.19,574.17,356.19z"/>
		<path class="st2" d="M596.25,353.86c0.16-0.66,1.02-0.84,1.43-0.3c1.4,1.84,1.83,5.39,0.91,9.18c-0.92,3.79-2.94,6.75-5.03,7.74
			c-0.62,0.29-1.29-0.26-1.13-0.93c0,0,1.35-3.35,2.41-7.72C595.9,357.45,596.25,353.86,596.25,353.86z"/>
		<path class="st2" d="M591.11,369.23c-0.16,0.66-1.02,0.84-1.43,0.3c-1.4-1.84-1.83-5.39-0.91-9.18c0.92-3.79,2.94-6.75,5.03-7.74
			c0.62-0.29,1.29,0.26,1.13,0.93c0,0-1.35,3.35-2.41,7.72C591.46,365.63,591.11,369.23,591.11,369.23z"/>
		<path class="st6" d="M574.14,356.33c-0.23,0.06-0.34-0.27-0.12-0.37c4.02-1.74,11.51-6.77,22.05-4.2
			c10.53,2.57,14.88,10.48,17.65,13.87c0.15,0.18-0.1,0.43-0.28,0.27c-3.46-3.09-12.16-7.9-18.51-9.45
			C588.57,354.91,578.63,355.18,574.14,356.33z"/>
		<path class="st6" d="M613.43,365.89c0.23-0.06,0.34,0.27,0.12,0.37c-4.02,1.74-11.51,6.77-22.05,4.2s-14.88-10.48-17.65-13.87
			c-0.15-0.18,0.1-0.43,0.28-0.27c3.46,3.09,11.37,11.14,17.72,12.69C598.21,370.55,608.94,367.04,613.43,365.89z"/>
	</g>
	<g>
		<path class="st5" d="M643.85,363.15c0,0,12.78,2.91,22.09-3.26c9.31-6.16,11.63-19.06,11.63-19.06s-12.78-2.91-22.09,3.26
			C646.17,350.25,643.85,363.15,643.85,363.15z"/>
		<path class="st2" d="M657.14,345.38c-0.38-0.57,0.07-1.32,0.75-1.26c2.3,0.22,5.2,2.32,7.35,5.57s2.95,6.75,2.26,8.95
			c-0.21,0.65-1.07,0.77-1.45,0.2c0,0-1.54-3.27-4.02-7.02C659.54,348.07,657.14,345.38,657.14,345.38z"/>
		<path class="st2" d="M664.92,359.59c0.38,0.57-0.07,1.32-0.75,1.26c-2.3-0.22-5.2-2.32-7.35-5.57c-2.15-3.26-2.95-6.75-2.26-8.95
			c0.21-0.65,1.07-0.77,1.45-0.2c0,0,1.54,3.27,4.02,7.02C662.52,356.89,664.92,359.59,664.92,359.59z"/>
		<path class="st6" d="M643.93,363.28c-0.11,0.21-0.43,0.07-0.35-0.16c1.45-4.13,2.86-13.05,11.9-19.03s17.8-3.79,22.17-3.52
			c0.24,0.01,0.24,0.36,0.01,0.39c-4.61,0.44-14.06,3.55-19.51,7.16S646.13,359.2,643.93,363.28z"/>
		<path class="st6" d="M677.64,340.94c0.11-0.21,0.43-0.07,0.35,0.16c-1.45,4.13-2.86,13.05-11.9,19.03
			c-9.04,5.98-17.8,3.79-22.17,3.52c-0.24-0.01-0.24-0.36-0.01-0.39c4.61-0.44,15.9-0.77,21.35-4.38S675.44,345.02,677.64,340.94z"
			/>
	</g>
	<path class="st4" d="M572.3,328.22c2.44-4.23,1.46-16.27,0.48-18.71c-1.75-4.39-7.35-4.56-10.73-7.18
		c-5.12-3.97-3.88-13.03-4.57-18.74c-0.63-5.17-2.72-8.98-5.35-13.35c-2.48-4.12-5.02-8.2-7.69-12.19
		c-3.31-4.94-7.57-8.82-11.23-13.43c-3.35-4.22-6.2-8.8-9.44-13.11c-3-4-10-19-14-23c-4-4-14-17-18-16s0,6,4,10
		c3.35,3.35,6.04,7.56,8.7,11.45c3.03,4.44,6.78,8.67,8.17,13.98c0.87,3.3,1.81,6.48,2.99,9.71c2.86,7.84,6.32,15.7,8.14,23.86
		c2,9,18,30,18,33c0,3,16,28,16,32c0,6.85,6.59,0.3,8.93,1.49c0.99,0.5,1.81,1.37,2.88,1.63
		C570.78,329.9,571.66,329.33,572.3,328.22z"/>
	<path class="st1" d="M602.28,354c8,3,11,12,11,12s13,12,18,12s13-15,13-15s0-8,7-16s7-26,8-28s0-6-8-11
		c-5.32-3.33-6.66-22.13-6.96-34.35c-1.8,3.8-3.04,6.35-3.54,6.85c-2,2-7-8-9-7s-5,9-10,10s-15-2-18-6s-5,6-7,5
		c-0.7-0.35-1.77-1.56-3.09-3.17c-0.98,6.9-1.96,15.01-1.41,16.67c1,3-2,15-4,22S594.28,351,602.28,354z"/>
	<g>
		<path class="st5" d="M606.49,334.33c0,0,8.3,7.36,17.72,6.57s16.39-9.41,16.39-9.41s-8.3-7.36-17.72-6.57
			C613.46,325.71,606.49,334.33,606.49,334.33z"/>
		<path class="st2" d="M623.59,326.55c-0.05-0.57,0.59-0.95,1.07-0.63c1.62,1.1,2.91,3.84,3.19,7.13c0.27,3.29-0.55,6.21-1.97,7.56
			c-0.42,0.4-1.11,0.13-1.16-0.44c0,0,0.19-3.05-0.13-6.85S623.59,326.55,623.59,326.55z"/>
		<path class="st2" d="M623.58,340.27c0.05,0.57-0.59,0.95-1.07,0.63c-1.62-1.1-2.91-3.84-3.19-7.13c-0.27-3.29,0.55-6.21,1.97-7.56
			c0.42-0.4,1.11-0.13,1.16,0.44c0,0-0.19,3.05,0.13,6.85S623.58,340.27,623.58,340.27z"/>
		<path class="st6" d="M606.5,334.46c-0.17,0.11-0.35-0.13-0.2-0.26c2.76-2.47,7.43-8.51,16.58-9.27
			c9.14-0.76,14.75,4.43,17.88,6.41c0.17,0.11,0.03,0.37-0.15,0.29c-3.6-1.55-11.88-3.09-17.39-2.63
			C617.71,329.45,609.8,332.33,606.5,334.46z"/>
		<path class="st6" d="M640.61,331.61c0.17-0.11,0.35,0.13,0.2,0.26c-2.76,2.47-7.43,8.51-16.58,9.27
			c-9.14,0.76-14.75-4.43-17.88-6.41c-0.17-0.11-0.03-0.37,0.15-0.29c3.6,1.55,12.11,5.9,17.62,5.44
			C629.63,339.43,637.31,333.74,640.61,331.61z"/>
	</g>
	<g>
		<path class="st5" d="M603.95,311.48c0,0,8.3,7.36,17.72,6.57s16.39-9.41,16.39-9.41s-8.3-7.36-17.72-6.57
			C610.92,302.86,603.95,311.48,603.95,311.48z"/>
		<path class="st2" d="M621.05,303.7c-0.05-0.57,0.59-0.95,1.07-0.63c1.62,1.1,2.91,3.84,3.19,7.13c0.27,3.29-0.55,6.21-1.97,7.56
			c-0.42,0.4-1.11,0.13-1.16-0.44c0,0,0.19-3.05-0.13-6.85C621.74,306.68,621.05,303.7,621.05,303.7z"/>
		<path class="st2" d="M621.04,317.42c0.05,0.57-0.59,0.95-1.07,0.63c-1.62-1.1-2.91-3.84-3.19-7.13c-0.27-3.29,0.55-6.21,1.97-7.56
			c0.42-0.4,1.11-0.13,1.16,0.44c0,0-0.19,3.05,0.13,6.85S621.04,317.42,621.04,317.42z"/>
		<path class="st6" d="M603.96,311.61c-0.17,0.11-0.35-0.13-0.2-0.26c2.76-2.47,7.43-8.51,16.58-9.27
			c9.14-0.76,14.75,4.43,17.88,6.41c0.17,0.11,0.03,0.37-0.15,0.29c-3.6-1.55-11.88-3.09-17.39-2.63
			C615.17,306.6,607.26,309.48,603.96,311.61z"/>
		<path class="st6" d="M638.07,308.76c0.17-0.11,0.35,0.13,0.2,0.26c-2.76,2.47-7.43,8.51-16.58,9.27
			c-9.14,0.76-14.75-4.43-17.88-6.41c-0.17-0.11-0.03-0.37,0.15-0.29c3.6,1.55,12.11,5.9,17.62,5.44
			C627.09,316.58,634.77,310.89,638.07,308.76z"/>
	</g>
	<path class="st7" d="M666.28,375c3.61,2.4,8.33,0.54,12.21,0.04c3.95-0.51,7.01,0.81,10.65,2.08c8.47,2.93,17.01,5.74,25.35,9.05
		c0.93-5.73,1.29-9.66,1.29-9.66s-7-4-7-9s5-8,4-13c-0.08-0.4-0.19-0.77-0.32-1.11c-3.8,2.55-8.85,5.61-11.18,5.61c-4,0-6-4-9-3
		c-3,1-11-2-11,0c-0.01,3.86,9.72,4.79,10.2,8.97c0.34,2.96-4.59,4.63-6.85,4.86c-4.44,0.46-8.99-1.29-13.35,0.16
		C668.28,371,663.28,373,666.28,375z"/>
	<path class="st7" d="M559.78,369.5c0,3,4,6,4,9c0,1.39-0.43,3.22-0.89,5.07c3.26,0.79,6.48,1.19,8.39,0.43
		c2.39-0.95,4.45-2.54,7.23-2.01c2.8,0.53,5.73,2.06,8.06,3.66c2.33,1.6,4.68,3.32,7.36,4.3c1.46,0.53,3.75,0.8,5.2,0.13
		c2.88-1.34,0.24-4.08-1.4-5.17c-2.2-1.45-5.42-1.35-7.45-2.91c-3.27-2.5,7.89-4.45,4-6c-3.16-1.26-12.68,0.67-16,0
		c-3.61-0.73-4.69-2.55-7-6c-1.79-2.67-7.18-14.89-13.41-16.8c0.5,4.53,2.91,5.61,2.91,8.3C560.78,364.5,559.78,366.5,559.78,369.5z
		"/>
	<path class="st1" d="M665.28,426c-3-2-10,3-17,0s-10-10-12-10s-1,13-11,16s-10,15-1,18s25-1,33-6S668.28,428,665.28,426z"/>
	<path class="st8" d="M686.28,419c0,0-42.5,18.5-50-3"/>
	<path class="st8" d="M636.28,411c0,0,3,27-41,23"/>
	<path class="st2" d="M632.28,386c-6,1-17,9-17,11s17,19,21,19s14-21,15-23S638.28,385,632.28,386z"/>
	<g>
		<g>
			<path class="st4" d="M675.27,393.52c9.09-3.61,18.76-5.54,28.55-5.57c4.98-0.02,9.97,0.45,14.85,1.41
				c4.52,0.89,9.17,2.16,12.62,5.39c6.69,6.27,8.91,16.77,11.21,25.28c2.3,8.49,4.57,17.16,9.22,24.72
				c4.34,7.06,10.39,12.87,17,17.79c7.03,5.23,14.83,9.95,23.3,12.39c9.39,2.71,19.01,1.59,28.36-0.74c8.91-2.22,17.88-5,25.92-9.52
				c7.94-4.47,14.57-10.79,20.53-17.62c5.96-6.82,11.83-13.97,16.57-21.71c8.53-13.95,12.75-33.03,0.58-46.28
				c-10.02-10.91-26.83-14.66-41.01-11.94c-6.76,1.3-13.38,4.2-18.38,9.02c-5.65,5.45-8.42,12.99-8.7,20.75
				c-0.34,9.31,2.79,18.27,6.59,26.63c1.45,3.19,2.92,6.93,5.9,9.03c3.25,2.29,7.34,1.38,10.8,0.1c7.01-2.6,13.34-7.97,16.5-14.82
				c2.65-5.75,2.5-14.15-4.84-16.06c-2.56-0.67-5.22-0.11-6.98,1.92c-0.84,0.97,0.57,2.39,1.41,1.41c2.29-2.64,6.4-1.72,8.51,0.71
				c3.11,3.59,1.28,9.26-0.8,12.86c-3.75,6.48-10.76,11.91-18.25,13.15c-5.03,0.83-7.44-2.81-9.36-6.8
				c-1.96-4.1-3.76-8.29-5.13-12.63c-2.56-8.13-3.52-17.11-0.51-25.26c10.32-27.93,60.59-23.85,68.73,3.7
				c5.07,17.15-5.88,33.67-16.09,46.42c-5.06,6.32-10.27,12.59-16.34,17.97c-6.54,5.79-14.06,9.93-22.25,12.87
				c-8.29,2.98-17.18,5.56-25.98,6.3c-9.2,0.77-17.82-1.53-25.91-5.84c-14.13-7.53-26.94-18.53-32.78-33.77
				c-2.9-7.56-4.52-15.52-6.93-23.24c-2.1-6.75-4.72-14.37-10.36-19.02c-5.61-4.63-13.84-5.67-20.84-6.29
				c-8.11-0.73-16.33-0.16-24.28,1.62c-4.08,0.91-8.06,2.17-11.95,3.72C673.55,392.06,674.07,393.99,675.27,393.52L675.27,393.52z"
				/>
		</g>
	</g>
	<g>
		<g>
			<path class="st4" d="M665.4,413.39c6.59-4.06,14.13-5.85,21.74-6.83c7.42-0.95,14.92-1.26,22.39-0.99
				c14.64,0.54,30.16,3.04,43.6,9.12c5.74,2.59,11.19,6.08,15.25,10.96c4.52,5.42,6.78,12.27,7.6,19.2
				c1.74,14.69-2.48,29.22-1.78,43.91c0.31,6.5,1.33,13.83,5.44,19.12c3.83,4.93,10.07,7.32,16.03,8.43
				c13.71,2.55,28.6-1.11,41.37-6.11c11.63-4.55,22.8-12.33,27.19-24.53c1.96-5.44,2.4-11.79-0.2-17.1
				c-2.47-5.05-7.56-8.09-12.89-9.33c-12.86-2.98-27.22,2.38-36.59,11.25c-3.97,3.76-8.49,10.12-3.41,14.94
				c2.25,2.14,5.5,3,8.45,3.67c4.03,0.91,8.13,1.36,12.26,1.43c1.29,0.02,1.29-1.98,0-2c-3.64-0.06-7.25-0.42-10.82-1.16
				c-3.03-0.63-6.8-1.37-8.94-3.82c-4.91-5.64,5.14-13.19,9.22-15.92c9.33-6.24,23.12-10.02,33.79-4.94
				c13.15,6.26,9.25,22.86,1.63,31.96c-8.64,10.31-22.06,15.03-34.75,18.1c-6.74,1.63-13.69,2.68-20.64,2.24
				c-6.45-0.41-13.72-2.04-18.55-6.62c-5.14-4.88-6.27-12.9-6.59-19.63c-0.34-7.13,0.5-14.26,1.23-21.34
				c1.23-11.83,2.15-24.44-2.87-35.59c-4.6-10.24-14.1-16.56-24.27-20.48c-13.73-5.3-28.91-7.61-43.57-7.86
				c-14.02-0.24-30.08,0.62-42.33,8.17C663.29,412.34,664.3,414.07,665.4,413.39L665.4,413.39z"/>
		</g>
	</g>
	<g>
		<g>
			<path class="st4" d="M662.22,402.16c6.54-4.02,14.61-0.14,19.27,5.02c5.11,5.66,7.84,13.03,12.5,19.03
				c6.84,8.8,22.99,19.46,33.82,11.16c1.01-0.77,0.01-2.51-1.01-1.73c-6.36,4.87-15.14,1.87-21.3-1.84
				c-6.81-4.1-11.22-10.15-15.15-16.91c-3.38-5.82-6.82-11.91-12.74-15.51c-4.99-3.03-11.23-4.14-16.41-0.96
				C660.12,401.1,661.12,402.83,662.22,402.16L662.22,402.16z"/>
		</g>
	</g>
	<g>
		<g>
			<path class="st4" d="M614.93,405.6c-3.35-1.22-8.15,0.66-10.99,2.54c-3.77,2.48-4.22,6.62-4.81,10.75
				c-0.72,5.03-2.24,9.93-4.57,14.45c-1.07,2.07-2.29,4.07-3.65,5.95c-1.51,2.09-3.98,6.03-6.9,5.97c-1.29-0.03-1.29,1.97,0,2
				c3.8,0.09,6.37-3.89,8.38-6.62c2.73-3.71,4.89-7.84,6.44-12.18c1.59-4.47,1.86-9.01,2.93-13.58c0.65-2.77,2.19-4.69,4.78-5.88
				c2.26-1.04,5.43-2.34,7.85-1.46C615.61,407.98,616.13,406.04,614.93,405.6L614.93,405.6z"/>
		</g>
	</g>
	<g>
		<g>
			<path class="st4" d="M608.6,398.3c-5.93-3.61-12.76-4.66-19.55-5.4c-7.65-0.83-15.34-1.26-23.03-1.29
				c-15.15-0.06-30.32,1.45-45.16,4.47c-5.97,1.22-12.21,2.49-17.49,5.67c-5.11,3.07-7.88,7.69-9.87,13.2
				c-1.05,2.92-1.93,5.93-3.4,8.68c-1.8,3.38-4.52,5.98-7.73,8.02c-5.94,3.77-12.95,6.11-19.61,8.26
				c-14.28,4.62-29.21,7.23-44.22,7.7c-13.81,0.43-28.57-0.34-41.34-6.11c-11.68-5.28-21.59-15.8-22.8-29.04
				c-1.25-13.62,8.87-25.34,22.05-27.76c7.92-1.45,16.64,0.27,23.27,4.89c6.51,4.54,11.03,13.25,7.34,21.01
				c-2.8,5.88-9.49,8.41-15.65,8.59c-3.04,0.09-6.12-0.33-9-1.32c-3.71-1.28-8.42-5.14-5.2-9.34c0.78-1.02-0.95-2.02-1.73-1.01
				c-3.8,4.95,1.06,10.27,5.7,12.03c5.31,2.01,11.55,2.24,16.97,0.57c5.1-1.57,9.54-5.05,11.33-10.21
				c2.13-6.16,0.08-13.05-4.06-17.87c-9.05-10.54-26.39-12.6-38.3-6.17c-11.4,6.14-17.07,18.97-13.9,31.5
				c7.81,30.81,46.27,33.82,72.24,31.88c16.38-1.22,32.57-4.92,47.82-11.01c6.17-2.46,12.66-5.35,16.77-10.81
				c4.36-5.8,4.68-13.59,9.07-19.34c4.47-5.85,12.13-7.86,18.97-9.36c8.68-1.91,17.47-3.28,26.32-4.12
				c8.62-0.81,17.28-1.12,25.93-0.92c8.58,0.2,17.38,0.63,25.83,2.23c4.03,0.76,7.89,1.98,11.41,4.13
				C608.7,400.69,609.7,398.97,608.6,398.3L608.6,398.3z"/>
		</g>
	</g>
	<g>
		<g>
			<path class="st4" d="M598.55,403.75c-5.92,12.08-18.99,17.9-31.45,20.81c-12.16,2.84-27.28,4.08-37.87-3.9
				c-10.76-8.11-11.19-23.25-19.58-33.16c-7.89-9.32-20.66-12.44-32.4-12.62c-12.54-0.2-26.36,2.23-36.74,9.65
				c-10.04,7.18-15.04,18.76-14.54,30.98c0.51,12.47,6.25,24.42,15.62,32.64c9.52,8.36,22.73,12.38,35,8.07
				c5.73-2.01,11.24-5.86,14.19-11.28c2.97-5.45,2.02-11.78-1.44-16.78c-3.72-5.38-9.63-8.45-15.61-10.68
				c-5.8-2.16-13.25-5.28-19.26-2.15c-2.36,1.23-4.09,3.25-4.71,5.85c-0.3,1.25,1.63,1.78,1.93,0.53c2.1-8.78,13.44-5.1,19.18-3.14
				c6.26,2.14,12.85,4.97,16.76,10.59c9.41,13.55-5.98,25.48-18.72,26.69c-25.95,2.47-45.38-26.68-40.07-50.4
				c2.81-12.55,12.47-21.04,24.35-25.04c11.21-3.78,24.2-4.8,35.8-2.25c5.8,1.28,11.48,3.6,16.03,7.5
				c4.63,3.97,7.42,9.29,9.74,14.83c2.24,5.37,4.17,11,7.57,15.78c2.96,4.16,6.93,7.34,11.62,9.36c11.59,4.97,25.47,3.23,37.27-0.07
				c11.73-3.28,23.51-9.45,29.08-20.82C600.84,403.61,599.12,402.6,598.55,403.75L598.55,403.75z"/>
		</g>
	</g>
	<path class="st1" d="M465.28,942c-0.05,0.66,84.21,0.22,94.58,0.26c0.41,0,0.77-0.21,0.96-0.55l-95.53,0.21
		C465.28,941.94,465.28,941.97,465.28,942z"/>
	<path class="st7" d="M795.2,338.82l1.99-0.43c-0.17-0.38-0.33-0.77-0.46-1.17c-0.86-2.54-1.42-6.76,1.27-8.48
		c1.4-0.9,3.27-0.66,4.86-0.76c1.4-0.09,2.8-0.36,3.9-1.3c1.02-0.88,1.51-2.13,2.04-3.34c0.73-1.61,1.44-2.41,3.32-2.3
		c1.66,0.09,3.15,0.58,4.6,1.25c0.43-0.55,0.85-1.1,1.25-1.64c-0.89-0.46-1.82-0.84-2.78-1.11c-1.88-0.53-4.46-1.01-6.2,0.16
		c-1.26,0.85-1.75,2.32-2.35,3.63c-0.79,1.74-1.84,2.53-3.78,2.65c-1.73,0.11-3.53-0.03-5.15,0.67c-1.46,0.62-2.48,1.83-3.06,3.28
		C793.53,332.77,794.05,336.04,795.2,338.82z"/>
	<path class="st4" d="M788.13,334.54c0.21,1.65,0.54,3.29,0.97,4.91l3.11-0.19c-0.59-2.01-1.1-4.06-1.22-6.15
		c-0.19-3.52,0.91-7.68,4.34-9.37c2.94-1.46,6.55-0.48,9.41-2.29c0.73-0.47,1.34-1.08,1.83-1.79c0.49-0.71,0.78-1.62,1.41-2.23
		c1.16-1.12,3.19-0.58,4.55-0.2c2.19,0.6,4.37,1.26,6.54,1.93c0.63-0.88,1.22-1.73,1.76-2.54c-0.94-0.29-1.88-0.57-2.82-0.86
		c-2.36-0.73-4.76-1.67-7.24-1.92c-1.89-0.19-3.88,0.26-5.17,1.75c-1.25,1.46-1.57,3.21-3.59,3.81c-1.75,0.52-3.6,0.49-5.38,0.82
		c-1.89,0.34-3.61,1.17-5,2.51C788.46,325.77,787.61,330.33,788.13,334.54z"/>
	<path class="st4" d="M758.24,304.21c1.21,2.58,2.42,5.17,3.64,7.75c0.83,1.76,1.99,3.2,4.09,3.27c1.07,0.03,2.12-0.32,3.11-0.68
		c0.9-0.34,1.91-0.87,2.89-0.64c1.12,0.26,1.92,1.45,2.59,2.3c0.82,1.05,1.6,2.16,2.72,2.92c3.05,2.08,6.48-0.16,7.44-3.35
		c0.37-1.22,0.35-3.07,0.57-4.8c-0.92-0.5-1.82-1.05-2.7-1.64c-0.21,0.9-0.32,1.82-0.38,2.69c-0.09,1.53-0.08,4.22-1.88,4.85
		c-1.02,0.36-1.83-0.55-2.43-1.24c-1.65-1.91-3.01-4.41-5.78-4.73c-2.13-0.25-3.75,1.15-5.77,1.31c-1.05,0.08-1.38-0.71-1.78-1.55
		c-0.46-0.95-0.9-1.92-1.35-2.88c-0.87-1.86-1.75-3.72-2.62-5.58C759.83,302.81,759.04,303.48,758.24,304.21z"/>
	<path class="st7" d="M763.89,300.11c0.23,1.32,0.61,2.6,1.28,3.78c1.19,2.08,3.35,3.77,5.82,3.84c0.66,0.01,1.29-0.18,1.94-0.24
		c0.67-0.06,1.1,0.16,1.58,0.61c0.86,0.81,1.58,1.72,2.78,2.04c1.03,0.27,2.2,0.05,2.8-0.89c0.28-0.43,0.35-0.9,0.4-1.38
		c-0.6-0.44-1.19-0.88-1.77-1.33c-0.08,0.37-0.14,0.75-0.19,1.14c-0.06,0.41-0.1,0.59-0.51,0.58c-0.39-0.02-0.79-0.3-1.07-0.54
		c-0.73-0.64-1.3-1.45-2.2-1.89c-1.12-0.55-2.13-0.22-3.3-0.12c-2.07,0.18-3.84-1.4-4.72-3.14c-0.5-0.97-0.78-2.02-0.94-3.11
		C765.19,299.57,764.55,299.79,763.89,300.11z"/>
	<path class="st4" d="M728.49,345.69c0.03,2.77,0.98,5.34,2.32,7.72c0.54-1.31,1.42-2.56,2.56-3.75c-0.73-1.75-1.11-3.6-0.77-5.51
		c0.27-1.48,0.92-2.97,2.12-3.92c1.38-1.11,3.27-1.41,4.73-2.43c1.94-1.36,5.11-5.45,7.93-4.06c1.31,0.65,0.58,2.97,0.64,4.13
		c0.06,0.98,0.25,1.95,0.57,2.87c1.27-0.48,2.54-0.92,3.8-1.32c-0.39-1.32-0.27-2.7-0.3-4.23c-0.07-4.39-4.11-6.45-8.07-5.31
		c-1.94,0.56-3.48,1.87-4.99,3.16c-0.82,0.7-1.64,1.41-2.6,1.94c-0.85,0.46-1.78,0.73-2.65,1.15
		C730.23,337.85,728.45,341.89,728.49,345.69z"/>
	<path class="st7" d="M734.6,347.44c0.04,0.29,0.1,0.58,0.19,0.87c0.55-0.47,1.13-0.93,1.75-1.39c-0.04-0.3-0.06-0.6-0.05-0.9
		c0.03-0.81,0.24-1.74,0.93-2.25c0.68-0.5,1.63-0.59,2.43-0.79c0.92-0.23,1.75-0.57,2.48-1.2c0.3-0.26,0.57-0.55,0.85-0.83
		c0.22-0.21,0.52-0.58,0.83-0.64c0.6-0.12,0.75,0.94,0.84,1.34c0.04,0.19,0.08,0.38,0.11,0.58c0.62-0.28,1.25-0.54,1.88-0.8
		c-0.03-0.19-0.08-0.37-0.12-0.56c-0.23-0.93-0.68-1.9-1.59-2.34c-1.86-0.9-2.99,0.87-4.24,1.86c-0.65,0.51-1.5,0.64-2.28,0.82
		c-0.86,0.2-1.73,0.46-2.44,1.01C734.59,343.44,734.32,345.59,734.6,347.44z"/>
	<path class="st4" d="M525.88,368.26c0.7,0.67,1.43,1.35,2.18,2.03c0.94-1.06,2.11-1.89,3.58-2.27c3.17-0.83,5.75,1.85,8.35,3.19
		c1.29,0.67,2.73,1.18,4.21,1.13c1.71-0.07,3.18-0.96,4.84-1.21c4.41-0.66,0.76,6.61,0.03,8.08c-0.6,1.21-1.32,2.48-2.2,3.6
		c0.94,0.39,1.9,0.75,2.88,1.08c0.97-1.35,1.78-2.85,2.48-4.36c0.95-2.05,2.16-4.28,1.99-6.6c-0.14-1.93-1.16-3.82-3.04-4.53
		c-2.04-0.79-3.95,0.22-5.91,0.74c-1.92,0.51-3.5-0.3-5.11-1.29c-1.62-1.01-3.21-2.13-5.07-2.68c-1.97-0.57-4.03-0.3-5.87,0.56
		C527.89,366.36,526.8,367.23,525.88,368.26z"/>
	<path class="st7" d="M531.77,373.49c2-0.83,3.95-0.37,5.64,0.89c0.88,0.65,1.72,1.43,2.8,1.71c1.21,0.3,2.5,0.09,3.72,0.13
		c1.07,0.04,2.53,0.15,3.24,1.06c0.78,1,0.05,2.13-0.6,2.98c-0.48,0.63-1,1.21-1.58,1.72c-0.66-0.3-1.3-0.62-1.94-0.96
		c0.81-0.61,1.52-1.35,2.1-2.19c0.08-0.1,0.15-0.21,0.22-0.32c0.01-0.03,0.02-0.04,0.03-0.06c-0.2-0.07-0.41-0.12-0.61-0.15
		c-0.56-0.1-1.15-0.09-1.72-0.08c-1.22,0.01-2.48,0.1-3.66-0.28c-1.07-0.34-1.92-1.01-2.79-1.68c-0.78-0.59-1.59-1.18-2.6-1.21
		c-0.09,0-0.17,0-0.26,0.01L531.77,373.49z"/>
	<path class="st4" d="M497.69,330.68c0.39,2.59,1.28,5.05,3.09,7.13c1.3,1.49,3.08,2.71,5.02,3.17c2.12,0.5,4.1,0.01,6.09-0.74
		c0.98-0.37,2-0.83,3.05-0.96c1.18-0.14,2.04,0.38,3.07,0.87c1.95,0.94,4.14,1.17,6.22,0.47c3.99-1.35,6.29-5.82,5.02-9.87
		c-0.49-1.55-1.5-2.94-1.29-4.42c-0.84-0.12-1.88-0.12-3.09-0.05c-0.02,0.39-0.01,0.81,0.04,1.25c0.24,1.98,1.71,3.58,1.68,5.61
		c-0.02,1.89-1.1,3.68-2.84,4.46c-1.99,0.88-3.59,0.21-5.42-0.65c-1.84-0.86-3.69-0.82-5.6-0.2c-1.81,0.58-3.66,1.67-5.63,1.43
		c-1.78-0.22-3.35-1.39-4.44-2.78c-1.18-1.5-1.78-3.27-2.06-5.12C499.63,330.42,498.66,330.56,497.69,330.68z"/>
	<path class="st7" d="M504.85,329.59c0.46,1.26,1.09,2.45,1.94,3.46c1.53,1.82,3.68,1.83,5.59,0.64c0.86-0.54,1.64-1.22,2.56-1.65
		c0.95-0.45,1.83-0.26,2.81-0.03c1.01,0.24,2.11,0.53,3.12,0.17c1.04-0.36,1.71-1.31,1.81-2.39c0.11-1.15-0.4-2.15-0.73-3.21
		c-0.63,0.08-1.28,0.18-1.95,0.28c0.14,0.53,0.34,1.05,0.5,1.6c0.16,0.51,0.43,1.34-0.09,1.74c-0.38,0.29-1,0.13-1.43,0.05
		c-1.2-0.25-2.39-0.66-3.64-0.43c-1.11,0.2-2.07,0.84-2.98,1.47c-0.77,0.54-1.79,1.42-2.81,1.27c-1.36-0.2-2.18-2.13-2.64-3.22
		c-0.01-0.04-0.03-0.07-0.04-0.11C506.2,329.35,505.53,329.47,504.85,329.59z"/>
	<path class="st7" d="M460.91,336.75c0.47,0.91,0.97,1.82,1.5,2.72c2.52-0.41,5.2-0.29,7.46,0.24c2.04,0.48,3.39,1.59,4.79,3.08
		c1.27,1.35,2.57,2.65,4.35,3.3c1.93,0.71,4.25,0.27,6.06,1.27c1.31,0.72,1.93,2.26,2.01,3.69c0.05,0.78-0.06,1.52-0.27,2.21
		c1.01,0.09,2.03,0.17,3.04,0.23c0.04-0.14,0.07-0.28,0.09-0.42c0.52-3.05-0.46-6.55-3.22-8.22c-1.64-0.99-3.51-0.98-5.34-1.26
		c-1.9-0.29-3.07-1.3-4.35-2.65c-1.22-1.3-2.45-2.57-4.08-3.33c-1.8-0.84-3.77-1.15-5.74-1.24
		C465.13,336.28,462.98,336.35,460.91,336.75z"/>
	<path class="st4" d="M458.89,332.39c0.26,0.61,0.53,1.23,0.82,1.86c1.64-0.31,3.3-0.52,4.96-0.58c2.42-0.08,4.83,0.16,7.13,0.9
		c2.13,0.67,4,1.83,5.83,3.08c1.79,1.22,3.54,2.51,5.52,3.41c1.88,0.86,3.8,1.17,5.84,1.39c2.03,0.22,4.41,0.46,5.66,2.31
		c1.14,1.68,1.01,3.98,0.6,5.88c-0.22,1.04-0.52,2.07-0.9,3.07c0.71,0.03,1.42,0.05,2.12,0.07h0.01c0.48-1.4,0.81-2.85,0.97-4.3
		c0.22-2,0-4.18-1.17-5.88c-1.24-1.79-3.26-2.58-5.35-2.9c-2.37-0.37-4.73-0.42-6.95-1.45c-2.15-0.99-4.04-2.47-6-3.77
		c-4.29-2.85-9-4.1-14.15-3.76C462.16,331.83,460.52,332.06,458.89,332.39z"/>
	<path class="st1" d="M583.78,742.5c0,4.84,0.73,10.98,1.89,17.77c2.08,12.12,5.55,26.29,8.78,38.77
		c3.2,12.34,6.17,23.03,7.33,28.46c3,14,4,56,11,73s13,26,16,28c2.5,1.67,7.88,9.65,9.56,12.24c0.33,0.5,0.52,0.8,0.52,0.81
		c0,0,0.07,0,0.2,0l21.02-0.04c1.93,0,3.01-2.23,1.82-3.75c-1.96-2.5-4.49-5.63-6.13-7.26c-3-3-7-6-10-10s-11-31-14-34s-5-21-5-27
		s2-15-2-27s-13-25-15-30s-9-62-8-65s6-4,9-8c2.64-3.53,10.71-18.69,17.39-21.57c3.93-10.07,9.94-26.09,10.61-31.43c1-8-1-21,9-32
		s33-32,18-38c0,0-18,8-25,28s-8,39-21,50S583.78,720.5,583.78,742.5z"/>
	<path class="st1" d="M472.28,927c-2.98,12.91-6.63,10.93-6.99,14.92l95.53-0.21c0.05-0.08,0.08-0.17,0.11-0.26
		c1.08-3.85,5.71-20.29,8.35-26.45c0.86-2.01,1.23-6.15,1.12-11.34c-0.22-11.35-2.68-27.75-7.16-37.85
		c-0.61-1.4-1.27-2.68-1.96-3.81c-8-13-23-50-24-62c-0.89-10.69-0.19-44.38-0.03-51.62c0.01-0.71-0.63-1.26-1.33-1.12
		c-3.71,0.73-14.64,6.74-22.64,5.74c-8-1-25.74-15.91-45.66-17.32c-1.42-0.1-1.61,2.01-0.2,2.21c30.08,4.27,35.18,21.83,34.86,23.11
		c-2,8,9,39-1,71c-5.7,18.23-27.57,47.98-44.81,72.2C453.06,908.99,475.28,914,472.28,927z"/>
	<path class="st1" d="M492.28,942c-0.05,0.66,57.63-0.04,68,0c0.41,0,0.81,0.34,1,0l-68.99-0.08
		C492.28,941.94,492.28,941.97,492.28,942z"/>
	<path class="st3" d="M621.19,935.78c3.67,0.42,7.33,0.61,11,0.59c-2.54-3.52-4.92-7.38-4.92-7.38s10,3,13,8
		c2.01,3.35,1.17,4.47-0.3,4.84c-0.6,0.75-1.48,1.29-2.66,1.37c-5.53,0.34-11.02,0.2-16.52-0.43
		C616.34,942.26,616.7,935.27,621.19,935.78z"/>
	<path class="st3" d="M557.6,957.58c1.38,5.72,8.92,11.08,15.69,9.04c2.28-0.69,5.35,0.5,8.31,0.93c3.7,0.54,7.21,0.55,10.95,0.21
		c4.04-0.37,7.72-1.29,11.5-2.67c0.29-0.11,3.29-1.22,4.54-1.88c0.92,0.17,2.29,0.32,2.64,0.39c2.23,0.45,4.67,0.86,6.97,1.04
		c3.5,0.27,7.37,0.1,10.81-0.47c7.99-1.35,13.74-5.4,16.88-12.06c2.79-5.9-2.09-13.02-8.44-14.88c-5.53-1.62-10.78,0.26-14.17,3.89
		c-0.6,0.03-1.37,0.04-1.96,0.05c-1.98-0.02-3.62-0.44-5.51-0.83c-7.08-1.45-12.8-1.08-19.28,1.84c-3.97,1.79-7.2,2.74-11.7,2.08
		c-5.9-0.87-11.13-2.49-17.11-0.69C560.93,945.62,555.95,950.76,557.6,957.58z M620.8,944.76c0.36-1.18,0.94-2.09,1.73-2.76
		C621.85,942.85,621.26,943.77,620.8,944.76z"/>
	<path class="st3" d="M284.35,930.88c0.16,0.01,0.32,0.03,0.48,0.04c-0.23-1.23-0.43-2.51-0.57-3.88
		c-1.34-12.65,4.94-25.85,12.02-27.04c15.25-2.56,28.51-9.92,43.82-10c15.53-0.08,30.55,3.81,45.75,10.13
		c14.04,5.84,27.68,4.3,41.9,3.06c14.49-1.26,28.82,2.61,43.22,5.49c7.01,1.4,12.7,13.32,12.3,28.11
		c-0.37,13.51-6.34,25.72-13.11,25.19c-2.7,1.85-6.05,2.89-9.76,3.03c-19.89,0.72-39.94,2.25-59.84,2
		c-10.25-0.13-20.59-3.47-29.71-4.64c-9.6-1.24-19.32-0.91-28.95-0.25c-9.72,0.66-9.85-2.29-19.6-2.12c-9.82,0.17-4.24-14.16-14-15
		C288.25,943.28,264.61,929.32,284.35,930.88z"/>
	<path class="st3" d="M678.7,937.95c3.58-13.95,5.46-18.95,9.58-16.95c6.09,2.96,12.55,14.53,18.96,12.66
		c7.06-2.06,12.87-0.62,19.94-0.14c7.14,0.49,13.64-2.1,20.68-2.6c3.42-0.24,6.59,0.19,9.98,0.64c2.07,0.28,6.2,1.39,8.16-0.19
		c3.6-2.9,8.5-3.27,11.75,0.56c2.8,3.31,3.1,9.8-0.52,12.72c-7.5,6.05-14.78,5.47-23.62,4.41c-8-0.96-15.84,2.49-23.92,2.55
		c-3.9,0.03-7.58-0.76-11.43-1.22c-3.59-0.43-6.29,0.66-9.73,1.51c-8.19,2.02-16.87,1.13-24.52-2.6
		C679.92,947.31,677.41,942.97,678.7,937.95z"/>
	<path class="st3" d="M557.28,955c-0.21-0.74-0.13-2.09-0.34-2.83c-0.23-1.57-0.07-3.09,0.5-4.57c0.14-0.59,0.33-1.15,0.6-1.7
		c0.57-1.19,1.46-1.84,2.25-2.91c0.7-1.02,1.33-2.37,2.42-2.9c0.95-0.68,2.03-1.09,3.22-1.23l2.3-0.05
		c1.22,0.08,2.33,0.46,3.33,1.13c0.77,0.3,1.41,0.77,1.93,1.42c0.93,0.75,1.62,1.7,2.06,2.85c0.21,0.74,0.42,1.48,0.63,2.21
		c0.07,0.47,0.09,0.93,0.09,1.39c0.16,0.66,0.24,1.34,0.19,2.03c0.12,1.17-0.05,2.31-0.52,3.42c-0.41,1.19-1.08,2.18-2,2.98
		c-0.75,0.93-1.7,1.62-2.85,2.06c-0.15,0.06-0.3,0.1-0.45,0.15c-0.38,0.24-0.79,0.46-1.23,0.64c-1.08,0.51-2.2,0.73-3.36,0.66
		c-1.17,0.12-2.31-0.05-3.42-0.52C560.45,958.29,558.14,957.28,557.28,955z"/>
	<path class="st3" d="M108.28,932c17.44-0.38,25.33-8.03,42-10c9.11-1.08,14.82-4.4,24-4c9.26,0.4,13.97,2.05,23,4
		c2.94,0.64,11,1,14,0s18-1,26-7c3.4-2.55-11.2,8.13-6.98,7.74c8.48-0.78,16.77-3.16,25.08-4.88c17.43-3.61,35.06-4.18,51.04,4.69
		c6.38,3.54,7.79,12.82,4.02,18.66c-4.18,6.47-12.27,7.57-18.66,4.02c-11.48-6.37-26.7-1.88-39.65,0.98
		c-8.6,1.9-17.25,3.44-26.09,3.62c-8.94,0.18-17.76-1.8-26.44-3.68c-15.58-3.37-30.53-3.61-46.3-1.44
		c-17.23,2.37-33.4,0.58-51.47,0.98c-7.56,0.16-13.58-4.49-13.19-8.59C89.1,932.38,100.7,932.17,108.28,932z"/>
	<path class="st9" d="M108.28,933c17.44-0.38,25.33-8.03,42-10c9.11-1.08,14.82-4.4,24-4c9.26,0.4,13.97,2.05,23,4
		c2.94,0.64,11,1,14,0c1.81-0.6,7.96-0.84,14.32-2.25c3.89-1.76,7.58-3.48,10.68-4.75c3.96-1.62,15.87-3.46,20-5
		c10.86-4.06,8.98-6.98,20.37-9.08c13.67-2.52,27.48-5.93,38.13-15.42c7.45-6.63,5.99-11.88,5.83-15.76c-0.03-0.81,0-1.55,0.17-2.24
		c2.3-9.33,6.94-17.36,6.28-27.25c-0.64-9.52-4.22-18.54-5.07-28.01c-0.75-8.43,0.64-17.08,2.25-25.33
		c3.64-18.75,8.95-37.32,14.8-55.49c10.2-31.73,6.75-66.9,21.04-97.31c7.23-15.39,16.67-29.2,25.88-43.4
		c9.94-15.33,16.93-34.76,30.86-47.06c17.51-15.45,38.46-23.11,58.38-34.45c16.24-9.25,29.15-22.96,42.74-35.54
		c13.06-12.08,24.87-24.13,34.07-39.53c4.27-7.14,9.05-14.54,11.01-22.73c1.82-7.59-1.25-14.36-1.25-21.91
		c0-0.99,0.23-2.21,0.52-3.49c-4.44-0.02-8.63-0.79-12.55-2.12c-0.98-0.33-1.94-0.69-2.88-1.08c-0.64-0.26-1.26-0.54-1.88-0.83
		c-0.66-0.3-1.3-0.62-1.94-0.96v0c-3.34-1.72-6.44-3.77-9.29-5.96l-1.99-1.57c-1.29-1.05-2.53-2.13-3.71-3.2
		c-0.75-0.68-1.48-1.36-2.18-2.03c-6.32-6.05-10.77-11.6-13.1-12.76c-2.87-1.44-9.18-1.5-16.3-1.72h-0.01
		c-0.7-0.02-1.41-0.04-2.12-0.07c-1.49-0.06-2.99-0.12-4.5-0.22c-1.01-0.06-2.03-0.14-3.04-0.23c-4.73-0.43-9.31-1.21-13.03-2.76
		c-4.88-2.03-8.61-6.39-11.37-11.03c-0.53-0.9-1.03-1.81-1.5-2.72c-0.43-0.84-0.83-1.68-1.2-2.5c-0.29-0.63-0.56-1.25-0.82-1.86
		c-1.74-4.2-2.72-7.73-3.11-8.89c-1-3-6-9-4-10s12,13,27,17c5.21,1.39,11.99,1.09,18.91,0.18c0.97-0.12,1.94-0.26,2.91-0.4
		c1.42-0.22,2.85-0.45,4.25-0.69c0.68-0.12,1.35-0.24,2.02-0.36c4.79-0.86,9.33-1.78,13.13-2.37c0.67-0.1,1.32-0.2,1.95-0.28
		c1.05-0.14,2.03-0.24,2.92-0.3c1.21-0.07,2.25-0.07,3.09,0.05c0.3,0.04,0.57,0.1,0.82,0.17c7,2,12,15,14,18
		c1.23,1.84,8.88,2.93,14.6,3.5c-1.2-6.25-4.77-15.21-5.6-23.5c-1-10-22-38-32-51c-8.16-10.61-9.57-25.59-12.86-38.16
		c-3.81-14.56-12.36-21.74-22.71-31.99c-2.96-2.93-13.92-12.53-7.43-16.85c3-2,20-2,33,10c10.24,9.45,18.88,20.9,27.21,32.01
		c3.61,4.81,6.7,10.26,10.54,14.85c4.92,5.89,12.17,9.35,18.45,13.52c6.24,4.15,12.94,7.93,18.79,12.61
		c3.24,2.6,6.49,6.88,8.91,9.83c0.42,0.51,0.81,0.97,1.17,1.39c0.79,0.9,1.44,1.54,1.92,1.78c2,1,4-9,7-5s13,7,18,6s8-9,10-10
		s7,9,9,7c0.12-0.12,0.3-0.38,0.51-0.75c0.37-0.64,0.89-1.66,1.51-2.93c0.18-0.38,0.38-0.78,0.58-1.21c0.19-0.4,0.39-0.81,0.59-1.24
		c0.11-0.24,0.22-0.47,0.34-0.72c5.38-11.43,15.7-34.14,25.46-46.15c13-16,35-28,40-31s12-12,14-15s15-11,19-7s-7,15-10,17
		c-3.06,2.04-4.89,7.55-6.49,10.64c-2.74,5.3-5.42,10.63-8.36,15.82c-6.94,12.23-3.15,23.29-3.15,36.54
		c0,7.19-1.42,14.24-2.24,21.34c-0.94,8.15,2.24,15.59,2.24,23.66c0,12.23-8.12,20.2-3,33c1.29,3.22-1.15,5.2-3.05,7.53
		c3.37-0.48,7.85-1.32,9.05-2.53c2-2,4-6,8-7s13-3,17-8c2.55-3.19,9.18-12.5,15.46-18.29c0.8-0.73,1.59-1.4,2.36-2
		c1.14-0.89,2.24-1.61,3.29-2.1c0.66-0.32,1.3-0.54,1.9-0.65c0.71-0.14,1.38-0.13,1.99,0.04c3.38,0.96,6.98,4.02,10.94,7.04
		c0.58,0.45,1.17,0.89,1.77,1.33c0.69,0.5,1.39,1,2.1,1.47c0.88,0.59,1.78,1.14,2.7,1.64c2.37,1.3,4.86,2.26,7.49,2.52
		c10,1,36-18,39-17s-7,11-7,13c0,0.63-1.49,3.46-3.95,7.12c-0.54,0.81-1.13,1.66-1.76,2.54c-0.36,0.49-0.72,0.98-1.1,1.49
		c-0.4,0.54-0.82,1.09-1.25,1.64c-5.39,6.89-12.71,14.31-19.53,16.1c-0.14,0.04-0.27,0.08-0.41,0.11c-0.53,0.12-1.06,0.23-1.58,0.32
		c-1.02,0.2-2.02,0.34-2.99,0.44c-1.06,0.11-2.1,0.17-3.11,0.19c-9.05,0.17-16-2.95-22.32-2.95c-3.1,0-8.59,1.05-14.39,2.92
		c-1.26,0.4-2.53,0.84-3.8,1.32c-0.58,0.22-1.17,0.45-1.75,0.69c-0.63,0.26-1.26,0.52-1.88,0.8c-3.09,1.37-6.01,2.95-8.42,4.69
		c-0.62,0.46-1.2,0.92-1.75,1.39c-0.51,0.44-0.98,0.89-1.42,1.35c-1.14,1.19-2.02,2.44-2.56,3.75v0.01
		c-0.01,0.03-0.02,0.05-0.03,0.08c-3.24,8.09-10.4,18.79-15.66,22.59c0.41,0.27,0.66,0.41,0.66,0.41s-0.14,1.54-0.47,4.09
		c-0.2,1.53-0.47,3.43-0.82,5.57c-0.62,3.85-1.5,8.51-2.71,13.34c-3,12-4,9-11,31c-5.91,18.59-6.08,39.59-6.4,58.92
		c-0.4,24.19,3.97,47.9,6.85,71.84c1.44,11.92,2.33,22.34,1.55,26.24c-2.74,13.68-6.47,27.47-10.98,40.67
		c-2.71,7.93-6,14.69-6.88,23.22c-1.09,10.6-2.64,21.08-3.78,31.62c-1.23,11.34,0.4,22.75,1.35,34.04
		c1.58,18.81,2.22,38.17,8.66,56.11c3.07,8.55,7.86,16.29,10.88,24.88c3.26,9.28,5.5,18.88,8.29,28.31c1.12,3.82,2,6.77,2.46,8.14
		c4.44,13.33,2.08,27.76,6.92,40.98c4.18,11.4,12.28,20.57,20.44,29.32c9.71,10.4,23.96,14.55,34.64,23.71
		c1.35,1.15,2.35,2.38,3.11,3.61c2.67,3.35,2.9,9.67-0.65,12.54c-7.5,6.05-14.78,5.47-23.62,4.41c-8-0.96-15.84,2.49-23.92,2.55
		c-3.9,0.03-7.58-0.76-11.43-1.22c-3.59-0.43-6.29,0.66-9.73,1.51c-8.19,2.02-16.87,1.13-24.52-2.6c-4.09-1.99-6.61-6.33-5.31-11.36
		c0.36-1.41,0.7-2.7,1.03-3.92c-2.38-6.66-5.36-15.18-5.95-17.52c-0.51-2.06-0.76-11.78-1.02-21.83
		c-0.32-12.8-0.32-24.23-5.33-36.21c-4.75-11.36-11.59-22.16-15.74-33.52c-5.21-14.23-5.82-29.58-5.58-44.58
		c0.12-7.72,0.52-15.42,0.63-23.14c0.09-7.02-2.14-12.17-4.34-18.71c-1.53-4.55-1.22-8.58-1.74-13.2
		c-0.6-5.37-3.33-16.87-9.88-17.81c-0.83-0.12-1.71,0.05-2.61,0.43c-0.21,0.09-0.42,0.2-0.63,0.31
		c-6.55,3.51-14.2,17.84-16.76,21.26c-1.61,2.14-3.78,3.42-5.62,4.61c-1.64,1.4-3.04,2.97-3.47,5.38
		c0.28,10.68,6.26,58.45,8.09,63.01c1.52,3.81,7.11,12.27,11.45,21.39c0.91,1.8,1.73,3.63,2.41,5.53c0.41,1.03,0.79,2.06,1.14,3.09
		c4,12,2,21,2,27c0,2.51,0.35,7.12,0.98,11.86c1.17,6.16,3.3,12.09,5.66,17.93c0.7,1.49,1.49,3.44,2.34,5.64
		c0.45,1.08,0.87,2.21,1.26,3.37c3.27,8.87,6.94,19.78,8.76,22.2c0,0,0,0.01,0.01,0.01c0.39,0.52,0.8,1.02,1.22,1.51
		c2.81,3.26,6.17,5.87,8.77,8.48c1.64,1.64,4.17,4.76,6.13,7.26c1.19,1.52,0.11,3.74-1.82,3.75l-16.15,0.03
		c2.53,3.02,3.63,7.01,1.96,10.56c-3.15,6.66-8.9,10.72-16.89,12.06c-3.44,0.58-7.31,0.75-10.81,0.47c-2.3-0.18-4.74-0.59-6.97-1.04
		c-0.35-0.07-1.73-0.22-2.64-0.39c-1.25,0.67-4.25,1.78-4.54,1.88c-3.78,1.38-7.46,2.3-11.5,2.67c-3.74,0.34-7.25,0.34-10.95-0.21
		c-2.96-0.44-6.03-1.62-8.31-0.93c-6.77,2.04-14.31-3.32-15.69-9.04c-0.21-0.89-0.31-1.74-0.31-2.57c0,0,0-0.01-0.01-0.01
		c-0.21-0.74-0.13-2.09-0.34-2.83c-0.23-1.57-0.07-3.09,0.5-4.57c0.14-0.59,0.33-1.15,0.6-1.7c0.38-0.8,0.91-1.35,1.45-1.95
		c-5.47-2.02-11.01-1.9-16.85-1.24c-8.01,0.91-15.93,1.84-24,1.65c-12.22-0.29-24.41,2.43-36.5,1.56
		c-2.09,9.4-6.8,16.47-11.99,16.06c-2.7,1.85-6.05,2.89-9.76,3.03c-19.89,0.72-39.94,2.25-59.84,2
		c-10.25-0.13-20.59-3.47-29.71-4.64c-9.6-1.24-19.32-0.91-28.95-0.25c-9.72,0.66-9.85-2.29-19.6-2.12c-9.82,0.17-4.24-14.16-14-15
		c-0.45-0.04-0.89-0.08-1.34-0.13c-4.37,3.06-10.26,3.08-15.15,0.36c-2.86-1.59-5.95-2.5-9.18-2.93l-10.66,0.02
		c-6.68,0.73-13.51,2.5-19.8,3.89c-8.6,1.9-17.25,3.44-26.09,3.62c-8.94,0.18-17.76-1.8-26.44-3.68
		c-15.58-3.37-30.53-3.61-46.3-1.44c-17.23,2.37-33.4,0.58-51.47,0.98c-7.56,0.16-13.58-4.49-13.19-8.59
		C89.1,933.38,100.7,933.17,108.28,933z"/>
</g>
</svg>
