<?xml version="1.0" encoding="utf-8"?>
<!-- Generator: Adobe Illustrator 23.0.4, SVG Export Plug-In . SVG Version: 6.00 Build 0)  -->
<svg version="1.1" id="Layer_1" xmlns="http://www.w3.org/2000/svg" xmlns:xlink="http://www.w3.org/1999/xlink" x="0px" y="0px"
	 viewBox="0 0 1600 1200.84" style="enable-background:new 0 0 1600 1200.84;" xml:space="preserve">
<style type="text/css">
	.st0{clip-path:url(#SVGID_2_);fill:none;}
	.st1{clip-path:url(#SVGID_2_);fill:#29337C;}
	.st2{clip-path:url(#SVGID_2_);fill:#B45846;}
	.st3{clip-path:url(#SVGID_2_);fill:#5E7775;}
	.st4{clip-path:url(#SVGID_2_);}
	.st5{fill:#F0EA9B;}
	.st6{fill:#9E3223;}
	.st7{fill:#FF9D6C;}
	.st8{clip-path:url(#SVGID_2_);fill:#F0EA9B;}
	.st9{clip-path:url(#SVGID_2_);fill:#9E3223;}
	.st10{clip-path:url(#SVGID_2_);fill:#FF9D6C;}
	.st11{clip-path:url(#SVGID_2_);fill:#000B8C;}
</style>
<g>
	<defs>
		<rect id="SVGID_1_" width="1600" height="1200.84"/>
	</defs>
	<clipPath id="SVGID_2_">
		<use xlink:href="#SVGID_1_"  style="overflow:visible;"/>
	</clipPath>
	<rect x="-810.24" y="113.68" class="st0" width="2468.24" height="1104.03"/>
	<rect x="-919.77" y="-51.12" class="st1" width="2681.71" height="1383.94"/>
	<rect x="-810.24" y="113.68" class="st0" width="2468.24" height="1104.03"/>
	<path class="st2" d="M484.78,851.51c-15.21,22.79-36.46,34.39-55.18,34.39c-18.81,0-40.44-11.49-55.78-34.25"/>
	<rect x="-810.24" y="113.68" class="st0" width="2468.24" height="1104.03"/>
	<path class="st3" d="M1123.36,104.74c-8.72,1.7-136.84,206.1-234.61,222.45c-223.2-14.66-346.35,164.92-361.52,192.3
		c-27.87,50.32-37.8,128.23-37.8,128.23s-40.07,28.66-59.71,28.66s-60.02-28.66-60.02-28.66s-24.12-75.58-51.99-125.9
		S17.14,105.18-1.98,101.46L-35.53-74.33L1600-114.88l145.05,165.56L1123.36,104.74z"/>
	<rect x="-810.24" y="113.68" class="st0" width="2468.24" height="1104.03"/>
	<g class="st4">
		<path class="st5" d="M472.54,452.29c0,0-21.7,22.72-48.47,22.72s-48.47-22.72-48.47-22.72s21.7-22.72,48.47-22.72
			S472.54,452.29,472.54,452.29z"/>
		<path class="st6" d="M422.45,434.34c0-1.63-1.89-2.54-3.17-1.52c-4.31,3.48-7.33,11.52-7.33,20.87c0,9.36,3.02,17.4,7.33,20.87
			c1.27,1.03,3.17,0.12,3.17-1.52c0,0-1.24-8.57-1.24-19.36S422.45,434.34,422.45,434.34z"/>
		<path class="st6" d="M425.68,473.05c0,1.63,1.89,2.54,3.17,1.52c4.31-3.48,7.33-11.52,7.33-20.87c0-9.36-3.02-17.4-7.33-20.87
			c-1.27-1.03-3.17-0.12-3.17,1.52c0,0,1.24,8.57,1.24,19.36S425.68,473.05,425.68,473.05z"/>
		<path class="st7" d="M472.54,452.65c0.5,0.27,0.95-0.43,0.5-0.78c-8.37-6.33-22.98-22.3-48.97-22.3s-40.61,15.97-48.97,22.3
			c-0.46,0.35-0.01,1.05,0.5,0.78c9.8-5.23,32.81-9.43,48.47-9.43S462.74,447.42,472.54,452.65z"/>
		<path class="st7" d="M375.59,452.6c-0.5-0.27-0.95,0.43-0.5,0.78c8.37,6.33,22.98,22.3,48.97,22.3s40.61-15.97,48.97-22.3
			c0.46-0.35,0.01-1.05-0.5-0.78c-9.8,5.23-32.81,19.5-48.47,19.5S385.39,457.83,375.59,452.6z"/>
	</g>
	<rect x="-810.24" y="113.68" class="st0" width="2468.24" height="1104.03"/>
	<g class="st4">
		<path class="st5" d="M472.54,533.66c0,0-21.7,22.72-48.47,22.72s-48.47-22.72-48.47-22.72s21.7-22.72,48.47-22.72
			S472.54,533.66,472.54,533.66z"/>
		<path class="st6" d="M422.45,515.7c0-1.63-1.89-2.54-3.17-1.52c-4.31,3.48-7.33,11.52-7.33,20.87c0,9.36,3.02,17.4,7.33,20.87
			c1.27,1.03,3.17,0.12,3.17-1.52c0,0-1.24-8.57-1.24-19.36S422.45,515.7,422.45,515.7z"/>
		<path class="st6" d="M425.68,554.42c0,1.63,1.89,2.54,3.17,1.52c4.31-3.48,7.33-11.52,7.33-20.87c0-9.35-3.02-17.4-7.33-20.87
			c-1.27-1.03-3.17-0.12-3.17,1.52c0,0,1.24,8.57,1.24,19.36C426.92,545.87,425.68,554.42,425.68,554.42z"/>
		<path class="st7" d="M472.54,534.02c0.5,0.27,0.95-0.43,0.5-0.78c-8.37-6.33-22.98-22.3-48.97-22.3s-40.61,15.97-48.97,22.3
			c-0.46,0.35-0.01,1.05,0.5,0.78c9.8-5.23,32.81-14.93,48.47-14.93S462.74,528.79,472.54,534.02z"/>
		<path class="st7" d="M375.59,533.97c-0.5-0.27-0.95,0.43-0.5,0.78c8.37,6.33,22.98,22.3,48.97,22.3s40.61-15.97,48.97-22.3
			c0.46-0.35,0.01-1.05-0.5-0.78c-9.8,5.23-32.81,19.5-48.47,19.5S385.39,539.2,375.59,533.97z"/>
	</g>
	<rect x="-810.24" y="113.68" class="st0" width="2468.24" height="1104.03"/>
	<path class="st8" d="M489.75,649.74c0,0,9.59-21.85,28.7-28.8c19.11-6.95,40.5,3.62,40.5,3.62s-9.59,21.85-28.7,28.8
		C511.14,660.31,489.75,649.74,489.75,649.74z"/>
	<rect x="-810.24" y="113.68" class="st0" width="2468.24" height="1104.03"/>
	<path class="st9" d="M530.17,649.54c0.42,1.17,2.01,1.32,2.65,0.26c2.17-3.6,2.24-10.12-0.19-16.8s-6.67-11.63-10.65-13
		c-1.17-0.4-2.29,0.74-1.87,1.9c0,0,3.11,5.79,5.92,13.49C528.83,643.1,530.17,649.54,530.17,649.54z"/>
	<rect x="-810.24" y="113.68" class="st0" width="2468.24" height="1104.03"/>
	<path class="st9" d="M517.8,622.75c-0.42-1.17-2.01-1.32-2.65-0.26c-2.17,3.6-2.24,10.12,0.19,16.8s6.67,11.63,10.65,13
		c1.17,0.4,2.29-0.74,1.87-1.9c0,0-3.11-5.79-5.92-13.49C519.14,629.18,517.8,622.75,517.8,622.75z"/>
	<rect x="-810.24" y="113.68" class="st0" width="2468.24" height="1104.03"/>
	<path class="st10" d="M489.66,649.48c-0.43-0.06-0.57,0.56-0.15,0.69c7.62,2.34,22.19,9.94,40.74,3.19s24.83-21.95,29.16-28.63
		c0.24-0.36-0.27-0.75-0.56-0.43c-5.64,6.28-18.35,22.44-29.53,26.51C518.14,654.87,498.01,650.67,489.66,649.48z"/>
	<rect x="-810.24" y="113.68" class="st0" width="2468.24" height="1104.03"/>
	<path class="st10" d="M558.86,624.33c0.43,0.06,0.57-0.56,0.15-0.69c-7.62-2.34-22.19-9.94-40.74-3.19s-24.83,21.95-29.16,28.63
		c-0.24,0.36,0.27,0.75,0.56,0.43c5.64-6.28,19.88-19.13,31.06-23.2C531.91,622.25,550.51,623.14,558.86,624.33z"/>
	<rect x="-810.24" y="113.68" class="st0" width="2468.24" height="1104.03"/>
	<path class="st8" d="M300.73,624.55c0,0,21.39-10.57,40.5-3.62s28.7,28.8,28.7,28.8s-21.39,10.57-40.5,3.62
		S300.73,624.55,300.73,624.55z"/>
	<rect x="-810.24" y="113.68" class="st0" width="2468.24" height="1104.03"/>
	<path class="st9" d="M331.82,650.38c-0.42,1.17,0.69,2.31,1.87,1.9c3.98-1.36,8.22-6.32,10.65-13s2.37-13.2,0.19-16.8
		c-0.64-1.06-2.23-0.91-2.65,0.26c0,0-1.34,6.44-4.14,14.14C334.93,644.59,331.82,650.38,331.82,650.38z"/>
	<rect x="-810.24" y="113.68" class="st0" width="2468.24" height="1104.03"/>
	<path class="st9" d="M339.57,621.91c0.42-1.17-0.69-2.31-1.87-1.9c-3.98,1.36-8.22,6.32-10.65,13s-2.37,13.2-0.19,16.8
		c0.64,1.06,2.23,0.91,2.65-0.26c0,0,1.34-6.44,4.14-14.14C336.45,627.7,339.57,621.91,339.57,621.91z"/>
	<rect x="-810.24" y="113.68" class="st0" width="2468.24" height="1104.03"/>
	<path class="st10" d="M300.82,624.3c-0.29-0.32-0.79,0.06-0.56,0.43c4.33,6.69,10.61,21.88,29.16,28.63s33.13-0.85,40.74-3.19
		c0.42-0.13,0.28-0.75-0.15-0.69c-8.35,1.19-28.48,5.39-39.66,1.32C319.18,646.74,306.46,630.58,300.82,624.3z"/>
	<rect x="-810.24" y="113.68" class="st0" width="2468.24" height="1104.03"/>
	<path class="st10" d="M370,649.52c0.29,0.32,0.79-0.06,0.56-0.43c-4.33-6.69-10.61-21.88-29.16-28.63
		c-18.55-6.75-33.13,0.85-40.74,3.19c-0.42,0.13-0.28,0.75,0.15,0.69c8.35-1.19,27.67-1.57,38.85,2.5
		C350.84,630.9,364.37,643.24,370,649.52z"/>
	<rect x="-810.24" y="113.68" class="st0" width="2468.24" height="1104.03"/>
	<path class="st8" d="M-490.94,80.79c52.19,37.58,108.2,72.83,165.27,102.83c44,23.13,89.17,50.78,111.64,95.13
		c6,11.84,10.18,24.56,16.62,36.17c23.06,41.57,70.47,62.32,115.01,78.94c22.21,8.29,45.27,16.71,62.23,33.27
		c15.53,15.17,24.39,35.66,35.21,54.48c33.83,58.79,91.62,102.78,152.81,129.46c37.29,16.26,72.35,35.45,105.54,59.05
		c13.62,9.68,22.43,24.47,29.76,39.15c7.43,14.88,14.9,27.83,26.82,39.77c9.76,9.78,21.01,18.25,33.24,24.71
		c5.39,2.85,14.68,8.52,21.21,7.29c0.4-0.07,0.81-0.15,1.12-0.43c2.99-2.65-35.19-40.34-38.15-43.66
		c-9.59-10.74-17.19-21.18-23.11-34.37c-12.46-27.78-27.22-55.75-50.31-76.23c-12.13-10.76-26.32-17.12-40.37-25.11
		c-26.35-14.98-52.8-34.04-66.42-62.19c-17.43-36.02-21.24-76.94-41.3-112.7c-20.37-36.31-51.79-68.25-91.65-80.28
		c-21.87-6.6-45.93-7.23-65.58-18.88c-26.3-15.59-38.15-46.59-51.99-73.85c-29.1-57.3-74.78-105.91-129.63-139.3
		c-61.45-37.4-115.21-40.71-185.36-38.36c-30.92,1.04-61.79,3.04-92.64,5.08C-490.97,80.77-490.96,80.78-490.94,80.79z"/>
	<rect x="-810.24" y="113.68" class="st0" width="2468.24" height="1104.03"/>
	<path class="st2" d="M-383.85,730.5c9.05,2.05,18.2,3.69,27.47,4.82c44.17,5.36,88.83-1.31,132.72-8.58
		c83.52-13.83,170.07-29.79,251.75-7.52c56.51,15.41,104.92,32.53,163.93,32.46c16.23-0.02,32.85-0.73,48.56,4.04
		c17.94,5.45,30.16,17.73,45.43,27.59c12.68,8.19,29.3,12.43,44.03,15.22c13.22,2.5,26.8,3.76,40.25,3.36
		c3.79-0.11,16.67,0.68,19.17-3.37c2.01-3.25-44.29-23.81-47.65-25.4c-12.55-5.92-25.11-11.89-37.25-18.61
		c-13.86-7.67-24.28-19.65-37.86-27.44c-19.32-11.09-41.16-16.98-62.9-21.12c-27.31-5.2-56.11-5.37-81.14-18.77
		c-61.56-32.97-85.04-92.58-167.1-85.14c-68.56,6.21-133.76,58.71-199.77,39.17c-35.72-10.57-61.91-40.18-87.51-67.25
		c-73.35-77.52-164.83-147.3-271.18-156.15c-45.92-3.82-92.63,3.98-137.97-4.24c-98.44-17.84-182.2-106.86-285.54-106.01
		c-14.73,0.12-23.68,230.44-37.16,240.96c3.39-2.65,142.4,47.97,154.3,52.2c79.33,28.24,151.94,27.56,234.97,36.77
		c45.11,5,89.37,16.63,131.76,32.83C-489.64,690.52-438.63,718.08-383.85,730.5z"/>
	<rect x="-810.24" y="113.68" class="st0" width="2468.24" height="1104.03"/>
	<path class="st8" d="M373.82,826.04c0-5.16-48.84-3.61-73.62,1.55s-53.68,24.77-81.03,21.68s-79.48-24.77-109.93-22.71
		c-39.4,2.67-78.91,11.01-117.97,16.99c-31.94,4.89-64.05,9.81-94.75,19.9c-28.76,9.45-55.87,23.3-84.22,33.91
		c-46.6,17.44-96.5,26-146.24,25.08c-26.72-0.49-53.37-3.69-80.09-3.37c-72.97,0.87-142.71,27.68-212.95,47.44
		c-36.95,10.4-74.87,18.73-113.33,20.52c-18.31,0.85-36.72,0.26-54.86-2.51c-12.45-1.9-37.05-14.25-48.22-11.1
		c-16.48,4.65-40.7,40.69-52.31,52.51c-46.39,47.21-92.52,94.7-137.77,143c-18.96,20.24-37.93,40.54-55.99,61.6
		c-5.73,6.68-22.68,21.27-22.88,31.08c-0.02,0.95,154.27-35.92,163.56-38.45c21.14-5.77,40.21-12.55,62.14-10.52
		c21.07,1.96,40.44,0.86,61.51-2.52c47.28-7.58,93.37-22.69,135.89-44.72c79.32-41.09,146.98-105.99,232.69-131.18
		c105.74-31.07,225.91,2.57,325.55-44.51c21.75-10.28,41.7-24.12,63.61-34.06c17.01-7.72,35.11-12.98,53.59-15.68
		c15.11-2.2,33.63,1.39,47.66-3.09c24.41-7.79,43.26-27.18,70.21-31.38c17.4-2.71,34.86,2.58,51.68,6.39
		c20.84,4.72,44.11,9.03,65.5,5.65c19.07-3.01,35.4-16.09,48.66-29.33c15.26-15.23,30.87-28.85,52.01-35.06
		C330.92,850.54,373.82,838.28,373.82,826.04z"/>
	<rect x="-810.24" y="113.68" class="st0" width="2468.24" height="1104.03"/>
	<rect x="-810.24" y="113.68" class="st0" width="2468.24" height="1104.03"/>
	<path class="st2" d="M1241.25,730.5c-9.05,2.05-18.2,3.69-27.47,4.82c-44.17,5.36-88.83-1.31-132.72-8.58
		c-83.52-13.83-170.07-29.79-251.75-7.52c-56.51,15.41-104.92,32.53-163.93,32.46c-16.23-0.02-32.85-0.73-48.56,4.04
		c-17.94,5.45-30.16,17.73-45.43,27.59c-12.68,8.19-29.3,12.43-44.03,15.22c-13.22,2.5-26.8,3.76-40.25,3.36
		c-3.79-0.11-16.67,0.68-19.17-3.37c-2.01-3.25,44.29-23.81,47.65-25.4c12.55-5.92,25.11-11.89,37.25-18.61
		c13.86-7.67,24.28-19.65,37.86-27.44c19.32-11.09,41.16-16.98,62.9-21.12c27.31-5.2,56.11-5.37,81.14-18.77
		c61.56-32.97,85.04-92.58,167.1-85.14c68.56,6.21,133.76,58.71,199.77,39.17c35.72-10.57,61.91-40.18,87.51-67.25
		c73.35-77.52,164.83-147.3,271.18-156.15c45.92-3.82,92.63,3.98,137.97-4.24c98.44-17.84,182.2-106.86,285.54-106.01
		c14.73,0.12,23.68,230.44,37.16,240.96c-3.39-2.65-142.4,47.97-154.3,52.2c-79.33,28.24-151.94,27.56-234.97,36.77
		c-45.11,5-89.37,16.63-131.76,32.83C1347.04,690.52,1296.03,718.08,1241.25,730.5z"/>
	<rect x="-810.24" y="113.68" class="st0" width="2468.24" height="1104.03"/>
	<path class="st8" d="M483.58,826.04c0-5.16,48.84-3.61,73.62,1.55c24.77,5.16,53.68,24.77,81.03,21.68s79.48-24.77,109.93-22.71
		c39.4,2.67,78.91,11.01,117.97,16.99c31.94,4.89,64.05,9.81,94.75,19.9c28.76,9.45,55.87,23.3,84.22,33.91
		c46.6,17.44,96.5,26,146.24,25.08c26.72-0.49,53.37-3.69,80.09-3.37c72.97,0.87,142.71,27.68,212.95,47.44
		c36.95,10.4,74.87,18.73,113.32,20.52c18.31,0.85,36.72,0.26,54.86-2.51c12.45-1.9,37.05-14.25,48.22-11.1
		c16.48,4.65,40.7,40.69,52.31,52.51c46.39,47.21,92.52,94.7,137.77,143c18.96,20.24,37.93,40.54,55.99,61.6
		c5.73,6.68,22.68,21.27,22.88,31.08c0.02,0.95-154.27-35.92-163.56-38.45c-21.14-5.77-40.21-12.55-62.14-10.52
		c-21.07,1.96-40.44,0.86-61.51-2.52c-47.28-7.58-93.37-22.69-135.89-44.72c-79.32-41.09-146.98-105.99-232.69-131.18
		c-105.74-31.07-225.91,2.57-325.55-44.51c-21.75-10.28-41.7-24.12-63.61-34.06c-17.01-7.72-35.11-12.98-53.59-15.68
		c-15.11-2.2-33.63,1.39-47.66-3.09c-24.41-7.79-43.26-27.18-70.21-31.38c-17.4-2.71-34.86,2.58-51.68,6.39
		c-20.84,4.72-44.11,9.03-65.5,5.65c-19.07-3.01-35.4-16.09-48.66-29.33c-15.26-15.23-30.87-28.85-52.01-35.06
		C526.48,850.54,483.58,838.28,483.58,826.04z"/>
	<rect x="-810.24" y="113.68" class="st0" width="2468.24" height="1104.03"/>
	<path class="st11" d="M484.78,851.51"/>
	<rect x="-810.24" y="113.68" class="st0" width="2468.24" height="1104.03"/>
	<polyline class="st2" points="373.82,851.66 429.58,784.55 484.78,851.51 	"/>
	<rect x="-810.24" y="113.68" class="st0" width="2468.24" height="1104.03"/>
	<path class="st1" d="M428.35,768.94c0,0,12.66,83.87-72.78,83.87"/>
	<rect x="-810.24" y="113.68" class="st0" width="2468.24" height="1104.03"/>
	<path class="st1" d="M428.35,768.94c0,0-10.2,83.87,75.24,83.87"/>
	<rect x="-810.24" y="113.68" class="st0" width="2468.24" height="1104.03"/>
	<path class="st10" d="M429.58,784.55c0,0-52.33-37.21-46.64-42.53c5.69-5.31,88.21-4.74,93.28,0
		C481.29,746.76,429.58,784.55,429.58,784.55z"/>
	<path class="st8" d="M1642,50.68c-8.92,6.42,76.73,84.86,0,105.87c-126.72,34.69-320.41-33.79-458.93,27.07
		c-44,23.13-89.17,50.78-111.64,95.13c-6,11.84-10.18,24.56-16.62,36.17c-23.06,41.57-70.47,62.32-115.01,78.94
		c-22.21,8.29-45.27,16.71-62.23,33.27c-15.53,15.17-24.39,35.66-35.21,54.48c-33.83,58.79-91.62,102.78-152.81,129.46
		c-37.29,16.26-72.35,35.45-105.54,59.05c-13.62,9.68-22.43,24.47-29.76,39.15c-7.43,14.88-14.9,27.83-26.82,39.77
		c-9.76,9.78-21.01,18.25-33.24,24.71c-5.39,2.85-14.68,8.52-21.21,7.29c-0.4-0.07-0.81-0.15-1.12-0.43
		c-2.99-2.65,35.19-40.34,38.15-43.66c9.59-10.74,17.19-21.18,23.11-34.37c12.46-27.78,27.22-55.75,50.31-76.23
		c12.13-10.76,26.32-17.12,40.37-25.11c26.35-14.98,52.8-34.04,66.42-62.19c17.43-36.02,21.24-76.94,41.3-112.7
		c20.37-36.31,51.79-68.25,91.65-80.28c21.87-6.6,45.93-7.23,65.58-18.88c26.3-15.59,38.15-46.59,51.99-73.85
		c29.1-57.3,74.78-105.91,129.63-139.3c30.72-18.7,80.02-67.87,226.44-79.13C1427.07,24.89,1642.01,50.67,1642,50.68z"/>
</g>
</svg>
