<?xml version="1.0" encoding="utf-8"?>
<!-- Generator: Adobe Illustrator 23.0.4, SVG Export Plug-In . SVG Version: 6.00 Build 0)  -->
<svg version="1.1" xmlns="http://www.w3.org/2000/svg" xmlns:xlink="http://www.w3.org/1999/xlink" x="0px" y="0px"
	 viewBox="0 0 956 1024" style="enable-background:new 0 0 956 1024;" xml:space="preserve">
<style type="text/css">
	.st0{display:none;}
	.st1{fill:#1F1646;}
	.st2{fill:#9E3223;}
	.st3{fill:#000B8C;}
	.st4{fill:#5E7775;}
	.st5{fill:#FFFFFF;}
	.st6{fill:#FF9D6C;}
	.st7{fill:#F0EA9B;}
	.st8{fill:none;stroke:#1F1646;stroke-width:4;stroke-linecap:round;stroke-miterlimit:10;}
	.st9{fill:none;stroke:#000000;stroke-width:3;stroke-miterlimit:10;}
</style>
<g id="Layer_1" class="st0">
</g>
<g id="Layer_2">
	<path class="st1" d="M499.98,921.34c-6.42,1.86-13.16,0.79-19.68,0.04c-8.39-0.97-16.52-0.87-24.92-0.91
		c-15.05-0.08-29.88-5.14-44.43,1.22c-5.93,2.59-9.83,8.57-7.67,15.14c1.87,5.71,9.17,10.28,15.14,7.67
		c5.92-2.59,11.89-2.5,18.22-1.78c8.01,0.91,15.93,1.84,24,1.65c15.7-0.37,31.37,4.26,46.81-0.21
		C522.3,939.85,514.83,917.04,499.98,921.34z"/>
	<path class="st2" d="M523.5,323.5c-0.39,1.16-1.37,4.69-3.11,8.89c-0.26,0.61-0.53,1.23-0.82,1.86c-0.37,0.82-0.77,1.66-1.2,2.5
		c-0.47,0.91-0.97,1.82-1.5,2.72c-2.76,4.64-6.49,9-11.37,11.03c-3.72,1.55-8.3,2.33-13.03,2.76c-1.01,0.09-2.03,0.17-3.04,0.23
		c-1.51,0.1-3.01,0.16-4.5,0.22c-0.71,0.03-1.42,0.05-2.12,0.07h-0.01c-7.12,0.22-13.43,0.28-16.3,1.72
		c-2.33,1.16-6.78,6.71-13.1,12.76c-0.7,0.67-1.43,1.35-2.18,2.03c-1.18,1.07-2.42,2.15-3.71,3.2l-1.99,1.57
		c-2.85,2.19-5.95,4.24-9.29,5.96c-0.64,0.34-1.28,0.66-1.94,0.96c-0.62,0.29-1.24,0.57-1.88,0.83c-0.94,0.39-1.9,0.75-2.88,1.08
		c-5.78,1.96-12.14,2.76-19.03,1.61c-1-1,0-37,5-37c0,0,19-1,21-4s7-16,14-18c0.25-0.07,0.52-0.13,0.82-0.17
		c0.84-0.12,1.88-0.12,3.09-0.05c0.89,0.06,1.87,0.16,2.92,0.3c0.63,0.08,1.28,0.18,1.95,0.28c3.8,0.59,8.34,1.51,13.13,2.37
		c0.67,0.12,1.34,0.24,2.02,0.36c1.4,0.24,2.83,0.47,4.25,0.69c0.97,0.14,1.94,0.28,2.91,0.4c6.92,0.91,13.7,1.21,18.91-0.18
		c15-4,25-18,27-17S524.5,320.5,523.5,323.5z"/>
	<path class="st2" d="M267.5,377.5c-5,0-15-14-19-24c-0.01-0.03-0.02-0.05-0.03-0.08v-0.01c-0.54-1.31-1.42-2.56-2.56-3.75
		c-0.44-0.46-0.91-0.91-1.42-1.35c-0.55-0.47-1.13-0.93-1.75-1.39c-2.41-1.74-5.33-3.32-8.42-4.69c-0.62-0.28-1.25-0.54-1.88-0.8
		c-0.58-0.24-1.17-0.47-1.75-0.69c-1.27-0.48-2.54-0.92-3.8-1.32c-5.8-1.87-11.29-2.92-14.39-2.92c-6.32,0-13.27,3.12-22.32,2.95
		c-1.01-0.02-2.05-0.08-3.11-0.19c-0.97-0.1-1.97-0.24-2.99-0.44c-0.52-0.09-1.05-0.2-1.58-0.32c-0.14-0.03-0.27-0.07-0.41-0.11
		c-6.82-1.79-14.14-9.21-19.53-16.1c-0.43-0.55-0.85-1.1-1.25-1.64c-0.38-0.51-0.74-1-1.1-1.49c-0.63-0.88-1.22-1.73-1.76-2.54
		c-2.46-3.66-3.95-6.49-3.95-7.12c0-2-10-12-7-13s29,18,39,17c2.63-0.26,5.12-1.22,7.49-2.52c0.92-0.5,1.82-1.05,2.7-1.64
		c0.71-0.47,1.41-0.97,2.1-1.47c0.6-0.44,1.19-0.88,1.77-1.33c3.96-3.02,7.56-6.08,10.94-7.04c0.61-0.17,1.28-0.18,1.99-0.04
		c0.6,0.11,1.24,0.33,1.9,0.65c1.05,0.49,2.15,1.21,3.29,2.1c0.77,0.6,1.56,1.27,2.36,2c6.28,5.79,12.91,15.1,15.46,18.29
		c4,5,13,7,17,8s6,5,8,7s13,3,13,3C280.5,343.5,272.5,377.5,267.5,377.5z"/>
	<path class="st3" d="M765.79,924.82C758,922,749.27,917.57,743,915c-3.96-1.62-15.87-3.46-20-5c-10.86-4.06-8.98-6.98-20.37-9.08
		c-13.67-2.52-27.48-5.93-38.13-15.42c-7.45-6.63-5.99-11.88-5.83-15.76c0.03-0.81,0-1.55-0.17-2.24
		c-2.3-9.33-6.94-17.36-6.28-27.25c0.64-9.52,4.22-18.54,5.07-28.01c0.75-8.43-0.64-17.08-2.25-25.33
		c-3.64-18.75-8.95-37.32-14.8-55.49c-10.2-31.73-6.75-66.9-21.04-97.31c-7.23-15.39-16.67-29.2-25.88-43.4
		c-9.94-15.33-16.93-34.76-30.86-47.06c-17.51-15.45-38.45-23.11-58.38-34.45c-16.24-9.25-29.15-22.96-42.74-35.54
		c-13.06-12.08-24.87-24.13-34.07-39.53c-4.27-7.14-9.05-14.54-11.01-22.73c-1.82-7.59,1.25-14.36,1.25-21.91
		c0-1.61-0.57-3.79-1.11-5.93c-0.46-1.85-0.89-3.68-0.89-5.07c0-3,4-6,4-9s-1-5-1-8c0-2.69,2.41-3.77,2.91-8.3
		c0.06-0.52,0.09-1.08,0.09-1.7c0-6,5-17,6-27s22-38,32-51c8.16-10.61,9.57-25.59,12.86-38.16c3.81-14.56,12.36-21.74,22.71-31.99
		c2.96-2.93,13.92-12.53,7.43-16.85c-3-2-20-2-33,10c-10.24,9.45-18.88,20.9-27.21,32.01c-3.61,4.81-6.7,10.26-10.54,14.85
		c-4.92,5.89-12.17,9.35-18.45,13.52c-6.24,4.15-12.94,7.93-18.79,12.61c-3.24,2.6-6.49,6.88-8.91,9.83
		c-1.32,1.61-2.39,2.82-3.09,3.17c-2,1-4-9-7-5s-13,7-18,6s-8-9-10-10s-7,9-9,7c-0.5-0.5-1.74-3.05-3.54-6.85
		c-5.38-11.43-15.7-34.14-25.46-46.15c-13-16-35-28-40-31s-12-12-14-15s-15-11-19-7s7,15,10,17c3.06,2.04,4.89,7.55,6.49,10.64
		c2.74,5.3,5.42,10.63,8.36,15.82c6.94,12.23,3.15,23.29,3.15,36.54c0,7.19,1.42,14.24,2.24,21.34c0.94,8.15-2.24,15.59-2.24,23.66
		c0,12.23,8.12,20.2,3,33c-2,5,5,7,5,12c0,4.6-4.23,4.97-5.68,8.89c-0.13,0.34-0.24,0.71-0.32,1.11c-1,5,4,8,4,13s-7,9-7,9
		s0.36,3.93,1.29,9.66c0.62,3.85,1.5,8.51,2.71,13.34c3,12,4,9,11,31c5.91,18.59,6.08,39.59,6.4,58.92
		c0.4,24.19-3.97,47.9-6.85,71.84c-1.44,11.92-2.33,22.34-1.55,26.24c2.74,13.68,6.47,27.47,10.98,40.67
		c2.71,7.93,6,14.69,6.88,23.22c1.09,10.6,2.64,21.08,3.78,31.62c1.23,11.34-0.4,22.75-1.35,34.04
		c-1.58,18.81-2.22,38.17-8.66,56.11c-3.07,8.55-7.86,16.29-10.88,24.88c-3.26,9.28-5.5,18.88-8.29,28.31
		c-1.12,3.82-2,6.77-2.46,8.14c-4.44,13.33-2.08,27.76-6.92,40.98c-4.18,11.4-12.28,20.57-20.44,29.32
		c-9.71,10.4-23.96,14.55-34.64,23.71c-2.78,2.38-4.14,5.08-4.77,7.47c-0.87,3.3,1.61,6.53,5.03,6.53l85.48,0
		c3.76,0,7.12-2.36,8.39-5.9c0.29-0.8,0.59-1.66,0.91-2.55c2.38-6.66,5.37-15.2,5.96-17.55c0.51-2.06,0.76-11.78,1.02-21.83
		c0.32-12.8,0.32-24.23,5.33-36.21c4.75-11.36,11.59-22.16,15.74-33.52c5.21-14.23,5.82-29.58,5.58-44.58
		c-0.12-7.72-0.52-15.42-0.63-23.14c-0.09-7.02,2.14-12.17,4.34-18.71c1.53-4.55,1.22-8.58,1.74-13.2
		c0.6-5.37,3.33-16.87,9.88-17.81c0.83-0.12,1.71,0.05,2.61,0.43c6.14,2.59,10.28,10.51,13.69,15.83c1.79,2.79,3.23,5.14,5.66,7.36
		c2.8,2.56,6.39,4.23,7.13,8.37c0.41,2.3-0.51,5.41-0.46,7.43c0.12,4.94-0.51,9.86-1.41,14.72c-2.46,13.25-1.25,27.47-5.97,40.38
		c-3.6,9.84-10.85,17.97-14.27,27.84c-3.78,10.89-2.62,22.46-3.04,33.75c-0.42,11.05-4.66,21.21-8.88,31.26
		c-3.35,7.98-4.79,18.62-10.04,25.62c-3.79,5.06-9.18,8.98-13.32,13.81c-0.43,0.5-1.41,2.04-2.47,3.57
		c-1.06,1.54,0.03,3.63,1.9,3.64l20.6,0.04C340,942,340,942,340,942l18.29,0.24c2.07,1.64,4.74,2.58,7.57,2.58
		c1.51,0,2.93-0.39,4.22-1.05c1.12-0.2,2.79-0.51,3.92-0.71c3.96,0.41,7.95,0.67,11.93,0.68c6.57,2.8,16.13,0.14,22.5-0.63
		c0.36-0.04,0.7-0.12,1.03-0.21l5.63,0.07c0.6,0.01,1.2-0.13,1.73-0.41L419,943c-0.05-0.08-0.62-1.46-0.65-1.55
		c-1.08-3.85-5.71-20.29-8.35-26.45c-0.86-2.01-1.23-6.15-1.12-11.34c0.22-11.35,2.68-27.75,7.16-37.85
		c0.61-1.4,1.27-2.68,1.96-3.81c8-13,23-50,24-62c0.89-10.69,0.19-44.38,0.03-51.62c-0.01-0.71,0.63-1.26,1.33-1.12
		C447.07,747.99,458,754,466,753c7.99-1,25.7-15.87,45.59-17.31c1.42-0.1,1.64,2.01,0.23,2.21c-30.04,4.28-35.13,21.82-34.81,23.1
		c2,8-9,39,1,71c5.7,18.23,27.57,47.98,44.81,72.2C526.22,908.99,504,914,507,927c2.98,12.91,6.63,10.93,6.99,14.92l92.44,0.19
		l39.55,0.08l139.9,0.3c0.75,0,0.96-1.02,0.28-1.31C778.51,937.87,772.81,927.37,765.79,924.82z"/>
	<path class="st4" d="M247.82,185.56c0.04-0.14,0.08-0.27,0.14-0.39c3.71,1.48,7.69,4.47,10.54,7.32c2,2,11,19,18,23s19,11,21,17
		s1,20,6,27c5,7,13,18,8,34c-2.17,6.95-3.81,14.11-6.28,20.96c-0.46,1.28-0.75,3.18-1.8,4.15c-1.55,1.44-3.63,0.79-5.6,0.96
		c-3.56,0.32-4.81,3.84-7.12,6.06c-1.6,1.54-5.3,4.71-7.2,1.86c-2-3-6-15-5-21s1-15,0-20c-1.93-9.65-7.74-18.44-7.85-28.46
		c-0.05-4.53,1.19-9.13,1.92-13.58c0.55-3.32,1.77-7.6,0.93-10.96c-1.56-6.24-3.56-12.7-7.37-17.96c-3.86-5.33-8.04-10.2-11.62-15.8
		c-1.75-2.74-3.46-5.52-4.96-8.41c-0.56-1.09-1.18-2.21-1.58-3.38C247.73,187.21,247.63,186.3,247.82,185.56z"/>
	<g>
		<path class="st5" d="M405.11,356.19c0,0-6.55,11.35-17.4,13.99c-10.85,2.64-21.89-4.42-21.89-4.42s6.55-11.35,17.4-13.99
			C394.07,349.13,405.11,356.19,405.11,356.19z"/>
		<path class="st2" d="M383.03,353.86c-0.16-0.66-1.02-0.84-1.43-0.3c-1.4,1.84-1.83,5.39-0.91,9.18s2.94,6.75,5.03,7.74
			c0.62,0.29,1.29-0.26,1.13-0.93c0,0-1.35-3.35-2.41-7.72S383.03,353.86,383.03,353.86z"/>
		<path class="st2" d="M388.17,369.23c0.16,0.66,1.02,0.84,1.43,0.3c1.4-1.84,1.83-5.39,0.91-9.18s-2.94-6.75-5.03-7.74
			c-0.62-0.29-1.29,0.26-1.13,0.93c0,0,1.35,3.35,2.41,7.72C387.82,365.63,388.17,369.23,388.17,369.23z"/>
		<path class="st6" d="M405.14,356.33c0.23,0.06,0.34-0.27,0.12-0.37c-4.02-1.74-11.51-6.77-22.05-4.2
			c-10.53,2.57-14.88,10.48-17.65,13.87c-0.15,0.18,0.1,0.43,0.28,0.27c3.46-3.09,12.16-7.9,18.51-9.45
			C390.71,354.91,400.65,355.18,405.14,356.33z"/>
		<path class="st6" d="M365.85,365.89c-0.23-0.06-0.34,0.27-0.12,0.37c4.02,1.74,11.51,6.77,22.05,4.2
			c10.53-2.57,14.88-10.48,17.65-13.87c0.15-0.18-0.1-0.43-0.28-0.27c-3.46,3.09-11.37,11.14-17.72,12.69
			C381.07,370.55,370.34,367.04,365.85,365.89z"/>
	</g>
	<g>
		<path class="st5" d="M335.43,363.15c0,0-12.78,2.91-22.09-3.26c-9.31-6.16-11.63-19.06-11.63-19.06s12.78-2.91,22.09,3.26
			C333.11,350.25,335.43,363.15,335.43,363.15z"/>
		<path class="st2" d="M322.14,345.38c0.38-0.57-0.07-1.32-0.75-1.26c-2.3,0.22-5.2,2.32-7.35,5.57s-2.95,6.75-2.26,8.95
			c0.21,0.65,1.07,0.77,1.45,0.2c0,0,1.54-3.27,4.02-7.02S322.14,345.38,322.14,345.38z"/>
		<path class="st2" d="M314.35,359.59c-0.38,0.57,0.07,1.32,0.75,1.26c2.3-0.22,5.2-2.32,7.35-5.57c2.15-3.26,2.95-6.75,2.26-8.95
			c-0.21-0.65-1.07-0.77-1.45-0.2c0,0-1.54,3.27-4.02,7.02S314.35,359.59,314.35,359.59z"/>
		<path class="st6" d="M335.35,363.28c0.11,0.21,0.43,0.07,0.35-0.16c-1.45-4.13-2.86-13.05-11.9-19.03
			c-9.04-5.98-17.8-3.79-22.17-3.52c-0.24,0.01-0.24,0.36-0.01,0.39c4.61,0.44,14.06,3.55,19.51,7.16S333.15,359.2,335.35,363.28z"
			/>
		<path class="st6" d="M301.64,340.94c-0.11-0.21-0.43-0.07-0.35,0.16c1.45,4.13,2.86,13.05,11.9,19.03
			c9.04,5.98,17.8,3.79,22.17,3.52c0.24-0.01,0.24-0.36,0.01-0.39c-4.61-0.44-15.9-0.77-21.35-4.38S303.84,345.02,301.64,340.94z"/>
	</g>
	<path class="st4" d="M406.98,328.22c-2.44-4.23-1.46-16.27-0.48-18.71c1.75-4.39,7.35-4.56,10.73-7.18
		c5.12-3.97,3.88-13.03,4.57-18.74c0.63-5.17,2.72-8.98,5.35-13.35c2.48-4.12,5.02-8.2,7.69-12.19c3.31-4.94,7.57-8.82,11.23-13.43
		c3.35-4.22,6.2-8.8,9.44-13.11c3-4,10-19,14-23s14-17,18-16s0,6-4,10c-3.35,3.35-6.04,7.56-8.7,11.45
		c-3.03,4.44-6.78,8.67-8.17,13.98c-0.87,3.3-1.81,6.48-2.99,9.71c-2.86,7.84-6.32,15.7-8.14,23.86c-2,9-18,30-18,33
		c0,3-16,28-16,32c0,6.85-6.59,0.3-8.93,1.49c-0.99,0.5-1.81,1.37-2.88,1.63C408.5,329.9,407.62,329.33,406.98,328.22z"/>
	<path class="st1" d="M377,354c-8,3-11,12-11,12s-13,12-18,12s-13-15-13-15s0-8-7-16s-7-26-8-28s0-6,8-11
		c5.32-3.33,6.66-22.13,6.96-34.35c1.8,3.8,3.04,6.35,3.54,6.85c2,2,7-8,9-7s5,9,10,10s15-2,18-6s5,6,7,5
		c0.7-0.35,1.77-1.56,3.09-3.17c0.98,6.9,1.96,15.01,1.41,16.67c-1,3,2,15,4,22S385,351,377,354z"/>
	<g>
		<path class="st5" d="M372.79,334.33c0,0-8.3,7.36-17.72,6.57s-16.39-9.41-16.39-9.41s8.3-7.36,17.72-6.57
			C365.82,325.71,372.79,334.33,372.79,334.33z"/>
		<path class="st2" d="M355.69,326.55c0.05-0.57-0.59-0.95-1.07-0.63c-1.62,1.1-2.91,3.84-3.19,7.13c-0.27,3.29,0.55,6.21,1.97,7.56
			c0.42,0.4,1.11,0.13,1.16-0.44c0,0-0.19-3.05,0.13-6.85C355,329.53,355.69,326.55,355.69,326.55z"/>
		<path class="st2" d="M355.7,340.27c-0.05,0.57,0.59,0.95,1.07,0.63c1.62-1.1,2.91-3.84,3.19-7.13c0.27-3.29-0.55-6.21-1.97-7.56
			c-0.42-0.4-1.11-0.13-1.16,0.44c0,0,0.19,3.05-0.13,6.85C356.38,337.29,355.7,340.27,355.7,340.27z"/>
		<path class="st6" d="M372.78,334.46c0.17,0.11,0.35-0.13,0.2-0.26c-2.76-2.47-7.43-8.51-16.58-9.27
			c-9.14-0.76-14.75,4.43-17.88,6.41c-0.17,0.11-0.03,0.37,0.15,0.29c3.6-1.55,11.88-3.09,17.39-2.63
			C361.57,329.45,369.48,332.33,372.78,334.46z"/>
		<path class="st6" d="M338.67,331.61c-0.17-0.11-0.35,0.13-0.2,0.26c2.76,2.47,7.43,8.51,16.58,9.27
			c9.14,0.76,14.75-4.43,17.88-6.41c0.17-0.11,0.03-0.37-0.15-0.29c-3.6,1.55-12.11,5.9-17.62,5.44
			C349.65,339.43,341.97,333.74,338.67,331.61z"/>
	</g>
	<g>
		<path class="st5" d="M375.33,311.48c0,0-8.3,7.36-17.72,6.57s-16.39-9.41-16.39-9.41s8.3-7.36,17.72-6.57
			C368.36,302.86,375.33,311.48,375.33,311.48z"/>
		<path class="st2" d="M358.23,303.7c0.05-0.57-0.59-0.95-1.07-0.63c-1.62,1.1-2.91,3.84-3.19,7.13c-0.27,3.29,0.55,6.21,1.97,7.56
			c0.42,0.4,1.11,0.13,1.16-0.44c0,0-0.19-3.05,0.13-6.85C357.54,306.68,358.23,303.7,358.23,303.7z"/>
		<path class="st2" d="M358.24,317.42c-0.05,0.57,0.59,0.95,1.07,0.63c1.62-1.1,2.91-3.84,3.19-7.13c0.27-3.29-0.55-6.21-1.97-7.56
			c-0.42-0.4-1.11-0.13-1.16,0.44c0,0,0.19,3.05-0.13,6.85C358.92,314.44,358.24,317.42,358.24,317.42z"/>
		<path class="st6" d="M375.32,311.61c0.17,0.11,0.35-0.13,0.2-0.26c-2.76-2.47-7.43-8.51-16.58-9.27
			c-9.14-0.76-14.75,4.43-17.88,6.41c-0.17,0.11-0.03,0.37,0.15,0.29c3.6-1.55,11.88-3.09,17.39-2.63
			C364.11,306.6,372.02,309.48,375.32,311.61z"/>
		<path class="st6" d="M341.21,308.76c-0.17-0.11-0.35,0.13-0.2,0.26c2.76,2.47,7.43,8.51,16.58,9.27
			c9.14,0.76,14.75-4.43,17.88-6.41c0.17-0.11,0.03-0.37-0.15-0.29c-3.6,1.55-12.11,5.9-17.62,5.44
			C352.18,316.58,344.51,310.89,341.21,308.76z"/>
	</g>
	<path class="st7" d="M313,375c-3.61,2.4-8.33,0.54-12.21,0.04c-3.95-0.51-7.01,0.81-10.65,2.08c-8.47,2.93-17.01,5.74-25.35,9.05
		c-0.93-5.73-1.29-9.66-1.29-9.66s7-4,7-9s-5-8-4-13c0.08-0.4,0.19-0.77,0.32-1.11c3.8,2.55,8.85,5.61,11.18,5.61c4,0,6-4,9-3
		c3,1,11-2,11,0c0.01,3.86-9.72,4.79-10.2,8.97c-0.34,2.96,4.59,4.63,6.85,4.86c4.44,0.46,8.99-1.29,13.35,0.16
		C311,371,316,373,313,375z"/>
	<path class="st7" d="M419.5,369.5c0,3-4,6-4,9c0,1.39,0.43,3.22,0.89,5.07c-3.26,0.79-6.48,1.19-8.39,0.43
		c-2.39-0.95-4.45-2.54-7.23-2.01c-2.8,0.53-5.73,2.06-8.06,3.66c-2.33,1.6-4.68,3.32-7.36,4.3c-1.46,0.53-3.75,0.8-5.2,0.13
		c-2.88-1.34-0.24-4.08,1.4-5.17c2.2-1.45,5.42-1.35,7.45-2.91c3.27-2.5-7.89-4.45-4-6c3.16-1.26,12.68,0.67,16,0
		c3.61-0.73,4.69-2.55,7-6c1.79-2.67,7.18-14.89,13.41-16.8c-0.5,4.53-2.91,5.61-2.91,8.3C418.5,364.5,419.5,366.5,419.5,369.5z"/>
	<path class="st1" d="M314,426c3-2,10,3,17,0s10-10,12-10s1,13,11,16s10,15,1,18s-25-1-33-6S311,428,314,426z"/>
	<path class="st8" d="M293,419c0,0,42.5,18.5,50-3"/>
	<path class="st8" d="M343,411c0,0-3,27,41,23"/>
	<path class="st2" d="M347,386c6,1,17,9,17,11s-17,19-21,19s-14-21-15-23S341,385,347,386z"/>
	<g>
		<g>
			<path class="st4" d="M304.55,391.59c-8.04-3.22-16.6-5.09-25.25-5.53c-4.34-0.22-8.7-0.09-13.02,0.41
				c-4.14,0.48-8.38,1.16-12.32,2.55c-3.79,1.34-7.04,3.5-9.53,6.69c-2.43,3.12-4.07,6.77-5.47,10.46
				c-2.97,7.82-4.61,16.04-7.16,23.99c-2.53,7.9-6.2,15.14-11.81,21.31c-5.45,5.99-12.04,10.91-18.97,15.06
				c-7.47,4.48-15.69,7.89-24.52,8.06c-9.15,0.19-18.32-2.36-26.98-5.11c-8.3-2.64-16.29-6.2-23.16-11.62
				c-6.57-5.19-12.11-11.54-17.38-18.01c-10.33-12.67-21.93-28.24-18.94-45.65c1.29-7.5,5.62-13.84,11.8-18.2
				c5.85-4.12,12.9-6.56,19.98-7.39c12.89-1.51,28.23,2.24,35.46,13.92c4.43,7.15,4.91,16.05,3.26,24.12
				c-0.88,4.33-2.33,8.52-4.02,12.59c-0.86,2.06-1.78,4.09-2.75,6.1c-0.78,1.62-1.62,3.27-2.86,4.58
				c-3.06,3.26-7.53,1.98-11.17,0.47c-3.45-1.43-6.61-3.58-9.23-6.23c-2.69-2.71-5.02-6.06-6.08-9.76c-0.97-3.36-0.8-7.63,2.42-9.72
				c2.21-1.44,5.37-1.77,7.17,0.46c0.81,1,2.22-0.42,1.41-1.41c-1.94-2.39-5.3-2.67-8.01-1.58c-3.29,1.32-5.16,4.23-5.48,7.71
				c-0.37,4.1,1.43,8.2,3.69,11.51c2.15,3.15,4.9,5.86,8.05,8.01c3.24,2.2,7.12,3.99,11.02,4.52c2.06,0.28,4.16,0.03,5.93-1.12
				c1.49-0.98,2.62-2.39,3.53-3.9c2.25-3.71,3.92-7.95,5.45-12c1.63-4.31,2.89-8.76,3.47-13.34c1.06-8.26-0.29-17.14-5.37-23.93
				c-4.16-5.56-10.24-9.28-16.82-11.31c-13.8-4.27-30.32-1.74-41.75,7.26c-6.21,4.89-10.24,11.79-11.25,19.65
				c-1.12,8.75,1.3,17.54,5.25,25.29c4.06,7.98,9.7,15.04,15.36,21.92c5.55,6.75,11.46,13.29,18.55,18.47
				c7.34,5.36,15.85,8.76,24.52,11.33c9.19,2.73,18.95,5.23,28.6,4.15c8.91-0.99,17.12-4.99,24.58-9.79
				c7.02-4.52,13.68-9.81,18.93-16.34c5.47-6.81,8.7-14.72,11.12-23.04c2.45-8.44,4.2-17.26,8.11-25.19
				c1.86-3.78,4.34-7.3,8.05-9.44c3.83-2.21,8.4-3.06,12.73-3.73c9.1-1.41,18.49-1.11,27.49,0.79c4.38,0.93,8.67,2.24,12.82,3.91
				C305.21,393.99,305.73,392.06,304.55,391.59L304.55,391.59z"/>
		</g>
	</g>
	<g>
		<g>
			<path class="st4" d="M314.89,411.66c-5.61-3.51-12.03-5.39-18.51-6.48c-6.84-1.15-13.81-1.66-20.74-1.7
				c-13.99-0.08-28.14,1.89-41.5,6.08c-11.06,3.47-22.26,9.19-28.12,19.68c-6.23,11.14-5.57,24.54-4.32,36.8
				c0.73,7.2,1.64,14.42,1.42,21.67c-0.11,3.63-0.52,7.26-1.4,10.78c-0.77,3.1-1.95,6.21-4.06,8.67c-4.21,4.9-11.06,6.91-17.26,7.63
				c-6.98,0.81-14.04,0.01-20.87-1.5c-12.59-2.78-26.07-7.17-35.23-16.68c-4.13-4.29-7.3-9.61-8.45-15.5
				c-1.16-5.93,0.08-12.37,4.95-16.31c4.16-3.37,9.89-4.44,15.12-4.32c6.06,0.14,12.12,1.77,17.51,4.51c2.68,1.36,5.24,3,7.57,4.9
				c2.38,1.95,4.85,4.17,6.38,6.87c1.54,2.73,1.41,5.79-1.22,7.75c-2.32,1.72-5.35,2.36-8.13,2.92c-3.49,0.71-7.04,1.07-10.6,1.11
				c-1.29,0.02-1.29,2.02,0,2c3.67-0.05,7.34-0.43,10.94-1.15c2.92-0.59,6.06-1.28,8.57-3c2.36-1.62,3.82-4.14,3.43-7.06
				c-0.43-3.2-2.66-5.86-4.87-8.07c-8.54-8.52-21.3-13.84-33.46-12.64c-5.39,0.53-11.01,2.45-14.63,6.68
				c-4.14,4.84-4.71,11.59-3.23,17.58c3.12,12.67,14.1,21.41,25.59,26.33c6.44,2.76,13.27,4.77,20.13,6.21
				c7,1.48,14.23,2.22,21.35,1.27c6.3-0.84,13.09-2.91,17.5-7.75c4.65-5.1,5.87-12.67,6.28-19.32c0.87-14.27-3.09-28.36-1.94-42.63
				c0.51-6.4,2.1-12.81,5.57-18.27c3.3-5.19,8.17-9.12,13.52-12.05c5.49-3.01,11.46-5.01,17.49-6.61
				c7.22-1.91,14.59-3.24,22.02-3.95c7.39-0.71,14.84-0.82,22.26-0.33c6.97,0.46,14.06,1.29,20.74,3.41c3.23,1.03,6.32,2.4,9.2,4.2
				C314.98,414.07,315.98,412.34,314.89,411.66L314.89,411.66z"/>
		</g>
	</g>
	<g>
		<g>
			<path class="st4" d="M318.07,400.43c-4.35-2.82-9.76-2.28-14.29-0.18c-5.05,2.34-8.63,6.52-11.57,11.13
				c-3.14,4.93-5.64,10.32-9.46,14.8c-3.66,4.29-8.3,7.72-13.48,9.94c-5.06,2.16-11.93,3.45-16.59-0.32c-0.42-0.34-1-0.41-1.41,0
				c-0.35,0.35-0.42,1.07,0,1.41c4.34,3.51,10.23,3.48,15.37,1.98c5.38-1.58,10.39-4.64,14.49-8.43c4.37-4.04,7.34-9.09,10.3-14.19
				c2.75-4.75,5.67-9.71,10.31-12.85c4.44-3.01,10.5-4.69,15.32-1.56C318.14,402.86,319.14,401.13,318.07,400.43L318.07,400.43z"/>
		</g>
	</g>
	<g>
		<g>
			<path class="st4" d="M365.12,407.43c1.62-0.73,3.65,0.14,5.21,0.65c1.55,0.51,3.13,1.09,4.45,2.08c2.91,2.2,2.99,6.12,3.46,9.42
				c1.03,7.18,3.81,14.14,7.96,20.09c1.17,1.68,2.45,3.3,3.84,4.81c1.34,1.47,3.1,3.01,5.23,2.77c0.54-0.06,1-0.42,1-1
				c0-0.49-0.46-1.06-1-1c-1.81,0.2-3.15-1.42-4.23-2.64c-1.2-1.36-2.32-2.79-3.34-4.29c-2.07-3.03-3.8-6.32-5.09-9.76
				c-1.29-3.44-2.12-7.01-2.59-10.66c-0.23-1.78-0.43-3.6-1.08-5.29c-0.65-1.7-1.68-3.1-3.15-4.18c-1.57-1.16-3.46-1.81-5.29-2.41
				c-2.1-0.68-4.27-1.29-6.38-0.33c-0.49,0.22-0.61,0.94-0.36,1.37C364.05,407.58,364.63,407.66,365.12,407.43L365.12,407.43z"/>
		</g>
	</g>
	<g>
		<g>
			<path class="st4" d="M371.68,400.02c6.59-4.09,14.63-4.8,22.18-5.49c8.41-0.77,16.86-1.06,25.31-0.87
				c8.43,0.19,16.86,0.86,25.22,2.03c7.71,1.08,15.6,2.33,23.06,4.6c3.2,0.98,6.34,2.26,9.07,4.24c2.78,2.01,4.74,4.73,6.12,7.84
				c1.41,3.17,2.29,6.54,3.64,9.74c1.34,3.18,3.16,6.02,5.74,8.34c5.31,4.77,12.43,7.31,19.03,9.69c7.57,2.73,15.34,4.88,23.23,6.44
				c15.41,3.05,31.52,4.09,47.15,2.26c13.67-1.6,28-6.1,37.1-17.04c8.15-9.8,11.61-23.94,4.74-35.39
				c-7.52-12.52-23.35-16.96-36.86-12.43c-6.36,2.14-12.5,6.27-15.5,12.45c-2.84,5.86-2.69,13.08,1.59,18.21
				c3.61,4.32,9.37,6.23,14.84,6.5c2.9,0.14,5.85-0.18,8.65-0.94c3.04-0.83,6.28-2.24,7.99-5.04c1.49-2.46,1.52-5.61-0.34-7.86
				c-0.82-0.99-2.23,0.43-1.41,1.41c2.37,2.87-0.25,6.57-2.87,8.05c-2.56,1.44-5.7,2.11-8.61,2.33c-5.35,0.41-11.31-0.68-15.41-4.38
				c-4.87-4.39-5.48-11.54-2.71-17.28c2.97-6.14,9.21-10.07,15.58-11.93c6.94-2.03,14.69-1.78,21.31,1.25
				c5.76,2.64,10.57,7.26,13.26,13.01c5.4,11.55,0.26,25.1-8.38,33.54c-9.83,9.6-24.15,12.94-37.43,13.96
				c-15.08,1.16-30.39-0.03-45.15-3.24c-7.4-1.61-14.69-3.74-21.79-6.38c-6.34-2.36-13.32-4.92-18.03-10.01
				c-4.48-4.84-5.3-11.61-8.15-17.35c-2.84-5.72-7.96-9.16-13.85-11.26c-6.64-2.36-13.81-3.51-20.75-4.62
				c-7.79-1.24-15.64-2.08-23.51-2.5c-7.95-0.42-15.92-0.41-23.86,0.03c-7.27,0.4-14.77,0.85-21.86,2.57c-3.29,0.8-6.47,2-9.35,3.78
				C369.58,398.97,370.59,400.7,371.68,400.02L371.68,400.02z"/>
		</g>
	</g>
	<g>
		<g>
			<path class="st4" d="M379,404.76c5.13,10.71,16.11,16.84,27.04,20.22c5.71,1.76,11.64,2.95,17.59,3.45
				c5.89,0.5,11.96,0.27,17.68-1.35c5.56-1.58,10.7-4.59,14.37-9.11c3.87-4.76,6.03-10.56,8.32-16.18
				c2.29-5.61,4.89-11.15,9.39-15.34c4.2-3.9,9.52-6.38,15.02-7.82c5.74-1.5,11.71-1.93,17.62-1.7c6.15,0.24,12.33,1.15,18.23,2.92
				c5.86,1.76,11.53,4.47,16.15,8.54c4.43,3.9,7.64,8.92,9.35,14.56c3.39,11.22,1.11,23.86-4.99,33.74
				c-6.45,10.44-17.73,18.81-30.29,19.28c-6.1,0.23-12.29-1.31-17.38-4.73c-5.19-3.49-9.56-9.27-8.21-15.82
				c1.37-6.69,6.81-11.29,12.69-14.12c3.13-1.51,6.45-2.62,9.76-3.68c3.4-1.09,7.19-2.21,10.75-1.2c2.59,0.73,4.93,2.58,5.48,5.31
				c0.25,1.26,2.18,0.73,1.93-0.53c-0.59-2.97-2.94-5.16-5.66-6.28c-3.39-1.4-7.18-0.89-10.62,0.05c-3.5,0.96-6.99,2.17-10.33,3.57
				c-3.24,1.36-6.34,3.04-9.04,5.31c-4.94,4.14-8.39,10.87-6.82,17.4c1.51,6.28,7.11,11.18,12.77,13.81
				c5.82,2.71,12.4,3.52,18.73,2.52c6.36-1.01,12.3-3.95,17.33-7.91c9.9-7.79,16.2-19.58,17.31-32.11
				c0.53-5.99-0.17-12.18-2.39-17.8c-2.26-5.72-6.01-10.62-10.88-14.37c-10.05-7.74-23.61-10.39-36.05-10.51
				c-11.81-0.11-24.79,2.57-33.21,11.48c-4.39,4.65-6.83,10.58-9.19,16.43c-2.32,5.73-4.73,11.66-9.26,16.03
				c-8.93,8.6-22.81,8.79-34.3,6.89c-11.61-1.92-24.17-5.93-32.36-14.83c-1.96-2.13-3.57-4.52-4.82-7.13
				C380.17,402.59,378.45,403.61,379,404.76L379,404.76z"/>
		</g>
	</g>
	<path class="st1" d="M514,942c0.05,0.66-84.21,0.22-94.58,0.26c-0.41,0-0.77-0.21-0.96-0.55l95.53,0.21
		C514,941.94,514,941.97,514,942z"/>
	<path class="st7" d="M184.08,338.82l-1.99-0.43c0.17-0.38,0.33-0.77,0.46-1.17c0.86-2.54,1.42-6.76-1.27-8.48
		c-1.4-0.9-3.27-0.66-4.86-0.76c-1.4-0.09-2.8-0.36-3.9-1.3c-1.02-0.88-1.51-2.13-2.04-3.34c-0.73-1.61-1.44-2.41-3.32-2.3
		c-1.66,0.09-3.15,0.58-4.6,1.25c-0.43-0.55-0.85-1.1-1.25-1.64c0.89-0.46,1.82-0.84,2.78-1.11c1.88-0.53,4.46-1.01,6.2,0.16
		c1.26,0.85,1.75,2.32,2.35,3.63c0.79,1.74,1.84,2.53,3.78,2.65c1.73,0.11,3.53-0.03,5.15,0.67c1.46,0.62,2.48,1.83,3.06,3.28
		C185.75,332.77,185.23,336.04,184.08,338.82z"/>
	<path class="st4" d="M191.15,334.54c-0.21,1.65-0.54,3.29-0.97,4.91l-3.11-0.19c0.59-2.01,1.1-4.06,1.22-6.15
		c0.19-3.52-0.91-7.68-4.34-9.37c-2.94-1.46-6.55-0.48-9.41-2.29c-0.73-0.47-1.34-1.08-1.83-1.79c-0.49-0.71-0.78-1.62-1.41-2.23
		c-1.16-1.12-3.19-0.58-4.55-0.2c-2.19,0.6-4.37,1.26-6.54,1.93c-0.63-0.88-1.22-1.73-1.76-2.54c0.94-0.29,1.88-0.57,2.82-0.86
		c2.36-0.73,4.76-1.67,7.24-1.92c1.89-0.19,3.88,0.26,5.17,1.75c1.25,1.46,1.57,3.21,3.59,3.81c1.75,0.52,3.6,0.49,5.38,0.82
		c1.89,0.34,3.61,1.17,5,2.51C190.82,325.77,191.67,330.33,191.15,334.54z"/>
	<path class="st4" d="M221.04,304.21c-1.21,2.58-2.42,5.17-3.64,7.75c-0.83,1.76-1.99,3.2-4.09,3.27c-1.07,0.03-2.12-0.32-3.11-0.68
		c-0.9-0.34-1.91-0.87-2.89-0.64c-1.12,0.26-1.92,1.45-2.59,2.3c-0.82,1.05-1.6,2.16-2.72,2.92c-3.05,2.08-6.48-0.16-7.44-3.35
		c-0.37-1.22-0.35-3.07-0.57-4.8c0.92-0.5,1.82-1.05,2.7-1.64c0.21,0.9,0.32,1.82,0.38,2.69c0.09,1.53,0.08,4.22,1.88,4.85
		c1.02,0.36,1.83-0.55,2.43-1.24c1.65-1.91,3.01-4.41,5.78-4.73c2.13-0.25,3.75,1.15,5.77,1.31c1.05,0.08,1.38-0.71,1.78-1.55
		c0.46-0.95,0.9-1.92,1.35-2.88c0.87-1.86,1.75-3.72,2.62-5.58C219.45,302.81,220.24,303.48,221.04,304.21z"/>
	<path class="st7" d="M215.39,300.11c-0.23,1.32-0.61,2.6-1.28,3.78c-1.19,2.08-3.35,3.77-5.82,3.84c-0.66,0.01-1.29-0.18-1.94-0.24
		c-0.67-0.06-1.1,0.16-1.58,0.61c-0.86,0.81-1.58,1.72-2.78,2.04c-1.03,0.27-2.2,0.05-2.8-0.89c-0.28-0.43-0.35-0.9-0.4-1.38
		c0.6-0.44,1.19-0.88,1.77-1.33c0.08,0.37,0.14,0.75,0.19,1.14c0.06,0.41,0.1,0.59,0.51,0.58c0.39-0.02,0.79-0.3,1.07-0.54
		c0.73-0.64,1.3-1.45,2.2-1.89c1.12-0.55,2.13-0.22,3.3-0.12c2.07,0.18,3.84-1.4,4.72-3.14c0.5-0.97,0.78-2.02,0.94-3.11
		C214.09,299.57,214.73,299.79,215.39,300.11z"/>
	<path class="st4" d="M250.79,345.69c-0.03,2.77-0.98,5.34-2.32,7.72c-0.54-1.31-1.42-2.56-2.56-3.75c0.73-1.75,1.11-3.6,0.77-5.51
		c-0.27-1.48-0.92-2.97-2.12-3.92c-1.38-1.11-3.27-1.41-4.73-2.43c-1.94-1.36-5.11-5.45-7.93-4.06c-1.31,0.65-0.58,2.97-0.64,4.13
		c-0.06,0.98-0.25,1.95-0.57,2.87c-1.27-0.48-2.54-0.92-3.8-1.32c0.39-1.32,0.27-2.7,0.3-4.23c0.07-4.39,4.11-6.45,8.07-5.31
		c1.94,0.56,3.48,1.87,4.99,3.16c0.82,0.7,1.64,1.41,2.6,1.94c0.85,0.46,1.78,0.73,2.65,1.15
		C249.05,337.85,250.83,341.89,250.79,345.69z"/>
	<path class="st7" d="M244.68,347.44c-0.04,0.29-0.1,0.58-0.19,0.87c-0.55-0.47-1.13-0.93-1.75-1.39c0.04-0.3,0.06-0.6,0.05-0.9
		c-0.03-0.81-0.24-1.74-0.93-2.25c-0.68-0.5-1.63-0.59-2.43-0.79c-0.92-0.23-1.75-0.57-2.48-1.2c-0.3-0.26-0.57-0.55-0.85-0.83
		c-0.22-0.21-0.52-0.58-0.83-0.64c-0.6-0.12-0.75,0.94-0.84,1.34c-0.04,0.19-0.08,0.38-0.11,0.58c-0.62-0.28-1.25-0.54-1.88-0.8
		c0.03-0.19,0.08-0.37,0.12-0.56c0.23-0.93,0.68-1.9,1.59-2.34c1.86-0.9,2.99,0.87,4.24,1.86c0.65,0.51,1.5,0.64,2.28,0.82
		c0.86,0.2,1.73,0.46,2.44,1.01C244.69,343.44,244.96,345.59,244.68,347.44z"/>
	<path class="st4" d="M453.4,368.26c-0.7,0.67-1.43,1.35-2.18,2.03c-0.94-1.06-2.11-1.89-3.58-2.27c-3.17-0.83-5.75,1.85-8.35,3.19
		c-1.29,0.67-2.73,1.18-4.21,1.13c-1.71-0.07-3.18-0.96-4.84-1.21c-4.41-0.66-0.76,6.61-0.03,8.08c0.6,1.21,1.32,2.48,2.2,3.6
		c-0.94,0.39-1.9,0.75-2.88,1.08c-0.97-1.35-1.78-2.85-2.48-4.36c-0.95-2.05-2.16-4.28-1.99-6.6c0.14-1.93,1.16-3.82,3.04-4.53
		c2.04-0.79,3.95,0.22,5.91,0.74c1.92,0.51,3.5-0.3,5.11-1.29c1.62-1.01,3.21-2.13,5.07-2.68c1.97-0.57,4.03-0.3,5.87,0.56
		C451.39,366.36,452.48,367.23,453.4,368.26z"/>
	<path class="st7" d="M447.51,373.49c-2-0.83-3.95-0.37-5.64,0.89c-0.88,0.65-1.72,1.43-2.8,1.71c-1.21,0.3-2.5,0.09-3.72,0.13
		c-1.07,0.04-2.53,0.15-3.24,1.06c-0.78,1-0.05,2.13,0.6,2.98c0.48,0.63,1,1.21,1.58,1.72c0.66-0.3,1.3-0.62,1.94-0.96
		c-0.81-0.61-1.52-1.35-2.1-2.19c-0.08-0.1-0.15-0.21-0.22-0.32c-0.01-0.03-0.02-0.04-0.03-0.06c0.2-0.07,0.41-0.12,0.61-0.15
		c0.56-0.1,1.15-0.09,1.72-0.08c1.22,0.01,2.48,0.1,3.66-0.28c1.07-0.34,1.92-1.01,2.79-1.68c0.78-0.59,1.59-1.18,2.6-1.21
		c0.09,0,0.17,0,0.26,0.01L447.51,373.49z"/>
	<path class="st4" d="M481.59,330.68c-0.39,2.59-1.28,5.05-3.09,7.13c-1.3,1.49-3.08,2.71-5.02,3.17c-2.12,0.5-4.1,0.01-6.09-0.74
		c-0.98-0.37-2-0.83-3.05-0.96c-1.18-0.14-2.04,0.38-3.07,0.87c-1.95,0.94-4.14,1.17-6.22,0.47c-3.99-1.35-6.29-5.82-5.02-9.87
		c0.49-1.55,1.5-2.94,1.29-4.42c0.84-0.12,1.88-0.12,3.09-0.05c0.02,0.39,0.01,0.81-0.04,1.25c-0.24,1.98-1.71,3.58-1.68,5.61
		c0.02,1.89,1.1,3.68,2.84,4.46c1.99,0.88,3.59,0.21,5.42-0.65c1.84-0.86,3.69-0.82,5.6-0.2c1.81,0.58,3.66,1.67,5.63,1.43
		c1.78-0.22,3.35-1.39,4.44-2.78c1.18-1.5,1.78-3.27,2.06-5.12C479.65,330.42,480.62,330.56,481.59,330.68z"/>
	<path class="st7" d="M474.43,329.59c-0.46,1.26-1.09,2.45-1.94,3.46c-1.53,1.82-3.68,1.83-5.59,0.64
		c-0.86-0.54-1.64-1.22-2.56-1.65c-0.95-0.45-1.83-0.26-2.81-0.03c-1.01,0.24-2.11,0.53-3.12,0.17c-1.04-0.36-1.71-1.31-1.81-2.39
		c-0.11-1.15,0.4-2.15,0.73-3.21c0.63,0.08,1.28,0.18,1.95,0.28c-0.14,0.53-0.34,1.05-0.5,1.6c-0.16,0.51-0.43,1.34,0.09,1.74
		c0.38,0.29,1,0.13,1.43,0.05c1.2-0.25,2.39-0.66,3.64-0.43c1.11,0.2,2.07,0.84,2.98,1.47c0.77,0.54,1.79,1.42,2.81,1.27
		c1.36-0.2,2.18-2.13,2.64-3.22c0.01-0.04,0.03-0.07,0.04-0.11C473.08,329.35,473.75,329.47,474.43,329.59z"/>
	<path class="st7" d="M518.37,336.75c-0.47,0.91-0.97,1.82-1.5,2.72c-2.52-0.41-5.2-0.29-7.46,0.24c-2.04,0.48-3.39,1.59-4.79,3.08
		c-1.27,1.35-2.57,2.65-4.35,3.3c-1.93,0.71-4.25,0.27-6.06,1.27c-1.31,0.72-1.93,2.26-2.01,3.69c-0.05,0.78,0.06,1.52,0.27,2.21
		c-1.01,0.09-2.03,0.17-3.04,0.23c-0.04-0.14-0.07-0.28-0.09-0.42c-0.52-3.05,0.46-6.55,3.22-8.22c1.64-0.99,3.51-0.98,5.34-1.26
		c1.9-0.29,3.07-1.3,4.35-2.65c1.22-1.3,2.45-2.57,4.08-3.33c1.8-0.84,3.77-1.15,5.74-1.24
		C514.15,336.28,516.3,336.35,518.37,336.75z"/>
	<path class="st4" d="M520.39,332.39c-0.26,0.61-0.53,1.23-0.82,1.86c-1.64-0.31-3.3-0.52-4.96-0.58c-2.42-0.08-4.83,0.16-7.13,0.9
		c-2.13,0.67-4,1.83-5.83,3.08c-1.79,1.22-3.54,2.51-5.52,3.41c-1.88,0.86-3.8,1.17-5.84,1.39c-2.03,0.22-4.41,0.46-5.66,2.31
		c-1.14,1.68-1.01,3.98-0.6,5.88c0.22,1.04,0.52,2.07,0.9,3.07c-0.71,0.03-1.42,0.05-2.12,0.07h-0.01c-0.48-1.4-0.81-2.85-0.97-4.3
		c-0.22-2,0-4.18,1.17-5.88c1.24-1.79,3.26-2.58,5.35-2.9c2.37-0.37,4.73-0.42,6.95-1.45c2.15-0.99,4.04-2.47,6-3.77
		c4.29-2.85,9-4.1,14.15-3.76C517.12,331.83,518.76,332.06,520.39,332.39z"/>
	<path class="st1" d="M395.5,742.5c0,4.84-0.73,10.98-1.89,17.77c-2.08,12.12-5.55,26.29-8.78,38.77
		c-3.2,12.34-6.17,23.03-7.33,28.46c-3,14-4,56-11,73s-13,26-16,28c-2.5,1.67-7.88,9.65-9.56,12.24c-0.33,0.5-0.52,0.8-0.52,0.81
		c0,0-0.07,0-0.2,0l-21.02-0.04c-1.93,0-3.01-2.23-1.82-3.75c1.96-2.5,4.49-5.63,6.13-7.26c3-3,7-6,10-10s11-31,14-34s5-21,5-27
		s-2-15,2-27s13-25,15-30s9-62,8-65s-6-4-9-8c-2.64-3.53-10.71-18.69-17.39-21.57c-3.93-10.07-9.94-26.09-10.61-31.43
		c-1-8,1-21-9-32s-33-32-18-38c0,0,18,8,25,28s8,39,21,50S395.5,720.5,395.5,742.5z"/>
	<path class="st1" d="M507,927c2.98,12.91,6.63,10.93,6.99,14.92l-95.53-0.21c-0.05-0.08-0.08-0.17-0.11-0.26
		c-1.08-3.85-5.71-20.29-8.35-26.45c-0.86-2.01-1.23-6.15-1.12-11.34c0.22-11.35,2.68-27.75,7.16-37.85
		c0.61-1.4,1.27-2.68,1.96-3.81c8-13,23-50,24-62c0.89-10.69,0.19-44.38,0.03-51.62c-0.01-0.71,0.63-1.26,1.33-1.12
		C447.07,747.99,458,754,466,753s25.74-15.91,45.66-17.32c1.42-0.1,1.61,2.01,0.2,2.21c-30.08,4.27-35.18,21.83-34.86,23.11
		c2,8-9,39,1,71c5.7,18.23,27.57,47.98,44.81,72.2C526.22,908.99,504,914,507,927z"/>
	<path class="st1" d="M487,942c0.05,0.66-57.63-0.04-68,0c-0.41,0-0.81,0.34-1,0l68.99-0.08C487,941.94,487,941.97,487,942z"/>
	<path class="st3" d="M358.09,935.78c-3.67,0.42-7.33,0.61-11,0.59c2.54-3.52,4.92-7.38,4.92-7.38s-10,3-13,8
		c-2.01,3.35-1.17,4.47,0.3,4.84c0.6,0.75,1.48,1.29,2.66,1.37c5.53,0.34,11.02,0.2,16.52-0.43
		C362.94,942.26,362.58,935.27,358.09,935.78z"/>
	<path class="st3" d="M411.56,943.57c-5.98-1.81-11.22-0.19-17.11,0.69c-4.49,0.66-7.73-0.29-11.7-2.08
		c-6.48-2.92-12.2-3.29-19.28-1.84c-1.9,0.39-3.53,0.81-5.51,0.83c-0.59-0.01-1.37-0.03-1.96-0.05c-3.39-3.63-8.64-5.51-14.17-3.89
		c-6.35,1.86-11.22,8.98-8.44,14.88c3.15,6.66,8.9,10.72,16.88,12.06c3.44,0.58,7.31,0.75,10.81,0.47c2.3-0.18,4.74-0.59,6.97-1.04
		c0.35-0.07,1.73-0.22,2.64-0.39c1.25,0.67,4.25,1.78,4.54,1.88c3.78,1.38,7.46,2.3,11.5,2.67c3.74,0.34,7.25,0.34,10.95-0.21
		c2.96-0.44,6.03-1.62,8.31-0.93c6.77,2.04,14.31-3.32,15.69-9.04C423.33,950.76,418.35,945.62,411.56,943.57z M356.76,942
		c0.79,0.66,1.37,1.58,1.73,2.76C358.02,943.77,357.43,942.85,356.76,942z"/>
	<path class="st3" d="M694.93,930.88c-0.16,0.01-0.32,0.03-0.48,0.04c0.23-1.23,0.43-2.51,0.57-3.88
		c1.34-12.65-4.94-25.85-12.02-27.04c-15.25-2.56-28.51-9.92-43.82-10c-15.53-0.08-30.55,3.81-45.75,10.13
		c-14.04,5.84-27.68,4.3-41.9,3.06c-14.49-1.26-28.82,2.61-43.22,5.49c-7.01,1.4-12.7,13.32-12.3,28.11
		c0.37,13.51,6.34,25.72,13.11,25.19c2.7,1.85,6.05,2.89,9.76,3.03c19.89,0.72,39.94,2.25,59.84,2c10.25-0.13,20.59-3.47,29.71-4.64
		c9.6-1.24,19.32-0.91,28.95-0.25c9.72,0.66,9.85-2.29,19.6-2.12c9.82,0.17,4.24-14.16,14-15
		C691.03,943.28,714.67,929.32,694.93,930.88z"/>
	<path class="st3" d="M300.58,937.95C297,924,295.12,919,291,921c-6.09,2.96-12.55,14.53-18.96,12.66
		c-7.06-2.06-12.87-0.62-19.94-0.14c-7.14,0.49-13.64-2.1-20.68-2.6c-3.42-0.24-6.59,0.19-9.98,0.64c-2.07,0.28-6.2,1.39-8.16-0.19
		c-3.6-2.9-8.5-3.27-11.75,0.56c-2.8,3.31-3.1,9.8,0.52,12.72c7.5,6.05,14.78,5.47,23.62,4.41c8-0.96,15.84,2.49,23.92,2.55
		c3.9,0.03,7.58-0.76,11.43-1.22c3.59-0.43,6.29,0.66,9.73,1.51c8.19,2.02,16.87,1.13,24.52-2.6
		C299.36,947.31,301.87,942.97,300.58,937.95z"/>
	<path class="st3" d="M422,955c0.21-0.74,0.13-2.09,0.34-2.83c0.23-1.57,0.07-3.09-0.5-4.57c-0.14-0.59-0.33-1.15-0.6-1.7
		c-0.57-1.19-1.46-1.84-2.25-2.91c-0.7-1.02-1.33-2.37-2.42-2.9c-0.95-0.68-2.03-1.09-3.22-1.23l-2.3-0.05
		c-1.22,0.08-2.33,0.46-3.33,1.13c-0.77,0.3-1.41,0.77-1.93,1.42c-0.93,0.75-1.62,1.7-2.06,2.85c-0.21,0.74-0.42,1.48-0.63,2.21
		c-0.07,0.47-0.09,0.93-0.09,1.39c-0.16,0.66-0.24,1.34-0.19,2.03c-0.12,1.17,0.05,2.31,0.52,3.42c0.41,1.19,1.08,2.18,2,2.98
		c0.75,0.93,1.7,1.62,2.85,2.06c0.15,0.06,0.3,0.1,0.45,0.15c0.38,0.24,0.79,0.46,1.23,0.64c1.08,0.51,2.2,0.73,3.36,0.66
		c1.17,0.12,2.31-0.05,3.42-0.52C418.83,958.29,421.14,957.28,422,955z"/>
	<path class="st3" d="M871,932c-17.44-0.38-25.33-8.03-42-10c-9.11-1.08-14.82-4.4-24-4c-9.26,0.4-13.97,2.05-23,4
		c-2.94,0.64-11,1-14,0s-18-1-26-7c-3.4-2.55,11.2,8.13,6.98,7.74c-8.48-0.78-16.77-3.16-25.08-4.88
		c-17.43-3.61-35.06-4.18-51.04,4.69c-6.38,3.54-7.79,12.82-4.02,18.66c4.18,6.47,12.27,7.57,18.66,4.02
		c11.48-6.37,26.7-1.88,39.65,0.98c8.6,1.9,17.25,3.44,26.09,3.62c8.94,0.18,17.76-1.8,26.44-3.68c15.58-3.37,30.53-3.61,46.3-1.44
		c17.23,2.37,33.4,0.58,51.47,0.98c7.56,0.16,13.58-4.49,13.19-8.59C890.18,932.38,878.58,932.17,871,932z"/>
	<path class="st9" d="M871,933c-17.44-0.38-25.33-8.03-42-10c-9.11-1.08-14.82-4.4-24-4c-9.26,0.4-13.97,2.05-23,4
		c-2.94,0.64-11,1-14,0c-1.81-0.6-7.96-0.84-14.32-2.25c-3.89-1.76-7.58-3.48-10.68-4.75c-3.96-1.62-15.87-3.46-20-5
		c-10.86-4.06-8.98-6.98-20.37-9.08c-13.67-2.52-27.48-5.93-38.13-15.42c-7.45-6.63-5.99-11.88-5.83-15.76
		c0.03-0.81,0-1.55-0.17-2.24c-2.3-9.33-6.94-17.36-6.28-27.25c0.64-9.52,4.22-18.54,5.07-28.01c0.75-8.43-0.64-17.08-2.25-25.33
		c-3.64-18.75-8.95-37.32-14.8-55.49c-10.2-31.73-6.75-66.9-21.04-97.31c-7.23-15.39-16.67-29.2-25.88-43.4
		c-9.94-15.33-16.93-34.76-30.86-47.06c-17.51-15.45-38.46-23.11-58.38-34.45c-16.24-9.25-29.15-22.96-42.74-35.54
		c-13.06-12.08-24.87-24.13-34.07-39.53c-4.27-7.14-9.05-14.54-11.01-22.73c-1.82-7.59,1.25-14.36,1.25-21.91
		c0-0.99-0.23-2.21-0.52-3.49c4.44-0.02,8.63-0.79,12.55-2.12c0.98-0.33,1.94-0.69,2.88-1.08c0.64-0.26,1.26-0.54,1.88-0.83
		c0.66-0.3,1.3-0.62,1.94-0.96v0c3.34-1.72,6.44-3.77,9.29-5.96l1.99-1.57c1.29-1.05,2.53-2.13,3.71-3.2
		c0.75-0.68,1.48-1.36,2.18-2.03c6.32-6.05,10.77-11.6,13.1-12.76c2.87-1.44,9.18-1.5,16.3-1.72h0.01c0.7-0.02,1.41-0.04,2.12-0.07
		c1.49-0.06,2.99-0.12,4.5-0.22c1.01-0.06,2.03-0.14,3.04-0.23c4.73-0.43,9.31-1.21,13.03-2.76c4.88-2.03,8.61-6.39,11.37-11.03
		c0.53-0.9,1.03-1.81,1.5-2.72c0.43-0.84,0.83-1.68,1.2-2.5c0.29-0.63,0.56-1.25,0.82-1.86c1.74-4.2,2.72-7.73,3.11-8.89
		c1-3,6-9,4-10s-12,13-27,17c-5.21,1.39-11.99,1.09-18.91,0.18c-0.97-0.12-1.94-0.26-2.91-0.4c-1.42-0.22-2.85-0.45-4.25-0.69
		c-0.68-0.12-1.35-0.24-2.02-0.36c-4.79-0.86-9.33-1.78-13.13-2.37c-0.67-0.1-1.32-0.2-1.95-0.28c-1.05-0.14-2.03-0.24-2.92-0.3
		c-1.21-0.07-2.25-0.07-3.09,0.05c-0.3,0.04-0.57,0.1-0.82,0.17c-7,2-12,15-14,18c-1.23,1.84-8.88,2.93-14.6,3.5
		c1.2-6.25,4.77-15.21,5.6-23.5c1-10,22-38,32-51c8.16-10.61,9.57-25.59,12.86-38.16c3.81-14.56,12.36-21.74,22.71-31.99
		c2.96-2.93,13.92-12.53,7.43-16.85c-3-2-20-2-33,10c-10.24,9.45-18.88,20.9-27.21,32.01c-3.61,4.81-6.7,10.26-10.54,14.85
		c-4.92,5.89-12.17,9.35-18.45,13.52c-6.24,4.15-12.94,7.93-18.79,12.61c-3.24,2.6-6.49,6.88-8.91,9.83
		c-0.42,0.51-0.81,0.97-1.17,1.39c-0.79,0.9-1.44,1.54-1.92,1.78c-2,1-4-9-7-5s-13,7-18,6s-8-9-10-10s-7,9-9,7
		c-0.12-0.12-0.3-0.38-0.51-0.75c-0.37-0.64-0.89-1.66-1.51-2.93c-0.18-0.38-0.38-0.78-0.58-1.21c-0.19-0.4-0.39-0.81-0.59-1.24
		c-0.11-0.24-0.22-0.47-0.34-0.72c-5.38-11.43-15.7-34.14-25.46-46.15c-13-16-35-28-40-31s-12-12-14-15s-15-11-19-7s7,15,10,17
		c3.06,2.04,4.89,7.55,6.49,10.64c2.74,5.3,5.42,10.63,8.36,15.82c6.94,12.23,3.15,23.29,3.15,36.54c0,7.19,1.42,14.24,2.24,21.34
		c0.94,8.15-2.24,15.59-2.24,23.66c0,12.23,8.12,20.2,3,33c-1.29,3.22,1.15,5.2,3.05,7.53c-3.37-0.48-7.85-1.32-9.05-2.53
		c-2-2-4-6-8-7s-13-3-17-8c-2.55-3.19-9.18-12.5-15.46-18.29c-0.8-0.73-1.59-1.4-2.36-2c-1.14-0.89-2.24-1.61-3.29-2.1
		c-0.66-0.32-1.3-0.54-1.9-0.65c-0.71-0.14-1.38-0.13-1.99,0.04c-3.38,0.96-6.98,4.02-10.94,7.04c-0.58,0.45-1.17,0.89-1.77,1.33
		c-0.69,0.5-1.39,1-2.1,1.47c-0.88,0.59-1.78,1.14-2.7,1.64c-2.37,1.3-4.86,2.26-7.49,2.52c-10,1-36-18-39-17s7,11,7,13
		c0,0.63,1.49,3.46,3.95,7.12c0.54,0.81,1.13,1.66,1.76,2.54c0.36,0.49,0.72,0.98,1.1,1.49c0.4,0.54,0.82,1.09,1.25,1.64
		c5.39,6.89,12.71,14.31,19.53,16.1c0.14,0.04,0.27,0.08,0.41,0.11c0.53,0.12,1.06,0.23,1.58,0.32c1.02,0.2,2.02,0.34,2.99,0.44
		c1.06,0.11,2.1,0.17,3.11,0.19c9.05,0.17,16-2.95,22.32-2.95c3.1,0,8.59,1.05,14.39,2.92c1.26,0.4,2.53,0.84,3.8,1.32
		c0.58,0.22,1.17,0.45,1.75,0.69c0.63,0.26,1.26,0.52,1.88,0.8c3.09,1.37,6.01,2.95,8.42,4.69c0.62,0.46,1.2,0.92,1.75,1.39
		c0.51,0.44,0.98,0.89,1.42,1.35c1.14,1.19,2.02,2.44,2.56,3.75v0.01c0.01,0.03,0.02,0.05,0.03,0.08
		c3.24,8.09,10.4,18.79,15.66,22.59c-0.41,0.27-0.66,0.41-0.66,0.41s0.14,1.54,0.47,4.09c0.2,1.53,0.47,3.43,0.82,5.57
		c0.62,3.85,1.5,8.51,2.71,13.34c3,12,4,9,11,31c5.91,18.59,6.08,39.59,6.4,58.92c0.4,24.19-3.97,47.9-6.85,71.84
		c-1.44,11.92-2.33,22.34-1.55,26.24c2.74,13.68,6.47,27.47,10.98,40.67c2.71,7.93,6,14.69,6.88,23.22
		c1.09,10.6,2.64,21.08,3.78,31.62c1.23,11.34-0.4,22.75-1.35,34.04c-1.58,18.81-2.22,38.17-8.66,56.11
		c-3.07,8.55-7.86,16.29-10.88,24.88c-3.26,9.28-5.5,18.88-8.29,28.31c-1.12,3.82-2,6.77-2.46,8.14
		c-4.44,13.33-2.08,27.76-6.92,40.98c-4.18,11.4-12.28,20.57-20.44,29.32c-9.71,10.4-23.96,14.55-34.64,23.71
		c-1.35,1.15-2.35,2.38-3.11,3.61c-2.67,3.35-2.9,9.67,0.65,12.54c7.5,6.05,14.78,5.47,23.62,4.41c8-0.96,15.84,2.49,23.92,2.55
		c3.9,0.03,7.58-0.76,11.43-1.22c3.59-0.43,6.29,0.66,9.73,1.51c8.19,2.02,16.87,1.13,24.52-2.6c4.09-1.99,6.61-6.33,5.31-11.36
		c-0.36-1.41-0.7-2.7-1.03-3.92c2.38-6.66,5.36-15.18,5.95-17.52c0.51-2.06,0.76-11.78,1.02-21.83c0.32-12.8,0.32-24.23,5.33-36.21
		c4.75-11.36,11.59-22.16,15.74-33.52c5.21-14.23,5.82-29.58,5.58-44.58c-0.12-7.72-0.52-15.42-0.63-23.14
		c-0.09-7.02,2.14-12.17,4.34-18.71c1.53-4.55,1.22-8.58,1.74-13.2c0.6-5.37,3.33-16.87,9.88-17.81c0.83-0.12,1.71,0.05,2.61,0.43
		c0.21,0.09,0.42,0.2,0.63,0.31c6.55,3.51,14.2,17.84,16.76,21.26c1.61,2.14,3.78,3.42,5.62,4.61c1.64,1.4,3.04,2.97,3.47,5.38
		c-0.28,10.68-6.26,58.45-8.09,63.01c-1.52,3.81-7.11,12.27-11.45,21.39c-0.91,1.8-1.73,3.63-2.41,5.53
		c-0.41,1.03-0.79,2.06-1.14,3.09c-4,12-2,21-2,27c0,2.51-0.35,7.12-0.98,11.86c-1.17,6.16-3.3,12.09-5.66,17.93
		c-0.7,1.49-1.49,3.44-2.34,5.64c-0.45,1.08-0.87,2.21-1.26,3.37c-3.27,8.87-6.94,19.78-8.76,22.2c0,0,0,0.01-0.01,0.01
		c-0.39,0.52-0.8,1.02-1.22,1.51c-2.81,3.26-6.17,5.87-8.77,8.48c-1.64,1.64-4.17,4.76-6.13,7.26c-1.19,1.52-0.11,3.74,1.82,3.75
		l16.15,0.03c-2.53,3.02-3.63,7.01-1.96,10.56c3.15,6.66,8.9,10.72,16.89,12.06c3.44,0.58,7.31,0.75,10.81,0.47
		c2.3-0.18,4.74-0.59,6.97-1.04c0.35-0.07,1.73-0.22,2.64-0.39c1.25,0.67,4.25,1.78,4.54,1.88c3.78,1.38,7.46,2.3,11.5,2.67
		c3.74,0.34,7.25,0.34,10.95-0.21c2.96-0.44,6.03-1.62,8.31-0.93c6.77,2.04,14.31-3.32,15.69-9.04c0.21-0.89,0.31-1.74,0.31-2.57
		c0,0,0-0.01,0.01-0.01c0.21-0.74,0.13-2.09,0.34-2.83c0.23-1.57,0.07-3.09-0.5-4.57c-0.14-0.59-0.33-1.15-0.6-1.7
		c-0.38-0.8-0.91-1.35-1.45-1.95c5.47-2.02,11.01-1.9,16.85-1.24c8.01,0.91,15.93,1.84,24,1.65c12.22-0.29,24.41,2.43,36.5,1.56
		c2.09,9.4,6.8,16.47,11.99,16.06c2.7,1.85,6.05,2.89,9.76,3.03c19.89,0.72,39.94,2.25,59.84,2c10.25-0.13,20.59-3.47,29.71-4.64
		c9.6-1.24,19.32-0.91,28.95-0.25c9.72,0.66,9.85-2.29,19.6-2.12c9.82,0.17,4.24-14.16,14-15c0.45-0.04,0.89-0.08,1.34-0.13
		c4.37,3.06,10.26,3.08,15.15,0.36c2.86-1.59,5.95-2.5,9.18-2.93l10.66,0.02c6.68,0.73,13.51,2.5,19.8,3.89
		c8.6,1.9,17.25,3.44,26.09,3.62c8.94,0.18,17.76-1.8,26.44-3.68c15.58-3.37,30.53-3.61,46.3-1.44c17.23,2.37,33.4,0.58,51.47,0.98
		c7.56,0.16,13.58-4.49,13.19-8.59C890.18,933.38,878.58,933.17,871,933z"/>
</g>
</svg>
