<?xml version="1.0" encoding="utf-8"?>
<!-- Generator: Adobe Illustrator 23.0.4, SVG Export Plug-In . SVG Version: 6.00 Build 0)  -->
<svg version="1.1" xmlns="http://www.w3.org/2000/svg" xmlns:xlink="http://www.w3.org/1999/xlink" x="0px" y="0px"
	 viewBox="0 0 909 940" style="enable-background:new 0 0 909 940;" xml:space="preserve">
<style type="text/css">
	.st0{fill:#065187;}
	.st1{fill:#1B1464;}
	.st2{fill:#291918;}
	.st3{fill:#3C0458;}
	.st4{fill:#24338A;}
	.st5{fill:#211B5A;}
	.st6{fill:#1B2668;}
	.st7{fill:#1B0300;}
	.st8{fill:#29388D;}
	.st9{fill:#AFB1B4;}
	.st10{fill:#B0B1B4;}
	.st11{clip-path:url(#SVGID_2_);fill:#000B8C;}
	.st12{clip-path:url(#SVGID_2_);fill:#B45846;}
	.st13{clip-path:url(#SVGID_2_);fill:#5E7775;}
	.st14{clip-path:url(#SVGID_2_);fill:#F0EA9B;}
	.st15{clip-path:url(#SVGID_2_);fill:#9E3223;}
	.st16{clip-path:url(#SVGID_2_);fill:#FF9D6C;}
	.st17{clip-path:url(#SVGID_2_);fill:none;}
	.st18{fill:#5E7775;}
	.st19{fill:#F0EA9B;}
	.st20{fill:#B45846;}
	.st21{fill:#B4B074;}
	.st22{fill:#2D5252;}
	.st23{fill:#160D0D;}
	.st24{opacity:0.57;fill:#B0B1B4;}
	.st25{fill:none;stroke:#000000;stroke-width:2;stroke-miterlimit:10;}
</style>
<g id="Layer_1">
</g>
<g id="Layer_2">
</g>
<g id="Layer_3">
	<g>
		<path class="st0" d="M683.05,99.63c0.04,12.69,1.8,26.66,5.26,41.94c0.4,1.84,0.85,3.72,1.32,5.6
			c2.91,11.77,6.78,24.29,11.65,37.6c0.73,2.03,1.5,4.09,2.3,6.16c3.47,9.14,7.39,18.64,11.77,28.5c0.86,1.93,1.73,3.87,2.64,5.85
			c4.52,9.97,9.5,20.29,14.92,30.99l34.68-17.58c-4.29-8.45-8.21-16.52-11.78-24.21c-0.92-1.99-1.83-3.95-2.69-5.88
			c-3.86-8.48-7.27-16.48-10.3-24.04c-0.81-2-1.58-3.96-2.32-5.9c-4.1-10.61-7.4-20.31-10.01-29.16c-0.66-2.23-1.28-4.42-1.86-6.54
			c-3.8-14.11-5.79-25.92-6.48-35.79c-0.17-2.58-0.27-5.01-0.27-7.33c-0.04-5.67,0.39-10.58,1.15-14.86
			c0.69-3.92,1.66-7.29,2.79-10.2c0.12-0.3,0.24-0.6,0.37-0.91c0.78-1.89,1.68-3.66,2.71-5.33c3.96-6.48,9.74-11.41,17.68-15.08
			c1.43-0.65,2.94-1.28,4.51-1.86c0.4-0.14,0.79-0.29,1.18-0.42c7.49-2.62,14.55-3.47,21.33-2.56c2.09,0.27,4.15,0.72,6.18,1.32
			c2.28,0.68,4.52,1.57,6.74,2.66c3.33,1.63,6.96,3.92,10.82,7.11c1.63,1.34,3.3,2.85,5,4.54c5.4,5.34,11.12,12.49,16.92,22.02
			c1.01,1.64,2.02,3.34,3.01,5.13c4.31,7.63,8.64,16.59,12.92,27.15c0.76,1.89,1.53,3.83,2.29,5.82c2.65,6.94,5.27,14.52,7.83,22.78
			c1.34,4.31,2.49,8.51,3.47,12.62c0.5,2.02,0.95,3.99,1.34,5.95c2.72,13.08,3.73,25.12,3.53,36.08c-0.04,2.13-0.13,4.21-0.26,6.25
			c-0.76,12.26-3.04,23.1-6.11,32.53c-0.71,2.17-1.44,4.26-2.22,6.26c-5.08,13.21-11.51,23.21-16.79,30.01
			c-5.5,7.09-9.75,10.7-9.91,10.83l24.77,29.98c2.05-1.7,20.38-17.38,34.26-47.55c1.27-2.75,2.52-5.67,3.72-8.78
			c0.71-1.77,1.38-3.61,2.05-5.5c4.39-12.64,7.92-27.84,9.02-45.42c0.13-1.93,0.22-3.89,0.27-5.88c0.39-12.95-0.55-27.1-3.41-42.41
			l-1.09-5.5c-1.44-6.8-3.25-13.8-5.5-21.01c-2.28-7.32-4.65-14.31-7.13-21.01c-0.69-1.89-1.4-3.74-2.12-5.59
			c-5.39-13.9-11.23-26.37-17.54-37.4c-1.01-1.8-2.04-3.54-3.08-5.26c-6.65-10.93-13.77-20.31-21.34-28.13c0,0,0,0,0-0.01
			c-1.54-1.58-3.1-3.1-4.67-4.54c-7.23-6.7-14.85-12.03-22.85-15.96c-6.91-3.4-14.1-5.76-21.44-7.07c-2.06-0.36-4.13-0.65-6.21-0.85
			c-12.56-1.21-25.53,0.56-38.47,5.34c-1.14,0.42-2.26,0.86-3.36,1.31c-2.03,0.84-4,1.71-5.92,2.66
			c-15.76,7.72-27.52,19-35.15,33.64c-0.79,1.54-1.54,3.11-2.25,4.71c-0.45,1.02-0.88,2.06-1.3,3.11
			c-3.86,9.82-6.02,20.85-6.48,33.17v0.01C683.05,95.7,683.02,97.65,683.05,99.63z"/>
		<path class="st1" d="M723.03,84.99c0.69-3.92,1.66-7.29,2.79-10.2c0.12-0.3,0.24-0.6,0.37-0.91c0.78-1.89,1.68-3.66,2.71-5.33
			c3.96-6.48,9.74-11.41,17.68-15.08c1.43-0.65,2.94-1.28,4.51-1.86c0.4-0.14,0.79-0.29,1.18-0.42c7.49-2.62,14.55-3.47,21.33-2.56
			c2.09,0.27,4.15,0.72,6.18,1.32c2.28,0.68,4.52,1.57,6.74,2.66c3.33,1.63,6.96,3.92,10.82,7.11c1.63,1.34,3.3,2.85,5,4.54
			c5.4,5.34,11.12,12.49,16.92,22.02c1.01,1.64,2.02,3.34,3.01,5.13c4.31,7.63,8.64,16.59,12.92,27.15
			c0.76,1.89,1.53,3.83,2.29,5.82c2.65,6.94,5.27,14.52,7.83,22.78c1.34,4.31,2.49,8.51,3.47,12.62c0.5,2.02,0.95,3.99,1.34,5.95
			c2.72,13.08,3.73,25.12,3.53,36.08c-0.04,2.13-0.13,4.21-0.26,6.25c-0.76,12.26-3.04,23.1-6.11,32.53
			c-0.71,2.17-1.44,4.26-2.22,6.26c-5.08,13.21-11.51,23.21-16.79,30.01c4.72,9.38,7.52,15.02,7.52,15.02s48.96-47.52,30.24-123.85
			c-18.72-76.33-33.12-93.61-72.01-125.29C760.93,15.79,721.57,59.76,723.03,84.99z"/>
		<path class="st2" d="M14.91,777.22c0,0.53,19.8-6.66,45.24-16.36c43.15-16.45,102.51-40.13,108.85-45.57
			c10.08-8.64-5.76-33.12,10.08-46.08c15.85-12.97,377.32-141.14,377.32-141.14l126.73-74.88l-86.41-100.81c0,0-3.84,4.32-8.48,9.63
			c-6.73,7.7-15.15,17.47-16,19.17c-1.44,2.88,0,54.72,0,61.93c0,7.2-119.53,56.16-119.53,56.16L107.08,657.68
			c0,0-2.88,12.97-5.76,14.41s12.96,36,4.32,41.76S14.91,775.78,14.91,777.22z"/>
		<path class="st23" d="M60.15,760.86c43.15-16.45,102.51-40.13,108.85-45.57c10.08-8.64-5.76-33.12,10.08-46.08
			c15.85-12.97,377.32-141.14,377.32-141.14l126.73-74.88l-86.41-100.81c0,0-3.84,4.32-8.48,9.63L636.91,439l-76,63l-374,148
			c0,0-27,11-29,17s7,34,0,38C153.12,707.74,95.81,740.49,60.15,760.86z"/>
		<path class="st1" d="M579.44,640.88c6.03,9.8,16.8,7.95,26.12,12.1c4.63,2.06,8.68,5.36,13.35,7.26
			c5.65,2.31,12.06,1.87,18.02,1.71c12.03-0.32,10.94,18.37-1.06,18.7c-7.24,0.2-14.64,0.17-21.58-2.19
			c-6.71-2.29-12.18-7.46-18.98-9.34c-6.48-1.79-12.66-2.17-18.68-5.58c-5.87-3.32-10.3-8.3-13.8-13.99
			C556.51,639.27,573.15,630.67,579.44,640.88z"/>
		<path class="st3" d="M584.46,631.28c0.98,4.32,7.08,5.13,10.72,6.12c5.44,1.49,10.55,3.19,15.6,5.75
			c8.62,4.38,16.92,14.41,27,14.45c12.04,0.04,10.98,18.74-1.06,18.7c-15.56-0.05-24.87-12.97-38.37-18.34
			c-13.14-5.22-28.46-6.31-32.19-22.74C563.49,623.47,581.79,619.52,584.46,631.28z"/>
		<path class="st3" d="M575.91,655.92c3.18,5.33,5.15,6.72,11.1,7.67c4.95,0.79,9.68,2.12,14.32,4.03
			c10.61,4.36,21.52,11.87,33.49,10.54c9.12-1.01,12.25,13.06,3.04,14.08c-16.29,1.81-28.6-6.29-43.22-11.81
			c-6.16-2.33-13.12-2.05-19.05-4.75c-5.8-2.65-9.28-7.77-12.44-13.08C558.38,654.61,571.18,647.99,575.91,655.92z"/>
		<path class="st1" d="M576.8,668.03c1.46,4.08,7.55,5.3,11.06,6.33c5.04,1.47,9.57,2.96,14.24,5.38
			c9.58,4.96,22.04,3.65,32.54,3.37c9.25-0.25,8.41,14.13-0.81,14.38c-7.78,0.21-15.7,0.34-23.46-0.46
			c-7.02-0.72-11.97-3.5-18.27-6.24c-12.15-5.3-24.3-5.48-29.38-19.72C559.61,662.37,573.72,659.42,576.8,668.03z"/>
		<path class="st3" d="M574.65,676.16c5.67,8.67,15.46,8.77,24.93,10.79c4.55,0.97,9.1,1.93,13.66,2.9
			c4.46,0.95,9.72,3.02,13.79,0.25c7.65-5.22,14.24,7.61,6.67,12.77c-10.55,7.2-27.38,0.16-38.6-2.23
			c-6.81-1.45-14.48-2.16-20.8-5.18c-5.65-2.69-9.08-7.54-12.42-12.63C556.8,675.06,569.62,668.47,574.65,676.16z"/>
		<path class="st4" d="M795.46,912.59c1.02,4.12,7.2,10.44,12.75,13.71c2.22,1.31,4.33,2.13,5.98,2.13
			c5.76,0,72.01-56.17,73.45-59.05c1.44-2.88,7.2-4.32,12.96-8.64c5.76-4.32,15.84-18.72,17.28-24.48
			c1.44-5.76-10.08-10.08-10.08-12.96c0-1.17-2.15-2.82-4.88-4.57c-4-2.52-9.25-5.24-10.96-6.96c-2.88-2.88-1.44-8.64-2.88-10.08
			s-8.64-8.64-12.96-8.64s-25.92-25.92-25.92-25.92c-10.08-1.44-54.72,43.2-53.28,46.08c1.44,2.88,23.04,30.24,25.92,34.56
			s0,15.84,0,18.72c0,2.88-10.08,8.64-17.28,15.84C798.34,889.55,794.02,906.83,795.46,912.59z"/>
		<path class="st5" d="M808.21,926.3c2.22,1.31,4.33,2.13,5.98,2.13c5.76,0,72.01-56.17,73.45-59.05c1.44-2.88,7.2-4.32,12.96-8.64
			c5.76-4.32,15.84-18.72,17.28-24.48c1.44-5.76-10.08-10.08-10.08-12.96c0-1.17-2.15-2.82-4.88-4.57
			c-1.51,6.88-3.17,16.16-2.32,20.41c1.44,7.2-82.09,76.33-83.53,74.89C816.1,913.06,811.31,920.44,808.21,926.3z"/>
		<path class="st3" d="M729.19,693.92c0,0-83.5-3.11-47.5,28.57C700.42,726.81,753.65,704.23,729.19,693.92z"/>
		<path class="st1" d="M670.59,701.03c0.12-0.13,0.25-0.25,0.37-0.38c1.5-1.53,3.27-1.52,4.68-0.72c4.1,0.09,8.2,0.12,12.3,0.07
			c0.73-0.01,1.35,0.14,1.88,0.39c7.82,0.52,16.68-1.15,24.4-1.83c9.79-0.86,19.6-3.3,29.27-5.05c5.46-0.99,7.31,7.45,1.82,8.45
			c-10.1,1.83-20.38,4.42-30.62,5.23c-8.82,0.7-18.44,2.73-27.23,1.7c-0.38-0.04-0.73-0.14-1.05-0.25
			c-4.38,0.05-8.76,0.02-13.14-0.1C669.36,708.43,668.1,703.57,670.59,701.03z"/>
		<path class="st1" d="M668.68,675.87c24.34-1.4,48.68-2.81,73.02-4.21c5.54-0.32,5.02,8.31-0.49,8.63
			c-24.34,1.4-48.68,2.81-73.02,4.21C662.66,684.82,663.17,676.19,668.68,675.87z"/>
		<path class="st3" d="M749.38,696.57c0,0,2.88-12.96-10.08-14.4c-12.96-1.44-64.72,4.32-64.72,4.32s-14.49,12.96-0.09,18.72
			S749.38,696.57,749.38,696.57z"/>
		<path class="st1" d="M667.71,690.95c0.12-0.13,0.25-0.25,0.37-0.38c1.5-1.53,3.27-1.52,4.68-0.72c4.1,0.09,8.2,0.12,12.3,0.07
			c0.73-0.01,1.35,0.14,1.88,0.39c7.82,0.52,16.68-1.15,24.4-1.83c9.79-0.86,19.6-3.3,29.27-5.05c5.46-0.99,7.31,7.45,1.82,8.45
			c-10.1,1.83-20.38,4.42-30.62,5.23c-8.82,0.7-18.44,2.73-27.23,1.7c-0.38-0.04-0.73-0.14-1.05-0.25
			c-4.38,0.05-8.76,0.02-13.14-0.1C666.48,698.35,665.22,693.49,667.71,690.95z"/>
		<path class="st3" d="M738.92,669.76c0,0,7.58,9.52,6.14,12.4c-1.44,2.88-12.96,7.2-25.92,7.2s-30.24,5.76-37.44,4.32
			c-7.2-1.44-24.48-4.32-11.52-15.84C683.13,666.33,738.92,669.76,738.92,669.76z"/>
		<path class="st1" d="M664.83,680.87c0.12-0.13,0.25-0.25,0.37-0.38c1.5-1.53,3.27-1.52,4.68-0.72c4.1,0.09,8.2,0.12,12.3,0.07
			c0.73-0.01,1.35,0.14,1.88,0.39c7.82,0.52,16.68-1.15,24.4-1.83c9.79-0.86,19.6-3.3,29.27-5.05c5.46-0.99,7.31,7.45,1.82,8.45
			c-10.1,1.83-20.38,4.42-30.62,5.23c-8.82,0.7-18.44,2.73-27.23,1.7c-0.38-0.04-0.73-0.14-1.05-0.25
			c-4.38,0.05-8.76,0.02-13.14-0.1C663.6,688.27,662.34,683.41,664.83,680.87z"/>
		<path class="st3" d="M742.18,657.68c0,0,5.76,11.52,2.88,15.84c-2.88,4.32-20.16,4.32-28.8,5.76c-8.64,1.44-48.96,7.2-51.84,4.32
			c-2.88-2.88-7.2-23.04-2.88-25.92C665.85,654.8,742.18,657.68,742.18,657.68z"/>
		<path class="st0" d="M701.86,754.17c1.44,2.88,27.36,24.48,31.68,24.48s47.52,30.24,54.72,34.56c7.2,4.32,15.84,2.88,20.16,1.44
			c1.86-0.62,5.34-3.66,8.8-7.13c4.57-4.59,9.1-9.95,9.92-11.59c1.44-2.88,12.96-10.08,17.28-12.96c4.32-2.88,10.08-14.4,10.08-14.4
			c1.44-4.32,0-7.2,0-11.52c0-4.32-23.04-10.08-27.36-15.84c-4.32-5.76-27.36-12.96-28.8-18.72c-1.44-5.76-35.77-27.69-41.76-31.68
			c-4.32-2.88-18.72,1.44-20.16,1.44s-18.72,7.2-20.16,8.64c-1.22,1.22-6.67,2.46-10.92,3.69c-0.72,0.22-1.41,0.42-2.04,0.63
			c-4.32,1.44-24.48,10.08-25.92,17.28C675.93,729.69,700.42,751.29,701.86,754.17z"/>
		<path class="st4" d="M701.86,754.17c1.44,2.88,27.36,24.48,31.68,24.48s47.52,30.24,54.72,34.56c7.2,4.32,15.84,2.88,20.16,1.44
			c1.86-0.62,5.34-3.66,8.8-7.13c-9.46-4.38-19.99-9.74-26.08-14.47c-12.96-10.08-21.6-21.6-30.24-27.36
			c-8.64-5.76-33.12-10.08-40.32-21.6c-3.92-6.26-9.53-24.47-15.24-39.52c-0.72,0.22-1.41,0.42-2.04,0.63
			c-4.32,1.44-24.48,10.08-25.92,17.28C675.93,729.69,700.42,751.29,701.86,754.17z"/>
		<path class="st6" d="M678.91,282.88c0,0,83.43,258.16,116.55,256.72c24.06-1.05,68.68-18.82,94.57-37.3
			c9.74-6.96,16.84-14.01,19.2-20.31c8.64-23.04-89.5-263.14-113.77-266.42c-21.29-2.88-44.15,7.29-63.96,20.54
			C701.74,256,678.91,282.88,678.91,282.88z"/>
		<path class="st5" d="M678.91,282.88c0,0,83.43,258.16,116.55,256.72c24.06-1.05,68.68-18.82,94.57-37.3
			c-8.27-22.71-24.01-57.75-24.01-57.75l-72.01-67.69l28.8-15.84l-37.44-92.17l-53.88-32.75C701.74,256,678.91,282.88,678.91,282.88
			z"/>
		<path class="st2" d="M490.16,218.44c0,56.47,45.78,102.25,102.25,102.25c12.83,0,25.12-2.36,36.42-6.7
			c8.81-3.34,17.02-7.88,24.47-13.41c25.1-18.64,41.36-48.49,41.36-82.15c0-56.47-45.78-102.25-102.25-102.25
			c-19.07,0-36.92,5.23-52.2,14.33c-23.36,13.88-40.71,36.82-47.22,63.99C491.14,202.19,490.16,210.21,490.16,218.44z"/>
		<path class="st7" d="M498.8,212.68c0,55.04,43.49,99.92,97.99,102.16c1.41,0.06,2.84,0.09,4.26,0.09
			c10.04,0,19.76-1.45,28.93-4.15c0.37-0.12,0.73-0.22,1.09-0.33c27.49-8.44,50.04-28.14,62.29-53.73c0,0,0,0,0-0.01
			c3.93-8.25,6.81-17.11,8.41-26.4c-2.29-8.28-4.23-24.83-4.23-24.83c0-17.89-4.15-34.76-11.51-49.67
			c-18.35-27.36-49.55-45.38-84.98-45.38c-49.14,0-90.21,34.69-100,80.91c-0.32,1.45-0.59,2.92-0.84,4.41
			C499.27,201.26,498.8,206.91,498.8,212.68z"/>
		<path class="st6" d="M493.01,200.28c2.03-1.35,4.44-2.91,7.2-4.54c19.59-11.64,56.18-27.68,90.76-11.87
			c50.4,23.04,53.28,87.85,51.84,92.17c-0.94,2.82-27.59,24.01-46.03,38.8c-9.84,7.91-17.34,13.98-17.34,14.49
			c0,0.35,0,0.85,0.04,1.43c0.12,1.83,0.65,4.33,2.84,4.33c0.56,0,5.67-2.09,13.34-5.7c9.27-4.38,22.26-11.02,35.41-18.94
			c5.9-3.56,11.85-7.37,17.5-11.36c24.68-17.44,42.54-39.66,43.2-40.32c0.24-0.24,0.81-0.96,1.58-2.05c0,0,0,0,0-0.01
			c3.79-5.3,12.33-18.84,9.94-22.42c-0.52-0.76-1.02-2.17-1.53-3.97c-2.29-8.28-4.23-24.83-4.23-24.83
			c0-17.89-4.15-34.76-11.51-49.67c-17.51-35.48-53.18-59.78-94.34-59.78c-28.04,0-53.53,11.28-72.47,29.67
			c-8.09,7.86-14.98,17.02-20.38,27.16c-4.67,8.77-8.19,18.29-10.38,28.31c-1.08,4.94-1.84,9.99-2.26,15.16
			C485.91,199.97,489.98,202.32,493.01,200.28z"/>
		<path class="st5" d="M493.01,200.28c16.46-11.03,58.53-34.43,97.96-16.4c50.4,23.04,53.28,87.85,51.84,92.17
			s-63.37,51.84-63.37,53.28c0,0.35,0,0.85,0.04,1.43c3.44-0.04,6.91-0.26,10.4-0.65c1.93-0.22,3.86-0.46,5.77-0.72
			c13.44-6.35,34.68-17.43,52.91-30.3c24.68-17.44,42.54-39.66,43.2-40.32c1.48-9.29-6.77-36.65-7.86-46.44
			c-6.57-58.5-59.3-100.59-117.79-94.03c-26.96,3.02-50.45,15.87-67.28,34.56c-4.67,8.77-8.19,18.29-10.38,28.31
			c-1.08,4.94-1.84,9.99-2.26,15.16C485.91,199.97,489.98,202.32,493.01,200.28z"/>
		<path class="st4" d="M644.25,664.89c8.64-2.88,10.08-5.76,10.08-5.76s1.44,7.2,8.64,8.64c1.54,0.3,5.96,0.75,12.03,1.14
			c22.34,1.43,66.97,2.16,71.5-6.9c5.76-11.52,5.76-12.96,8.64-14.4c2.88-1.44,8.64-7.2,8.64-10.08s2.88-37.44,2.88-44.64
			c0-7.2,20.16-33.12,18.72-40.32c-1.44-7.2-12.96-70.57-17.28-76.33c-4.32-5.76-5.76-37.44-4.32-41.76
			c1.44-4.32-4.32-67.69-8.64-73.45c-4.32-5.76-7.2-40.32-15.84-47.52c-8.64-7.2-21.6-27.36-24.48-33.12
			c-2.88-5.76,1.44-21.6,1.44-21.6c0.33-0.65-0.23-2.17-1.31-4.16c-3.66-6.78-13.41-18.88-14.53-18.88
			c-1.44,0-30.24,41.76-48.96,56.17c-18.72,14.4-67.69,38.88-67.69,38.88s-1.44,10.08,0,12.96c1.44,2.88,2.88,10.08,1.44,11.52
			s2.88,36,11.52,59.05c8.64,23.04,15.84,40.32,15.84,40.32s18.72,43.2,20.16,44.64s-11.52,20.16-12.96,23.04
			s-57.61,73.45-59.05,87.85S635.61,667.77,644.25,664.89z"/>
		<path class="st0" d="M631.29,392.7c8.64,31.68,36,46.08,50.4,60.49s0,57.61-2.88,72.01c-2.88,14.4-24.48,72.01-23.04,87.85
			c1.44,15.84,17.28,36,18.72,41.76c0.68,2.69,0.4,8.51,0.5,14.1c22.34,1.43,66.97,2.16,71.5-6.9c5.76-11.52,5.76-12.96,8.64-14.4
			c2.88-1.44,8.64-7.2,8.64-10.08s2.88-37.44,2.88-44.64c0-7.2,20.16-33.12,18.72-40.32c-1.44-7.2-12.96-70.57-17.28-76.33
			c-4.32-5.76-5.76-37.44-4.32-41.76c1.44-4.32-4.32-67.69-8.64-73.45c-4.32-5.76-7.2-40.32-15.84-47.52
			c-8.64-7.2-21.6-27.36-24.48-33.12c-2.88-5.76,1.44-21.6,1.44-21.6c0.33-0.65-0.23-2.17-1.31-4.16c-6.7,5.69-14.4,13.23-17.41,20
			c-5.76,12.96-20.16,53.28-28.8,60.49C660.09,342.3,622.65,361.02,631.29,392.7z"/>
		<path class="st0" d="M569.36,726.81c1.44,2.88,17.28,38.88,21.6,43.2c4.32,4.32,17.28,12.96,17.28,15.84
			c0,2.88,10.08,12.96,12.96,15.84s21.6,0,25.92-2.88c3.15-2.1,4.77-4.97,7.65-6.35c1.07-0.53,2.32-0.85,3.87-0.85
			c5.76,0,17.28-1.44,18.72-2.88s11.52-2.88,12.96-5.76c1.44-2.88,8.64-10.08,7.2-12.96c-1.44-2.88-34.56-47.52-40.32-50.4
			c-5.76-2.88-10.08-21.6-15.84-23.04c-3.95-0.99-14.4-1.44-18.72,0c-4.32,1.44-18.72,4.32-20.16,2.88
			c-0.81-0.81-7.11-3.46-13.23-5.36c-4.74-1.45-9.36-2.48-11.25-1.84c-4.32,1.44-15.84,2.88-17.28,4.32
			C559.28,698.01,567.92,723.93,569.36,726.81z"/>
		<path class="st4" d="M644.25,870.82c-1.44,1.44-17.28,28.8-15.84,34.56c0.72,2.91,5.14,6.19,9.88,8.54
			c4.64,2.29,9.59,3.69,11.72,2.98c4.32-1.44,67.69-47.52,67.69-47.52s8.64-4.32,11.52-7.2c2.88-2.88,14.4-15.84,15.84-18.72
			c1.35-2.69-4.87-10.44-8.04-12.59c-0.22-0.16-0.42-0.29-0.6-0.37c-2.88-1.44-7.2-11.52-8.64-14.4c-1.44-2.88-1.44-2.88-4.32-4.32
			c-2.88-1.44-12.96-14.4-14.4-15.84s-12.96-27.36-12.96-27.36c-2.68-3.93-74.89,25.92-74.89,27.36s37.44,53.28,37.44,54.72
			s-4.32,11.52-5.76,12.96S645.69,869.38,644.25,870.82z"/>
		<path class="st3" d="M606.81,460.39c0,0-10.08-1.44-10.08,2.88c0,4.32,14.4,37.44,17.28,38.88c2.88,1.44,14.4-2.88,12.96-5.76
			C625.53,493.51,606.81,460.39,606.81,460.39z"/>
		<path class="st3" d="M588.09,466.15c0,1.44,5.76,23.04,8.64,27.36c2.88,4.32,10.08,11.52,11.52,11.52c1.04,0,5.05-1.5,6.68-3.4
			c0.65-0.75,0.92-1.56,0.52-2.36c-1.14-2.29-10.46-23.63-14.24-32.33c-0.98-2.26-1.6-3.67-1.6-3.67S588.09,464.71,588.09,466.15z"
			/>
		<path class="st0" d="M525.09,530.69c0.2,0.79,0.51,1.51,0.92,2.12c3.11,4.67,21.77,15.55,26.44,20.22s4.67,1.56,23.33,1.56
			c18.66,0,22.58-18.17,28-28c8.21-14.95,5.68-27.73,0.64-37.67c-5.44-10.76-13.83-18.2-14.64-21.43c-1.56-6.22-14-6.22-17.11-6.22
			s-20.22-3.11-24.89,0s-6.22,20.22-4.67,21.77c1.56,1.56,9.33-4.67,14-1.56s-1.56,9.33-4.67,21.77
			c-3.11,12.44-20.22,7.78-23.33,10.89C526.42,516.85,523.71,525.44,525.09,530.69z"/>
		<path d="M614.93,501.63c0.59,0.27,1.11,0.37,1.56,0.22c3.28-1.14-5.5-18.79-5.5-18.79c-1.74-3.43-5.88-11.69-9.78-16.12
			c3.79,8.7,13.11,30.04,14.24,32.33C615.85,500.08,615.58,500.88,614.93,501.63z"/>
		<path class="st3" d="M758.74,400.62c2.88,0,11.52,0,11.52,4.32s-10.08,12.96-23.04,17.28c-12.96,4.32-35.56,5.76-37.22,0
			C708.34,416.46,758.74,400.62,758.74,400.62z"/>
		<path class="st1" d="M718.23,404.46c3.5-2.34,7.05-1.69,11.33-1.25c5.98,0.61,11.72,0.89,17.72,1.11
			c8.47,0.31,17.31,2.34,20.58,9.34c1.94,4.15-5.7,7.42-7.66,3.23c-2.89-6.17-11.33-5.48-18.06-5.66
			c-3.33-0.09-16.84-2.46-18.09-1.63C719.79,412.46,713.94,407.32,718.23,404.46z"/>
		<path class="st3" d="M764.5,410.7c0,0,5.76,4.32,4.32,8.64s-11.52,7.2-21.6,7.2c-10.08,0-38.88,2.88-30.24-5.76
			C725.62,412.14,764.5,410.7,764.5,410.7z"/>
		<path class="st1" d="M722.85,413.11c3.6-2.77,7.12-1.84,11.38-1.14c5.95,0.97,11.67,1.53,17.66,2.02
			c8.45,0.69,17.19,3.52,20.15,12.31c1.76,5.21-6.03,8.98-7.8,3.72c-2.61-7.75-11.08-7.19-17.79-7.67c-3.33-0.23-16.72-3.65-18-2.67
			C724.05,423.07,718.43,416.5,722.85,413.11z"/>
		<path class="st3" d="M765.94,420.78c0,0,8.64,4.32,5.76,12.96s-4.32,10.08-14.4,10.08s-28.8-7.2-33.12-8.64
			s-18.09-7.82-11.2-11.11C719.86,420.78,765.94,420.78,765.94,420.78z"/>
		<path class="st4" d="M608.25,477.67c1.64,1.64,2.82,5.16,4.59,9.48c1.32,3.25,3.01,6.97,5.49,10.69
			c5.76,8.64,27.36,7.2,31.68,5.76s24.48-12.96,31.68-12.96c7.2,0,24.48-11.52,25.92-12.96s14.4-2.88,21.6-4.32
			c7.2-1.44,19.96-28.01,14.4-25.92c-3.67,1.38-7.79-0.32-11.78-3.31c-8.53-6.41-16.5-18.75-18.46-19.73
			c-2.88-1.44-23.04-1.44-25.92-1.44h-18.72c-4.32,0-20.16,8.64-23.04,10.08s-12.96,1.44-20.16,2.88
			c-7.2,1.44-17.28,8.64-20.16,14.4C602.49,456.07,605.37,474.79,608.25,477.67z"/>
		<path class="st1" d="M712.47,425.5c3.5-2.9,7.05-2.09,11.33-1.55c5.98,0.76,11.72,1.11,17.72,1.38
			c8.47,0.38,17.31,2.89,20.58,11.57c1.94,5.15-5.7,9.19-7.66,4c-2.89-7.65-11.33-6.79-18.06-7.02c-3.33-0.11-16.84-3.05-18.09-2.01
			C714.02,435.41,708.18,429.05,712.47,425.5z"/>
		<path class="st8" d="M673.05,314.93c8.69-1.09,41.76,12.96,44.64,17.28c2.88,4.32,15.84,18.72,18.72,21.6
			c2.88,2.88,30.24,27.36,31.68,31.68c1.44,4.32-5.76,21.6-14.4,27.36c-8.64,5.76-17.28,8.64-21.6,8.64s-11.52-2.88-15.84,0
			c-4.32,2.88-10.08,0-12.96,0s-10.08-2.88-12.96-4.32s-17.28-15.84-21.6-17.28c-4.32-1.44-20.16-28.8-23.04-31.68
			c-2.88-2.88-2.88-27.36,0-33.12S661.53,316.37,673.05,314.93z"/>
		<path class="st4" d="M569.36,726.81c1.44,2.88,17.28,38.88,21.6,43.2c4.32,4.32,17.28,12.96,17.28,15.84
			c0,2.88,10.08,12.96,12.96,15.84s21.6,0,25.92-2.88c3.15-2.1,4.77-4.97,7.65-6.35c-3.76-10.01-8.37-20.32-9.09-23.89
			c-1.44-7.2-28.8-24.48-43.2-37.44c-8.18-7.36-11.71-24.02-13.23-37.04c-4.74-1.45-9.36-2.48-11.25-1.84
			c-4.32,1.44-15.84,2.88-17.28,4.32C559.28,698.01,567.92,723.93,569.36,726.81z"/>
		<path class="st6" d="M612.84,487.14c1.32,3.25,3.01,6.97,5.49,10.69c5.76,8.64,27.36,7.2,31.68,5.76s24.48-12.96,31.68-12.96
			c7.2,0,24.48-11.52,25.92-12.96s14.4-2.88,21.6-4.32c7.2-1.44,19.96-28.01,14.4-25.92c-3.67,1.38-7.79-0.32-11.78-3.31
			c-4.21,8.28-11.32,18.32-21.34,19.15c-17.28,1.44-47.52-2.88-56.17,4.32C648.95,472.07,627.93,481.02,612.84,487.14z"/>
		<path class="st3" d="M758.61,447.89c-3.43,5.47-15.42,6.06-21.59,4.55s-29.4-18.85-30.84-22.73s1.27-5.95,8.34-5.25
			C721.6,425.16,770.95,428.19,758.61,447.89z"/>
		<path class="st6" d="M525.09,530.69c0.2,0.79,0.51,1.51,0.92,2.12c3.11,4.67,21.77,15.55,26.44,20.22s4.67,1.56,23.33,1.56
			c18.66,0,22.58-18.17,28-28c8.21-14.95,5.68-27.73,0.64-37.67c-4.12-3.17-8.97-4.54-14.64-2.77c0,0,0,14-4.67,20.22
			c-4.67,6.22-17.11,23.33-23.33,24.89c-6.22,1.56-9.33-1.56-12.44,3.11c-3.11,4.67-12.44-3.11-14-4.67
			C534.38,528.73,529.25,529.56,525.09,530.69z"/>
		<path class="st5" d="M638.29,913.93c4.64,2.29,9.59,3.69,11.72,2.98c4.32-1.44,67.69-47.52,67.69-47.52s8.64-4.32,11.52-7.2
			c2.88-2.88,14.4-15.84,15.84-18.72c1.35-2.69-4.87-10.44-8.04-12.59l-6.37,11.15C730.66,842.02,649.54,898.92,638.29,913.93z"/>
		<path class="st0" d="M405.19,562.64c0,1.56,1.68,5.92,4.05,10.93c4.18,8.9,10.47,19.83,13.23,20.75c4.32,1.44,25.92,2.88,36,2.88
			c10.08,0,41.76-5.76,44.64-10.08c1.63-2.45,9.26-15.97,15.05-28.02c4.45-9.25,7.81-17.63,6.55-19.5
			c-2.88-4.32-12.96,5.76-15.84,2.88c-4.55-4.55-17.28-18.72-27.36-17.28c-10.08,1.44-15.84,1.44-18.72,4.32s-11.52,5.76-17.28,5.76
			c-5.76,0-12.96,0-15.84,4.32c-2.88,4.32-7.2,11.52-8.64,11.52h-11.52C403.75,551.12,405.19,558.32,405.19,562.64z"/>
		<path class="st6" d="M409.24,573.57c4.18,8.9,10.47,19.83,13.23,20.75c4.32,1.44,25.92,2.88,36,2.88
			c10.08,0,41.76-5.76,44.64-10.08c1.63-2.45,9.26-15.97,15.05-28.02c-6.61-1.31-14.2-2.89-16.49-3.66
			c-4.32-1.44-10.08-11.52-18.72-7.2s-10.08,8.64-21.6,8.64s-28.8,4.32-33.12,4.32C425.51,561.2,415.95,567.47,409.24,573.57z"/>
		<path class="st2" d="M511.76,476.29l27.37-11.86c15.15-6.56,22.18-24.33,15.62-39.49l-28.62-66.07
			c-3.13-7.23-11.6-10.58-18.83-7.45l-56.2,24.34c-7.23,3.13-10.58,11.6-7.45,18.83l28.62,66.07
			C478.84,475.83,496.61,482.85,511.76,476.29z"/>
		<g>
			<path class="st7" d="M483.37,450.7c2.63,6.19,9.85,9.12,16.05,6.49c6.19-2.63,9.12-9.85,6.49-16.05l-21.93-51.71
				c-2.63-6.19-9.85-9.12-16.05-6.49l-0.08,0.03c-6.13,2.65-9.03,9.84-6.41,16.02l0.59,1.41l0.57,1.32l1.4,3.32l0.56,1.33l1.69,3.98
				l0.56,1.33l1.69,3.98l0.56,1.33l1.4,3.32l0.86,1.98l1.68,3.98l0.57,1.32l1.12,2.65l0.56,1.33l1.69,3.98l0.56,1.33l0.57,1.32
				l0.84,1.99l0.56,1.33L483.37,450.7z"/>
			<path class="st9" d="M462.03,400.4l0.57,1.32l7.76-3.36c0.37-0.16,0.54-0.58,0.37-0.95c-0.16-0.37-0.58-0.54-0.95-0.38
				L462.03,400.4z"/>
			<path class="st9" d="M464.01,405.03l4.48-1.94c0.37-0.16,0.79,0,0.95,0.37s0,0.79-0.37,0.95l-4.49,1.94L464.01,405.03z"/>
			<path class="st9" d="M468.5,415.64l4.56-1.97c0.37-0.16,0.79,0,0.95,0.37c0.16,0.37,0,0.79-0.38,0.95l-4.57,1.98L468.5,415.64z"
				/>
			<path class="st9" d="M473,426.25l4.64-2.01c0.37-0.16,0.54-0.58,0.38-0.95c-0.16-0.37-0.58-0.54-0.95-0.38l-4.63,2L473,426.25z"
				/>
			<path class="st9" d="M477.49,436.86l4.72-2.04c0.37-0.16,0.54-0.58,0.37-0.95c-0.16-0.37-0.58-0.54-0.95-0.37l-4.71,2.04
				L477.49,436.86z"/>
			<path class="st9" d="M466.26,410.34l8.49-3.67c0.37-0.16,0.79,0,0.95,0.37s0,0.79-0.37,0.95l-8.5,3.68L466.26,410.34z"/>
			<path class="st9" d="M470.75,420.95l0.57,1.32l7.9-3.42c0.37-0.16,0.54-0.58,0.38-0.95c-0.16-0.37-0.58-0.54-0.95-0.38
				L470.75,420.95z"/>
			<path class="st9" d="M475.25,431.56l8.64-3.74c0.37-0.16,0.54-0.58,0.37-0.95c-0.16-0.37-0.58-0.54-0.95-0.38l-8.63,3.73
				L475.25,431.56z"/>
			<path class="st9" d="M479.47,441.5l8.05-3.48c0.37-0.16,0.54-0.58,0.38-0.95c-0.16-0.37-0.58-0.54-0.95-0.38l-8.04,3.48
				L479.47,441.5z"/>
		</g>
		<path class="st2" d="M845.06,246.86c4.09,4.35,9.61,7.26,15.67,9.38c6.65,2.33,13.47,4.15,20.38,5.11
			c0.71-1.77,1.38-3.61,2.05-5.5c-5.29-0.68-10.5-1.94-15.67-3.5c-7.55-2.26-15.8-5.17-20.21-11.75
			C846.57,242.77,845.84,244.86,845.06,246.86z"/>
		<path class="st2" d="M853.39,208.06c5.76,2.48,12.57,3.08,18.62,3.46c6.77,0.42,13.52,0.01,20.16-1.09
			c0.13-1.93,0.22-3.89,0.27-5.88c-4.94,0.91-9.95,1.4-15.03,1.38c-7.17-0.04-17.12-0.1-23.76-4.12
			C853.6,203.94,853.52,206.02,853.39,208.06z"/>
		<path class="st2" d="M848.78,159.79c0.5,2.02,0.95,3.99,1.34,5.95c11.35,1.3,22.87,0.73,33.97-2.12c1.66-0.43,3.33-0.91,4.94-1.48
			l-1.09-5.5c-4.29,1.64-9.19,2.38-13,2.98C866.23,161.01,857.48,160.93,848.78,159.79z"/>
		<path class="st2" d="M835.18,118.57c0.76,1.89,1.53,3.83,2.29,5.82c13.03,0.27,27.55-2.02,37.83-9.78
			c-0.69-1.89-1.4-3.74-2.12-5.59C863.48,117.41,847.96,119.15,835.18,118.57z"/>
		<path class="st2" d="M819.26,86.3c1.01,1.64,2.02,3.34,3.01,5.13c12.86-3.13,24.53-10.01,33.38-19.8
			c-1.01-1.8-2.04-3.54-3.08-5.26C843.97,76.48,832.26,83.53,819.26,86.3z"/>
		<path class="st2" d="M797.34,59.74c1.63,1.34,3.3,2.85,5,4.54c6.83-2.39,13.47-6.91,18.3-11.15c4.72-4.12,8.44-9.2,10.59-14.89
			c0,0,0,0,0-0.01c-1.54-1.58-3.1-3.1-4.67-4.54c-1.53,5.85-5,11-9.81,15.19C811.98,53.03,804.35,58.17,797.34,59.74z"/>
		<path class="st2" d="M779.78,49.96c6.84-10.44,5.11-26.3,2.48-39.3l-6.21-0.85c1.15,6.21,1.89,12.47,2.1,18.81
			c0.24,6.91,0.22,14.6-4.55,20.02L779.78,49.96z"/>
		<path class="st2" d="M728.31,19.13c3.08,2.29,5.98,4.82,8.57,7.7c7.19,7.99,9.43,16.78,9.71,26.64c1.43-0.65,2.94-1.28,4.51-1.86
			c0.4-0.14,0.79-0.29,1.18-0.42c-0.48-8.91-2.56-17.18-8.35-24.86c-2.82-3.74-6.12-6.98-9.69-9.88L728.31,19.13z"/>
		<path class="st2" d="M690.91,57.48c7.1,1.25,14.39,3.97,19.17,5.98c6.05,2.51,11.55,5.98,16.12,10.43
			c0.78-1.89,1.68-3.66,2.71-5.33c-4.93-4.46-10.73-7.98-17.02-10.58c-6.01-2.48-12.34-4.08-18.72-5.2
			C692.37,54.31,691.62,55.88,690.91,57.48z"/>
		<path class="st2" d="M683.05,99.63c7.22-1.31,15.08-0.99,21.82-0.12c6.94,0.92,12.43,3.76,17.28,7.66
			c-0.17-2.58-0.27-5.01-0.27-7.33c-4.16-2.72-8.78-4.75-14.19-5.7c-7.49-1.32-16.33-1.73-24.55-0.39v0.01
			C683.05,95.7,683.02,97.65,683.05,99.63z"/>
		<path class="st2" d="M688.3,141.57c0.4,1.84,0.85,3.72,1.32,5.6c13.8-2.85,27.78-2.03,40.86,2.33c-0.66-2.23-1.28-4.42-1.86-6.54
			C715.61,139.25,701.9,138.73,688.3,141.57z"/>
		<path class="st2" d="M701.28,184.77c0.73,2.03,1.5,4.09,2.3,6.16c0.17-0.16,0.33-0.35,0.48-0.56c4.44-6.61,15.68-5.57,22.65-5.89
			c5.4-0.23,10.76-0.26,16.1,0.09c-0.81-2-1.58-3.96-2.32-5.9c-7.88-0.35-15.78,0.04-23.65,0.66
			C710.99,179.78,705.37,180.77,701.28,184.77z"/>
		<path class="st2" d="M715.35,219.44c0.86,1.93,1.73,3.87,2.64,5.85c8.7-11,24.04-11.72,37.82-10.8c-0.92-1.99-1.83-3.95-2.69-5.88
			C739.34,208.06,724.68,209.65,715.35,219.44z"/>
		<path class="st2" d="M709.99,212.81l12.67,29.57c0.86,2.04,15.19,3.43,23.83-0.89c0.04-0.01,0.07-0.04,0.12-0.06
			c8.6-4.35,16.63-14.03,15.76-16.06l-12.66-29.57c-1.51-3.53-5.63-5.17-9.16-3.66l-14.76,6.32l-12.13,5.2
			C710.14,205.17,708.48,209.29,709.99,212.81z"/>
		<path class="st7" d="M709.99,212.81l12.67,29.57c0.86,2.04,15.19,3.43,23.83-0.89c0.04-0.01,0.07-0.04,0.12-0.06
			c-4.87-12.11-13.54-32.45-20.82-42.96l-12.13,5.2C710.14,205.17,708.48,209.29,709.99,212.81z"/>
		<path class="st24" d="M112.91,660c-6-2-18,4-22,9s-76,80-76,80v28l134-62C148.91,715,118.91,662,112.91,660z"/>
		<circle class="st2" cx="139.41" cy="711.5" r="3.5"/>
		<circle class="st2" cx="113.41" cy="670.5" r="3.5"/>
		<path class="st25" d="M14.91,777l0.31-0.14c-0.2,0.18-0.31,0.31-0.31,0.36c0,1.44,144.01-53.28,154.09-61.93
			c10.08-8.64-5.76-33.12,10.08-46.08c9.04-7.39,130.51-52.27,233.22-89.46c3.75,7.13,8.01,13.86,10.16,14.57
			c4.32,1.44,25.92,2.88,36,2.88s41.76-5.76,44.64-10.08c1.63-2.45,9.26-15.97,15.05-28.03c4.45-9.25,7.81-17.63,6.55-19.5
			c-0.05-0.07-0.1-0.13-0.15-0.19c2.14-0.76,4.19-1.5,6.14-2.19c6.77,5.26,18.22,12.3,21.74,15.82c4.67,4.67,4.67,1.56,23.33,1.56
			c18.66,0,22.58-18.17,28-28c4.32-7.86,5.66-15.12,5.24-21.69c1.36-0.34,3.77-1.35,5.27-2.64c1.53,0.5,4.7-0.14,7.51-1.25
			c2.52,1.53,5.78,2.49,9.2,3.04c-3.35,6.16-10.2,16.22-11.23,18.26c-1.44,2.88-57.61,73.45-59.05,87.85
			c-0.35,3.55,4.02,8.85,10.93,14.77c-3.8,1.49-6.66,5.14-5.49,10.29c0.17,0.75,0.37,1.46,0.59,2.15c-4.35,2.07-7.16,6.9-3.91,12.18
			c0.84,1.37,1.75,2.7,2.71,3.97c-2.95,1.75-4.68,5.25-2.41,9.06c0.38,0.64,0.77,1.29,1.17,1.92c-1.74,1.41-2.62,3.66-1.59,6.56
			c0.38,1.05,0.79,2.02,1.24,2.92c-2.88,1.76-4.48,5.17-2.08,8.84c2.73,4.17,5.55,8.16,9.59,10.95c-4.68,0.93-9.82,1.86-10.75,2.79
			c-1.44,1.44,7.2,27.36,8.64,30.24c1.44,2.88,17.28,38.88,21.6,43.2c4.32,4.32,17.28,12.96,17.28,15.84s10.08,12.96,12.96,15.84
			c0.7,0.7,2.33,1.05,4.45,1.16c9.92,14.49,32.99,46.68,32.99,47.81c0,1.44-4.32,11.52-5.76,12.96c-1.44,1.44-7.2,5.76-8.64,7.2
			c-1.44,1.44-17.28,28.8-15.84,34.56c0.72,2.91,5.14,6.19,9.88,8.54c4.64,2.29,9.59,3.69,11.72,2.98
			c4.32-1.44,67.69-47.52,67.69-47.52s8.64-4.32,11.52-7.2c2.88-2.88,14.4-15.84,15.84-18.72c1.35-2.69-4.87-10.44-8.04-12.59
			c-0.22-0.16-0.42-0.29-0.6-0.37c-2.88-1.44-7.2-11.52-8.64-14.4c-1.44-2.88-1.44-2.88-4.32-4.32c-2.88-1.44-12.96-14.4-14.4-15.84
			c-1.12-1.12-8.34-17.05-11.49-24.07c0.2-0.72,0.22-1.35-0.03-1.85c-1.44-2.88-34.56-47.52-40.32-50.4
			c-5.76-2.88-10.08-21.6-15.84-23.04c-0.82-0.21-1.94-0.39-3.22-0.54c1.6-1.22,2.58-3.05,2.91-4.96c3.63-2.6,2.82-8.69-0.9-11.5
			c3.39-1.75,5.18-5.39,5.26-8.91c0.87-2.03,1.11-4.33,0.66-6.43c7.01-2.65,8.25-5.11,8.25-5.11s1.01,4.96,5.47,7.47
			c0.44,6.02,2.3,13.26,3.96,16.11c-0.71,2.35,0.46,5.14,3.09,5.6c0.56,0.59,1.27,1.12,2.09,1.59c-0.29,0.18-0.58,0.4-0.86,0.68
			c-0.12,0.13-0.25,0.25-0.37,0.38c-1.91,1.95-1.61,5.27,0.41,6.75c-0.03,1.55,0.44,3.08,1.67,4.46c-1.23,2.48-0.06,5.85,2.91,6.31
			c-0.1,3.07,1.68,6.76,6.05,11.23c-0.71,0.94-1.19,1.87-1.38,2.78c-1.44,7.2,23.04,28.8,24.48,31.68
			c1.44,2.88,27.36,24.48,31.68,24.48c4.32,0,47.52,30.24,54.72,34.56c3.41,2.04,7.13,2.79,10.57,2.87
			c5.67,7.83,21.55,28.04,23.99,31.7c2.88,4.32,0,15.84,0,18.72s-10.08,8.64-17.28,15.84c-7.2,7.2-11.52,24.48-10.08,30.24
			c1.02,4.12,7.2,10.44,12.75,13.71c2.22,1.31,4.33,2.13,5.98,2.13c5.76,0,72.01-56.17,73.45-59.05c1.44-2.88,7.2-4.32,12.96-8.64
			c5.76-4.32,15.84-18.72,17.28-24.48s-10.08-10.08-10.08-12.96c0-1.17-2.15-2.82-4.88-4.57c-4-2.52-9.25-5.24-10.96-6.96
			c-2.88-2.88-1.44-8.64-2.88-10.08s-8.64-8.64-12.96-8.64c-3.3,0-16.64-15.08-22.79-22.23c0.74-1.35,1.19-2.25,1.19-2.25
			c1.44-4.32,0-7.2,0-11.52c0-4.32-23.04-10.08-27.36-15.84c-4.32-5.76-27.36-12.96-28.8-18.72c-1.44-5.76-35.77-27.69-41.76-31.68
			c-1.53-1.02-4.33-1.14-7.37-0.86c-0.64-2.46-2.12-5.01-5.29-6.53c0.55-0.43,0.95-0.86,1.14-1.25c0.4-0.8,0.09-2.11-0.54-3.58
			c1.18-1.5,1.41-3.66,0.6-5.17c1.35-2.18,0.64-6.07-0.43-9.44c0.83-0.6,1.44-1.25,1.8-1.97c5.76-11.52,5.76-12.96,8.64-14.4
			c2.88-1.44,8.64-7.2,8.64-10.08c0-2.88,2.88-37.44,2.88-44.64c0-7.2,20.16-33.12,18.72-40.32c-0.51-2.55-2.29-12.15-4.56-23.73
			c5.5,7.02,10.47,10.95,14.64,10.77c24.06-1.05,68.68-18.82,94.57-37.3c9.74-6.96,16.84-14.01,19.2-20.31
			c5.05-13.46-26.32-100.92-58.13-172.03c7.09-7.64,17.57-20.88,26.29-39.83c1.27-2.75,2.52-5.67,3.72-8.78
			c0.71-1.77,1.38-3.61,2.05-5.5c4.39-12.64,7.92-27.84,9.02-45.42c0.13-1.93,0.22-3.89,0.27-5.88c0.39-12.95-0.55-27.1-3.41-42.41
			l-1.09-5.5c-1.44-6.8-3.25-13.8-5.5-21.01c-2.28-7.32-4.65-14.31-7.13-21.01c-0.69-1.89-1.4-3.74-2.12-5.59
			c-5.39-13.9-11.23-26.37-17.54-37.4c-1.01-1.8-2.05-3.54-3.08-5.26c-6.65-10.93-13.77-20.31-21.34-28.13c0,0,0,0,0-0.01
			c-1.54-1.58-3.1-3.1-4.67-4.54c-7.23-6.7-14.85-12.03-22.85-15.96c-6.91-3.4-14.1-5.76-21.44-7.07c-2.06-0.36-4.13-0.65-6.2-0.85
			l0,0v0c-12.56-1.21-25.53,0.56-38.47,5.34c-1.14,0.42-2.26,0.86-3.36,1.31c-2.03,0.84-4,1.71-5.92,2.66
			c-15.76,7.72-27.52,19-35.15,33.64c-0.79,1.54-1.54,3.11-2.25,4.71c-0.45,1.02-0.88,2.06-1.3,3.11
			c-3.86,9.82-6.02,20.85-6.48,33.17v0.01c-0.09,1.93-0.12,3.87-0.09,5.86c0.04,12.69,1.8,26.66,5.26,41.94
			c0.4,1.84,0.85,3.72,1.32,5.6c2.91,11.77,6.78,24.3,11.65,37.6c0.73,2.03,1.5,4.09,2.3,6.16c2.01,5.29,4.18,10.71,6.49,16.24
			c-0.79,1.73-0.89,3.76-0.08,5.64l12.66,29.55c-3.57,2.66-7,5.36-10.26,8.06c-2.81-4.23-6.52-9.03-9.09-11.96
			c0.5-1.81,0.58-3.3-0.01-4.18c-0.52-0.76-1.02-2.17-1.53-3.97c-2.29-8.28-4.23-24.83-4.23-24.83c0-17.89-4.15-34.76-11.51-49.67
			c-17.51-35.48-53.18-59.78-94.34-59.78c-28.04,0-53.53,11.28-72.47,29.67c-8.09,7.86-14.98,17.02-20.38,27.16
			c-4.67,8.77-8.19,18.29-10.38,28.31c-1.08,4.94-1.84,9.99-2.26,15.16c-0.25,3.11,2.72,5.27,5.47,4.55
			c-0.99,5.71-1.51,11.58-1.51,17.56c0,55.52,44.26,100.71,99.43,102.21c0,0-0.01,0.01-0.01,0.01c-0.34,0.27-0.67,0.54-0.99,0.8
			c-0.08,0.07-0.17,0.13-0.25,0.2c-0.94,0.77-1.83,1.49-2.65,2.16c-0.03,0.02-0.06,0.05-0.08,0.07c-0.4,0.33-0.8,0.65-1.17,0.96
			c-0.01,0.01-0.01,0.01-0.02,0.02c-0.36,0.3-0.71,0.59-1.04,0.86c-0.07,0.06-0.13,0.11-0.19,0.16c-0.24,0.2-0.46,0.39-0.68,0.57
			c-0.09,0.08-0.19,0.16-0.28,0.23c-0.22,0.19-0.43,0.37-0.63,0.54c-0.09,0.08-0.18,0.15-0.26,0.23c-0.16,0.14-0.31,0.27-0.45,0.4
			c-0.08,0.07-0.16,0.14-0.23,0.21c-0.12,0.1-0.22,0.2-0.32,0.3c-0.06,0.05-0.12,0.11-0.17,0.15c-0.13,0.13-0.25,0.24-0.35,0.34
			c-0.03,0.03-0.05,0.06-0.08,0.09c-0.07,0.07-0.12,0.13-0.17,0.19c-0.02,0.02-0.04,0.04-0.05,0.06c-0.05,0.06-0.08,0.11-0.08,0.14
			c0,0.35,0,0.85,0.04,1.43c0.12,1.83,0.65,4.33,2.84,4.33c0.12,0,0.47-0.1,1-0.3c-0.26,3.15-0.4,7.26,0.44,8.94
			c1.44,2.88,2.88,10.08,1.44,11.52c-0.45,0.45-0.33,4.22,0.32,9.87c-6.09,7.01-12.54,14.57-13.28,16.05c-1.44,2.88,0,54.72,0,61.93
			c0,2.01-9.3,7.26-22.7,13.8c7.54-8.47,9.99-20.9,5.2-31.95l-28.62-66.07c-3.13-7.23-11.6-10.58-18.83-7.45l-56.2,24.34
			c-7.23,3.13-10.58,11.6-7.45,18.83l28.62,66.07c5.11,11.79,16.99,18.66,29.15,18.04c-25.78,11.16-48.71,20.56-48.71,20.56
			L107.08,657.68c0,0-0.21,0.96-0.58,2.39c-5.89,1.34-12.75,5.38-15.58,8.92c-4,5-76,80-76,80V777z M760.38,220.73l-10.67-24.92
			c-0.75-1.76-2.16-3.05-3.81-3.71c-1.07-2.55-2.1-5.06-3.09-7.52c-0.81-2-1.58-3.96-2.32-5.9c-4.1-10.61-7.4-20.31-10.01-29.16
			c-0.66-2.23-1.28-4.42-1.86-6.54c-3.8-14.11-5.79-25.92-6.48-35.79c-0.17-2.58-0.27-5.01-0.27-7.33
			c-0.04-5.67,0.39-10.58,1.15-14.86c0.69-3.92,1.66-7.29,2.79-10.2c0.12-0.3,0.24-0.6,0.37-0.91c0.78-1.89,1.68-3.66,2.71-5.33
			c3.96-6.48,9.74-11.41,17.68-15.08c1.43-0.65,2.94-1.28,4.51-1.86c0.4-0.14,0.79-0.29,1.18-0.42c7.49-2.62,14.55-3.47,21.33-2.56
			l6.18,1.32c0,0,0,0,0,0c2.28,0.68,4.52,1.57,6.74,2.66c3.33,1.63,6.96,3.92,10.82,7.11c1.63,1.34,3.3,2.85,5,4.54
			c5.4,5.34,11.12,12.49,16.92,22.02c1.01,1.64,2.02,3.34,3.01,5.13c4.31,7.63,8.64,16.59,12.92,27.15
			c0.76,1.89,1.53,3.83,2.29,5.82c2.65,6.94,5.27,14.52,7.83,22.78c1.34,4.31,2.49,8.51,3.47,12.62c0.5,2.02,0.95,3.99,1.34,5.95
			c2.72,13.08,3.73,25.12,3.53,36.08c-0.04,2.13-0.13,4.21-0.26,6.25c-0.76,12.26-3.04,23.1-6.11,32.53
			c-0.71,2.17-1.44,4.26-2.22,6.26c-3.74,9.71-8.2,17.68-12.4,23.93c-15.82-31.66-29.87-54.23-37.2-55.22
			C783.99,214.01,772.05,216.26,760.38,220.73z"/>
	</g>
</g>
</svg>
