<?xml version="1.0" encoding="utf-8"?>
<!-- Generator: Adobe Illustrator 23.0.4, SVG Export Plug-In . SVG Version: 6.00 Build 0)  -->
<svg version="1.1" xmlns="http://www.w3.org/2000/svg" xmlns:xlink="http://www.w3.org/1999/xlink" x="0px" y="0px"
	 viewBox="0 0 775 950" style="enable-background:new 0 0 775 950;" xml:space="preserve">
<style type="text/css">
	.st0{display:none;}
	.st1{fill:#1F1646;}
	.st2{fill:#2C3439;}
	.st3{fill:#3A474E;}
	.st4{fill:#9E3223;}
	.st5{fill:#000B8C;}
	.st6{fill:#5E7775;}
	.st7{fill:#FFFFFF;}
	.st8{fill:#FF9D6C;}
	.st9{fill:#F0EA9B;}
	.st10{fill:none;stroke:#1F1646;stroke-width:4;stroke-linecap:round;stroke-miterlimit:10;}
	.st11{fill:none;stroke:#000000;stroke-width:3;stroke-miterlimit:10;}
	.st12{fill:#065187;}
	.st13{fill:#1B1464;}
	.st14{fill:#291918;}
	.st15{fill:#160D0D;}
	.st16{fill:#3C0458;}
	.st17{fill:#24338A;}
	.st18{fill:#211B5A;}
	.st19{fill:#1B2668;}
	.st20{fill:#1B0300;}
	.st21{fill:#29388D;}
	.st22{fill:#AFB1B4;}
	.st23{opacity:0.57;fill:#B0B1B4;}
	.st24{fill:none;stroke:#000000;stroke-width:2;stroke-miterlimit:10;}
</style>
<g id="Layer_1" class="st0">
</g>
<g id="Layer_2">
	<rect x="-5.31" y="0" class="st1" width="780.31" height="950"/>
	<path class="st2" d="M-5.31,801.17c50.99-14.5,101.57-31.6,154.16-39.52c32.37-4.87,67.45,2.64,100.03-5.61
		c22.79-5.77,39.1-21.71,57.66-35.11c50.21-36.26,92.07-81.13,158.6-73.94c26.17,2.83,52.07,7.83,78.06,11.84
		c12.82,1.98,38.55,10.02,50.98,3.24c15.3-8.35,122.4-57.03,140.48-61.2s40.34-1.39,40.34-1.39V950H-5.31
		C-5.31,950-5.31,801.17-5.31,801.17z"/>
	<path class="st3" d="M-5.31,916.62c33.62-3.46,73.92-4.81,101.5-25.41c15.19-11.35,37.84-13.16,56.11-13.02
		c20.09,0.16,39.04,8.86,59.22,8.18c16.49-0.55,33.52-4.71,49.58-8.2c20.11-4.37,54.58-7.22,71.59-19.98
		c41.72-31.25,90.17-38.43,138.74-52.29c26.69-7.61,52.65-18.14,80.15-22.69c34.79-5.76,59.15,4.52,88.65-20.27
		c11.46-9.63,20.04-22.68,30.63-33.23c25.06-24.97,71.11-22.63,104.14-30.2V950H-5.31C-5.31,950-5.31,916.62-5.31,916.62z"/>
</g>
</svg>
